<svg width="2760" height="1810" viewBox="45 -1885 2760 1810" xmlns="http://www.w3.org/2000/svg" xmlns:xlink="http://www.w3.org/1999/xlink"><defs><style type="text/css">.l3d0 {fill: #fef9e7; fill-opacity: 0.5; stroke-width: 10; stroke: #f1c40f; stroke-linecap: round; stroke-linejoin: round; stroke-opacity: 0.2;}.l25d0 {fill: #8e44ad; fill-opacity: 0.05; stroke-width: 10; stroke: #8e44ad; stroke-linecap: round; stroke-linejoin: round; stroke-opacity: 1;}.l26d0 {fill: #ccd1d1; fill-opacity: 0.05; stroke-width: 10; stroke: #ccd1d1; stroke-linecap: round; stroke-linejoin: round; stroke-opacity: 1;}.l6d0 {fill: #f5b7b1; fill-opacity: 1; stroke-width: 10; stroke: #e74c3c; stroke-linecap: round; stroke-linejoin: round; stroke-opacity: 1;}.l17d0 {fill: #2980b9; fill-opacity: 1; stroke-width: 0; stroke: #000000; stroke-linecap: round; stroke-linejoin: round; stroke-opacity: 0;}.l17d7 {fill: #2980b9; fill-opacity: 1; stroke-width: 0; stroke: #000000; stroke-linecap: round; stroke-linejoin: round; stroke-opacity: 0;}.l30d0 {fill: #27ae60; fill-opacity: 1; stroke-width: 0; stroke: #000000; stroke-linecap: round; stroke-linejoin: round; stroke-opacity: 0;}.l31d0 {fill: #85c1e9; fill-opacity: 0.6; stroke-width: 0; stroke: #000000; stroke-linecap: round; stroke-linejoin: round; stroke-opacity: 0;}.l51d0 {fill: #f39c12; fill-opacity: 1; stroke-width: 10; stroke: #f39c12; stroke-linecap: round; stroke-linejoin: round; stroke-opacity: 1;}.l32d0 {fill: #f7dc6f; fill-opacity: 0.6; stroke-width: 0; stroke: #000000; stroke-linecap: round; stroke-linejoin: round; stroke-opacity: 0;}path {fill-rule: evenodd;}</style></defs><g transform="scale(1 -1)"><g id="NW"><g class="l3d0"><path d="M 2800,960 L 2520,960 L 50,960 L 50,1640 L 50,1880 L 2800,1880 L 2800,1640 Z" /></g></g><g id="PP"><g class="l25d0"><path d="M 540,1680 L 670,1680 L 750,1680 L 930,1680 L 1060,1680 L 1190,1680 L 1270,1680 L 1400,1680 L 1530,1680 L 2560,1680 L 2620,1680 L 2760,1680 L 2760,960 L 2560,960 L 230,960 L 90,960 L 90,1680 L 230,1680 L 410,1680 Z" /><path d="M 2760,240 L 2760,80 L 90,80 L 90,240 Z" /></g></g><g id="NP"><g class="l26d0"><path d="M 2760,960 L 2760,240 L 2620,240 L 2560,240 L 1530,240 L 1400,240 L 1270,240 L 1190,240 L 1060,240 L 930,240 L 750,240 L 670,240 L 540,240 L 410,240 L 230,240 L 90,240 L 90,960 L 2560,960 Z" /><path d="M 2760,1840 L 2760,1680 L 90,1680 L 90,1840 Z" /></g></g><g id="OD"><g class="l6d0"><path d="M 475,1535 L 500,1535 L 530,1535 L 605,1535 L 605,1435 L 530,1435 L 500,1435 L 475,1435 L 400,1435 L 370,1435 L 295,1435 L 295,1535 L 370,1535 L 400,1535 Z" /><path d="M 995,1535 L 1020,1535 L 1050,1535 L 1125,1535 L 1125,1435 L 1050,1435 L 1020,1435 L 995,1435 L 920,1435 L 890,1435 L 815,1435 L 815,1535 L 890,1535 L 920,1535 Z" /><path d="M 2320,1435 L 2220,1435 L 2190,1435 L 2090,1435 L 2060,1435 L 1960,1435 L 1930,1435 L 1830,1435 L 1800,1435 L 1700,1435 L 1670,1435 L 1570,1435 L 1540,1435 L 1465,1435 L 1440,1435 L 1410,1435 L 1335,1435 L 1335,1535 L 1410,1535 L 1440,1535 L 1465,1535 L 1540,1535 L 1570,1535 L 1670,1535 L 1700,1535 L 1800,1535 L 1830,1535 L 1930,1535 L 1960,1535 L 2060,1535 L 2090,1535 L 2190,1535 L 2220,1535 L 2320,1535 L 2350,1535 L 2450,1535 L 2480,1535 L 2555,1535 L 2555,1435 L 2480,1435 L 2450,1435 L 2350,1435 Z" /><path d="M 475,485 L 500,485 L 530,485 L 605,485 L 605,385 L 530,385 L 500,385 L 475,385 L 400,385 L 370,385 L 295,385 L 295,485 L 370,485 L 400,485 Z" /><path d="M 995,485 L 1020,485 L 1050,485 L 1125,485 L 1125,385 L 1050,385 L 1020,385 L 995,385 L 920,385 L 890,385 L 815,385 L 815,485 L 890,485 L 920,485 Z" /><path d="M 2320,385 L 2220,385 L 2190,385 L 2090,385 L 2060,385 L 1960,385 L 1930,385 L 1830,385 L 1800,385 L 1700,385 L 1670,385 L 1570,385 L 1540,385 L 1465,385 L 1440,385 L 1410,385 L 1335,385 L 1335,485 L 1410,485 L 1440,485 L 1465,485 L 1540,485 L 1570,485 L 1670,485 L 1700,485 L 1800,485 L 1830,485 L 1930,485 L 1960,485 L 2060,485 L 2090,485 L 2190,485 L 2220,485 L 2320,485 L 2350,485 L 2450,485 L 2480,485 L 2555,485 L 2555,385 L 2480,385 L 2450,385 L 2350,385 Z" /><path d="M 2730,1810 L 2730,1710 L 120,1710 L 120,1810 Z" /><path d="M 2730,210 L 2730,110 L 120,110 L 120,210 Z" /></g></g><g id="PO"><g class="l17d0"><path d="M 370,1535 L 370,1615 L 400,1615 L 400,1535 L 400,1435 L 400,1355 L 400,1115 L 400,1055 L 400,565 L 400,485 L 400,385 L 400,305 L 370,305 L 370,385 L 370,485 L 370,565 L 370,1055 L 370,1115 L 370,1355 L 370,1435 Z" /><path d="M 2450,485 L 2450,565 L 2449,565 L 2449,1355 L 2450,1355 L 2450,1435 L 2450,1535 L 2450,1615 L 2480,1615 L 2480,1535 L 2480,1435 L 2480,1355 L 2480,915 L 2480,855 L 2480,565 L 2480,485 L 2480,385 L 2480,305 L 2450,305 L 2450,385 Z" /><path d="M 2320,485 L 2320,565 L 2320,855 L 2320,915 L 2320,1355 L 2320,1435 L 2320,1535 L 2320,1615 L 2350,1615 L 2350,1535 L 2350,1435 L 2350,1355 L 2350,915 L 2350,855 L 2350,565 L 2350,485 L 2350,385 L 2350,305 L 2320,305 L 2320,385 Z" /><path d="M 2190,485 L 2190,565 L 2190,855 L 2190,915 L 2190,1355 L 2190,1435 L 2190,1535 L 2190,1615 L 2220,1615 L 2220,1535 L 2220,1435 L 2220,1355 L 2220,915 L 2220,855 L 2220,565 L 2220,485 L 2220,385 L 2220,305 L 2190,305 L 2190,385 Z" /><path d="M 2060,485 L 2060,565 L 2060,855 L 2060,915 L 2060,1355 L 2060,1435 L 2060,1535 L 2060,1615 L 2090,1615 L 2090,1535 L 2090,1435 L 2090,1355 L 2090,915 L 2090,855 L 2090,565 L 2090,485 L 2090,385 L 2090,305 L 2060,305 L 2060,385 Z" /><path d="M 1930,485 L 1930,565 L 1930,855 L 1930,915 L 1930,1355 L 1930,1435 L 1930,1535 L 1930,1615 L 1960,1615 L 1960,1535 L 1960,1435 L 1960,1355 L 1960,915 L 1960,855 L 1960,565 L 1960,485 L 1960,385 L 1960,305 L 1930,305 L 1930,385 Z" /><path d="M 1800,485 L 1800,565 L 1800,855 L 1800,915 L 1800,1355 L 1800,1435 L 1800,1535 L 1800,1615 L 1830,1615 L 1830,1535 L 1830,1435 L 1830,1355 L 1829,1355 L 1829,915 L 1830,915 L 1830,855 L 1829,855 L 1829,565 L 1830,565 L 1830,485 L 1830,385 L 1830,305 L 1800,305 L 1800,385 Z" /><path d="M 1670,485 L 1670,565 L 1670,855 L 1670,915 L 1670,1355 L 1670,1435 L 1670,1535 L 1670,1615 L 1700,1615 L 1700,1535 L 1700,1435 L 1700,1355 L 1700,915 L 1700,855 L 1700,565 L 1700,485 L 1700,385 L 1700,305 L 1670,305 L 1670,385 Z" /><path d="M 1540,485 L 1540,565 L 1540,855 L 1540,915 L 1540,1355 L 1540,1435 L 1540,1535 L 1540,1615 L 1570,1615 L 1570,1535 L 1570,1435 L 1570,1355 L 1569,1355 L 1569,915 L 1570,915 L 1570,855 L 1569,855 L 1569,565 L 1570,565 L 1570,485 L 1570,385 L 1570,305 L 1540,305 L 1540,385 Z" /><path d="M 1410,485 L 1410,565 L 1410,955 L 1410,1015 L 1410,1355 L 1410,1435 L 1410,1535 L 1410,1615 L 1440,1615 L 1440,1535 L 1440,1435 L 1440,1355 L 1440,1015 L 1440,955 L 1440,565 L 1440,485 L 1440,385 L 1440,305 L 1410,305 L 1410,385 Z" /><path d="M 1020,485 L 1020,565 L 1020,855 L 1020,915 L 1020,1355 L 1020,1435 L 1020,1535 L 1020,1615 L 1050,1615 L 1050,1535 L 1050,1435 L 1050,1355 L 1049,1355 L 1049,915 L 1050,915 L 1050,855 L 1049,855 L 1049,565 L 1050,565 L 1050,485 L 1050,385 L 1050,305 L 1020,305 L 1020,385 Z" /><path d="M 890,1535 L 890,1615 L 920,1615 L 920,1535 L 920,1435 L 920,1355 L 920,1015 L 920,955 L 920,565 L 920,485 L 920,385 L 920,305 L 890,305 L 890,385 L 890,485 L 890,565 L 890,955 L 890,1015 L 890,1355 L 890,1435 Z" /><path d="M 500,485 L 500,565 L 500,855 L 500,915 L 500,1355 L 500,1435 L 500,1535 L 500,1615 L 530,1615 L 530,1535 L 530,1435 L 530,1355 L 530,915 L 530,855 L 530,565 L 530,485 L 530,385 L 530,305 L 500,305 L 500,385 Z" /></g><g class="l17d7"><path d="M 110,240 L 140,240 L 140,630 L 110,630 Z" /><path d="M 240,240 L 270,240 L 270,630 L 240,630 Z" /><path d="M 110,1290 L 140,1290 L 140,1680 L 110,1680 Z" /><path d="M 240,1290 L 270,1290 L 270,1680 L 240,1680 Z" /><path d="M 2710,1290 L 2740,1290 L 2740,1680 L 2710,1680 Z" /><path d="M 2580,1290 L 2610,1290 L 2610,1680 L 2580,1680 Z" /><path d="M 760,1290 L 760,1680 L 790,1680 L 790,1290 Z" /><path d="M 630,1290 L 630,1680 L 660,1680 L 660,1290 Z" /><path d="M 1150,1290 L 1150,1680 L 1180,1680 L 1180,1290 Z" /><path d="M 1280,1290 L 1280,1680 L 1310,1680 L 1310,1290 Z" /><path d="M 2710,240 L 2740,240 L 2740,630 L 2710,630 Z" /><path d="M 2580,240 L 2610,240 L 2610,630 L 2580,630 Z" /><path d="M 760,240 L 760,630 L 790,630 L 790,240 Z" /><path d="M 630,240 L 630,630 L 660,630 L 660,240 Z" /><path d="M 1150,240 L 1150,630 L 1180,630 L 1180,240 Z" /><path d="M 1280,240 L 1280,630 L 1310,630 L 1310,240 Z" /></g></g><g id="CO"><g class="l30d0"><path d="M 170,1740 L 210,1740 L 210,1780 L 170,1780 Z" /><path d="M 300,1740 L 340,1740 L 340,1780 L 300,1780 Z" /><path d="M 430,1740 L 470,1740 L 470,1780 L 430,1780 Z" /><path d="M 560,1740 L 600,1740 L 600,1780 L 560,1780 Z" /><path d="M 690,1740 L 730,1740 L 730,1780 L 690,1780 Z" /><path d="M 820,1740 L 860,1740 L 860,1780 L 820,1780 Z" /><path d="M 950,1740 L 990,1740 L 990,1780 L 950,1780 Z" /><path d="M 1080,1740 L 1120,1740 L 1120,1780 L 1080,1780 Z" /><path d="M 1210,1740 L 1250,1740 L 1250,1780 L 1210,1780 Z" /><path d="M 1340,1740 L 1380,1740 L 1380,1780 L 1340,1780 Z" /><path d="M 1470,1740 L 1510,1740 L 1510,1780 L 1470,1780 Z" /><path d="M 1600,1740 L 1640,1740 L 1640,1780 L 1600,1780 Z" /><path d="M 1730,1740 L 1770,1740 L 1770,1780 L 1730,1780 Z" /><path d="M 1860,1740 L 1900,1740 L 1900,1780 L 1860,1780 Z" /><path d="M 1990,1740 L 2030,1740 L 2030,1780 L 1990,1780 Z" /><path d="M 2120,1740 L 2160,1740 L 2160,1780 L 2120,1780 Z" /><path d="M 2250,1740 L 2290,1740 L 2290,1780 L 2250,1780 Z" /><path d="M 2380,1740 L 2420,1740 L 2420,1780 L 2380,1780 Z" /><path d="M 2510,1740 L 2550,1740 L 2550,1780 L 2510,1780 Z" /><path d="M 2640,1740 L 2680,1740 L 2680,1780 L 2640,1780 Z" /><path d="M 170,140 L 210,140 L 210,180 L 170,180 Z" /><path d="M 300,140 L 340,140 L 340,180 L 300,180 Z" /><path d="M 430,140 L 470,140 L 470,180 L 430,180 Z" /><path d="M 560,140 L 600,140 L 600,180 L 560,180 Z" /><path d="M 690,140 L 730,140 L 730,180 L 690,180 Z" /><path d="M 820,140 L 860,140 L 860,180 L 820,180 Z" /><path d="M 950,140 L 990,140 L 990,180 L 950,180 Z" /><path d="M 1080,140 L 1120,140 L 1120,180 L 1080,180 Z" /><path d="M 1210,140 L 1250,140 L 1250,180 L 1210,180 Z" /><path d="M 1340,140 L 1380,140 L 1380,180 L 1340,180 Z" /><path d="M 1470,140 L 1510,140 L 1510,180 L 1470,180 Z" /><path d="M 1600,140 L 1640,140 L 1640,180 L 1600,180 Z" /><path d="M 1730,140 L 1770,140 L 1770,180 L 1730,180 Z" /><path d="M 1860,140 L 1900,140 L 1900,180 L 1860,180 Z" /><path d="M 1990,140 L 2030,140 L 2030,180 L 1990,180 Z" /><path d="M 2120,140 L 2160,140 L 2160,180 L 2120,180 Z" /><path d="M 2250,140 L 2290,140 L 2290,180 L 2250,180 Z" /><path d="M 2380,140 L 2420,140 L 2420,180 L 2380,180 Z" /><path d="M 2510,140 L 2550,140 L 2550,180 L 2510,180 Z" /><path d="M 2640,140 L 2680,140 L 2680,180 L 2640,180 Z" /><path d="M 300,415 L 340,415 L 340,455 L 300,455 Z" /><path d="M 430,415 L 470,415 L 470,455 L 430,455 Z" /><path d="M 820,415 L 860,415 L 860,455 L 820,455 Z" /><path d="M 950,415 L 990,415 L 990,455 L 950,455 Z" /><path d="M 300,1465 L 340,1465 L 340,1505 L 300,1505 Z" /><path d="M 430,1465 L 470,1465 L 470,1505 L 430,1505 Z" /><path d="M 820,1465 L 860,1465 L 860,1505 L 820,1505 Z" /><path d="M 950,1465 L 990,1465 L 990,1505 L 950,1505 Z" /><path d="M 2510,1465 L 2550,1465 L 2550,1505 L 2510,1505 Z" /><path d="M 2380,1465 L 2420,1465 L 2420,1505 L 2380,1505 Z" /><path d="M 2250,1465 L 2290,1465 L 2290,1505 L 2250,1505 Z" /><path d="M 2120,1465 L 2160,1465 L 2160,1505 L 2120,1505 Z" /><path d="M 1990,1465 L 2030,1465 L 2030,1505 L 1990,1505 Z" /><path d="M 1860,1465 L 1900,1465 L 1900,1505 L 1860,1505 Z" /><path d="M 1730,1465 L 1770,1465 L 1770,1505 L 1730,1505 Z" /><path d="M 1600,1465 L 1640,1465 L 1640,1505 L 1600,1505 Z" /><path d="M 1470,1465 L 1510,1465 L 1510,1505 L 1470,1505 Z" /><path d="M 560,1465 L 600,1465 L 600,1505 L 560,1505 Z" /><path d="M 1080,1465 L 1120,1465 L 1120,1505 L 1080,1505 Z" /><path d="M 1340,1465 L 1380,1465 L 1380,1505 L 1340,1505 Z" /><path d="M 2510,415 L 2550,415 L 2550,455 L 2510,455 Z" /><path d="M 2380,415 L 2420,415 L 2420,455 L 2380,455 Z" /><path d="M 2250,415 L 2290,415 L 2290,455 L 2250,455 Z" /><path d="M 2120,415 L 2160,415 L 2160,455 L 2120,455 Z" /><path d="M 1990,415 L 2030,415 L 2030,455 L 1990,455 Z" /><path d="M 1860,415 L 1900,415 L 1900,455 L 1860,455 Z" /><path d="M 1730,415 L 1770,415 L 1770,455 L 1730,455 Z" /><path d="M 1600,415 L 1640,415 L 1640,455 L 1600,455 Z" /><path d="M 1470,415 L 1510,415 L 1510,455 L 1470,455 Z" /><path d="M 560,415 L 600,415 L 600,455 L 560,455 Z" /><path d="M 1080,415 L 1120,415 L 1120,455 L 1080,455 Z" /><path d="M 1340,415 L 1380,415 L 1380,455 L 1340,455 Z" /><path d="M 365,1065 L 405,1065 L 405,1105 L 365,1105 Z" /><path d="M 2445,865 L 2485,865 L 2485,905 L 2445,905 Z" /><path d="M 2315,865 L 2355,865 L 2355,905 L 2315,905 Z" /><path d="M 2185,865 L 2225,865 L 2225,905 L 2185,905 Z" /><path d="M 2055,865 L 2095,865 L 2095,905 L 2055,905 Z" /><path d="M 1925,865 L 1965,865 L 1965,905 L 1925,905 Z" /><path d="M 1795,865 L 1835,865 L 1835,905 L 1795,905 Z" /><path d="M 1665,865 L 1705,865 L 1705,905 L 1665,905 Z" /><path d="M 1535,865 L 1575,865 L 1575,905 L 1535,905 Z" /><path d="M 1405,965 L 1445,965 L 1445,1005 L 1405,1005 Z" /><path d="M 1015,865 L 1055,865 L 1055,905 L 1015,905 Z" /><path d="M 885,965 L 925,965 L 925,1005 L 885,1005 Z" /><path d="M 495,865 L 535,865 L 535,905 L 495,905 Z" /></g></g><g id="M1"><g class="l31d0"><path d="M 425,1435 L 425,1535 L 425,1710 L 120,1710 L 120,1810 L 2730,1810 L 2730,1710 L 2555,1710 L 2555,1535 L 2555,1435 L 2505,1435 L 2505,1535 L 2505,1710 L 2295,1710 L 2295,1535 L 2295,1435 L 2245,1435 L 2245,1535 L 2245,1710 L 2035,1710 L 2035,1535 L 2035,1435 L 1985,1435 L 1985,1535 L 1985,1710 L 1775,1710 L 1775,1535 L 1775,1435 L 1725,1435 L 1725,1535 L 1725,1710 L 1515,1710 L 1515,1535 L 1515,1435 L 1465,1435 L 1465,1535 L 1465,1710 L 995,1710 L 995,1535 L 995,1435 L 945,1435 L 945,1535 L 945,1710 L 475,1710 L 475,1535 L 475,1435 Z" /><path d="M 475,485 L 475,385 L 475,210 L 945,210 L 945,385 L 945,485 L 995,485 L 995,385 L 995,210 L 1465,210 L 1465,385 L 1465,485 L 1515,485 L 1515,385 L 1515,210 L 1725,210 L 1725,385 L 1725,485 L 1775,485 L 1775,385 L 1775,210 L 1985,210 L 1985,385 L 1985,485 L 2035,485 L 2035,385 L 2035,210 L 2245,210 L 2245,385 L 2245,485 L 2295,485 L 2295,385 L 2295,210 L 2505,210 L 2505,385 L 2505,485 L 2555,485 L 2555,385 L 2555,210 L 2730,210 L 2730,110 L 120,110 L 120,210 L 425,210 L 425,385 L 425,485 Z" /><path d="M 295,320 L 295,380 L 295,385 L 295,485 L 295,490 L 295,550 L 345,550 L 345,490 L 345,485 L 345,385 L 345,380 L 345,320 Z" /><path d="M 555,320 L 555,380 L 555,385 L 555,485 L 555,490 L 555,550 L 605,550 L 605,490 L 605,485 L 605,385 L 605,380 L 605,320 Z" /><path d="M 815,320 L 815,380 L 815,385 L 815,485 L 815,490 L 815,550 L 865,550 L 865,490 L 865,485 L 865,385 L 865,380 L 865,320 Z" /><path d="M 1075,320 L 1075,380 L 1075,385 L 1075,485 L 1075,490 L 1075,550 L 1125,550 L 1125,490 L 1125,485 L 1125,385 L 1125,380 L 1125,320 Z" /><path d="M 1335,320 L 1335,380 L 1335,385 L 1335,485 L 1335,490 L 1335,550 L 1385,550 L 1385,490 L 1385,485 L 1385,385 L 1385,380 L 1385,320 Z" /><path d="M 1595,320 L 1595,380 L 1595,385 L 1595,485 L 1595,490 L 1595,550 L 1645,550 L 1645,490 L 1645,485 L 1645,385 L 1645,380 L 1645,320 Z" /><path d="M 1855,320 L 1855,380 L 1855,385 L 1855,485 L 1855,490 L 1855,550 L 1905,550 L 1905,490 L 1905,485 L 1905,385 L 1905,380 L 1905,320 Z" /><path d="M 2115,320 L 2115,380 L 2115,385 L 2115,485 L 2115,490 L 2115,550 L 2165,550 L 2165,490 L 2165,485 L 2165,385 L 2165,380 L 2165,320 Z" /><path d="M 2375,320 L 2375,380 L 2375,385 L 2375,485 L 2375,490 L 2375,550 L 2425,550 L 2425,490 L 2425,485 L 2425,385 L 2425,380 L 2425,320 Z" /><path d="M 2375,1370 L 2375,1430 L 2375,1435 L 2375,1535 L 2375,1540 L 2375,1600 L 2425,1600 L 2425,1540 L 2425,1535 L 2425,1435 L 2425,1430 L 2425,1370 Z" /><path d="M 2115,1370 L 2115,1430 L 2115,1435 L 2115,1535 L 2115,1540 L 2115,1600 L 2165,1600 L 2165,1540 L 2165,1535 L 2165,1435 L 2165,1430 L 2165,1370 Z" /><path d="M 1855,1370 L 1855,1430 L 1855,1435 L 1855,1535 L 1855,1540 L 1855,1600 L 1905,1600 L 1905,1540 L 1905,1535 L 1905,1435 L 1905,1430 L 1905,1370 Z" /><path d="M 1595,1370 L 1595,1430 L 1595,1435 L 1595,1535 L 1595,1540 L 1595,1600 L 1645,1600 L 1645,1540 L 1645,1535 L 1645,1435 L 1645,1430 L 1645,1370 Z" /><path d="M 1335,1370 L 1335,1430 L 1335,1435 L 1335,1535 L 1335,1540 L 1335,1600 L 1385,1600 L 1385,1540 L 1385,1535 L 1385,1435 L 1385,1430 L 1385,1370 Z" /><path d="M 1075,1370 L 1075,1430 L 1075,1435 L 1075,1535 L 1075,1540 L 1075,1600 L 1125,1600 L 1125,1540 L 1125,1535 L 1125,1435 L 1125,1430 L 1125,1370 Z" /><path d="M 815,1370 L 815,1430 L 815,1435 L 815,1535 L 815,1540 L 815,1600 L 865,1600 L 865,1540 L 865,1535 L 865,1435 L 865,1430 L 865,1370 Z" /><path d="M 555,1370 L 555,1430 L 555,1435 L 555,1535 L 555,1540 L 555,1600 L 605,1600 L 605,1540 L 605,1535 L 605,1435 L 605,1430 L 605,1370 Z" /><path d="M 295,1370 L 295,1430 L 295,1435 L 295,1535 L 295,1540 L 295,1600 L 345,1600 L 345,1540 L 345,1535 L 345,1435 L 345,1430 L 345,1370 Z" /><path d="M 2195,1010 L 2345,1010 L 2400,1010 L 2455,1010 L 2455,960 L 2400,960 L 2345,960 L 2195,960 L 2140,960 L 2085,960 L 1935,960 L 1880,960 L 1825,960 L 1675,960 L 1620,960 L 1565,960 L 1565,1010 L 1620,1010 L 1675,1010 L 1825,1010 L 1880,1010 L 1935,1010 L 2085,1010 L 2140,1010 Z" /><path d="M 270,1060 L 270,1110 L 345,1110 L 425,1110 L 500,1110 L 500,1060 L 425,1060 L 345,1060 Z" /><path d="M 2115,860 L 2075,860 L 2035,860 L 1985,860 L 1945,860 L 1905,860 L 1855,860 L 1815,860 L 1775,860 L 1725,860 L 1685,860 L 1645,860 L 1595,860 L 1555,860 L 1515,860 L 1415,860 L 1360,860 L 1305,860 L 1305,910 L 1360,910 L 1415,910 L 1515,910 L 1555,910 L 1595,910 L 1645,910 L 1685,910 L 1725,910 L 1775,910 L 1815,910 L 1855,910 L 1905,910 L 1945,910 L 1985,910 L 2035,910 L 2075,910 L 2115,910 L 2165,910 L 2205,910 L 2245,910 L 2295,910 L 2335,910 L 2375,910 L 2425,910 L 2465,910 L 2505,910 L 2505,860 L 2465,860 L 2425,860 L 2375,860 L 2335,860 L 2295,860 L 2245,860 L 2205,860 L 2165,860 Z" /><path d="M 1385,960 L 1155,960 L 1100,960 L 1045,960 L 1045,1010 L 1100,1010 L 1155,1010 L 1385,1010 L 1425,1010 L 1465,1010 L 1465,960 L 1425,960 Z" /><path d="M 995,860 L 895,860 L 840,860 L 785,860 L 785,910 L 840,910 L 895,910 L 995,910 L 1035,910 L 1075,910 L 1075,860 L 1035,860 Z" /><path d="M 865,960 L 635,960 L 580,960 L 525,960 L 525,1010 L 580,1010 L 635,1010 L 865,1010 L 905,1010 L 945,1010 L 945,960 L 905,960 Z" /><path d="M 475,860 L 375,860 L 320,860 L 265,860 L 265,910 L 320,910 L 375,910 L 475,910 L 515,910 L 555,910 L 555,860 L 515,860 Z" /></g></g><g id="VIA1"><g class="l51d0"><path d="M 295,410 L 345,410 L 345,460 L 295,460 Z" /><path d="M 555,410 L 605,410 L 605,460 L 555,460 Z" /><path d="M 815,410 L 865,410 L 865,460 L 815,460 Z" /><path d="M 1075,410 L 1125,410 L 1125,460 L 1075,460 Z" /><path d="M 1335,410 L 1385,410 L 1385,460 L 1335,460 Z" /><path d="M 1595,410 L 1645,410 L 1645,460 L 1595,460 Z" /><path d="M 1855,410 L 1905,410 L 1905,460 L 1855,460 Z" /><path d="M 2115,410 L 2165,410 L 2165,460 L 2115,460 Z" /><path d="M 2375,410 L 2425,410 L 2425,460 L 2375,460 Z" /><path d="M 2375,1460 L 2425,1460 L 2425,1510 L 2375,1510 Z" /><path d="M 2115,1460 L 2165,1460 L 2165,1510 L 2115,1510 Z" /><path d="M 1855,1460 L 1905,1460 L 1905,1510 L 1855,1510 Z" /><path d="M 1595,1460 L 1645,1460 L 1645,1510 L 1595,1510 Z" /><path d="M 1335,1460 L 1385,1460 L 1385,1510 L 1335,1510 Z" /><path d="M 1075,1460 L 1125,1460 L 1125,1510 L 1075,1510 Z" /><path d="M 815,1460 L 865,1460 L 865,1510 L 815,1510 Z" /><path d="M 555,1460 L 605,1460 L 605,1510 L 555,1510 Z" /><path d="M 295,1460 L 345,1460 L 345,1510 L 295,1510 Z" /><path d="M 2375,960 L 2425,960 L 2425,1010 L 2375,1010 Z" /><path d="M 2115,960 L 2165,960 L 2165,1010 L 2115,1010 Z" /><path d="M 1855,960 L 1905,960 L 1905,1010 L 1855,1010 Z" /><path d="M 1595,960 L 1645,960 L 1645,1010 L 1595,1010 Z" /><path d="M 1335,860 L 1385,860 L 1385,910 L 1335,910 Z" /><path d="M 1075,960 L 1125,960 L 1125,1010 L 1075,1010 Z" /><path d="M 815,860 L 865,860 L 865,910 L 815,910 Z" /><path d="M 555,960 L 605,960 L 605,1010 L 555,1010 Z" /><path d="M 295,860 L 345,860 L 345,910 L 295,910 Z" /></g></g><g id="M2"><g class="l32d0"><path d="M 2375,1485 L 2375,1540 L 2425,1540 L 2425,1485 L 2425,1430 L 2425,1040 L 2425,930 L 2425,490 L 2425,435 L 2425,380 L 2375,380 L 2375,435 L 2375,490 L 2375,930 L 2375,1040 L 2375,1430 Z" /><path d="M 2165,1040 L 2165,930 L 2165,490 L 2165,435 L 2165,380 L 2115,380 L 2115,435 L 2115,490 L 2115,930 L 2115,1040 L 2115,1430 L 2115,1485 L 2115,1540 L 2165,1540 L 2165,1485 L 2165,1430 Z" /><path d="M 1855,1485 L 1855,1540 L 1905,1540 L 1905,1485 L 1905,1430 L 1905,1040 L 1905,930 L 1905,490 L 1905,435 L 1905,380 L 1855,380 L 1855,435 L 1855,490 L 1855,930 L 1855,1040 L 1855,1430 Z" /><path d="M 1595,1485 L 1595,1540 L 1645,1540 L 1645,1485 L 1645,1430 L 1645,1040 L 1645,930 L 1645,490 L 1645,435 L 1645,380 L 1595,380 L 1595,435 L 1595,490 L 1595,930 L 1595,1040 L 1595,1430 Z" /><path d="M 1385,940 L 1385,830 L 1385,490 L 1385,435 L 1385,380 L 1335,380 L 1335,435 L 1335,490 L 1335,830 L 1335,940 L 1335,1430 L 1335,1485 L 1335,1540 L 1385,1540 L 1385,1485 L 1385,1430 Z" /><path d="M 1075,1485 L 1075,1540 L 1125,1540 L 1125,1485 L 1125,1430 L 1125,1040 L 1125,930 L 1125,490 L 1125,435 L 1125,380 L 1075,380 L 1075,435 L 1075,490 L 1075,930 L 1075,1040 L 1075,1430 Z" /><path d="M 865,940 L 865,830 L 865,490 L 865,435 L 865,380 L 815,380 L 815,435 L 815,490 L 815,830 L 815,940 L 815,1430 L 815,1485 L 815,1540 L 865,1540 L 865,1485 L 865,1430 Z" /><path d="M 605,1040 L 605,930 L 605,490 L 605,435 L 605,380 L 555,380 L 555,435 L 554,435 L 554,1485 L 555,1485 L 555,1540 L 605,1540 L 605,1485 L 605,1430 Z" /><path d="M 295,1485 L 295,1540 L 345,1540 L 345,1485 L 345,1430 L 345,940 L 345,830 L 345,490 L 345,435 L 345,380 L 295,380 L 295,435 L 295,490 L 295,830 L 295,940 L 295,1430 Z" /></g></g></g></svg>