<svg width="12250" height="1810" viewBox="270 -2070 12250 1810" xmlns="http://www.w3.org/2000/svg" xmlns:xlink="http://www.w3.org/1999/xlink"><defs><style type="text/css">.l3d0 {fill: #fef9e7; fill-opacity: 0.5; stroke-width: 10; stroke: #f1c40f; stroke-linecap: round; stroke-linejoin: round; stroke-opacity: 0.2;}.l25d0 {fill: #8e44ad; fill-opacity: 0.05; stroke-width: 10; stroke: #8e44ad; stroke-linecap: round; stroke-linejoin: round; stroke-opacity: 1;}.l26d0 {fill: #ccd1d1; fill-opacity: 0.05; stroke-width: 10; stroke: #ccd1d1; stroke-linecap: round; stroke-linejoin: round; stroke-opacity: 1;}.l6d0 {fill: #f5b7b1; fill-opacity: 1; stroke-width: 10; stroke: #e74c3c; stroke-linecap: round; stroke-linejoin: round; stroke-opacity: 1;}.l17d0 {fill: #2980b9; fill-opacity: 1; stroke-width: 0; stroke: #000000; stroke-linecap: round; stroke-linejoin: round; stroke-opacity: 0;}.l17d7 {fill: #2980b9; fill-opacity: 1; stroke-width: 0; stroke: #000000; stroke-linecap: round; stroke-linejoin: round; stroke-opacity: 0;}.l30d0 {fill: #27ae60; fill-opacity: 1; stroke-width: 0; stroke: #000000; stroke-linecap: round; stroke-linejoin: round; stroke-opacity: 0;}.l31d0 {fill: #85c1e9; fill-opacity: 0.6; stroke-width: 0; stroke: #000000; stroke-linecap: round; stroke-linejoin: round; stroke-opacity: 0;}.l51d0 {fill: #f39c12; fill-opacity: 1; stroke-width: 10; stroke: #f39c12; stroke-linecap: round; stroke-linejoin: round; stroke-opacity: 1;}.l32d0 {fill: #f7dc6f; fill-opacity: 0.6; stroke-width: 0; stroke: #000000; stroke-linecap: round; stroke-linejoin: round; stroke-opacity: 0;}.l52d0 {fill: #a04000; fill-opacity: 1; stroke-width: 10; stroke: #a04000; stroke-linecap: round; stroke-linejoin: round; stroke-opacity: 1;}.l33d0 {fill: #16a085; fill-opacity: 0.6; stroke-width: 0; stroke: #000000; stroke-linecap: round; stroke-linejoin: round; stroke-opacity: 0;}path {fill-rule: evenodd;}</style></defs><g transform="scale(1 -1)"><g id="NW"><g class="l3d0"><path d="M 6535,1145 L 6255,1145 L 3545,1145 L 3265,1145 L 275,1145 L 275,1825 L 275,2065 L 3265,2065 L 3545,2065 L 6255,2065 L 6535,2065 L 9245,2065 L 9525,2065 L 12515,2065 L 12515,1825 L 12515,1145 L 9525,1145 L 9245,1145 Z" /></g></g><g id="PP"><g class="l25d0"><path d="M 11635,1865 L 11815,1865 L 11895,1865 L 11945,1865 L 12025,1865 L 12155,1865 L 12335,1865 L 12475,1865 L 12475,1145 L 9485,1145 L 9285,1145 L 6495,1145 L 6295,1145 L 3505,1145 L 3305,1145 L 315,1145 L 315,1865 L 455,1865 L 635,1865 L 715,1865 L 765,1865 L 845,1865 L 975,1865 L 1105,1865 L 1285,1865 L 1365,1865 L 1495,1865 L 1625,1865 L 1755,1865 L 1885,1865 L 2065,1865 L 2145,1865 L 2325,1865 L 2455,1865 L 2585,1865 L 2665,1865 L 2845,1865 L 2925,1865 L 2975,1865 L 3055,1865 L 3185,1865 L 3305,1865 L 3365,1865 L 3445,1865 L 3505,1865 L 3625,1865 L 3705,1865 L 3755,1865 L 3835,1865 L 3965,1865 L 4095,1865 L 4275,1865 L 4355,1865 L 4485,1865 L 4615,1865 L 4745,1865 L 4875,1865 L 5055,1865 L 5135,1865 L 5315,1865 L 5445,1865 L 5575,1865 L 5655,1865 L 5835,1865 L 5915,1865 L 5965,1865 L 6045,1865 L 6175,1865 L 6295,1865 L 6355,1865 L 6435,1865 L 6495,1865 L 6615,1865 L 6695,1865 L 6745,1865 L 6825,1865 L 6955,1865 L 7085,1865 L 7265,1865 L 7345,1865 L 7475,1865 L 7605,1865 L 7735,1865 L 7865,1865 L 8045,1865 L 8125,1865 L 8305,1865 L 8435,1865 L 8565,1865 L 8645,1865 L 8825,1865 L 8905,1865 L 8955,1865 L 9035,1865 L 9165,1865 L 9285,1865 L 9345,1865 L 9425,1865 L 9485,1865 L 9605,1865 L 9685,1865 L 9735,1865 L 9815,1865 L 9945,1865 L 10075,1865 L 10255,1865 L 10335,1865 L 10465,1865 L 10595,1865 L 10725,1865 L 10855,1865 L 11035,1865 L 11115,1865 L 11295,1865 L 11425,1865 L 11555,1865 Z" /><path d="M 12475,265 L 9485,265 L 9285,265 L 6495,265 L 6295,265 L 3505,265 L 3305,265 L 315,265 L 315,425 L 3305,425 L 3505,425 L 6295,425 L 6495,425 L 9285,425 L 9485,425 L 12475,425 Z" /></g></g><g id="NP"><g class="l26d0"><path d="M 11920,425 L 11895,425 L 11790,425 L 11635,425 L 11555,425 L 11400,425 L 11270,425 L 11115,425 L 11035,425 L 10880,425 L 10750,425 L 10620,425 L 10595,425 L 10465,425 L 10335,425 L 10255,425 L 10100,425 L 9970,425 L 9840,425 L 9815,425 L 9710,425 L 9685,425 L 9580,425 L 9485,425 L 9425,425 L 9345,425 L 9285,425 L 9190,425 L 9060,425 L 9035,425 L 8930,425 L 8905,425 L 8800,425 L 8645,425 L 8565,425 L 8410,425 L 8280,425 L 8125,425 L 8045,425 L 7890,425 L 7760,425 L 7630,425 L 7605,425 L 7475,425 L 7345,425 L 7265,425 L 7110,425 L 6980,425 L 6850,425 L 6825,425 L 6720,425 L 6695,425 L 6590,425 L 6495,425 L 6435,425 L 6355,425 L 6295,425 L 6200,425 L 6070,425 L 6045,425 L 5940,425 L 5915,425 L 5810,425 L 5655,425 L 5575,425 L 5420,425 L 5290,425 L 5135,425 L 5055,425 L 4900,425 L 4770,425 L 4640,425 L 4615,425 L 4485,425 L 4355,425 L 4275,425 L 4120,425 L 3990,425 L 3860,425 L 3835,425 L 3730,425 L 3705,425 L 3600,425 L 3505,425 L 3445,425 L 3365,425 L 3305,425 L 3210,425 L 3080,425 L 3055,425 L 2950,425 L 2925,425 L 2820,425 L 2665,425 L 2585,425 L 2430,425 L 2300,425 L 2145,425 L 2065,425 L 1910,425 L 1780,425 L 1650,425 L 1625,425 L 1495,425 L 1365,425 L 1285,425 L 1130,425 L 1000,425 L 870,425 L 845,425 L 740,425 L 715,425 L 610,425 L 455,425 L 315,425 L 315,1145 L 3305,1145 L 3505,1145 L 6295,1145 L 6495,1145 L 9285,1145 L 9485,1145 L 12475,1145 L 12475,425 L 12335,425 L 12180,425 L 12050,425 L 12025,425 Z" /><path d="M 12475,1865 L 9485,1865 L 9285,1865 L 6495,1865 L 6295,1865 L 3505,1865 L 3305,1865 L 315,1865 L 315,2025 L 3305,2025 L 3505,2025 L 6295,2025 L 6495,2025 L 9285,2025 L 9485,2025 L 12475,2025 Z" /></g></g><g id="OD"><g class="l6d0"><path d="M 10735,870 L 10765,870 L 10815,870 L 10865,870 L 10895,870 L 10970,870 L 10970,570 L 10895,570 L 10865,570 L 10815,570 L 10765,570 L 10735,570 L 10685,570 L 10635,570 L 10605,570 L 10530,570 L 10505,570 L 10475,570 L 10400,570 L 10400,870 L 10475,870 L 10505,870 L 10530,870 L 10605,870 L 10635,870 L 10685,870 Z" /><path d="M 10035,570 L 9985,570 L 9955,570 L 9905,570 L 9855,570 L 9825,570 L 9750,570 L 9725,570 L 9695,570 L 9645,570 L 9595,570 L 9565,570 L 9490,570 L 9490,770 L 9565,770 L 9595,770 L 9645,770 L 9695,770 L 9725,770 L 9750,770 L 9750,870 L 9825,870 L 9855,870 L 9905,870 L 9955,870 L 9985,870 L 10035,870 L 10085,870 L 10115,870 L 10190,870 L 10190,570 L 10115,570 L 10085,570 Z" /><path d="M 9565,1720 L 9595,1720 L 9670,1720 L 9695,1720 L 9725,1720 L 9750,1720 L 9825,1720 L 9855,1720 L 9880,1720 L 9955,1720 L 9985,1720 L 10010,1720 L 10085,1720 L 10115,1720 L 10190,1720 L 10190,1620 L 10115,1620 L 10085,1620 L 10010,1620 L 9985,1620 L 9955,1620 L 9880,1620 L 9855,1620 L 9825,1620 L 9750,1620 L 9725,1620 L 9695,1620 L 9670,1620 L 9595,1620 L 9565,1620 L 9490,1620 L 9490,1720 Z" /><path d="M 11775,1720 L 11805,1720 L 11880,1720 L 11905,1720 L 11935,1720 L 11960,1720 L 12035,1720 L 12065,1720 L 12090,1720 L 12165,1720 L 12195,1720 L 12270,1720 L 12270,1620 L 12195,1620 L 12165,1620 L 12090,1620 L 12065,1620 L 12035,1620 L 11960,1620 L 11935,1620 L 11905,1620 L 11880,1620 L 11805,1620 L 11775,1620 L 11700,1620 L 11700,1720 Z" /><path d="M 10635,1720 L 10660,1720 L 10735,1720 L 10765,1720 L 10790,1720 L 10865,1720 L 10895,1720 L 10970,1720 L 10970,1520 L 10895,1520 L 10865,1520 L 10790,1520 L 10765,1520 L 10735,1520 L 10660,1520 L 10635,1520 L 10605,1520 L 10530,1520 L 10505,1520 L 10475,1520 L 10400,1520 L 10400,1720 L 10475,1720 L 10505,1720 L 10530,1720 L 10605,1720 Z" /><path d="M 11360,1620 L 11285,1620 L 11255,1620 L 11180,1620 L 11180,1720 L 11255,1720 L 11285,1720 L 11360,1720 L 11385,1720 L 11415,1720 L 11490,1720 L 11490,1620 L 11415,1620 L 11385,1620 Z" /><path d="M 11335,570 L 11285,570 L 11255,570 L 11180,570 L 11180,770 L 11255,770 L 11285,770 L 11335,770 L 11385,770 L 11415,770 L 11490,770 L 11490,570 L 11415,570 L 11385,570 Z" /><path d="M 11700,770 L 11775,770 L 11805,770 L 11855,770 L 11905,770 L 11935,770 L 11960,770 L 12035,770 L 12065,770 L 12115,770 L 12165,770 L 12195,770 L 12270,770 L 12270,570 L 12195,570 L 12165,570 L 12115,570 L 12065,570 L 12035,570 L 11960,570 L 11935,570 L 11905,570 L 11855,570 L 11805,570 L 11775,570 L 11700,570 Z" /><path d="M 7745,870 L 7775,870 L 7825,870 L 7875,870 L 7905,870 L 7980,870 L 7980,570 L 7905,570 L 7875,570 L 7825,570 L 7775,570 L 7745,570 L 7695,570 L 7645,570 L 7615,570 L 7540,570 L 7515,570 L 7485,570 L 7410,570 L 7410,870 L 7485,870 L 7515,870 L 7540,870 L 7615,870 L 7645,870 L 7695,870 Z" /><path d="M 7045,570 L 6995,570 L 6965,570 L 6915,570 L 6865,570 L 6835,570 L 6760,570 L 6735,570 L 6705,570 L 6655,570 L 6605,570 L 6575,570 L 6500,570 L 6500,770 L 6575,770 L 6605,770 L 6655,770 L 6705,770 L 6735,770 L 6760,770 L 6760,870 L 6835,870 L 6865,870 L 6915,870 L 6965,870 L 6995,870 L 7045,870 L 7095,870 L 7125,870 L 7200,870 L 7200,570 L 7125,570 L 7095,570 Z" /><path d="M 6575,1720 L 6605,1720 L 6680,1720 L 6705,1720 L 6735,1720 L 6760,1720 L 6835,1720 L 6865,1720 L 6890,1720 L 6965,1720 L 6995,1720 L 7020,1720 L 7095,1720 L 7125,1720 L 7200,1720 L 7200,1620 L 7125,1620 L 7095,1620 L 7020,1620 L 6995,1620 L 6965,1620 L 6890,1620 L 6865,1620 L 6835,1620 L 6760,1620 L 6735,1620 L 6705,1620 L 6680,1620 L 6605,1620 L 6575,1620 L 6500,1620 L 6500,1720 Z" /><path d="M 8785,1720 L 8815,1720 L 8890,1720 L 8915,1720 L 8945,1720 L 8970,1720 L 9045,1720 L 9075,1720 L 9100,1720 L 9175,1720 L 9205,1720 L 9280,1720 L 9280,1620 L 9205,1620 L 9175,1620 L 9100,1620 L 9075,1620 L 9045,1620 L 8970,1620 L 8945,1620 L 8915,1620 L 8890,1620 L 8815,1620 L 8785,1620 L 8710,1620 L 8710,1720 Z" /><path d="M 7645,1720 L 7670,1720 L 7745,1720 L 7775,1720 L 7800,1720 L 7875,1720 L 7905,1720 L 7980,1720 L 7980,1520 L 7905,1520 L 7875,1520 L 7800,1520 L 7775,1520 L 7745,1520 L 7670,1520 L 7645,1520 L 7615,1520 L 7540,1520 L 7515,1520 L 7485,1520 L 7410,1520 L 7410,1720 L 7485,1720 L 7515,1720 L 7540,1720 L 7615,1720 Z" /><path d="M 8370,1620 L 8295,1620 L 8265,1620 L 8190,1620 L 8190,1720 L 8265,1720 L 8295,1720 L 8370,1720 L 8395,1720 L 8425,1720 L 8500,1720 L 8500,1620 L 8425,1620 L 8395,1620 Z" /><path d="M 8345,570 L 8295,570 L 8265,570 L 8190,570 L 8190,770 L 8265,770 L 8295,770 L 8345,770 L 8395,770 L 8425,770 L 8500,770 L 8500,570 L 8425,570 L 8395,570 Z" /><path d="M 8710,770 L 8785,770 L 8815,770 L 8865,770 L 8915,770 L 8945,770 L 8970,770 L 9045,770 L 9075,770 L 9125,770 L 9175,770 L 9205,770 L 9280,770 L 9280,570 L 9205,570 L 9175,570 L 9125,570 L 9075,570 L 9045,570 L 8970,570 L 8945,570 L 8915,570 L 8865,570 L 8815,570 L 8785,570 L 8710,570 Z" /><path d="M 4755,870 L 4785,870 L 4835,870 L 4885,870 L 4915,870 L 4990,870 L 4990,570 L 4915,570 L 4885,570 L 4835,570 L 4785,570 L 4755,570 L 4705,570 L 4655,570 L 4625,570 L 4550,570 L 4525,570 L 4495,570 L 4420,570 L 4420,870 L 4495,870 L 4525,870 L 4550,870 L 4625,870 L 4655,870 L 4705,870 Z" /><path d="M 4055,570 L 4005,570 L 3975,570 L 3925,570 L 3875,570 L 3845,570 L 3770,570 L 3745,570 L 3715,570 L 3665,570 L 3615,570 L 3585,570 L 3510,570 L 3510,770 L 3585,770 L 3615,770 L 3665,770 L 3715,770 L 3745,770 L 3770,770 L 3770,870 L 3845,870 L 3875,870 L 3925,870 L 3975,870 L 4005,870 L 4055,870 L 4105,870 L 4135,870 L 4210,870 L 4210,570 L 4135,570 L 4105,570 Z" /><path d="M 3585,1720 L 3615,1720 L 3690,1720 L 3715,1720 L 3745,1720 L 3770,1720 L 3845,1720 L 3875,1720 L 3900,1720 L 3975,1720 L 4005,1720 L 4030,1720 L 4105,1720 L 4135,1720 L 4210,1720 L 4210,1620 L 4135,1620 L 4105,1620 L 4030,1620 L 4005,1620 L 3975,1620 L 3900,1620 L 3875,1620 L 3845,1620 L 3770,1620 L 3745,1620 L 3715,1620 L 3690,1620 L 3615,1620 L 3585,1620 L 3510,1620 L 3510,1720 Z" /><path d="M 5795,1720 L 5825,1720 L 5900,1720 L 5925,1720 L 5955,1720 L 5980,1720 L 6055,1720 L 6085,1720 L 6110,1720 L 6185,1720 L 6215,1720 L 6290,1720 L 6290,1620 L 6215,1620 L 6185,1620 L 6110,1620 L 6085,1620 L 6055,1620 L 5980,1620 L 5955,1620 L 5925,1620 L 5900,1620 L 5825,1620 L 5795,1620 L 5720,1620 L 5720,1720 Z" /><path d="M 4655,1720 L 4680,1720 L 4755,1720 L 4785,1720 L 4810,1720 L 4885,1720 L 4915,1720 L 4990,1720 L 4990,1520 L 4915,1520 L 4885,1520 L 4810,1520 L 4785,1520 L 4755,1520 L 4680,1520 L 4655,1520 L 4625,1520 L 4550,1520 L 4525,1520 L 4495,1520 L 4420,1520 L 4420,1720 L 4495,1720 L 4525,1720 L 4550,1720 L 4625,1720 Z" /><path d="M 5380,1620 L 5305,1620 L 5275,1620 L 5200,1620 L 5200,1720 L 5275,1720 L 5305,1720 L 5380,1720 L 5405,1720 L 5435,1720 L 5510,1720 L 5510,1620 L 5435,1620 L 5405,1620 Z" /><path d="M 5355,570 L 5305,570 L 5275,570 L 5200,570 L 5200,770 L 5275,770 L 5305,770 L 5355,770 L 5405,770 L 5435,770 L 5510,770 L 5510,570 L 5435,570 L 5405,570 Z" /><path d="M 5720,770 L 5795,770 L 5825,770 L 5875,770 L 5925,770 L 5955,770 L 5980,770 L 6055,770 L 6085,770 L 6135,770 L 6185,770 L 6215,770 L 6290,770 L 6290,570 L 6215,570 L 6185,570 L 6135,570 L 6085,570 L 6055,570 L 5980,570 L 5955,570 L 5925,570 L 5875,570 L 5825,570 L 5795,570 L 5720,570 Z" /><path d="M 1765,870 L 1795,870 L 1845,870 L 1895,870 L 1925,870 L 2000,870 L 2000,570 L 1925,570 L 1895,570 L 1845,570 L 1795,570 L 1765,570 L 1715,570 L 1665,570 L 1635,570 L 1560,570 L 1535,570 L 1505,570 L 1430,570 L 1430,870 L 1505,870 L 1535,870 L 1560,870 L 1635,870 L 1665,870 L 1715,870 Z" /><path d="M 1065,570 L 1015,570 L 985,570 L 935,570 L 885,570 L 855,570 L 780,570 L 755,570 L 725,570 L 675,570 L 625,570 L 595,570 L 520,570 L 520,770 L 595,770 L 625,770 L 675,770 L 725,770 L 755,770 L 780,770 L 780,870 L 855,870 L 885,870 L 935,870 L 985,870 L 1015,870 L 1065,870 L 1115,870 L 1145,870 L 1220,870 L 1220,570 L 1145,570 L 1115,570 Z" /><path d="M 595,1720 L 625,1720 L 700,1720 L 725,1720 L 755,1720 L 780,1720 L 855,1720 L 885,1720 L 910,1720 L 985,1720 L 1015,1720 L 1040,1720 L 1115,1720 L 1145,1720 L 1220,1720 L 1220,1620 L 1145,1620 L 1115,1620 L 1040,1620 L 1015,1620 L 985,1620 L 910,1620 L 885,1620 L 855,1620 L 780,1620 L 755,1620 L 725,1620 L 700,1620 L 625,1620 L 595,1620 L 520,1620 L 520,1720 Z" /><path d="M 2805,1720 L 2835,1720 L 2910,1720 L 2935,1720 L 2965,1720 L 2990,1720 L 3065,1720 L 3095,1720 L 3120,1720 L 3195,1720 L 3225,1720 L 3300,1720 L 3300,1620 L 3225,1620 L 3195,1620 L 3120,1620 L 3095,1620 L 3065,1620 L 2990,1620 L 2965,1620 L 2935,1620 L 2910,1620 L 2835,1620 L 2805,1620 L 2730,1620 L 2730,1720 Z" /><path d="M 1665,1720 L 1690,1720 L 1765,1720 L 1795,1720 L 1820,1720 L 1895,1720 L 1925,1720 L 2000,1720 L 2000,1520 L 1925,1520 L 1895,1520 L 1820,1520 L 1795,1520 L 1765,1520 L 1690,1520 L 1665,1520 L 1635,1520 L 1560,1520 L 1535,1520 L 1505,1520 L 1430,1520 L 1430,1720 L 1505,1720 L 1535,1720 L 1560,1720 L 1635,1720 Z" /><path d="M 2390,1620 L 2315,1620 L 2285,1620 L 2210,1620 L 2210,1720 L 2285,1720 L 2315,1720 L 2390,1720 L 2415,1720 L 2445,1720 L 2520,1720 L 2520,1620 L 2445,1620 L 2415,1620 Z" /><path d="M 2365,570 L 2315,570 L 2285,570 L 2210,570 L 2210,770 L 2285,770 L 2315,770 L 2365,770 L 2415,770 L 2445,770 L 2520,770 L 2520,570 L 2445,570 L 2415,570 Z" /><path d="M 2730,770 L 2805,770 L 2835,770 L 2885,770 L 2935,770 L 2965,770 L 2990,770 L 3065,770 L 3095,770 L 3145,770 L 3195,770 L 3225,770 L 3300,770 L 3300,570 L 3225,570 L 3195,570 L 3145,570 L 3095,570 L 3065,570 L 2990,570 L 2965,570 L 2935,570 L 2885,570 L 2835,570 L 2805,570 L 2730,570 Z" /><path d="M 12445,295 L 9455,295 L 9315,295 L 6465,295 L 6325,295 L 3475,295 L 3335,295 L 345,295 L 345,395 L 3335,395 L 3475,395 L 6325,395 L 6465,395 L 9315,395 L 9455,395 L 12445,395 Z" /><path d="M 12445,1895 L 9455,1895 L 9315,1895 L 6465,1895 L 6325,1895 L 3475,1895 L 3335,1895 L 345,1895 L 345,1995 L 3335,1995 L 3475,1995 L 6325,1995 L 6465,1995 L 9315,1995 L 9455,1995 L 12445,1995 Z" /></g></g><g id="PO"><g class="l17d0"><path d="M 9955,870 L 9955,950 L 9955,1350 L 9955,1390 L 9955,1540 L 9955,1620 L 9955,1720 L 9955,1800 L 9985,1800 L 9985,1720 L 9985,1620 L 9985,1540 L 9985,1390 L 9985,1350 L 9985,950 L 9985,870 L 9985,570 L 9985,490 L 9955,490 L 9955,570 Z" /><path d="M 10475,1720 L 10475,1800 L 10505,1800 L 10505,1720 L 10505,1520 L 10505,1440 L 10505,1390 L 10505,1350 L 10505,950 L 10505,870 L 10505,570 L 10505,490 L 10475,490 L 10475,570 L 10475,870 L 10475,950 L 10475,1350 L 10475,1390 L 10475,1440 L 10475,1520 Z" /><path d="M 9825,870 L 9825,950 L 9825,1250 L 9825,1290 L 9825,1540 L 9825,1620 L 9825,1720 L 9825,1800 L 9855,1800 L 9855,1720 L 9855,1620 L 9855,1540 L 9855,1290 L 9855,1250 L 9855,950 L 9855,870 L 9855,570 L 9855,490 L 9825,490 L 9825,570 Z" /><path d="M 10115,1620 L 10115,1540 L 10115,1290 L 10115,1250 L 10115,950 L 10115,870 L 10115,570 L 10115,490 L 10085,490 L 10085,570 L 10085,870 L 10085,950 L 10085,1250 L 10085,1290 L 10085,1540 L 10085,1620 L 10085,1720 L 10085,1800 L 10115,1800 L 10115,1720 Z" /><path d="M 10865,870 L 10865,950 L 10865,1250 L 10865,1290 L 10865,1440 L 10865,1520 L 10865,1720 L 10865,1800 L 10895,1800 L 10895,1720 L 10895,1520 L 10895,1440 L 10895,1290 L 10895,1250 L 10895,950 L 10895,870 L 10895,570 L 10895,490 L 10865,490 L 10865,570 Z" /><path d="M 11385,770 L 11385,850 L 11385,1250 L 11385,1290 L 11385,1540 L 11385,1620 L 11385,1720 L 11385,1800 L 11415,1800 L 11415,1720 L 11415,1620 L 11415,1540 L 11415,1290 L 11415,1250 L 11415,850 L 11415,770 L 11415,570 L 11415,490 L 11385,490 L 11385,570 Z" /><path d="M 9565,1720 L 9565,1800 L 9595,1800 L 9595,1720 L 9595,1620 L 9595,1540 L 9595,1190 L 9595,1150 L 9595,850 L 9595,770 L 9595,570 L 9595,490 L 9565,490 L 9565,570 L 9565,770 L 9565,850 L 9565,1150 L 9565,1190 L 9565,1540 L 9565,1620 Z" /><path d="M 10605,1720 L 10605,1800 L 10635,1800 L 10635,1720 L 10635,1520 L 10635,1440 L 10635,1190 L 10635,1150 L 10635,950 L 10635,870 L 10635,570 L 10635,490 L 10605,490 L 10605,570 L 10605,870 L 10605,950 L 10605,1150 L 10605,1190 L 10605,1440 L 10605,1520 Z" /><path d="M 11905,850 L 11905,1150 L 11905,1190 L 11905,1350 L 11905,1390 L 11905,1540 L 11905,1620 L 11905,1720 L 11905,1800 L 11935,1800 L 11935,1720 L 11935,1620 L 11935,1540 L 11935,1390 L 11935,1350 L 11935,1190 L 11935,1150 L 11935,850 L 11935,770 L 11935,570 L 11935,490 L 11905,490 L 11905,570 L 11905,770 Z" /><path d="M 9695,770 L 9695,850 L 9695,1050 L 9695,1090 L 9695,1540 L 9695,1620 L 9695,1720 L 9695,1800 L 9725,1800 L 9725,1720 L 9725,1620 L 9725,1540 L 9725,1090 L 9725,1050 L 9725,850 L 9725,770 L 9725,570 L 9725,490 L 9695,490 L 9695,570 Z" /><path d="M 10735,1720 L 10735,1800 L 10765,1800 L 10765,1720 L 10765,1520 L 10765,1440 L 10765,1090 L 10765,1050 L 10765,950 L 10765,870 L 10765,570 L 10765,490 L 10735,490 L 10735,570 L 10735,870 L 10735,950 L 10735,1050 L 10735,1090 L 10735,1440 L 10735,1520 Z" /><path d="M 11775,1720 L 11775,1800 L 11805,1800 L 11805,1720 L 11805,1620 L 11805,1540 L 11805,1090 L 11805,1050 L 11805,850 L 11805,770 L 11805,570 L 11805,490 L 11775,490 L 11775,570 L 11775,770 L 11775,850 L 11775,1050 L 11775,1090 L 11775,1540 L 11775,1620 Z" /><path d="M 11255,1720 L 11255,1800 L 11285,1800 L 11285,1720 L 11285,1620 L 11285,1540 L 11285,975 L 11285,935 L 11285,850 L 11285,770 L 11285,570 L 11285,490 L 11255,490 L 11255,570 L 11255,770 L 11255,850 L 11255,935 L 11255,975 L 11255,1540 L 11255,1620 Z" /><path d="M 12035,770 L 12035,850 L 12035,935 L 12035,975 L 12035,1540 L 12035,1620 L 12035,1720 L 12035,1800 L 12065,1800 L 12065,1720 L 12065,1620 L 12065,1540 L 12065,975 L 12065,935 L 12065,850 L 12065,770 L 12065,570 L 12065,490 L 12035,490 L 12035,570 Z" /><path d="M 12165,1800 L 12195,1800 L 12195,1720 L 12195,1620 L 12195,1540 L 12195,1290 L 12195,1250 L 12195,865 L 12195,850 L 12195,825 L 12195,770 L 12195,570 L 12195,490 L 12165,490 L 12165,570 L 12165,770 L 12165,825 L 12165,850 L 12165,865 L 12165,1250 L 12165,1290 L 12165,1540 L 12165,1620 L 12165,1720 Z" /><path d="M 6965,870 L 6965,950 L 6965,1350 L 6965,1390 L 6965,1540 L 6965,1620 L 6965,1720 L 6965,1800 L 6995,1800 L 6995,1720 L 6995,1620 L 6995,1540 L 6995,1390 L 6995,1350 L 6995,950 L 6995,870 L 6995,570 L 6995,490 L 6965,490 L 6965,570 Z" /><path d="M 7485,1720 L 7485,1800 L 7515,1800 L 7515,1720 L 7515,1520 L 7515,1440 L 7515,1390 L 7515,1350 L 7515,950 L 7515,870 L 7515,570 L 7515,490 L 7485,490 L 7485,570 L 7485,870 L 7485,950 L 7485,1350 L 7485,1390 L 7485,1440 L 7485,1520 Z" /><path d="M 6835,870 L 6835,950 L 6835,1250 L 6835,1290 L 6835,1540 L 6835,1620 L 6835,1720 L 6835,1800 L 6865,1800 L 6865,1720 L 6865,1620 L 6865,1540 L 6865,1290 L 6865,1250 L 6865,950 L 6865,870 L 6865,570 L 6865,490 L 6835,490 L 6835,570 Z" /><path d="M 7125,1620 L 7125,1540 L 7125,1290 L 7125,1250 L 7125,950 L 7125,870 L 7125,570 L 7125,490 L 7095,490 L 7095,570 L 7095,870 L 7095,950 L 7095,1250 L 7095,1290 L 7095,1540 L 7095,1620 L 7095,1720 L 7095,1800 L 7125,1800 L 7125,1720 Z" /><path d="M 7875,870 L 7875,950 L 7875,1250 L 7875,1290 L 7875,1440 L 7875,1520 L 7875,1720 L 7875,1800 L 7905,1800 L 7905,1720 L 7905,1520 L 7905,1440 L 7905,1290 L 7905,1250 L 7905,950 L 7905,870 L 7905,570 L 7905,490 L 7875,490 L 7875,570 Z" /><path d="M 8395,770 L 8395,850 L 8395,1250 L 8395,1290 L 8395,1540 L 8395,1620 L 8395,1720 L 8395,1800 L 8425,1800 L 8425,1720 L 8425,1620 L 8425,1540 L 8425,1290 L 8425,1250 L 8425,850 L 8425,770 L 8425,570 L 8425,490 L 8395,490 L 8395,570 Z" /><path d="M 6575,1720 L 6575,1800 L 6605,1800 L 6605,1720 L 6605,1620 L 6605,1540 L 6605,1190 L 6605,1150 L 6605,850 L 6605,770 L 6605,570 L 6605,490 L 6575,490 L 6575,570 L 6575,770 L 6575,850 L 6575,1150 L 6575,1190 L 6575,1540 L 6575,1620 Z" /><path d="M 7615,1720 L 7615,1800 L 7645,1800 L 7645,1720 L 7645,1520 L 7645,1440 L 7645,1190 L 7645,1150 L 7645,950 L 7645,870 L 7645,570 L 7645,490 L 7615,490 L 7615,570 L 7615,870 L 7615,950 L 7615,1150 L 7615,1190 L 7615,1440 L 7615,1520 Z" /><path d="M 8915,850 L 8915,1150 L 8915,1190 L 8915,1350 L 8915,1390 L 8915,1540 L 8915,1620 L 8915,1720 L 8915,1800 L 8945,1800 L 8945,1720 L 8945,1620 L 8945,1540 L 8945,1390 L 8945,1350 L 8945,1190 L 8945,1150 L 8945,850 L 8945,770 L 8945,570 L 8945,490 L 8915,490 L 8915,570 L 8915,770 Z" /><path d="M 6705,770 L 6705,850 L 6705,1050 L 6705,1090 L 6705,1540 L 6705,1620 L 6705,1720 L 6705,1800 L 6735,1800 L 6735,1720 L 6735,1620 L 6735,1540 L 6735,1090 L 6735,1050 L 6735,850 L 6735,770 L 6735,570 L 6735,490 L 6705,490 L 6705,570 Z" /><path d="M 7745,1720 L 7745,1800 L 7775,1800 L 7775,1720 L 7775,1520 L 7775,1440 L 7775,1090 L 7775,1050 L 7775,950 L 7775,870 L 7775,570 L 7775,490 L 7745,490 L 7745,570 L 7745,870 L 7745,950 L 7745,1050 L 7745,1090 L 7745,1440 L 7745,1520 Z" /><path d="M 8785,1720 L 8785,1800 L 8815,1800 L 8815,1720 L 8815,1620 L 8815,1540 L 8815,1090 L 8815,1050 L 8815,850 L 8815,770 L 8815,570 L 8815,490 L 8785,490 L 8785,570 L 8785,770 L 8785,850 L 8785,1050 L 8785,1090 L 8785,1540 L 8785,1620 Z" /><path d="M 8265,1720 L 8265,1800 L 8295,1800 L 8295,1720 L 8295,1620 L 8295,1540 L 8295,975 L 8295,935 L 8295,850 L 8295,770 L 8295,570 L 8295,490 L 8265,490 L 8265,570 L 8265,770 L 8265,850 L 8265,935 L 8265,975 L 8265,1540 L 8265,1620 Z" /><path d="M 9045,770 L 9045,850 L 9045,935 L 9045,975 L 9045,1540 L 9045,1620 L 9045,1720 L 9045,1800 L 9075,1800 L 9075,1720 L 9075,1620 L 9075,1540 L 9075,975 L 9075,935 L 9075,850 L 9075,770 L 9075,570 L 9075,490 L 9045,490 L 9045,570 Z" /><path d="M 9175,1800 L 9205,1800 L 9205,1720 L 9205,1620 L 9205,1540 L 9205,1290 L 9205,1250 L 9205,865 L 9205,850 L 9205,825 L 9205,770 L 9205,570 L 9205,490 L 9175,490 L 9175,570 L 9175,770 L 9175,825 L 9175,850 L 9175,865 L 9175,1250 L 9175,1290 L 9175,1540 L 9175,1620 L 9175,1720 Z" /><path d="M 3975,870 L 3975,950 L 3975,1350 L 3975,1390 L 3975,1540 L 3975,1620 L 3975,1720 L 3975,1800 L 4005,1800 L 4005,1720 L 4005,1620 L 4005,1540 L 4005,1390 L 4005,1350 L 4005,950 L 4005,870 L 4005,570 L 4005,490 L 3975,490 L 3975,570 Z" /><path d="M 4495,1720 L 4495,1800 L 4525,1800 L 4525,1720 L 4525,1520 L 4525,1440 L 4525,1390 L 4525,1350 L 4525,950 L 4525,870 L 4525,570 L 4525,490 L 4495,490 L 4495,570 L 4495,870 L 4495,950 L 4495,1350 L 4495,1390 L 4495,1440 L 4495,1520 Z" /><path d="M 3845,870 L 3845,950 L 3845,1250 L 3845,1290 L 3845,1540 L 3845,1620 L 3845,1720 L 3845,1800 L 3875,1800 L 3875,1720 L 3875,1620 L 3875,1540 L 3875,1290 L 3875,1250 L 3875,950 L 3875,870 L 3875,570 L 3875,490 L 3845,490 L 3845,570 Z" /><path d="M 4135,1620 L 4135,1540 L 4135,1290 L 4135,1250 L 4135,950 L 4135,870 L 4135,570 L 4135,490 L 4105,490 L 4105,570 L 4105,870 L 4105,950 L 4105,1250 L 4105,1290 L 4105,1540 L 4105,1620 L 4105,1720 L 4105,1800 L 4135,1800 L 4135,1720 Z" /><path d="M 4885,870 L 4885,950 L 4885,1250 L 4885,1290 L 4885,1440 L 4885,1520 L 4885,1720 L 4885,1800 L 4915,1800 L 4915,1720 L 4915,1520 L 4915,1440 L 4915,1290 L 4915,1250 L 4915,950 L 4915,870 L 4915,570 L 4915,490 L 4885,490 L 4885,570 Z" /><path d="M 5405,770 L 5405,850 L 5405,1250 L 5405,1290 L 5405,1540 L 5405,1620 L 5405,1720 L 5405,1800 L 5435,1800 L 5435,1720 L 5435,1620 L 5435,1540 L 5435,1290 L 5435,1250 L 5435,850 L 5435,770 L 5435,570 L 5435,490 L 5405,490 L 5405,570 Z" /><path d="M 3585,1720 L 3585,1800 L 3615,1800 L 3615,1720 L 3615,1620 L 3615,1540 L 3615,1190 L 3615,1150 L 3615,850 L 3615,770 L 3615,570 L 3615,490 L 3585,490 L 3585,570 L 3585,770 L 3585,850 L 3585,1150 L 3585,1190 L 3585,1540 L 3585,1620 Z" /><path d="M 4625,1720 L 4625,1800 L 4655,1800 L 4655,1720 L 4655,1520 L 4655,1440 L 4655,1190 L 4655,1150 L 4655,950 L 4655,870 L 4655,570 L 4655,490 L 4625,490 L 4625,570 L 4625,870 L 4625,950 L 4625,1150 L 4625,1190 L 4625,1440 L 4625,1520 Z" /><path d="M 5925,850 L 5925,1150 L 5925,1190 L 5925,1350 L 5925,1390 L 5925,1540 L 5925,1620 L 5925,1720 L 5925,1800 L 5955,1800 L 5955,1720 L 5955,1620 L 5955,1540 L 5955,1390 L 5955,1350 L 5955,1190 L 5955,1150 L 5955,850 L 5955,770 L 5955,570 L 5955,490 L 5925,490 L 5925,570 L 5925,770 Z" /><path d="M 3715,770 L 3715,850 L 3715,1050 L 3715,1090 L 3715,1540 L 3715,1620 L 3715,1720 L 3715,1800 L 3745,1800 L 3745,1720 L 3745,1620 L 3745,1540 L 3745,1090 L 3745,1050 L 3745,850 L 3745,770 L 3745,570 L 3745,490 L 3715,490 L 3715,570 Z" /><path d="M 4755,1720 L 4755,1800 L 4785,1800 L 4785,1720 L 4785,1520 L 4785,1440 L 4785,1090 L 4785,1050 L 4785,950 L 4785,870 L 4785,570 L 4785,490 L 4755,490 L 4755,570 L 4755,870 L 4755,950 L 4755,1050 L 4755,1090 L 4755,1440 L 4755,1520 Z" /><path d="M 5795,1720 L 5795,1800 L 5825,1800 L 5825,1720 L 5825,1620 L 5825,1540 L 5825,1090 L 5825,1050 L 5825,850 L 5825,770 L 5825,570 L 5825,490 L 5795,490 L 5795,570 L 5795,770 L 5795,850 L 5795,1050 L 5795,1090 L 5795,1540 L 5795,1620 Z" /><path d="M 5275,1720 L 5275,1800 L 5305,1800 L 5305,1720 L 5305,1620 L 5305,1540 L 5305,975 L 5305,935 L 5305,850 L 5305,770 L 5305,570 L 5305,490 L 5275,490 L 5275,570 L 5275,770 L 5275,850 L 5275,935 L 5275,975 L 5275,1540 L 5275,1620 Z" /><path d="M 6055,770 L 6055,850 L 6055,935 L 6055,975 L 6055,1540 L 6055,1620 L 6055,1720 L 6055,1800 L 6085,1800 L 6085,1720 L 6085,1620 L 6085,1540 L 6085,975 L 6085,935 L 6085,850 L 6085,770 L 6085,570 L 6085,490 L 6055,490 L 6055,570 Z" /><path d="M 6185,1800 L 6215,1800 L 6215,1720 L 6215,1620 L 6215,1540 L 6215,1290 L 6215,1250 L 6215,865 L 6215,850 L 6215,825 L 6215,770 L 6215,570 L 6215,490 L 6185,490 L 6185,570 L 6185,770 L 6185,825 L 6185,850 L 6185,865 L 6185,1250 L 6185,1290 L 6185,1540 L 6185,1620 L 6185,1720 Z" /><path d="M 985,870 L 985,950 L 985,1350 L 985,1390 L 985,1540 L 985,1620 L 985,1720 L 985,1800 L 1015,1800 L 1015,1720 L 1015,1620 L 1015,1540 L 1015,1390 L 1015,1350 L 1015,950 L 1015,870 L 1015,570 L 1015,490 L 985,490 L 985,570 Z" /><path d="M 1505,1720 L 1505,1800 L 1535,1800 L 1535,1720 L 1535,1520 L 1535,1440 L 1535,1390 L 1535,1350 L 1535,950 L 1535,870 L 1535,570 L 1535,490 L 1505,490 L 1505,570 L 1505,870 L 1505,950 L 1505,1350 L 1505,1390 L 1505,1440 L 1505,1520 Z" /><path d="M 855,870 L 855,950 L 855,1250 L 855,1290 L 855,1540 L 855,1620 L 855,1720 L 855,1800 L 885,1800 L 885,1720 L 885,1620 L 885,1540 L 885,1290 L 885,1250 L 885,950 L 885,870 L 885,570 L 885,490 L 855,490 L 855,570 Z" /><path d="M 1145,1620 L 1145,1540 L 1145,1290 L 1145,1250 L 1145,950 L 1145,870 L 1145,570 L 1145,490 L 1115,490 L 1115,570 L 1115,870 L 1115,950 L 1115,1250 L 1115,1290 L 1115,1540 L 1115,1620 L 1115,1720 L 1115,1800 L 1145,1800 L 1145,1720 Z" /><path d="M 1895,870 L 1895,950 L 1895,1250 L 1895,1290 L 1895,1440 L 1895,1520 L 1895,1720 L 1895,1800 L 1925,1800 L 1925,1720 L 1925,1520 L 1925,1440 L 1925,1290 L 1925,1250 L 1925,950 L 1925,870 L 1925,570 L 1925,490 L 1895,490 L 1895,570 Z" /><path d="M 2415,770 L 2415,850 L 2415,1250 L 2415,1290 L 2415,1540 L 2415,1620 L 2415,1720 L 2415,1800 L 2445,1800 L 2445,1720 L 2445,1620 L 2445,1540 L 2445,1290 L 2445,1250 L 2445,850 L 2445,770 L 2445,570 L 2445,490 L 2415,490 L 2415,570 Z" /><path d="M 595,1720 L 595,1800 L 625,1800 L 625,1720 L 625,1620 L 625,1540 L 625,1190 L 625,1150 L 625,850 L 625,770 L 625,570 L 625,490 L 595,490 L 595,570 L 595,770 L 595,850 L 595,1150 L 595,1190 L 595,1540 L 595,1620 Z" /><path d="M 1635,1720 L 1635,1800 L 1665,1800 L 1665,1720 L 1665,1520 L 1665,1440 L 1665,1190 L 1665,1150 L 1665,950 L 1665,870 L 1665,570 L 1665,490 L 1635,490 L 1635,570 L 1635,870 L 1635,950 L 1635,1150 L 1635,1190 L 1635,1440 L 1635,1520 Z" /><path d="M 2935,850 L 2935,1150 L 2935,1190 L 2935,1350 L 2935,1390 L 2935,1540 L 2935,1620 L 2935,1720 L 2935,1800 L 2965,1800 L 2965,1720 L 2965,1620 L 2965,1540 L 2965,1390 L 2965,1350 L 2965,1190 L 2965,1150 L 2965,850 L 2965,770 L 2965,570 L 2965,490 L 2935,490 L 2935,570 L 2935,770 Z" /><path d="M 725,770 L 725,850 L 725,1050 L 725,1090 L 725,1540 L 725,1620 L 725,1720 L 725,1800 L 755,1800 L 755,1720 L 755,1620 L 755,1540 L 755,1090 L 755,1050 L 755,850 L 755,770 L 755,570 L 755,490 L 725,490 L 725,570 Z" /><path d="M 1765,1720 L 1765,1800 L 1795,1800 L 1795,1720 L 1795,1520 L 1795,1440 L 1795,1090 L 1795,1050 L 1795,950 L 1795,870 L 1795,570 L 1795,490 L 1765,490 L 1765,570 L 1765,870 L 1765,950 L 1765,1050 L 1765,1090 L 1765,1440 L 1765,1520 Z" /><path d="M 2805,1720 L 2805,1800 L 2835,1800 L 2835,1720 L 2835,1620 L 2835,1540 L 2835,1090 L 2835,1050 L 2835,850 L 2835,770 L 2835,570 L 2835,490 L 2805,490 L 2805,570 L 2805,770 L 2805,850 L 2805,1050 L 2805,1090 L 2805,1540 L 2805,1620 Z" /><path d="M 2285,1720 L 2285,1800 L 2315,1800 L 2315,1720 L 2315,1620 L 2315,1540 L 2315,975 L 2315,935 L 2315,850 L 2315,770 L 2315,570 L 2315,490 L 2285,490 L 2285,570 L 2285,770 L 2285,850 L 2285,935 L 2285,975 L 2285,1540 L 2285,1620 Z" /><path d="M 3065,770 L 3065,850 L 3065,935 L 3065,975 L 3065,1540 L 3065,1620 L 3065,1720 L 3065,1800 L 3095,1800 L 3095,1720 L 3095,1620 L 3095,1540 L 3095,975 L 3095,935 L 3095,850 L 3095,770 L 3095,570 L 3095,490 L 3065,490 L 3065,570 Z" /><path d="M 3195,1800 L 3225,1800 L 3225,1720 L 3225,1620 L 3225,1540 L 3225,1290 L 3225,1250 L 3225,865 L 3225,850 L 3225,825 L 3225,770 L 3225,570 L 3225,490 L 3195,490 L 3195,570 L 3195,770 L 3195,825 L 3195,850 L 3195,865 L 3195,1250 L 3195,1290 L 3195,1540 L 3195,1620 L 3195,1720 Z" /></g><g class="l17d7"><path d="M 10345,510 L 10345,930 L 10375,930 L 10375,510 Z" /><path d="M 10215,510 L 10215,930 L 10245,930 L 10245,510 Z" /><path d="M 11025,510 L 11025,475 L 10995,475 L 10995,510 L 10995,865 L 10995,930 L 11025,930 L 11025,865 Z" /><path d="M 11155,510 L 11155,475 L 11125,475 L 11125,510 L 11125,865 L 11125,930 L 11155,930 L 11155,865 Z" /><path d="M 12425,475 L 12455,475 L 12455,865 L 12425,865 Z" /><path d="M 12295,475 L 12325,475 L 12325,865 L 12295,865 Z" /><path d="M 10375,1425 L 10345,1425 L 10345,1475 L 10345,1815 L 10345,1865 L 10375,1865 L 10375,1815 L 10375,1475 Z" /><path d="M 10245,1425 L 10215,1425 L 10215,1475 L 10215,1815 L 10215,1865 L 10245,1865 L 10245,1815 L 10245,1475 Z" /><path d="M 11025,1425 L 10995,1425 L 10995,1475 L 10995,1815 L 10995,1865 L 11025,1865 L 11025,1815 L 11025,1475 Z" /><path d="M 11155,1425 L 11125,1425 L 11125,1475 L 11125,1815 L 11125,1865 L 11155,1865 L 11155,1815 L 11155,1475 Z" /><path d="M 12425,1475 L 12455,1475 L 12455,1865 L 12425,1865 Z" /><path d="M 12295,1475 L 12325,1475 L 12325,1865 L 12295,1865 Z" /><path d="M 11645,1475 L 11645,1865 L 11675,1865 L 11675,1475 Z" /><path d="M 11515,1475 L 11515,1865 L 11545,1865 L 11545,1475 Z" /><path d="M 11645,475 L 11645,865 L 11675,865 L 11675,475 Z" /><path d="M 11515,475 L 11515,865 L 11545,865 L 11545,475 Z" /><path d="M 7355,510 L 7355,930 L 7385,930 L 7385,510 Z" /><path d="M 7225,510 L 7225,930 L 7255,930 L 7255,510 Z" /><path d="M 8035,510 L 8035,475 L 8005,475 L 8005,510 L 8005,865 L 8005,930 L 8035,930 L 8035,865 Z" /><path d="M 8165,510 L 8165,475 L 8135,475 L 8135,510 L 8135,865 L 8135,930 L 8165,930 L 8165,865 Z" /><path d="M 9435,475 L 9435,865 L 9465,865 L 9465,475 Z" /><path d="M 9305,475 L 9305,865 L 9335,865 L 9335,475 Z" /><path d="M 7385,1425 L 7355,1425 L 7355,1475 L 7355,1815 L 7355,1865 L 7385,1865 L 7385,1815 L 7385,1475 Z" /><path d="M 7255,1425 L 7225,1425 L 7225,1475 L 7225,1815 L 7225,1865 L 7255,1865 L 7255,1815 L 7255,1475 Z" /><path d="M 8035,1425 L 8005,1425 L 8005,1475 L 8005,1815 L 8005,1865 L 8035,1865 L 8035,1815 L 8035,1475 Z" /><path d="M 8165,1425 L 8135,1425 L 8135,1475 L 8135,1815 L 8135,1865 L 8165,1865 L 8165,1815 L 8165,1475 Z" /><path d="M 9435,1475 L 9435,1865 L 9465,1865 L 9465,1475 Z" /><path d="M 9305,1475 L 9305,1865 L 9335,1865 L 9335,1475 Z" /><path d="M 8655,1475 L 8655,1865 L 8685,1865 L 8685,1475 Z" /><path d="M 8525,1475 L 8525,1865 L 8555,1865 L 8555,1475 Z" /><path d="M 8655,475 L 8655,865 L 8685,865 L 8685,475 Z" /><path d="M 8525,475 L 8525,865 L 8555,865 L 8555,475 Z" /><path d="M 4365,510 L 4365,930 L 4395,930 L 4395,510 Z" /><path d="M 4235,510 L 4235,930 L 4265,930 L 4265,510 Z" /><path d="M 5045,510 L 5045,475 L 5015,475 L 5015,510 L 5015,865 L 5015,930 L 5045,930 L 5045,865 Z" /><path d="M 5175,510 L 5175,475 L 5145,475 L 5145,510 L 5145,865 L 5145,930 L 5175,930 L 5175,865 Z" /><path d="M 6445,475 L 6445,865 L 6475,865 L 6475,475 Z" /><path d="M 6315,475 L 6315,865 L 6345,865 L 6345,475 Z" /><path d="M 4395,1425 L 4365,1425 L 4365,1475 L 4365,1815 L 4365,1865 L 4395,1865 L 4395,1815 L 4395,1475 Z" /><path d="M 4265,1425 L 4235,1425 L 4235,1475 L 4235,1815 L 4235,1865 L 4265,1865 L 4265,1815 L 4265,1475 Z" /><path d="M 5045,1425 L 5015,1425 L 5015,1475 L 5015,1815 L 5015,1865 L 5045,1865 L 5045,1815 L 5045,1475 Z" /><path d="M 5175,1425 L 5145,1425 L 5145,1475 L 5145,1815 L 5145,1865 L 5175,1865 L 5175,1815 L 5175,1475 Z" /><path d="M 6445,1475 L 6445,1865 L 6475,1865 L 6475,1475 Z" /><path d="M 6315,1475 L 6315,1865 L 6345,1865 L 6345,1475 Z" /><path d="M 5665,1475 L 5665,1865 L 5695,1865 L 5695,1475 Z" /><path d="M 5535,1475 L 5535,1865 L 5565,1865 L 5565,1475 Z" /><path d="M 5665,475 L 5665,865 L 5695,865 L 5695,475 Z" /><path d="M 5535,475 L 5535,865 L 5565,865 L 5565,475 Z" /><path d="M 1375,510 L 1375,930 L 1405,930 L 1405,510 Z" /><path d="M 1245,510 L 1245,930 L 1275,930 L 1275,510 Z" /><path d="M 335,475 L 365,475 L 365,865 L 335,865 Z" /><path d="M 465,475 L 495,475 L 495,865 L 465,865 Z" /><path d="M 2055,510 L 2055,475 L 2025,475 L 2025,510 L 2025,865 L 2025,930 L 2055,930 L 2055,865 Z" /><path d="M 2185,510 L 2185,475 L 2155,475 L 2155,510 L 2155,865 L 2155,930 L 2185,930 L 2185,865 Z" /><path d="M 3455,475 L 3455,865 L 3485,865 L 3485,475 Z" /><path d="M 3325,475 L 3325,865 L 3355,865 L 3355,475 Z" /><path d="M 1405,1425 L 1375,1425 L 1375,1475 L 1375,1815 L 1375,1865 L 1405,1865 L 1405,1815 L 1405,1475 Z" /><path d="M 1275,1425 L 1245,1425 L 1245,1475 L 1245,1815 L 1245,1865 L 1275,1865 L 1275,1815 L 1275,1475 Z" /><path d="M 335,1475 L 365,1475 L 365,1865 L 335,1865 Z" /><path d="M 465,1475 L 495,1475 L 495,1865 L 465,1865 Z" /><path d="M 2055,1425 L 2025,1425 L 2025,1475 L 2025,1815 L 2025,1865 L 2055,1865 L 2055,1815 L 2055,1475 Z" /><path d="M 2185,1425 L 2155,1425 L 2155,1475 L 2155,1815 L 2155,1865 L 2185,1865 L 2185,1815 L 2185,1475 Z" /><path d="M 3455,1475 L 3455,1865 L 3485,1865 L 3485,1475 Z" /><path d="M 3325,1475 L 3325,1865 L 3355,1865 L 3355,1475 Z" /><path d="M 2675,1475 L 2675,1865 L 2705,1865 L 2705,1475 Z" /><path d="M 2545,1475 L 2545,1865 L 2575,1865 L 2575,1475 Z" /><path d="M 2675,475 L 2675,865 L 2705,865 L 2705,475 Z" /><path d="M 2545,475 L 2545,865 L 2575,865 L 2575,475 Z" /></g></g><g id="CO"><g class="l30d0"><path d="M 12355,325 L 12395,325 L 12395,365 L 12355,365 Z" /><path d="M 12225,325 L 12265,325 L 12265,365 L 12225,365 Z" /><path d="M 12095,325 L 12135,325 L 12135,365 L 12095,365 Z" /><path d="M 11965,325 L 12005,325 L 12005,365 L 11965,365 Z" /><path d="M 11835,325 L 11875,325 L 11875,365 L 11835,365 Z" /><path d="M 11705,325 L 11745,325 L 11745,365 L 11705,365 Z" /><path d="M 11575,325 L 11615,325 L 11615,365 L 11575,365 Z" /><path d="M 11445,325 L 11485,325 L 11485,365 L 11445,365 Z" /><path d="M 11315,325 L 11355,325 L 11355,365 L 11315,365 Z" /><path d="M 11185,325 L 11225,325 L 11225,365 L 11185,365 Z" /><path d="M 11055,325 L 11095,325 L 11095,365 L 11055,365 Z" /><path d="M 10925,325 L 10965,325 L 10965,365 L 10925,365 Z" /><path d="M 10795,325 L 10835,325 L 10835,365 L 10795,365 Z" /><path d="M 10665,325 L 10705,325 L 10705,365 L 10665,365 Z" /><path d="M 10535,325 L 10575,325 L 10575,365 L 10535,365 Z" /><path d="M 10405,325 L 10445,325 L 10445,365 L 10405,365 Z" /><path d="M 10275,325 L 10315,325 L 10315,365 L 10275,365 Z" /><path d="M 10145,325 L 10185,325 L 10185,365 L 10145,365 Z" /><path d="M 10015,325 L 10055,325 L 10055,365 L 10015,365 Z" /><path d="M 9885,325 L 9925,325 L 9925,365 L 9885,365 Z" /><path d="M 9755,325 L 9795,325 L 9795,365 L 9755,365 Z" /><path d="M 9625,325 L 9665,325 L 9665,365 L 9625,365 Z" /><path d="M 9495,325 L 9535,325 L 9535,365 L 9495,365 Z" /><path d="M 12355,1925 L 12395,1925 L 12395,1965 L 12355,1965 Z" /><path d="M 12225,1925 L 12265,1925 L 12265,1965 L 12225,1965 Z" /><path d="M 12095,1925 L 12135,1925 L 12135,1965 L 12095,1965 Z" /><path d="M 11965,1925 L 12005,1925 L 12005,1965 L 11965,1965 Z" /><path d="M 11835,1925 L 11875,1925 L 11875,1965 L 11835,1965 Z" /><path d="M 11705,1925 L 11745,1925 L 11745,1965 L 11705,1965 Z" /><path d="M 11575,1925 L 11615,1925 L 11615,1965 L 11575,1965 Z" /><path d="M 11445,1925 L 11485,1925 L 11485,1965 L 11445,1965 Z" /><path d="M 11315,1925 L 11355,1925 L 11355,1965 L 11315,1965 Z" /><path d="M 11185,1925 L 11225,1925 L 11225,1965 L 11185,1965 Z" /><path d="M 11055,1925 L 11095,1925 L 11095,1965 L 11055,1965 Z" /><path d="M 10925,1925 L 10965,1925 L 10965,1965 L 10925,1965 Z" /><path d="M 10795,1925 L 10835,1925 L 10835,1965 L 10795,1965 Z" /><path d="M 10665,1925 L 10705,1925 L 10705,1965 L 10665,1965 Z" /><path d="M 10535,1925 L 10575,1925 L 10575,1965 L 10535,1965 Z" /><path d="M 10405,1925 L 10445,1925 L 10445,1965 L 10405,1965 Z" /><path d="M 10275,1925 L 10315,1925 L 10315,1965 L 10275,1965 Z" /><path d="M 10145,1925 L 10185,1925 L 10185,1965 L 10145,1965 Z" /><path d="M 10015,1925 L 10055,1925 L 10055,1965 L 10015,1965 Z" /><path d="M 9885,1925 L 9925,1925 L 9925,1965 L 9885,1965 Z" /><path d="M 9755,1925 L 9795,1925 L 9795,1965 L 9755,1965 Z" /><path d="M 9625,1925 L 9665,1925 L 9665,1965 L 9625,1965 Z" /><path d="M 9495,1925 L 9535,1925 L 9535,1965 L 9495,1965 Z" /><path d="M 10925,1600 L 10965,1600 L 10965,1640 L 10925,1640 Z" /><path d="M 10795,1600 L 10835,1600 L 10835,1640 L 10795,1640 Z" /><path d="M 10405,800 L 10445,800 L 10445,840 L 10405,840 Z" /><path d="M 10405,600 L 10445,600 L 10445,640 L 10405,640 Z" /><path d="M 10405,1600 L 10445,1600 L 10445,1640 L 10405,1640 Z" /><path d="M 9885,1650 L 9925,1650 L 9925,1690 L 9885,1690 Z" /><path d="M 9755,1650 L 9795,1650 L 9795,1690 L 9755,1690 Z" /><path d="M 11965,1650 L 12005,1650 L 12005,1690 L 11965,1690 Z" /><path d="M 9755,800 L 9795,800 L 9795,840 L 9755,840 Z" /><path d="M 9755,600 L 9795,600 L 9795,640 L 9755,640 Z" /><path d="M 10535,800 L 10575,800 L 10575,840 L 10535,840 Z" /><path d="M 10535,600 L 10575,600 L 10575,640 L 10535,640 Z" /><path d="M 10145,800 L 10185,800 L 10185,840 L 10145,840 Z" /><path d="M 10145,600 L 10185,600 L 10185,640 L 10145,640 Z" /><path d="M 10925,800 L 10965,800 L 10965,840 L 10925,840 Z" /><path d="M 10925,600 L 10965,600 L 10965,640 L 10925,640 Z" /><path d="M 9495,650 L 9535,650 L 9535,690 L 9495,690 Z" /><path d="M 11185,650 L 11225,650 L 11225,690 L 11185,690 Z" /><path d="M 11705,650 L 11745,650 L 11745,690 L 11705,690 Z" /><path d="M 12225,650 L 12265,650 L 12265,690 L 12225,690 Z" /><path d="M 10145,1650 L 10185,1650 L 10185,1690 L 10145,1690 Z" /><path d="M 10015,1650 L 10055,1650 L 10055,1690 L 10015,1690 Z" /><path d="M 9625,1650 L 9665,1650 L 9665,1690 L 9625,1690 Z" /><path d="M 9495,1650 L 9535,1650 L 9535,1690 L 9495,1690 Z" /><path d="M 11315,1650 L 11355,1650 L 11355,1690 L 11315,1690 Z" /><path d="M 11185,1650 L 11225,1650 L 11225,1690 L 11185,1690 Z" /><path d="M 12095,1650 L 12135,1650 L 12135,1690 L 12095,1690 Z" /><path d="M 12225,1650 L 12265,1650 L 12265,1690 L 12225,1690 Z" /><path d="M 11835,1650 L 11875,1650 L 11875,1690 L 11835,1690 Z" /><path d="M 11705,1650 L 11745,1650 L 11745,1690 L 11705,1690 Z" /><path d="M 10665,1600 L 10705,1600 L 10705,1640 L 10665,1640 Z" /><path d="M 10535,1600 L 10575,1600 L 10575,1640 L 10535,1640 Z" /><path d="M 11445,1650 L 11485,1650 L 11485,1690 L 11445,1690 Z" /><path d="M 11445,650 L 11485,650 L 11485,690 L 11445,690 Z" /><path d="M 11965,650 L 12005,650 L 12005,690 L 11965,690 Z" /><path d="M 9950,1350 L 9990,1350 L 9990,1390 L 9950,1390 Z" /><path d="M 10470,1350 L 10510,1350 L 10510,1390 L 10470,1390 Z" /><path d="M 11900,1350 L 11940,1350 L 11940,1390 L 11900,1390 Z" /><path d="M 9820,1250 L 9860,1250 L 9860,1290 L 9820,1290 Z" /><path d="M 10080,1250 L 10120,1250 L 10120,1290 L 10080,1290 Z" /><path d="M 10860,1250 L 10900,1250 L 10900,1290 L 10860,1290 Z" /><path d="M 11380,1250 L 11420,1250 L 11420,1290 L 11380,1290 Z" /><path d="M 12160,1250 L 12200,1250 L 12200,1290 L 12160,1290 Z" /><path d="M 9560,1150 L 9600,1150 L 9600,1190 L 9560,1190 Z" /><path d="M 10600,1150 L 10640,1150 L 10640,1190 L 10600,1190 Z" /><path d="M 11900,1150 L 11940,1150 L 11940,1190 L 11900,1190 Z" /><path d="M 9690,1050 L 9730,1050 L 9730,1090 L 9690,1090 Z" /><path d="M 10730,1050 L 10770,1050 L 10770,1090 L 10730,1090 Z" /><path d="M 11770,1050 L 11810,1050 L 11810,1090 L 11770,1090 Z" /><path d="M 11250,935 L 11290,935 L 11290,975 L 11250,975 Z" /><path d="M 12030,935 L 12070,935 L 12070,975 L 12030,975 Z" /><path d="M 12160,825 L 12200,825 L 12200,865 L 12160,865 Z" /><path d="M 9365,325 L 9365,365 L 9405,365 L 9405,325 Z" /><path d="M 9235,325 L 9275,325 L 9275,365 L 9235,365 Z" /><path d="M 9105,325 L 9145,325 L 9145,365 L 9105,365 Z" /><path d="M 8975,325 L 9015,325 L 9015,365 L 8975,365 Z" /><path d="M 8845,325 L 8885,325 L 8885,365 L 8845,365 Z" /><path d="M 8715,325 L 8755,325 L 8755,365 L 8715,365 Z" /><path d="M 8585,325 L 8625,325 L 8625,365 L 8585,365 Z" /><path d="M 8455,325 L 8495,325 L 8495,365 L 8455,365 Z" /><path d="M 8325,325 L 8365,325 L 8365,365 L 8325,365 Z" /><path d="M 8195,325 L 8235,325 L 8235,365 L 8195,365 Z" /><path d="M 8065,325 L 8105,325 L 8105,365 L 8065,365 Z" /><path d="M 7935,325 L 7975,325 L 7975,365 L 7935,365 Z" /><path d="M 7805,325 L 7845,325 L 7845,365 L 7805,365 Z" /><path d="M 7675,325 L 7715,325 L 7715,365 L 7675,365 Z" /><path d="M 7545,325 L 7585,325 L 7585,365 L 7545,365 Z" /><path d="M 7415,325 L 7455,325 L 7455,365 L 7415,365 Z" /><path d="M 7285,325 L 7325,325 L 7325,365 L 7285,365 Z" /><path d="M 7155,325 L 7195,325 L 7195,365 L 7155,365 Z" /><path d="M 7025,325 L 7065,325 L 7065,365 L 7025,365 Z" /><path d="M 6895,325 L 6935,325 L 6935,365 L 6895,365 Z" /><path d="M 6765,325 L 6805,325 L 6805,365 L 6765,365 Z" /><path d="M 6635,325 L 6675,325 L 6675,365 L 6635,365 Z" /><path d="M 6505,325 L 6545,325 L 6545,365 L 6505,365 Z" /><path d="M 9365,1925 L 9365,1965 L 9405,1965 L 9405,1925 Z" /><path d="M 9235,1925 L 9275,1925 L 9275,1965 L 9235,1965 Z" /><path d="M 9105,1925 L 9145,1925 L 9145,1965 L 9105,1965 Z" /><path d="M 8975,1925 L 9015,1925 L 9015,1965 L 8975,1965 Z" /><path d="M 8845,1925 L 8885,1925 L 8885,1965 L 8845,1965 Z" /><path d="M 8715,1925 L 8755,1925 L 8755,1965 L 8715,1965 Z" /><path d="M 8585,1925 L 8625,1925 L 8625,1965 L 8585,1965 Z" /><path d="M 8455,1925 L 8495,1925 L 8495,1965 L 8455,1965 Z" /><path d="M 8325,1925 L 8365,1925 L 8365,1965 L 8325,1965 Z" /><path d="M 8195,1925 L 8235,1925 L 8235,1965 L 8195,1965 Z" /><path d="M 8065,1925 L 8105,1925 L 8105,1965 L 8065,1965 Z" /><path d="M 7935,1925 L 7975,1925 L 7975,1965 L 7935,1965 Z" /><path d="M 7805,1925 L 7845,1925 L 7845,1965 L 7805,1965 Z" /><path d="M 7675,1925 L 7715,1925 L 7715,1965 L 7675,1965 Z" /><path d="M 7545,1925 L 7585,1925 L 7585,1965 L 7545,1965 Z" /><path d="M 7415,1925 L 7455,1925 L 7455,1965 L 7415,1965 Z" /><path d="M 7285,1925 L 7325,1925 L 7325,1965 L 7285,1965 Z" /><path d="M 7155,1925 L 7195,1925 L 7195,1965 L 7155,1965 Z" /><path d="M 7025,1925 L 7065,1925 L 7065,1965 L 7025,1965 Z" /><path d="M 6895,1925 L 6935,1925 L 6935,1965 L 6895,1965 Z" /><path d="M 6765,1925 L 6805,1925 L 6805,1965 L 6765,1965 Z" /><path d="M 6635,1925 L 6675,1925 L 6675,1965 L 6635,1965 Z" /><path d="M 6505,1925 L 6545,1925 L 6545,1965 L 6505,1965 Z" /><path d="M 7935,1600 L 7975,1600 L 7975,1640 L 7935,1640 Z" /><path d="M 7805,1600 L 7845,1600 L 7845,1640 L 7805,1640 Z" /><path d="M 7415,800 L 7455,800 L 7455,840 L 7415,840 Z" /><path d="M 7415,600 L 7455,600 L 7455,640 L 7415,640 Z" /><path d="M 7415,1600 L 7455,1600 L 7455,1640 L 7415,1640 Z" /><path d="M 6895,1650 L 6935,1650 L 6935,1690 L 6895,1690 Z" /><path d="M 6765,1650 L 6805,1650 L 6805,1690 L 6765,1690 Z" /><path d="M 8975,1650 L 9015,1650 L 9015,1690 L 8975,1690 Z" /><path d="M 6765,800 L 6805,800 L 6805,840 L 6765,840 Z" /><path d="M 6765,600 L 6805,600 L 6805,640 L 6765,640 Z" /><path d="M 7545,800 L 7585,800 L 7585,840 L 7545,840 Z" /><path d="M 7545,600 L 7585,600 L 7585,640 L 7545,640 Z" /><path d="M 7155,800 L 7195,800 L 7195,840 L 7155,840 Z" /><path d="M 7155,600 L 7195,600 L 7195,640 L 7155,640 Z" /><path d="M 7935,800 L 7975,800 L 7975,840 L 7935,840 Z" /><path d="M 7935,600 L 7975,600 L 7975,640 L 7935,640 Z" /><path d="M 6505,650 L 6545,650 L 6545,690 L 6505,690 Z" /><path d="M 8195,650 L 8235,650 L 8235,690 L 8195,690 Z" /><path d="M 8715,650 L 8755,650 L 8755,690 L 8715,690 Z" /><path d="M 9235,650 L 9275,650 L 9275,690 L 9235,690 Z" /><path d="M 7155,1650 L 7195,1650 L 7195,1690 L 7155,1690 Z" /><path d="M 7025,1650 L 7065,1650 L 7065,1690 L 7025,1690 Z" /><path d="M 6635,1650 L 6675,1650 L 6675,1690 L 6635,1690 Z" /><path d="M 6505,1650 L 6545,1650 L 6545,1690 L 6505,1690 Z" /><path d="M 8325,1650 L 8365,1650 L 8365,1690 L 8325,1690 Z" /><path d="M 8195,1650 L 8235,1650 L 8235,1690 L 8195,1690 Z" /><path d="M 9105,1650 L 9145,1650 L 9145,1690 L 9105,1690 Z" /><path d="M 9235,1650 L 9275,1650 L 9275,1690 L 9235,1690 Z" /><path d="M 8845,1650 L 8885,1650 L 8885,1690 L 8845,1690 Z" /><path d="M 8715,1650 L 8755,1650 L 8755,1690 L 8715,1690 Z" /><path d="M 7675,1600 L 7715,1600 L 7715,1640 L 7675,1640 Z" /><path d="M 7545,1600 L 7585,1600 L 7585,1640 L 7545,1640 Z" /><path d="M 8455,1650 L 8495,1650 L 8495,1690 L 8455,1690 Z" /><path d="M 8455,650 L 8495,650 L 8495,690 L 8455,690 Z" /><path d="M 8975,650 L 9015,650 L 9015,690 L 8975,690 Z" /><path d="M 6960,1350 L 7000,1350 L 7000,1390 L 6960,1390 Z" /><path d="M 7480,1350 L 7520,1350 L 7520,1390 L 7480,1390 Z" /><path d="M 8910,1350 L 8950,1350 L 8950,1390 L 8910,1390 Z" /><path d="M 6830,1250 L 6870,1250 L 6870,1290 L 6830,1290 Z" /><path d="M 7090,1250 L 7130,1250 L 7130,1290 L 7090,1290 Z" /><path d="M 7870,1250 L 7910,1250 L 7910,1290 L 7870,1290 Z" /><path d="M 8390,1250 L 8430,1250 L 8430,1290 L 8390,1290 Z" /><path d="M 9170,1250 L 9210,1250 L 9210,1290 L 9170,1290 Z" /><path d="M 6570,1150 L 6610,1150 L 6610,1190 L 6570,1190 Z" /><path d="M 7610,1150 L 7650,1150 L 7650,1190 L 7610,1190 Z" /><path d="M 8910,1150 L 8950,1150 L 8950,1190 L 8910,1190 Z" /><path d="M 6700,1050 L 6740,1050 L 6740,1090 L 6700,1090 Z" /><path d="M 7740,1050 L 7780,1050 L 7780,1090 L 7740,1090 Z" /><path d="M 8780,1050 L 8820,1050 L 8820,1090 L 8780,1090 Z" /><path d="M 8260,935 L 8300,935 L 8300,975 L 8260,975 Z" /><path d="M 9040,935 L 9080,935 L 9080,975 L 9040,975 Z" /><path d="M 9170,825 L 9210,825 L 9210,865 L 9170,865 Z" /><path d="M 6375,325 L 6375,365 L 6415,365 L 6415,325 Z" /><path d="M 6245,325 L 6285,325 L 6285,365 L 6245,365 Z" /><path d="M 6115,325 L 6155,325 L 6155,365 L 6115,365 Z" /><path d="M 5985,325 L 6025,325 L 6025,365 L 5985,365 Z" /><path d="M 5855,325 L 5895,325 L 5895,365 L 5855,365 Z" /><path d="M 5725,325 L 5765,325 L 5765,365 L 5725,365 Z" /><path d="M 5595,325 L 5635,325 L 5635,365 L 5595,365 Z" /><path d="M 5465,325 L 5505,325 L 5505,365 L 5465,365 Z" /><path d="M 5335,325 L 5375,325 L 5375,365 L 5335,365 Z" /><path d="M 5205,325 L 5245,325 L 5245,365 L 5205,365 Z" /><path d="M 5075,325 L 5115,325 L 5115,365 L 5075,365 Z" /><path d="M 4945,325 L 4985,325 L 4985,365 L 4945,365 Z" /><path d="M 4815,325 L 4855,325 L 4855,365 L 4815,365 Z" /><path d="M 4685,325 L 4725,325 L 4725,365 L 4685,365 Z" /><path d="M 4555,325 L 4595,325 L 4595,365 L 4555,365 Z" /><path d="M 4425,325 L 4465,325 L 4465,365 L 4425,365 Z" /><path d="M 4295,325 L 4335,325 L 4335,365 L 4295,365 Z" /><path d="M 4165,325 L 4205,325 L 4205,365 L 4165,365 Z" /><path d="M 4035,325 L 4075,325 L 4075,365 L 4035,365 Z" /><path d="M 3905,325 L 3945,325 L 3945,365 L 3905,365 Z" /><path d="M 3775,325 L 3815,325 L 3815,365 L 3775,365 Z" /><path d="M 3645,325 L 3685,325 L 3685,365 L 3645,365 Z" /><path d="M 3515,325 L 3555,325 L 3555,365 L 3515,365 Z" /><path d="M 6375,1925 L 6375,1965 L 6415,1965 L 6415,1925 Z" /><path d="M 6245,1925 L 6285,1925 L 6285,1965 L 6245,1965 Z" /><path d="M 6115,1925 L 6155,1925 L 6155,1965 L 6115,1965 Z" /><path d="M 5985,1925 L 6025,1925 L 6025,1965 L 5985,1965 Z" /><path d="M 5855,1925 L 5895,1925 L 5895,1965 L 5855,1965 Z" /><path d="M 5725,1925 L 5765,1925 L 5765,1965 L 5725,1965 Z" /><path d="M 5595,1925 L 5635,1925 L 5635,1965 L 5595,1965 Z" /><path d="M 5465,1925 L 5505,1925 L 5505,1965 L 5465,1965 Z" /><path d="M 5335,1925 L 5375,1925 L 5375,1965 L 5335,1965 Z" /><path d="M 5205,1925 L 5245,1925 L 5245,1965 L 5205,1965 Z" /><path d="M 5075,1925 L 5115,1925 L 5115,1965 L 5075,1965 Z" /><path d="M 4945,1925 L 4985,1925 L 4985,1965 L 4945,1965 Z" /><path d="M 4815,1925 L 4855,1925 L 4855,1965 L 4815,1965 Z" /><path d="M 4685,1925 L 4725,1925 L 4725,1965 L 4685,1965 Z" /><path d="M 4555,1925 L 4595,1925 L 4595,1965 L 4555,1965 Z" /><path d="M 4425,1925 L 4465,1925 L 4465,1965 L 4425,1965 Z" /><path d="M 4295,1925 L 4335,1925 L 4335,1965 L 4295,1965 Z" /><path d="M 4165,1925 L 4205,1925 L 4205,1965 L 4165,1965 Z" /><path d="M 4035,1925 L 4075,1925 L 4075,1965 L 4035,1965 Z" /><path d="M 3905,1925 L 3945,1925 L 3945,1965 L 3905,1965 Z" /><path d="M 3775,1925 L 3815,1925 L 3815,1965 L 3775,1965 Z" /><path d="M 3645,1925 L 3685,1925 L 3685,1965 L 3645,1965 Z" /><path d="M 3515,1925 L 3555,1925 L 3555,1965 L 3515,1965 Z" /><path d="M 4945,1600 L 4985,1600 L 4985,1640 L 4945,1640 Z" /><path d="M 4815,1600 L 4855,1600 L 4855,1640 L 4815,1640 Z" /><path d="M 4425,800 L 4465,800 L 4465,840 L 4425,840 Z" /><path d="M 4425,600 L 4465,600 L 4465,640 L 4425,640 Z" /><path d="M 4425,1600 L 4465,1600 L 4465,1640 L 4425,1640 Z" /><path d="M 3905,1650 L 3945,1650 L 3945,1690 L 3905,1690 Z" /><path d="M 3775,1650 L 3815,1650 L 3815,1690 L 3775,1690 Z" /><path d="M 5985,1650 L 6025,1650 L 6025,1690 L 5985,1690 Z" /><path d="M 3775,800 L 3815,800 L 3815,840 L 3775,840 Z" /><path d="M 3775,600 L 3815,600 L 3815,640 L 3775,640 Z" /><path d="M 4555,800 L 4595,800 L 4595,840 L 4555,840 Z" /><path d="M 4555,600 L 4595,600 L 4595,640 L 4555,640 Z" /><path d="M 4165,800 L 4205,800 L 4205,840 L 4165,840 Z" /><path d="M 4165,600 L 4205,600 L 4205,640 L 4165,640 Z" /><path d="M 4945,800 L 4985,800 L 4985,840 L 4945,840 Z" /><path d="M 4945,600 L 4985,600 L 4985,640 L 4945,640 Z" /><path d="M 3515,650 L 3555,650 L 3555,690 L 3515,690 Z" /><path d="M 5205,650 L 5245,650 L 5245,690 L 5205,690 Z" /><path d="M 5725,650 L 5765,650 L 5765,690 L 5725,690 Z" /><path d="M 6245,650 L 6285,650 L 6285,690 L 6245,690 Z" /><path d="M 4165,1650 L 4205,1650 L 4205,1690 L 4165,1690 Z" /><path d="M 4035,1650 L 4075,1650 L 4075,1690 L 4035,1690 Z" /><path d="M 3645,1650 L 3685,1650 L 3685,1690 L 3645,1690 Z" /><path d="M 3515,1650 L 3555,1650 L 3555,1690 L 3515,1690 Z" /><path d="M 5335,1650 L 5375,1650 L 5375,1690 L 5335,1690 Z" /><path d="M 5205,1650 L 5245,1650 L 5245,1690 L 5205,1690 Z" /><path d="M 6115,1650 L 6155,1650 L 6155,1690 L 6115,1690 Z" /><path d="M 6245,1650 L 6285,1650 L 6285,1690 L 6245,1690 Z" /><path d="M 5855,1650 L 5895,1650 L 5895,1690 L 5855,1690 Z" /><path d="M 5725,1650 L 5765,1650 L 5765,1690 L 5725,1690 Z" /><path d="M 4685,1600 L 4725,1600 L 4725,1640 L 4685,1640 Z" /><path d="M 4555,1600 L 4595,1600 L 4595,1640 L 4555,1640 Z" /><path d="M 5465,1650 L 5505,1650 L 5505,1690 L 5465,1690 Z" /><path d="M 5465,650 L 5505,650 L 5505,690 L 5465,690 Z" /><path d="M 5985,650 L 6025,650 L 6025,690 L 5985,690 Z" /><path d="M 3970,1350 L 4010,1350 L 4010,1390 L 3970,1390 Z" /><path d="M 4490,1350 L 4530,1350 L 4530,1390 L 4490,1390 Z" /><path d="M 5920,1350 L 5960,1350 L 5960,1390 L 5920,1390 Z" /><path d="M 3840,1250 L 3880,1250 L 3880,1290 L 3840,1290 Z" /><path d="M 4100,1250 L 4140,1250 L 4140,1290 L 4100,1290 Z" /><path d="M 4880,1250 L 4920,1250 L 4920,1290 L 4880,1290 Z" /><path d="M 5400,1250 L 5440,1250 L 5440,1290 L 5400,1290 Z" /><path d="M 6180,1250 L 6220,1250 L 6220,1290 L 6180,1290 Z" /><path d="M 3580,1150 L 3620,1150 L 3620,1190 L 3580,1190 Z" /><path d="M 4620,1150 L 4660,1150 L 4660,1190 L 4620,1190 Z" /><path d="M 5920,1150 L 5960,1150 L 5960,1190 L 5920,1190 Z" /><path d="M 3710,1050 L 3750,1050 L 3750,1090 L 3710,1090 Z" /><path d="M 4750,1050 L 4790,1050 L 4790,1090 L 4750,1090 Z" /><path d="M 5790,1050 L 5830,1050 L 5830,1090 L 5790,1090 Z" /><path d="M 5270,935 L 5310,935 L 5310,975 L 5270,975 Z" /><path d="M 6050,935 L 6090,935 L 6090,975 L 6050,975 Z" /><path d="M 6180,825 L 6220,825 L 6220,865 L 6180,865 Z" /><path d="M 3385,325 L 3385,365 L 3425,365 L 3425,325 Z" /><path d="M 3255,325 L 3295,325 L 3295,365 L 3255,365 Z" /><path d="M 3125,325 L 3165,325 L 3165,365 L 3125,365 Z" /><path d="M 2995,325 L 3035,325 L 3035,365 L 2995,365 Z" /><path d="M 2865,325 L 2905,325 L 2905,365 L 2865,365 Z" /><path d="M 2735,325 L 2775,325 L 2775,365 L 2735,365 Z" /><path d="M 2605,325 L 2645,325 L 2645,365 L 2605,365 Z" /><path d="M 2475,325 L 2515,325 L 2515,365 L 2475,365 Z" /><path d="M 2345,325 L 2385,325 L 2385,365 L 2345,365 Z" /><path d="M 2215,325 L 2255,325 L 2255,365 L 2215,365 Z" /><path d="M 2085,325 L 2125,325 L 2125,365 L 2085,365 Z" /><path d="M 1955,325 L 1995,325 L 1995,365 L 1955,365 Z" /><path d="M 1825,325 L 1865,325 L 1865,365 L 1825,365 Z" /><path d="M 1695,325 L 1735,325 L 1735,365 L 1695,365 Z" /><path d="M 1565,325 L 1605,325 L 1605,365 L 1565,365 Z" /><path d="M 1435,325 L 1475,325 L 1475,365 L 1435,365 Z" /><path d="M 1305,325 L 1345,325 L 1345,365 L 1305,365 Z" /><path d="M 1175,325 L 1215,325 L 1215,365 L 1175,365 Z" /><path d="M 1045,325 L 1085,325 L 1085,365 L 1045,365 Z" /><path d="M 915,325 L 955,325 L 955,365 L 915,365 Z" /><path d="M 785,325 L 825,325 L 825,365 L 785,365 Z" /><path d="M 655,325 L 695,325 L 695,365 L 655,365 Z" /><path d="M 525,325 L 565,325 L 565,365 L 525,365 Z" /><path d="M 395,325 L 435,325 L 435,365 L 395,365 Z" /><path d="M 3385,1925 L 3385,1965 L 3425,1965 L 3425,1925 Z" /><path d="M 3255,1925 L 3295,1925 L 3295,1965 L 3255,1965 Z" /><path d="M 3125,1925 L 3165,1925 L 3165,1965 L 3125,1965 Z" /><path d="M 2995,1925 L 3035,1925 L 3035,1965 L 2995,1965 Z" /><path d="M 2865,1925 L 2905,1925 L 2905,1965 L 2865,1965 Z" /><path d="M 2735,1925 L 2775,1925 L 2775,1965 L 2735,1965 Z" /><path d="M 2605,1925 L 2645,1925 L 2645,1965 L 2605,1965 Z" /><path d="M 2475,1925 L 2515,1925 L 2515,1965 L 2475,1965 Z" /><path d="M 2345,1925 L 2385,1925 L 2385,1965 L 2345,1965 Z" /><path d="M 2215,1925 L 2255,1925 L 2255,1965 L 2215,1965 Z" /><path d="M 2085,1925 L 2125,1925 L 2125,1965 L 2085,1965 Z" /><path d="M 1955,1925 L 1995,1925 L 1995,1965 L 1955,1965 Z" /><path d="M 1825,1925 L 1865,1925 L 1865,1965 L 1825,1965 Z" /><path d="M 1695,1925 L 1735,1925 L 1735,1965 L 1695,1965 Z" /><path d="M 1565,1925 L 1605,1925 L 1605,1965 L 1565,1965 Z" /><path d="M 1435,1925 L 1475,1925 L 1475,1965 L 1435,1965 Z" /><path d="M 1305,1925 L 1345,1925 L 1345,1965 L 1305,1965 Z" /><path d="M 1175,1925 L 1215,1925 L 1215,1965 L 1175,1965 Z" /><path d="M 1045,1925 L 1085,1925 L 1085,1965 L 1045,1965 Z" /><path d="M 915,1925 L 955,1925 L 955,1965 L 915,1965 Z" /><path d="M 785,1925 L 825,1925 L 825,1965 L 785,1965 Z" /><path d="M 655,1925 L 695,1925 L 695,1965 L 655,1965 Z" /><path d="M 525,1925 L 565,1925 L 565,1965 L 525,1965 Z" /><path d="M 395,1925 L 435,1925 L 435,1965 L 395,1965 Z" /><path d="M 1955,1600 L 1995,1600 L 1995,1640 L 1955,1640 Z" /><path d="M 1825,1600 L 1865,1600 L 1865,1640 L 1825,1640 Z" /><path d="M 1435,800 L 1475,800 L 1475,840 L 1435,840 Z" /><path d="M 1435,600 L 1475,600 L 1475,640 L 1435,640 Z" /><path d="M 1435,1600 L 1475,1600 L 1475,1640 L 1435,1640 Z" /><path d="M 915,1650 L 955,1650 L 955,1690 L 915,1690 Z" /><path d="M 785,1650 L 825,1650 L 825,1690 L 785,1690 Z" /><path d="M 2995,1650 L 3035,1650 L 3035,1690 L 2995,1690 Z" /><path d="M 785,800 L 825,800 L 825,840 L 785,840 Z" /><path d="M 785,600 L 825,600 L 825,640 L 785,640 Z" /><path d="M 1565,800 L 1605,800 L 1605,840 L 1565,840 Z" /><path d="M 1565,600 L 1605,600 L 1605,640 L 1565,640 Z" /><path d="M 1175,800 L 1215,800 L 1215,840 L 1175,840 Z" /><path d="M 1175,600 L 1215,600 L 1215,640 L 1175,640 Z" /><path d="M 1955,800 L 1995,800 L 1995,840 L 1955,840 Z" /><path d="M 1955,600 L 1995,600 L 1995,640 L 1955,640 Z" /><path d="M 525,650 L 565,650 L 565,690 L 525,690 Z" /><path d="M 2215,650 L 2255,650 L 2255,690 L 2215,690 Z" /><path d="M 2735,650 L 2775,650 L 2775,690 L 2735,690 Z" /><path d="M 3255,650 L 3295,650 L 3295,690 L 3255,690 Z" /><path d="M 1175,1650 L 1215,1650 L 1215,1690 L 1175,1690 Z" /><path d="M 1045,1650 L 1085,1650 L 1085,1690 L 1045,1690 Z" /><path d="M 655,1650 L 695,1650 L 695,1690 L 655,1690 Z" /><path d="M 525,1650 L 565,1650 L 565,1690 L 525,1690 Z" /><path d="M 2345,1650 L 2385,1650 L 2385,1690 L 2345,1690 Z" /><path d="M 2215,1650 L 2255,1650 L 2255,1690 L 2215,1690 Z" /><path d="M 3125,1650 L 3165,1650 L 3165,1690 L 3125,1690 Z" /><path d="M 3255,1650 L 3295,1650 L 3295,1690 L 3255,1690 Z" /><path d="M 2865,1650 L 2905,1650 L 2905,1690 L 2865,1690 Z" /><path d="M 2735,1650 L 2775,1650 L 2775,1690 L 2735,1690 Z" /><path d="M 1695,1600 L 1735,1600 L 1735,1640 L 1695,1640 Z" /><path d="M 1565,1600 L 1605,1600 L 1605,1640 L 1565,1640 Z" /><path d="M 2475,1650 L 2515,1650 L 2515,1690 L 2475,1690 Z" /><path d="M 2475,650 L 2515,650 L 2515,690 L 2475,690 Z" /><path d="M 2995,650 L 3035,650 L 3035,690 L 2995,690 Z" /><path d="M 980,1350 L 1020,1350 L 1020,1390 L 980,1390 Z" /><path d="M 1500,1350 L 1540,1350 L 1540,1390 L 1500,1390 Z" /><path d="M 2930,1350 L 2970,1350 L 2970,1390 L 2930,1390 Z" /><path d="M 850,1250 L 890,1250 L 890,1290 L 850,1290 Z" /><path d="M 1110,1250 L 1150,1250 L 1150,1290 L 1110,1290 Z" /><path d="M 1890,1250 L 1930,1250 L 1930,1290 L 1890,1290 Z" /><path d="M 2410,1250 L 2450,1250 L 2450,1290 L 2410,1290 Z" /><path d="M 3190,1250 L 3230,1250 L 3230,1290 L 3190,1290 Z" /><path d="M 590,1150 L 630,1150 L 630,1190 L 590,1190 Z" /><path d="M 1630,1150 L 1670,1150 L 1670,1190 L 1630,1190 Z" /><path d="M 2930,1150 L 2970,1150 L 2970,1190 L 2930,1190 Z" /><path d="M 720,1050 L 760,1050 L 760,1090 L 720,1090 Z" /><path d="M 1760,1050 L 1800,1050 L 1800,1090 L 1760,1090 Z" /><path d="M 2800,1050 L 2840,1050 L 2840,1090 L 2800,1090 Z" /><path d="M 2280,935 L 2320,935 L 2320,975 L 2280,975 Z" /><path d="M 3060,935 L 3100,935 L 3100,975 L 3060,975 Z" /><path d="M 3190,825 L 3230,825 L 3230,865 L 3190,865 Z" /></g></g><g id="M1"><g class="l31d0"><path d="M 10790,1665 L 10790,1670 L 10790,1730 L 10580,1730 L 10580,1670 L 10580,1665 L 10580,1570 L 10530,1570 L 10530,1665 L 10530,1670 L 10530,1730 L 10530,1780 L 10580,1780 L 10790,1780 L 10840,1780 L 10840,1730 L 10840,1670 L 10840,1665 L 10840,1570 L 10790,1570 Z" /><path d="M 12140,1620 L 12140,1395 L 12140,1345 L 12090,1345 L 11960,1345 L 11920,1345 L 11880,1345 L 11880,1395 L 11920,1395 L 11960,1395 L 12090,1395 L 12090,1620 L 12090,1720 L 12140,1720 Z" /><path d="M 12140,1245 L 11800,1245 L 11750,1245 L 11750,1294 L 11750,1455 L 11750,1504 L 11800,1504 L 11830,1504 L 11830,1620 L 11830,1720 L 11880,1720 L 11880,1620 L 11880,1504 L 11880,1455 L 11830,1455 L 11800,1455 L 11800,1294 L 12140,1294 L 12140,1295 L 12220,1295 L 12220,1245 L 12160,1245 Z" /><path d="M 12140,820 L 11750,820 L 11750,720 L 11750,620 L 11700,620 L 11700,720 L 11700,820 L 11700,870 L 11750,870 L 12140,870 L 12180,870 L 12220,870 L 12220,820 L 12180,820 Z" /><path d="M 12220,530 L 12220,615 L 12220,620 L 12220,720 L 12220,725 L 12220,760 L 12270,760 L 12270,725 L 12270,720 L 12270,620 L 12270,615 L 12270,530 Z" /><path d="M 11180,555 L 11180,615 L 11180,620 L 11180,720 L 11180,725 L 11180,785 L 11230,785 L 11230,725 L 11230,720 L 11230,620 L 11230,615 L 11230,555 Z" /><path d="M 9490,555 L 9490,615 L 9490,620 L 9490,720 L 9490,725 L 9490,785 L 9540,785 L 9540,725 L 9540,720 L 9540,620 L 9540,615 L 9540,555 Z" /><path d="M 11530,1245 L 11440,1245 L 11360,1245 L 11350,1245 L 11350,1295 L 11360,1295 L 11440,1295 L 11580,1295 L 11580,1245 L 11580,1195 L 11880,1195 L 11920,1195 L 11960,1195 L 12190,1195 L 12245,1195 L 12300,1195 L 12300,1145 L 12245,1145 L 12190,1145 L 11960,1145 L 11920,1145 L 11880,1145 L 11580,1145 L 11530,1145 L 11530,1195 Z" /><path d="M 11205,1145 L 11150,1145 L 10660,1145 L 10620,1145 L 10580,1145 L 9620,1145 L 9580,1145 L 9540,1145 L 9540,1195 L 9580,1195 L 9620,1195 L 10580,1195 L 10620,1195 L 10660,1195 L 11150,1195 L 11205,1195 L 11210,1195 L 11210,1510 L 11210,1560 L 11260,1560 L 11310,1560 L 11310,1620 L 11310,1720 L 11360,1720 L 11360,1620 L 11360,1560 L 11360,1510 L 11310,1510 L 11260,1510 L 11260,1195 L 11260,1145 L 11210,1145 Z" /><path d="M 10969,870 L 10970,870 L 10970,570 L 10920,570 L 10920,870 L 10920,930 L 10870,930 L 10760,930 L 10449,930 L 10449,870 L 10450,870 L 10450,570 L 10400,570 L 10400,870 L 10400,930 L 10400,980 L 10449,980 L 10760,980 L 10870,980 L 10920,980 L 10969,980 L 11230,980 L 11270,980 L 11310,980 L 12010,980 L 12050,980 L 12090,980 L 12090,930 L 12050,930 L 12010,930 L 11310,930 L 11270,930 L 11230,930 L 10969,930 Z" /><path d="M 10969,1570 L 10969,1510 L 10969,1460 L 10920,1460 L 10870,1460 L 10760,1460 L 10709,1460 L 10660,1460 L 10660,1510 L 10660,1570 L 10660,1670 L 10710,1670 L 10710,1570 L 10709,1570 L 10709,1510 L 10760,1510 L 10870,1510 L 10920,1510 L 10920,1570 L 10920,1670 L 10970,1670 L 10970,1570 Z" /><path d="M 9670,1045 L 9670,1095 L 9710,1095 L 9750,1095 L 9980,1095 L 10090,1095 L 10140,1095 L 10189,1095 L 10710,1095 L 10750,1095 L 10790,1095 L 11750,1095 L 11790,1095 L 11830,1095 L 11830,1045 L 11790,1045 L 11750,1045 L 10790,1045 L 10750,1045 L 10710,1045 L 10189,1045 L 10189,870 L 10190,870 L 10190,570 L 10140,570 L 10140,870 L 10140,1045 L 10090,1045 L 9980,1045 L 9750,1045 L 9710,1045 Z" /><path d="M 10189,1620 L 10189,1560 L 10189,1510 L 10140,1510 L 10090,1510 L 9980,1510 L 9930,1510 L 9880,1510 L 9880,1560 L 9880,1620 L 9880,1720 L 9930,1720 L 9930,1620 L 9930,1560 L 9980,1560 L 10090,1560 L 10140,1560 L 10140,1620 L 10140,1720 L 10190,1720 L 10190,1620 Z" /><path d="M 9930,1395 L 9970,1395 L 10010,1395 L 10010,1345 L 9970,1345 L 9930,1345 L 9670,1345 L 9620,1345 L 9570,1345 L 9515,1345 L 9460,1345 L 9460,1395 L 9515,1395 L 9570,1395 L 9620,1395 L 9620,1620 L 9620,1720 L 9670,1720 L 9670,1620 L 9670,1395 Z" /><path d="M 7800,1665 L 7800,1670 L 7800,1730 L 7590,1730 L 7590,1670 L 7590,1665 L 7590,1570 L 7540,1570 L 7540,1665 L 7540,1670 L 7540,1730 L 7540,1780 L 7590,1780 L 7800,1780 L 7850,1780 L 7850,1730 L 7850,1670 L 7850,1665 L 7850,1570 L 7800,1570 Z" /><path d="M 9150,1620 L 9150,1395 L 9150,1345 L 9100,1345 L 8970,1345 L 8930,1345 L 8890,1345 L 8890,1395 L 8930,1395 L 8970,1395 L 9100,1395 L 9100,1620 L 9100,1720 L 9150,1720 Z" /><path d="M 9150,1245 L 8810,1245 L 8760,1245 L 8760,1294 L 8760,1455 L 8760,1504 L 8810,1504 L 8840,1504 L 8840,1620 L 8840,1720 L 8890,1720 L 8890,1620 L 8890,1504 L 8890,1455 L 8840,1455 L 8810,1455 L 8810,1294 L 9150,1294 L 9150,1295 L 9230,1295 L 9230,1245 L 9170,1245 Z" /><path d="M 9150,820 L 8760,820 L 8760,720 L 8760,620 L 8710,620 L 8710,720 L 8710,820 L 8710,870 L 8760,870 L 9150,870 L 9190,870 L 9230,870 L 9230,820 L 9190,820 Z" /><path d="M 9230,530 L 9230,615 L 9230,620 L 9230,720 L 9230,725 L 9230,760 L 9280,760 L 9280,725 L 9280,720 L 9280,620 L 9280,615 L 9280,530 Z" /><path d="M 8190,555 L 8190,615 L 8190,620 L 8190,720 L 8190,725 L 8190,785 L 8240,785 L 8240,725 L 8240,720 L 8240,620 L 8240,615 L 8240,555 Z" /><path d="M 6500,555 L 6500,615 L 6500,620 L 6500,720 L 6500,725 L 6500,785 L 6550,785 L 6550,725 L 6550,720 L 6550,620 L 6550,615 L 6550,555 Z" /><path d="M 8540,1245 L 8450,1245 L 8370,1245 L 8360,1245 L 8360,1295 L 8370,1295 L 8450,1295 L 8590,1295 L 8590,1245 L 8590,1195 L 8890,1195 L 8930,1195 L 8970,1195 L 9200,1195 L 9255,1195 L 9310,1195 L 9310,1145 L 9255,1145 L 9200,1145 L 8970,1145 L 8930,1145 L 8890,1145 L 8590,1145 L 8540,1145 L 8540,1195 Z" /><path d="M 8215,1145 L 8160,1145 L 7670,1145 L 7630,1145 L 7590,1145 L 6630,1145 L 6590,1145 L 6550,1145 L 6550,1195 L 6590,1195 L 6630,1195 L 7590,1195 L 7630,1195 L 7670,1195 L 8160,1195 L 8215,1195 L 8220,1195 L 8220,1510 L 8220,1560 L 8270,1560 L 8320,1560 L 8320,1620 L 8320,1720 L 8370,1720 L 8370,1620 L 8370,1560 L 8370,1510 L 8320,1510 L 8270,1510 L 8270,1195 L 8270,1145 L 8220,1145 Z" /><path d="M 7979,870 L 7980,870 L 7980,570 L 7930,570 L 7930,870 L 7930,930 L 7880,930 L 7770,930 L 7459,930 L 7459,870 L 7460,870 L 7460,570 L 7410,570 L 7410,870 L 7410,930 L 7410,980 L 7459,980 L 7770,980 L 7880,980 L 7930,980 L 7979,980 L 8240,980 L 8280,980 L 8320,980 L 9020,980 L 9060,980 L 9100,980 L 9100,930 L 9060,930 L 9020,930 L 8320,930 L 8280,930 L 8240,930 L 7979,930 Z" /><path d="M 7979,1570 L 7979,1510 L 7979,1460 L 7930,1460 L 7880,1460 L 7770,1460 L 7719,1460 L 7670,1460 L 7670,1510 L 7670,1570 L 7670,1670 L 7720,1670 L 7720,1570 L 7719,1570 L 7719,1510 L 7770,1510 L 7880,1510 L 7930,1510 L 7930,1570 L 7930,1670 L 7980,1670 L 7980,1570 Z" /><path d="M 6680,1045 L 6680,1095 L 6720,1095 L 6760,1095 L 6990,1095 L 7100,1095 L 7150,1095 L 7199,1095 L 7720,1095 L 7760,1095 L 7800,1095 L 8760,1095 L 8800,1095 L 8840,1095 L 8840,1045 L 8800,1045 L 8760,1045 L 7800,1045 L 7760,1045 L 7720,1045 L 7199,1045 L 7199,870 L 7200,870 L 7200,570 L 7150,570 L 7150,870 L 7150,1045 L 7100,1045 L 6990,1045 L 6760,1045 L 6720,1045 Z" /><path d="M 7199,1620 L 7199,1560 L 7199,1510 L 7150,1510 L 7100,1510 L 6990,1510 L 6940,1510 L 6890,1510 L 6890,1560 L 6890,1620 L 6890,1720 L 6940,1720 L 6940,1620 L 6940,1560 L 6990,1560 L 7100,1560 L 7150,1560 L 7150,1620 L 7150,1720 L 7200,1720 L 7200,1620 Z" /><path d="M 6940,1395 L 6980,1395 L 7020,1395 L 7020,1345 L 6980,1345 L 6940,1345 L 6680,1345 L 6630,1345 L 6580,1345 L 6525,1345 L 6470,1345 L 6470,1395 L 6525,1395 L 6580,1395 L 6630,1395 L 6630,1620 L 6630,1720 L 6680,1720 L 6680,1620 L 6680,1395 Z" /><path d="M 4810,1665 L 4810,1670 L 4810,1730 L 4600,1730 L 4600,1670 L 4600,1665 L 4600,1570 L 4550,1570 L 4550,1665 L 4550,1670 L 4550,1730 L 4550,1780 L 4600,1780 L 4810,1780 L 4860,1780 L 4860,1730 L 4860,1670 L 4860,1665 L 4860,1570 L 4810,1570 Z" /><path d="M 6160,1620 L 6160,1395 L 6160,1345 L 6110,1345 L 5980,1345 L 5940,1345 L 5900,1345 L 5900,1395 L 5940,1395 L 5980,1395 L 6110,1395 L 6110,1620 L 6110,1720 L 6160,1720 Z" /><path d="M 6160,1245 L 5820,1245 L 5770,1245 L 5770,1294 L 5770,1455 L 5770,1504 L 5820,1504 L 5850,1504 L 5850,1620 L 5850,1720 L 5900,1720 L 5900,1620 L 5900,1504 L 5900,1455 L 5850,1455 L 5820,1455 L 5820,1294 L 6160,1294 L 6160,1295 L 6240,1295 L 6240,1245 L 6180,1245 Z" /><path d="M 6160,820 L 5770,820 L 5770,720 L 5770,620 L 5720,620 L 5720,720 L 5720,820 L 5720,870 L 5770,870 L 6160,870 L 6200,870 L 6240,870 L 6240,820 L 6200,820 Z" /><path d="M 6240,530 L 6240,615 L 6240,620 L 6240,720 L 6240,725 L 6240,760 L 6290,760 L 6290,725 L 6290,720 L 6290,620 L 6290,615 L 6290,530 Z" /><path d="M 5200,555 L 5200,615 L 5200,620 L 5200,720 L 5200,725 L 5200,785 L 5250,785 L 5250,725 L 5250,720 L 5250,620 L 5250,615 L 5250,555 Z" /><path d="M 3510,555 L 3510,615 L 3510,620 L 3510,720 L 3510,725 L 3510,785 L 3560,785 L 3560,725 L 3560,720 L 3560,620 L 3560,615 L 3560,555 Z" /><path d="M 5550,1245 L 5460,1245 L 5380,1245 L 5370,1245 L 5370,1295 L 5380,1295 L 5460,1295 L 5600,1295 L 5600,1245 L 5600,1195 L 5900,1195 L 5940,1195 L 5980,1195 L 6210,1195 L 6265,1195 L 6320,1195 L 6320,1145 L 6265,1145 L 6210,1145 L 5980,1145 L 5940,1145 L 5900,1145 L 5600,1145 L 5550,1145 L 5550,1195 Z" /><path d="M 5225,1145 L 5170,1145 L 4680,1145 L 4640,1145 L 4600,1145 L 3640,1145 L 3600,1145 L 3560,1145 L 3560,1195 L 3600,1195 L 3640,1195 L 4600,1195 L 4640,1195 L 4680,1195 L 5170,1195 L 5225,1195 L 5230,1195 L 5230,1510 L 5230,1560 L 5280,1560 L 5330,1560 L 5330,1620 L 5330,1720 L 5380,1720 L 5380,1620 L 5380,1560 L 5380,1510 L 5330,1510 L 5280,1510 L 5280,1195 L 5280,1145 L 5230,1145 Z" /><path d="M 4989,870 L 4990,870 L 4990,570 L 4940,570 L 4940,870 L 4940,930 L 4890,930 L 4780,930 L 4469,930 L 4469,870 L 4470,870 L 4470,570 L 4420,570 L 4420,870 L 4420,930 L 4420,980 L 4469,980 L 4780,980 L 4890,980 L 4940,980 L 4989,980 L 5250,980 L 5290,980 L 5330,980 L 6030,980 L 6070,980 L 6110,980 L 6110,930 L 6070,930 L 6030,930 L 5330,930 L 5290,930 L 5250,930 L 4989,930 Z" /><path d="M 4989,1570 L 4989,1510 L 4989,1460 L 4940,1460 L 4890,1460 L 4780,1460 L 4729,1460 L 4680,1460 L 4680,1510 L 4680,1570 L 4680,1670 L 4730,1670 L 4730,1570 L 4729,1570 L 4729,1510 L 4780,1510 L 4890,1510 L 4940,1510 L 4940,1570 L 4940,1670 L 4990,1670 L 4990,1570 Z" /><path d="M 3690,1045 L 3690,1095 L 3730,1095 L 3770,1095 L 4000,1095 L 4110,1095 L 4160,1095 L 4209,1095 L 4730,1095 L 4770,1095 L 4810,1095 L 5770,1095 L 5810,1095 L 5850,1095 L 5850,1045 L 5810,1045 L 5770,1045 L 4810,1045 L 4770,1045 L 4730,1045 L 4209,1045 L 4209,870 L 4210,870 L 4210,570 L 4160,570 L 4160,870 L 4160,1045 L 4110,1045 L 4000,1045 L 3770,1045 L 3730,1045 Z" /><path d="M 4209,1620 L 4209,1560 L 4209,1510 L 4160,1510 L 4110,1510 L 4000,1510 L 3950,1510 L 3900,1510 L 3900,1560 L 3900,1620 L 3900,1720 L 3950,1720 L 3950,1620 L 3950,1560 L 4000,1560 L 4110,1560 L 4160,1560 L 4160,1620 L 4160,1720 L 4210,1720 L 4210,1620 Z" /><path d="M 3950,1395 L 3990,1395 L 4030,1395 L 4030,1345 L 3990,1345 L 3950,1345 L 3690,1345 L 3640,1345 L 3590,1345 L 3535,1345 L 3480,1345 L 3480,1395 L 3535,1395 L 3590,1395 L 3640,1395 L 3640,1620 L 3640,1720 L 3690,1720 L 3690,1620 L 3690,1395 Z" /><path d="M 1820,1665 L 1820,1670 L 1820,1730 L 1610,1730 L 1610,1670 L 1610,1665 L 1610,1570 L 1560,1570 L 1560,1665 L 1560,1670 L 1560,1730 L 1560,1780 L 1610,1780 L 1820,1780 L 1870,1780 L 1870,1730 L 1870,1670 L 1870,1665 L 1870,1570 L 1820,1570 Z" /><path d="M 11490,395 L 11960,395 L 11960,620 L 11960,720 L 12010,720 L 12010,620 L 12010,395 L 12445,395 L 12445,295 L 9455,295 L 9315,295 L 6465,295 L 6325,295 L 3475,295 L 3335,295 L 345,295 L 345,395 L 780,395 L 780,570 L 780,870 L 830,870 L 830,570 L 830,395 L 1560,395 L 1560,570 L 1560,870 L 1610,870 L 1610,570 L 1610,395 L 2470,395 L 2470,620 L 2470,720 L 2520,720 L 2520,620 L 2520,395 L 2990,395 L 2990,620 L 2990,720 L 3040,720 L 3040,620 L 3040,395 L 3335,395 L 3475,395 L 3770,395 L 3770,570 L 3770,870 L 3820,870 L 3820,570 L 3820,395 L 4550,395 L 4550,570 L 4550,870 L 4600,870 L 4600,570 L 4600,395 L 5460,395 L 5460,620 L 5460,720 L 5510,720 L 5510,620 L 5510,395 L 5980,395 L 5980,620 L 5980,720 L 6030,720 L 6030,620 L 6030,395 L 6325,395 L 6465,395 L 6760,395 L 6760,570 L 6760,870 L 6810,870 L 6810,570 L 6810,395 L 7540,395 L 7540,570 L 7540,870 L 7590,870 L 7590,570 L 7590,395 L 8450,395 L 8450,620 L 8450,720 L 8500,720 L 8500,620 L 8500,395 L 8970,395 L 8970,620 L 8970,720 L 9020,720 L 9020,620 L 9020,395 L 9315,395 L 9455,395 L 9750,395 L 9750,570 L 9750,870 L 9800,870 L 9800,570 L 9800,395 L 10530,395 L 10530,570 L 10530,870 L 10580,870 L 10580,570 L 10580,395 L 11440,395 L 11440,620 L 11440,720 L 11490,720 L 11490,620 Z" /><path d="M 12010,1620 L 11960,1620 L 11960,1720 L 11960,1895 L 11750,1895 L 11750,1720 L 11750,1620 L 11700,1620 L 11700,1720 L 11700,1895 L 11490,1895 L 11490,1720 L 11490,1620 L 11440,1620 L 11440,1720 L 11440,1895 L 11230,1895 L 11230,1720 L 11230,1620 L 11180,1620 L 11180,1720 L 11180,1895 L 10449,1895 L 10449,1670 L 10450,1670 L 10450,1570 L 10400,1570 L 10400,1670 L 10400,1895 L 10060,1895 L 10060,1720 L 10060,1620 L 10010,1620 L 10010,1720 L 10010,1895 L 9800,1895 L 9800,1720 L 9800,1620 L 9750,1620 L 9750,1720 L 9750,1895 L 9540,1895 L 9540,1720 L 9540,1620 L 9490,1620 L 9490,1720 L 9490,1895 L 9455,1895 L 9315,1895 L 9280,1895 L 9280,1720 L 9280,1620 L 9230,1620 L 9230,1720 L 9230,1895 L 9020,1895 L 9020,1720 L 9020,1620 L 8970,1620 L 8970,1720 L 8970,1895 L 8760,1895 L 8760,1720 L 8760,1620 L 8710,1620 L 8710,1720 L 8710,1895 L 8500,1895 L 8500,1720 L 8500,1620 L 8450,1620 L 8450,1720 L 8450,1895 L 8240,1895 L 8240,1720 L 8240,1620 L 8190,1620 L 8190,1720 L 8190,1895 L 7459,1895 L 7459,1670 L 7460,1670 L 7460,1570 L 7410,1570 L 7410,1670 L 7410,1895 L 7070,1895 L 7070,1720 L 7070,1620 L 7020,1620 L 7020,1720 L 7020,1895 L 6810,1895 L 6810,1720 L 6810,1620 L 6760,1620 L 6760,1720 L 6760,1895 L 6550,1895 L 6550,1720 L 6550,1620 L 6500,1620 L 6500,1720 L 6500,1895 L 6465,1895 L 6325,1895 L 6290,1895 L 6290,1720 L 6290,1620 L 6240,1620 L 6240,1720 L 6240,1895 L 6030,1895 L 6030,1720 L 6030,1620 L 5980,1620 L 5980,1720 L 5980,1895 L 5770,1895 L 5770,1720 L 5770,1620 L 5720,1620 L 5720,1720 L 5720,1895 L 5510,1895 L 5510,1720 L 5510,1620 L 5460,1620 L 5460,1720 L 5460,1895 L 5250,1895 L 5250,1720 L 5250,1620 L 5200,1620 L 5200,1720 L 5200,1895 L 4469,1895 L 4469,1670 L 4470,1670 L 4470,1570 L 4420,1570 L 4420,1670 L 4420,1895 L 4080,1895 L 4080,1720 L 4080,1620 L 4030,1620 L 4030,1720 L 4030,1895 L 3820,1895 L 3820,1720 L 3820,1620 L 3770,1620 L 3770,1720 L 3770,1895 L 3560,1895 L 3560,1720 L 3560,1620 L 3510,1620 L 3510,1720 L 3510,1895 L 3475,1895 L 3335,1895 L 3300,1895 L 3300,1720 L 3300,1620 L 3250,1620 L 3250,1720 L 3250,1895 L 3040,1895 L 3040,1720 L 3040,1620 L 2990,1620 L 2990,1720 L 2990,1895 L 2780,1895 L 2780,1720 L 2780,1620 L 2730,1620 L 2730,1720 L 2730,1895 L 2520,1895 L 2520,1720 L 2520,1620 L 2470,1620 L 2470,1720 L 2470,1895 L 2260,1895 L 2260,1720 L 2260,1620 L 2210,1620 L 2210,1720 L 2210,1895 L 1479,1895 L 1479,1670 L 1480,1670 L 1480,1570 L 1430,1570 L 1430,1670 L 1430,1895 L 1090,1895 L 1090,1720 L 1090,1620 L 1040,1620 L 1040,1720 L 1040,1895 L 830,1895 L 830,1720 L 830,1620 L 780,1620 L 780,1720 L 780,1895 L 570,1895 L 570,1720 L 570,1620 L 520,1620 L 520,1720 L 520,1895 L 345,1895 L 345,1995 L 3335,1995 L 3475,1995 L 6325,1995 L 6465,1995 L 9315,1995 L 9455,1995 L 12445,1995 L 12445,1895 L 12270,1895 L 12270,1720 L 12270,1620 L 12220,1620 L 12220,1720 L 12220,1895 L 12010,1895 L 12010,1720 Z" /><path d="M 3170,1620 L 3170,1395 L 3170,1345 L 3120,1345 L 2990,1345 L 2950,1345 L 2910,1345 L 2910,1395 L 2950,1395 L 2990,1395 L 3120,1395 L 3120,1620 L 3120,1720 L 3170,1720 Z" /><path d="M 1870,1245 L 1170,1245 L 1130,1245 L 1090,1245 L 1090,1295 L 1170,1295 L 1170,1294 L 1870,1294 L 1870,1295 L 1950,1295 L 1950,1245 L 1910,1245 Z" /><path d="M 3170,1245 L 2830,1245 L 2780,1245 L 2780,1294 L 2780,1455 L 2780,1504 L 2830,1504 L 2860,1504 L 2860,1620 L 2860,1720 L 2910,1720 L 2910,1620 L 2910,1504 L 2910,1455 L 2860,1455 L 2830,1455 L 2830,1294 L 3170,1294 L 3170,1295 L 3250,1295 L 3250,1245 L 3190,1245 Z" /><path d="M 3170,820 L 2780,820 L 2780,720 L 2780,620 L 2730,620 L 2730,720 L 2730,820 L 2730,870 L 2780,870 L 3170,870 L 3210,870 L 3250,870 L 3250,820 L 3210,820 Z" /><path d="M 3250,530 L 3250,615 L 3250,620 L 3250,720 L 3250,725 L 3250,760 L 3300,760 L 3300,725 L 3300,720 L 3300,620 L 3300,615 L 3300,530 Z" /><path d="M 2210,555 L 2210,615 L 2210,620 L 2210,720 L 2210,725 L 2210,785 L 2260,785 L 2260,725 L 2260,720 L 2260,620 L 2260,615 L 2260,555 Z" /><path d="M 520,555 L 520,615 L 520,620 L 520,720 L 520,725 L 520,785 L 570,785 L 570,725 L 570,720 L 570,620 L 570,615 L 570,555 Z" /><path d="M 2560,1245 L 2470,1245 L 2390,1245 L 2380,1245 L 2380,1295 L 2390,1295 L 2470,1295 L 2610,1295 L 2610,1245 L 2610,1195 L 2910,1195 L 2950,1195 L 2990,1195 L 3220,1195 L 3275,1195 L 3330,1195 L 3330,1145 L 3275,1145 L 3220,1145 L 2990,1145 L 2950,1145 L 2910,1145 L 2610,1145 L 2560,1145 L 2560,1195 Z" /><path d="M 2235,1145 L 2180,1145 L 1690,1145 L 1650,1145 L 1610,1145 L 650,1145 L 610,1145 L 570,1145 L 570,1195 L 610,1195 L 650,1195 L 1610,1195 L 1650,1195 L 1690,1195 L 2180,1195 L 2235,1195 L 2240,1195 L 2240,1510 L 2240,1560 L 2290,1560 L 2340,1560 L 2340,1620 L 2340,1720 L 2390,1720 L 2390,1620 L 2390,1560 L 2390,1510 L 2340,1510 L 2290,1510 L 2290,1195 L 2290,1145 L 2240,1145 Z" /><path d="M 1999,870 L 2000,870 L 2000,570 L 1950,570 L 1950,870 L 1950,930 L 1900,930 L 1790,930 L 1479,930 L 1479,870 L 1480,870 L 1480,570 L 1430,570 L 1430,870 L 1430,930 L 1430,980 L 1479,980 L 1790,980 L 1900,980 L 1950,980 L 1999,980 L 2260,980 L 2300,980 L 2340,980 L 3040,980 L 3080,980 L 3120,980 L 3120,930 L 3080,930 L 3040,930 L 2340,930 L 2300,930 L 2260,930 L 1999,930 Z" /><path d="M 1999,1570 L 1999,1510 L 1999,1460 L 1950,1460 L 1900,1460 L 1790,1460 L 1739,1460 L 1690,1460 L 1690,1510 L 1690,1570 L 1690,1670 L 1740,1670 L 1740,1570 L 1739,1570 L 1739,1510 L 1790,1510 L 1900,1510 L 1950,1510 L 1950,1570 L 1950,1670 L 2000,1670 L 2000,1570 Z" /><path d="M 700,1045 L 700,1095 L 740,1095 L 780,1095 L 1010,1095 L 1120,1095 L 1170,1095 L 1219,1095 L 1740,1095 L 1780,1095 L 1820,1095 L 2780,1095 L 2820,1095 L 2860,1095 L 2860,1045 L 2820,1045 L 2780,1045 L 1820,1045 L 1780,1045 L 1740,1045 L 1219,1045 L 1219,870 L 1220,870 L 1220,570 L 1170,570 L 1170,870 L 1170,1045 L 1120,1045 L 1010,1045 L 780,1045 L 740,1045 Z" /><path d="M 1219,1620 L 1219,1560 L 1219,1510 L 1170,1510 L 1120,1510 L 1010,1510 L 960,1510 L 910,1510 L 910,1560 L 910,1620 L 910,1720 L 960,1720 L 960,1620 L 960,1560 L 1010,1560 L 1120,1560 L 1170,1560 L 1170,1620 L 1170,1720 L 1220,1720 L 1220,1620 Z" /><path d="M 960,1395 L 1000,1395 L 1040,1395 L 1040,1345 L 1000,1345 L 960,1345 L 700,1345 L 650,1345 L 600,1345 L 545,1345 L 490,1345 L 490,1395 L 545,1395 L 600,1395 L 650,1395 L 650,1620 L 650,1720 L 700,1720 L 700,1620 L 700,1395 Z" /><path d="M 10480,1245 L 10370,1245 L 10140,1245 L 10100,1245 L 10060,1245 L 10060,1295 L 10140,1295 L 10140,1294 L 10370,1294 L 10370,1295 L 10480,1295 L 10480,1294 L 10840,1294 L 10840,1295 L 10920,1295 L 10920,1245 L 10880,1245 L 10840,1245 Z" /><path d="M 7490,1245 L 7380,1245 L 7150,1245 L 7110,1245 L 7070,1245 L 7070,1295 L 7150,1295 L 7150,1294 L 7380,1294 L 7380,1295 L 7490,1295 L 7490,1294 L 7850,1294 L 7850,1295 L 7930,1295 L 7930,1245 L 7890,1245 L 7850,1245 Z" /><path d="M 4500,1245 L 4390,1245 L 4160,1245 L 4120,1245 L 4080,1245 L 4080,1295 L 4160,1295 L 4160,1294 L 4390,1294 L 4390,1295 L 4500,1295 L 4500,1294 L 4860,1294 L 4860,1295 L 4940,1295 L 4940,1245 L 4900,1245 L 4860,1245 Z" /><path d="M 10375,1395 L 10450,1395 L 10500,1395 L 10530,1395 L 10605,1395 L 10610,1395 L 10610,1345 L 10605,1345 L 10530,1345 L 10500,1345 L 10450,1345 L 10375,1345 Z" /><path d="M 7385,1395 L 7460,1395 L 7510,1395 L 7540,1395 L 7615,1395 L 7620,1395 L 7620,1345 L 7615,1345 L 7540,1345 L 7510,1345 L 7460,1345 L 7385,1345 Z" /><path d="M 4395,1395 L 4470,1395 L 4520,1395 L 4550,1395 L 4625,1395 L 4630,1395 L 4630,1345 L 4625,1345 L 4550,1345 L 4520,1345 L 4470,1345 L 4395,1345 Z" /><path d="M 1405,1395 L 1480,1395 L 1530,1395 L 1560,1395 L 1635,1395 L 1640,1395 L 1640,1345 L 1635,1345 L 1560,1345 L 1530,1345 L 1480,1345 L 1405,1345 Z" /><path d="M 3745,1295 L 3820,1295 L 3870,1295 L 3900,1295 L 3975,1295 L 3980,1295 L 3980,1245 L 3975,1245 L 3900,1245 L 3870,1245 L 3820,1245 L 3745,1245 Z" /><path d="M 9725,1295 L 9800,1295 L 9850,1295 L 9880,1295 L 9955,1295 L 9960,1295 L 9960,1245 L 9955,1245 L 9880,1245 L 9850,1245 L 9800,1245 L 9725,1245 Z" /><path d="M 6735,1295 L 6810,1295 L 6860,1295 L 6890,1295 L 6965,1295 L 6970,1295 L 6970,1245 L 6965,1245 L 6890,1245 L 6860,1245 L 6810,1245 L 6735,1245 Z" /><path d="M 755,1295 L 830,1295 L 880,1295 L 910,1295 L 985,1295 L 990,1295 L 990,1245 L 985,1245 L 910,1245 L 880,1245 L 830,1245 L 755,1245 Z" /></g></g><g id="VIA1"><g class="l51d0"><path d="M 12220,645 L 12270,645 L 12270,695 L 12220,695 Z" /><path d="M 11180,645 L 11230,645 L 11230,695 L 11180,695 Z" /><path d="M 9490,645 L 9540,645 L 9540,695 L 9490,695 Z" /><path d="M 12220,1145 L 12270,1145 L 12270,1195 L 12220,1195 Z" /><path d="M 11180,1145 L 11230,1145 L 11230,1195 L 11180,1195 Z" /><path d="M 10790,930 L 10840,930 L 10840,980 L 10790,980 Z" /><path d="M 10790,1460 L 10840,1460 L 10840,1510 L 10790,1510 Z" /><path d="M 10010,1045 L 10060,1045 L 10060,1095 L 10010,1095 Z" /><path d="M 10010,1510 L 10060,1510 L 10060,1560 L 10010,1560 Z" /><path d="M 9490,1345 L 9540,1345 L 9540,1395 L 9490,1395 Z" /><path d="M 9230,645 L 9280,645 L 9280,695 L 9230,695 Z" /><path d="M 8190,645 L 8240,645 L 8240,695 L 8190,695 Z" /><path d="M 6500,645 L 6550,645 L 6550,695 L 6500,695 Z" /><path d="M 9230,1145 L 9280,1145 L 9280,1195 L 9230,1195 Z" /><path d="M 8190,1145 L 8240,1145 L 8240,1195 L 8190,1195 Z" /><path d="M 7800,930 L 7850,930 L 7850,980 L 7800,980 Z" /><path d="M 7800,1460 L 7850,1460 L 7850,1510 L 7800,1510 Z" /><path d="M 7020,1045 L 7070,1045 L 7070,1095 L 7020,1095 Z" /><path d="M 7020,1510 L 7070,1510 L 7070,1560 L 7020,1560 Z" /><path d="M 6500,1345 L 6550,1345 L 6550,1395 L 6500,1395 Z" /><path d="M 6240,645 L 6290,645 L 6290,695 L 6240,695 Z" /><path d="M 5200,645 L 5250,645 L 5250,695 L 5200,695 Z" /><path d="M 3510,645 L 3560,645 L 3560,695 L 3510,695 Z" /><path d="M 6240,1145 L 6290,1145 L 6290,1195 L 6240,1195 Z" /><path d="M 5200,1145 L 5250,1145 L 5250,1195 L 5200,1195 Z" /><path d="M 4810,930 L 4860,930 L 4860,980 L 4810,980 Z" /><path d="M 4810,1460 L 4860,1460 L 4860,1510 L 4810,1510 Z" /><path d="M 4030,1045 L 4080,1045 L 4080,1095 L 4030,1095 Z" /><path d="M 4030,1510 L 4080,1510 L 4080,1560 L 4030,1560 Z" /><path d="M 3510,1345 L 3560,1345 L 3560,1395 L 3510,1395 Z" /><path d="M 3250,645 L 3300,645 L 3300,695 L 3250,695 Z" /><path d="M 2210,645 L 2260,645 L 2260,695 L 2210,695 Z" /><path d="M 520,645 L 570,645 L 570,695 L 520,695 Z" /><path d="M 3250,1145 L 3300,1145 L 3300,1195 L 3250,1195 Z" /><path d="M 2210,1145 L 2260,1145 L 2260,1195 L 2210,1195 Z" /><path d="M 1820,930 L 1870,930 L 1870,980 L 1820,980 Z" /><path d="M 1820,1460 L 1870,1460 L 1870,1510 L 1820,1510 Z" /><path d="M 1040,1045 L 1090,1045 L 1090,1095 L 1040,1095 Z" /><path d="M 1040,1510 L 1090,1510 L 1090,1560 L 1040,1560 Z" /><path d="M 520,1345 L 570,1345 L 570,1395 L 520,1395 Z" /><path d="M 10400,1245 L 10450,1245 L 10450,1295 L 10400,1295 Z" /><path d="M 7410,1245 L 7460,1245 L 7460,1295 L 7410,1295 Z" /><path d="M 4420,1245 L 4470,1245 L 4470,1295 L 4420,1295 Z" /><path d="M 10530,1345 L 10580,1345 L 10580,1395 L 10530,1395 Z" /><path d="M 7540,1345 L 7590,1345 L 7590,1395 L 7540,1395 Z" /><path d="M 4550,1345 L 4600,1345 L 4600,1395 L 4550,1395 Z" /><path d="M 1560,1345 L 1610,1345 L 1610,1395 L 1560,1395 Z" /><path d="M 3900,1245 L 3950,1245 L 3950,1295 L 3900,1295 Z" /><path d="M 9880,1245 L 9930,1245 L 9930,1295 L 9880,1295 Z" /><path d="M 6890,1245 L 6940,1245 L 6940,1295 L 6890,1295 Z" /><path d="M 910,1245 L 960,1245 L 960,1295 L 910,1295 Z" /></g></g><g id="M2"><g class="l32d0"><path d="M 12270,1115 L 12270,725 L 12270,670 L 12270,615 L 12220,615 L 12220,670 L 12220,725 L 12220,1115 L 12220,1170 L 12220,1225 L 12270,1225 L 12270,1170 Z" /><path d="M 11230,1115 L 11230,725 L 11230,670 L 11230,615 L 11180,615 L 11180,670 L 11180,725 L 11180,1115 L 11180,1170 L 11180,1225 L 11230,1225 L 11230,1170 Z" /><path d="M 10790,1430 L 10790,1485 L 10790,1540 L 10840,1540 L 10840,1485 L 10840,1430 L 10840,1010 L 10840,955 L 10840,900 L 10790,900 L 10790,955 L 10790,1010 Z" /><path d="M 10060,1480 L 10060,1125 L 10060,1070 L 10060,1015 L 10010,1015 L 10010,1070 L 10010,1125 L 10010,1480 L 10010,1535 L 10010,1590 L 10060,1590 L 10060,1535 Z" /><path d="M 9540,1315 L 9540,725 L 9540,670 L 9540,615 L 9490,615 L 9490,670 L 9490,725 L 9490,1315 L 9490,1370 L 9490,1425 L 9540,1425 L 9540,1370 Z" /><path d="M 8240,1115 L 8240,725 L 8240,670 L 8240,615 L 8190,615 L 8190,670 L 8190,725 L 8190,1115 L 8190,1170 L 8190,1225 L 8240,1225 L 8240,1170 Z" /><path d="M 7800,1430 L 7800,1485 L 7800,1540 L 7850,1540 L 7850,1485 L 7850,1430 L 7850,1010 L 7850,955 L 7850,900 L 7800,900 L 7800,955 L 7800,1010 Z" /><path d="M 7070,1480 L 7070,1125 L 7070,1070 L 7070,1015 L 7020,1015 L 7020,1070 L 7020,1125 L 7020,1480 L 7020,1535 L 7020,1590 L 7070,1590 L 7070,1535 Z" /><path d="M 6550,1315 L 6550,725 L 6550,670 L 6550,615 L 6500,615 L 6500,670 L 6500,725 L 6500,1315 L 6500,1370 L 6500,1425 L 6550,1425 L 6550,1370 Z" /><path d="M 5250,1115 L 5250,725 L 5250,670 L 5250,615 L 5200,615 L 5200,670 L 5200,725 L 5200,1115 L 5200,1170 L 5200,1225 L 5250,1225 L 5250,1170 Z" /><path d="M 4810,1430 L 4810,1485 L 4810,1540 L 4860,1540 L 4860,1485 L 4860,1430 L 4860,1010 L 4860,955 L 4860,900 L 4810,900 L 4810,955 L 4810,1010 Z" /><path d="M 4080,1480 L 4080,1125 L 4080,1070 L 4080,1015 L 4030,1015 L 4030,1070 L 4030,1125 L 4030,1480 L 4030,1535 L 4030,1590 L 4080,1590 L 4080,1535 Z" /><path d="M 3560,1315 L 3560,725 L 3560,670 L 3560,615 L 3510,615 L 3510,670 L 3510,725 L 3510,1315 L 3510,1370 L 3510,1425 L 3560,1425 L 3560,1370 Z" /><path d="M 2260,1115 L 2260,725 L 2260,670 L 2260,615 L 2210,615 L 2210,670 L 2210,725 L 2210,1115 L 2210,1170 L 2210,1225 L 2260,1225 L 2260,1170 Z" /><path d="M 1820,1430 L 1820,1485 L 1820,1540 L 1870,1540 L 1870,1485 L 1870,1430 L 1870,1010 L 1870,955 L 1870,900 L 1820,900 L 1820,955 L 1820,1010 Z" /><path d="M 1090,1480 L 1090,1125 L 1090,1070 L 1090,1015 L 1040,1015 L 1040,1070 L 1040,1125 L 1040,1480 L 1040,1535 L 1040,1590 L 1090,1590 L 1090,1535 Z" /><path d="M 570,1315 L 570,725 L 570,670 L 570,615 L 520,615 L 520,670 L 520,725 L 520,1315 L 520,1370 L 520,1425 L 570,1425 L 570,1370 Z" /><path d="M 10450,1080 L 10400,1080 L 10400,1115 L 10400,1215 L 10400,1225 L 10400,1325 L 10400,1360 L 10450,1360 L 10450,1325 L 10450,1225 L 10450,1215 L 10450,1115 Z" /><path d="M 9280,725 L 9280,670 L 9280,615 L 9230,615 L 9230,670 L 9230,725 L 9230,1115 L 9230,1170 L 9230,1225 L 9280,1225 L 9280,1170 L 9280,1115 Z" /><path d="M 7460,1080 L 7410,1080 L 7410,1115 L 7410,1215 L 7410,1225 L 7410,1325 L 7410,1360 L 7460,1360 L 7460,1325 L 7460,1225 L 7460,1215 L 7460,1115 Z" /><path d="M 6290,725 L 6290,670 L 6290,615 L 6240,615 L 6240,670 L 6240,725 L 6240,1115 L 6240,1170 L 6240,1225 L 6290,1225 L 6290,1170 L 6290,1115 Z" /><path d="M 4470,1080 L 4420,1080 L 4420,1115 L 4420,1215 L 4420,1225 L 4420,1325 L 4420,1360 L 4470,1360 L 4470,1325 L 4470,1225 L 4470,1215 L 4470,1115 Z" /><path d="M 3300,725 L 3300,670 L 3300,615 L 3250,615 L 3250,670 L 3250,725 L 3250,1115 L 3250,1170 L 3250,1225 L 3300,1225 L 3300,1170 L 3300,1115 Z" /><path d="M 10580,1230 L 10530,1230 L 10530,1315 L 10530,1425 L 10530,1510 L 10580,1510 L 10580,1425 L 10580,1315 Z" /><path d="M 7590,1230 L 7540,1230 L 7540,1315 L 7540,1425 L 7540,1510 L 7590,1510 L 7590,1425 L 7590,1315 Z" /><path d="M 4600,1230 L 4550,1230 L 4550,1315 L 4550,1425 L 4550,1510 L 4600,1510 L 4600,1425 L 4600,1315 Z" /><path d="M 1610,1230 L 1560,1230 L 1560,1315 L 1560,1425 L 1560,1510 L 1610,1510 L 1610,1425 L 1610,1315 Z" /><path d="M 9930,1130 L 9880,1130 L 9880,1215 L 9880,1325 L 9880,1410 L 9930,1410 L 9930,1325 L 9930,1215 Z" /><path d="M 6940,1130 L 6890,1130 L 6890,1215 L 6890,1325 L 6890,1410 L 6940,1410 L 6940,1325 L 6940,1215 Z" /><path d="M 3950,1130 L 3900,1130 L 3900,1215 L 3900,1325 L 3900,1410 L 3950,1410 L 3950,1325 L 3950,1215 Z" /><path d="M 960,1130 L 910,1130 L 910,1215 L 910,1325 L 910,1410 L 960,1410 L 960,1325 L 960,1215 Z" /></g></g><g id="VIA2"><g class="l52d0"><path d="M 10400,1145 L 10450,1145 L 10450,1195 L 10400,1195 Z" /><path d="M 9230,1145 L 9280,1145 L 9280,1195 L 9230,1195 Z" /><path d="M 7410,1145 L 7460,1145 L 7460,1195 L 7410,1195 Z" /><path d="M 6240,1145 L 6290,1145 L 6290,1195 L 6240,1195 Z" /><path d="M 4420,1145 L 4470,1145 L 4470,1195 L 4420,1195 Z" /><path d="M 3250,1145 L 3300,1145 L 3300,1195 L 3250,1195 Z" /><path d="M 10530,1345 L 10580,1345 L 10580,1395 L 10530,1395 Z" /><path d="M 7540,1345 L 7590,1345 L 7590,1395 L 7540,1395 Z" /><path d="M 4550,1345 L 4600,1345 L 4600,1395 L 4550,1395 Z" /><path d="M 1560,1345 L 1610,1345 L 1610,1395 L 1560,1395 Z" /><path d="M 9880,1245 L 9930,1245 L 9930,1295 L 9880,1295 Z" /><path d="M 6890,1245 L 6940,1245 L 6940,1295 L 6890,1295 Z" /><path d="M 3900,1245 L 3950,1245 L 3950,1295 L 3900,1295 Z" /><path d="M 910,1245 L 960,1245 L 960,1295 L 910,1295 Z" /></g></g><g id="M3"><g class="l33d0"><path d="M 9310,1145 L 9255,1145 L 9200,1145 L 9200,1195 L 9310,1195 L 9310,1194 L 10370,1194 L 10370,1195 L 10480,1195 L 10480,1145 L 10425,1145 L 10370,1145 Z" /><path d="M 6320,1145 L 6265,1145 L 6210,1145 L 6210,1195 L 6320,1195 L 6320,1194 L 7380,1194 L 7380,1195 L 7490,1195 L 7490,1145 L 7435,1145 L 7380,1145 Z" /><path d="M 3330,1145 L 3275,1145 L 3220,1145 L 3220,1195 L 3330,1195 L 3330,1194 L 4390,1194 L 4390,1195 L 4500,1195 L 4500,1145 L 4445,1145 L 4390,1145 Z" /><path d="M 7510,1345 L 4630,1345 L 4575,1345 L 4520,1345 L 1640,1345 L 1585,1345 L 1530,1345 L 1530,1395 L 1585,1395 L 1640,1395 L 4520,1395 L 4575,1395 L 4630,1395 L 7510,1395 L 7565,1395 L 7620,1395 L 10500,1395 L 10555,1395 L 10610,1395 L 10610,1345 L 10555,1345 L 10500,1345 L 7620,1345 L 7565,1345 Z" /><path d="M 6970,1295 L 9850,1295 L 9905,1295 L 9960,1295 L 9960,1245 L 9905,1245 L 9850,1245 L 6970,1245 L 6915,1245 L 6860,1245 L 3980,1245 L 3925,1245 L 3870,1245 L 990,1245 L 935,1245 L 880,1245 L 880,1295 L 935,1295 L 990,1295 L 3870,1295 L 3925,1295 L 3980,1295 L 6860,1295 L 6915,1295 Z" /></g></g></g></svg>