<svg width="4580" height="1810" viewBox="245 -2010 4580 1810" xmlns="http://www.w3.org/2000/svg" xmlns:xlink="http://www.w3.org/1999/xlink"><defs><style type="text/css">.l3d0 {fill: #fef9e7; fill-opacity: 0.5; stroke-width: 10; stroke: #f1c40f; stroke-linecap: round; stroke-linejoin: round; stroke-opacity: 0.2;}.l25d0 {fill: #8e44ad; fill-opacity: 0.05; stroke-width: 10; stroke: #8e44ad; stroke-linecap: round; stroke-linejoin: round; stroke-opacity: 1;}.l26d0 {fill: #ccd1d1; fill-opacity: 0.05; stroke-width: 10; stroke: #ccd1d1; stroke-linecap: round; stroke-linejoin: round; stroke-opacity: 1;}.l6d0 {fill: #f5b7b1; fill-opacity: 1; stroke-width: 10; stroke: #e74c3c; stroke-linecap: round; stroke-linejoin: round; stroke-opacity: 1;}.l17d0 {fill: #2980b9; fill-opacity: 1; stroke-width: 0; stroke: #000000; stroke-linecap: round; stroke-linejoin: round; stroke-opacity: 0;}.l17d7 {fill: #2980b9; fill-opacity: 1; stroke-width: 0; stroke: #000000; stroke-linecap: round; stroke-linejoin: round; stroke-opacity: 0;}.l30d0 {fill: #27ae60; fill-opacity: 1; stroke-width: 0; stroke: #000000; stroke-linecap: round; stroke-linejoin: round; stroke-opacity: 0;}.l31d0 {fill: #85c1e9; fill-opacity: 0.6; stroke-width: 0; stroke: #000000; stroke-linecap: round; stroke-linejoin: round; stroke-opacity: 0;}.l51d0 {fill: #f39c12; fill-opacity: 1; stroke-width: 10; stroke: #f39c12; stroke-linecap: round; stroke-linejoin: round; stroke-opacity: 1;}.l32d0 {fill: #f7dc6f; fill-opacity: 0.6; stroke-width: 0; stroke: #000000; stroke-linecap: round; stroke-linejoin: round; stroke-opacity: 0;}.l52d0 {fill: #a04000; fill-opacity: 1; stroke-width: 10; stroke: #a04000; stroke-linecap: round; stroke-linejoin: round; stroke-opacity: 1;}.l33d0 {fill: #16a085; fill-opacity: 0.6; stroke-width: 0; stroke: #000000; stroke-linecap: round; stroke-linejoin: round; stroke-opacity: 0;}path {fill-rule: evenodd;}</style></defs><g transform="scale(1 -1)"><g id="NW"><g class="l3d0"><path d="M 250,1085 L 250,1765 L 250,2005 L 1030,2005 L 1310,2005 L 4019,2005 L 4300,2005 L 4820,2005 L 4820,1765 L 4820,1085 L 4300,1085 L 1030,1085 Z" /></g></g><g id="PP"><g class="l25d0"><path d="M 4460,1805 L 4640,1805 L 4780,1805 L 4780,1085 L 4260,1085 L 1070,1085 L 290,1085 L 290,1805 L 430,1805 L 585,1805 L 715,1805 L 740,1805 L 820,1805 L 870,1805 L 950,1805 L 1070,1805 L 1130,1805 L 1210,1805 L 1390,1805 L 1470,1805 L 1520,1805 L 1600,1805 L 1730,1805 L 1860,1805 L 2040,1805 L 2120,1805 L 2250,1805 L 2380,1805 L 2510,1805 L 2640,1805 L 2820,1805 L 2900,1805 L 3080,1805 L 3210,1805 L 3340,1805 L 3420,1805 L 3600,1805 L 3680,1805 L 3730,1805 L 3810,1805 L 3940,1805 L 4120,1805 L 4200,1805 L 4260,1805 L 4330,1805 Z" /><path d="M 1070,205 L 290,205 L 290,365 L 1070,365 L 1270,365 L 4059,365 L 4260,365 L 4780,365 L 4780,205 L 4260,205 L 4059,205 L 1270,205 Z" /></g></g><g id="NP"><g class="l26d0"><path d="M 845,365 L 820,365 L 740,365 L 690,365 L 610,365 L 430,365 L 290,365 L 290,1085 L 1070,1085 L 4260,1085 L 4780,1085 L 4780,365 L 4640,365 L 4485,365 L 4355,365 L 4260,365 L 4200,365 L 4120,365 L 3965,365 L 3835,365 L 3810,365 L 3705,365 L 3680,365 L 3575,365 L 3420,365 L 3340,365 L 3185,365 L 3055,365 L 2900,365 L 2820,365 L 2665,365 L 2535,365 L 2405,365 L 2380,365 L 2250,365 L 2120,365 L 2040,365 L 1885,365 L 1755,365 L 1625,365 L 1600,365 L 1495,365 L 1470,365 L 1365,365 L 1210,365 L 1130,365 L 1070,365 L 975,365 Z" /><path d="M 1070,1805 L 290,1805 L 290,1965 L 1070,1965 L 1270,1965 L 4059,1965 L 4260,1965 L 4780,1965 L 4780,1805 L 4260,1805 L 4059,1805 L 1270,1805 Z" /></g></g><g id="OD"><g class="l6d0"><path d="M 4500,710 L 4575,710 L 4575,510 L 4500,510 L 4470,510 L 4420,510 L 4370,510 L 4340,510 L 4265,510 L 4265,710 L 4340,710 L 4370,710 L 4420,710 L 4470,710 Z" /><path d="M 990,710 L 1065,710 L 1065,510 L 990,510 L 960,510 L 910,510 L 860,510 L 830,510 L 755,510 L 730,510 L 700,510 L 675,510 L 600,510 L 570,510 L 495,510 L 495,610 L 570,610 L 600,610 L 675,610 L 700,610 L 730,610 L 755,610 L 755,710 L 830,710 L 860,710 L 910,710 L 960,710 Z" /><path d="M 885,1560 L 860,1560 L 830,1560 L 805,1560 L 805,1460 L 730,1460 L 700,1460 L 650,1460 L 600,1460 L 570,1460 L 495,1460 L 495,1660 L 570,1660 L 600,1660 L 650,1660 L 700,1660 L 730,1660 L 805,1660 L 830,1660 L 860,1660 L 885,1660 L 960,1660 L 990,1660 L 1065,1660 L 1065,1560 L 990,1560 L 960,1560 Z" /><path d="M 4395,1560 L 4370,1560 L 4340,1560 L 4265,1560 L 4265,1660 L 4340,1660 L 4370,1660 L 4395,1660 L 4470,1660 L 4500,1660 L 4575,1660 L 4575,1560 L 4500,1560 L 4470,1560 Z" /><path d="M 2520,810 L 2550,810 L 2600,810 L 2650,810 L 2680,810 L 2755,810 L 2755,510 L 2680,510 L 2650,510 L 2600,510 L 2550,510 L 2520,510 L 2470,510 L 2420,510 L 2390,510 L 2315,510 L 2290,510 L 2260,510 L 2185,510 L 2185,810 L 2260,810 L 2290,810 L 2315,810 L 2390,810 L 2420,810 L 2470,810 Z" /><path d="M 1820,510 L 1770,510 L 1740,510 L 1690,510 L 1640,510 L 1610,510 L 1535,510 L 1510,510 L 1480,510 L 1430,510 L 1380,510 L 1350,510 L 1275,510 L 1275,710 L 1350,710 L 1380,710 L 1430,710 L 1480,710 L 1510,710 L 1535,710 L 1535,810 L 1610,810 L 1640,810 L 1690,810 L 1740,810 L 1770,810 L 1820,810 L 1870,810 L 1900,810 L 1975,810 L 1975,510 L 1900,510 L 1870,510 Z" /><path d="M 1350,1660 L 1380,1660 L 1455,1660 L 1480,1660 L 1510,1660 L 1535,1660 L 1610,1660 L 1640,1660 L 1665,1660 L 1740,1660 L 1770,1660 L 1795,1660 L 1870,1660 L 1900,1660 L 1975,1660 L 1975,1560 L 1900,1560 L 1870,1560 L 1795,1560 L 1770,1560 L 1740,1560 L 1665,1560 L 1640,1560 L 1610,1560 L 1535,1560 L 1510,1560 L 1480,1560 L 1455,1560 L 1380,1560 L 1350,1560 L 1275,1560 L 1275,1660 Z" /><path d="M 3560,1660 L 3590,1660 L 3665,1660 L 3690,1660 L 3720,1660 L 3745,1660 L 3820,1660 L 3850,1660 L 3875,1660 L 3950,1660 L 3980,1660 L 4055,1660 L 4055,1560 L 3980,1560 L 3950,1560 L 3875,1560 L 3850,1560 L 3820,1560 L 3745,1560 L 3720,1560 L 3690,1560 L 3665,1560 L 3590,1560 L 3560,1560 L 3485,1560 L 3485,1660 Z" /><path d="M 2420,1660 L 2445,1660 L 2520,1660 L 2550,1660 L 2575,1660 L 2650,1660 L 2680,1660 L 2755,1660 L 2755,1460 L 2680,1460 L 2650,1460 L 2575,1460 L 2550,1460 L 2520,1460 L 2445,1460 L 2420,1460 L 2390,1460 L 2315,1460 L 2290,1460 L 2260,1460 L 2185,1460 L 2185,1660 L 2260,1660 L 2290,1660 L 2315,1660 L 2390,1660 Z" /><path d="M 3145,1560 L 3070,1560 L 3040,1560 L 2965,1560 L 2965,1660 L 3040,1660 L 3070,1660 L 3145,1660 L 3170,1660 L 3200,1660 L 3275,1660 L 3275,1560 L 3200,1560 L 3170,1560 Z" /><path d="M 3120,510 L 3070,510 L 3040,510 L 2965,510 L 2965,710 L 3040,710 L 3070,710 L 3120,710 L 3170,710 L 3200,710 L 3275,710 L 3275,510 L 3200,510 L 3170,510 Z" /><path d="M 3485,710 L 3560,710 L 3590,710 L 3640,710 L 3690,710 L 3720,710 L 3745,710 L 3820,710 L 3850,710 L 3900,710 L 3950,710 L 3980,710 L 4055,710 L 4055,510 L 3980,510 L 3950,510 L 3900,510 L 3850,510 L 3820,510 L 3745,510 L 3720,510 L 3690,510 L 3640,510 L 3590,510 L 3560,510 L 3485,510 Z" /><path d="M 1100,235 L 320,235 L 320,335 L 1100,335 L 1240,335 L 4090,335 L 4230,335 L 4750,335 L 4750,235 L 4230,235 L 4090,235 L 1240,235 Z" /><path d="M 1100,1835 L 320,1835 L 320,1935 L 1100,1935 L 1240,1935 L 4090,1935 L 4230,1935 L 4750,1935 L 4750,1835 L 4230,1835 L 4090,1835 L 1240,1835 Z" /></g></g><g id="PO"><g class="l17d0"><path d="M 1740,810 L 1740,890 L 1740,1290 L 1740,1330 L 1740,1480 L 1740,1560 L 1740,1660 L 1740,1740 L 1770,1740 L 1770,1660 L 1770,1560 L 1770,1480 L 1770,1330 L 1770,1290 L 1770,890 L 1770,810 L 1770,510 L 1770,430 L 1740,430 L 1740,510 Z" /><path d="M 2260,1660 L 2260,1740 L 2290,1740 L 2290,1660 L 2290,1460 L 2290,1380 L 2290,1330 L 2290,1290 L 2290,890 L 2290,810 L 2290,510 L 2290,430 L 2260,430 L 2260,510 L 2260,810 L 2260,890 L 2260,1290 L 2260,1330 L 2260,1380 L 2260,1460 Z" /><path d="M 1610,810 L 1610,890 L 1610,1190 L 1610,1230 L 1610,1480 L 1610,1560 L 1610,1660 L 1610,1740 L 1640,1740 L 1640,1660 L 1640,1560 L 1640,1480 L 1640,1230 L 1640,1190 L 1640,890 L 1640,810 L 1640,510 L 1640,430 L 1610,430 L 1610,510 Z" /><path d="M 1900,1560 L 1900,1480 L 1900,1230 L 1900,1190 L 1900,890 L 1900,810 L 1900,510 L 1900,430 L 1870,430 L 1870,510 L 1870,810 L 1870,890 L 1870,1190 L 1870,1230 L 1870,1480 L 1870,1560 L 1870,1660 L 1870,1740 L 1900,1740 L 1900,1660 Z" /><path d="M 2650,810 L 2650,890 L 2650,1190 L 2650,1230 L 2650,1380 L 2650,1460 L 2650,1660 L 2650,1740 L 2680,1740 L 2680,1660 L 2680,1460 L 2680,1380 L 2680,1230 L 2680,1190 L 2680,890 L 2680,810 L 2680,510 L 2680,430 L 2650,430 L 2650,510 Z" /><path d="M 3170,710 L 3170,790 L 3170,1190 L 3170,1230 L 3170,1480 L 3170,1560 L 3170,1660 L 3170,1740 L 3200,1740 L 3200,1660 L 3200,1560 L 3200,1480 L 3200,1230 L 3200,1190 L 3200,790 L 3200,710 L 3200,510 L 3200,430 L 3170,430 L 3170,510 Z" /><path d="M 1350,1660 L 1350,1740 L 1380,1740 L 1380,1660 L 1380,1560 L 1380,1480 L 1380,1130 L 1380,1090 L 1380,790 L 1380,710 L 1380,510 L 1380,430 L 1350,430 L 1350,510 L 1350,710 L 1350,790 L 1350,1090 L 1350,1130 L 1350,1480 L 1350,1560 Z" /><path d="M 2390,1660 L 2390,1740 L 2420,1740 L 2420,1660 L 2420,1460 L 2420,1380 L 2420,1130 L 2420,1090 L 2420,890 L 2420,810 L 2420,510 L 2420,430 L 2390,430 L 2390,510 L 2390,810 L 2390,890 L 2390,1090 L 2390,1130 L 2390,1380 L 2390,1460 Z" /><path d="M 3690,790 L 3690,1090 L 3690,1130 L 3690,1290 L 3690,1330 L 3690,1480 L 3690,1560 L 3690,1660 L 3690,1740 L 3720,1740 L 3720,1660 L 3720,1560 L 3720,1480 L 3720,1330 L 3720,1290 L 3720,1130 L 3720,1090 L 3720,790 L 3720,710 L 3720,510 L 3720,430 L 3690,430 L 3690,510 L 3690,710 Z" /><path d="M 1480,710 L 1480,790 L 1480,990 L 1480,1030 L 1480,1480 L 1480,1560 L 1480,1660 L 1480,1740 L 1510,1740 L 1510,1660 L 1510,1560 L 1510,1480 L 1510,1030 L 1510,990 L 1510,790 L 1510,710 L 1510,510 L 1510,430 L 1480,430 L 1480,510 Z" /><path d="M 2520,1660 L 2520,1740 L 2550,1740 L 2550,1660 L 2550,1460 L 2550,1380 L 2550,1030 L 2550,990 L 2550,890 L 2550,810 L 2550,510 L 2550,430 L 2520,430 L 2520,510 L 2520,810 L 2520,890 L 2520,990 L 2520,1030 L 2520,1380 L 2520,1460 Z" /><path d="M 3560,1660 L 3560,1740 L 3590,1740 L 3590,1660 L 3590,1560 L 3590,1480 L 3590,1030 L 3590,990 L 3590,790 L 3590,710 L 3590,510 L 3590,430 L 3560,430 L 3560,510 L 3560,710 L 3560,790 L 3560,990 L 3560,1030 L 3560,1480 L 3560,1560 Z" /><path d="M 3040,1660 L 3040,1740 L 3070,1740 L 3070,1660 L 3070,1560 L 3070,1480 L 3070,915 L 3070,875 L 3070,790 L 3070,710 L 3070,510 L 3070,430 L 3040,430 L 3040,510 L 3040,710 L 3040,790 L 3040,875 L 3040,915 L 3040,1480 L 3040,1560 Z" /><path d="M 3820,710 L 3820,790 L 3820,875 L 3820,915 L 3820,1480 L 3820,1560 L 3820,1660 L 3820,1740 L 3850,1740 L 3850,1660 L 3850,1560 L 3850,1480 L 3850,915 L 3850,875 L 3850,790 L 3850,710 L 3850,510 L 3850,430 L 3820,430 L 3820,510 Z" /><path d="M 3950,1740 L 3980,1740 L 3980,1660 L 3980,1560 L 3980,1480 L 3980,1230 L 3980,1190 L 3980,805 L 3980,790 L 3980,765 L 3980,710 L 3980,510 L 3980,430 L 3950,430 L 3950,510 L 3950,710 L 3950,765 L 3950,790 L 3950,805 L 3950,1190 L 3950,1230 L 3950,1480 L 3950,1560 L 3950,1660 Z" /><path d="M 4340,1660 L 4340,1740 L 4370,1740 L 4370,1660 L 4370,1560 L 4370,1480 L 4370,1050 L 4370,970 L 4370,790 L 4370,710 L 4370,510 L 4370,430 L 4340,430 L 4340,510 L 4340,710 L 4340,790 L 4340,970 L 4340,1050 L 4340,1480 L 4340,1560 Z" /><path d="M 4470,1660 L 4470,1740 L 4500,1740 L 4500,1660 L 4500,1560 L 4500,1480 L 4500,1150 L 4500,1070 L 4500,790 L 4500,710 L 4500,510 L 4500,430 L 4470,430 L 4470,510 L 4470,710 L 4470,790 L 4470,1070 L 4470,1150 L 4470,1480 L 4470,1560 Z" /><path d="M 960,1660 L 960,1740 L 990,1740 L 990,1660 L 990,1560 L 990,1480 L 990,1350 L 990,1270 L 990,790 L 990,710 L 990,510 L 990,430 L 960,430 L 960,510 L 960,710 L 960,790 L 960,1270 L 960,1350 L 960,1480 L 960,1560 Z" /><path d="M 830,710 L 830,790 L 830,1170 L 830,1250 L 830,1480 L 830,1560 L 830,1660 L 830,1740 L 860,1740 L 860,1660 L 860,1560 L 860,1480 L 860,1250 L 860,1170 L 860,790 L 860,710 L 860,510 L 860,430 L 830,430 L 830,510 Z" /><path d="M 700,610 L 700,690 L 700,1070 L 700,1150 L 700,1380 L 700,1460 L 700,1660 L 700,1740 L 730,1740 L 730,1660 L 730,1460 L 730,1380 L 730,1150 L 730,1070 L 730,690 L 730,610 L 730,510 L 730,430 L 700,430 L 700,510 Z" /><path d="M 570,1660 L 570,1740 L 600,1740 L 600,1660 L 600,1460 L 600,1380 L 600,1050 L 600,970 L 600,690 L 600,610 L 600,510 L 600,430 L 570,430 L 570,510 L 570,610 L 570,690 L 570,970 L 570,1050 L 570,1380 L 570,1460 Z" /></g><g class="l17d7"><path d="M 4730,415 L 4760,415 L 4760,805 L 4730,805 Z" /><path d="M 4600,415 L 4630,415 L 4630,805 L 4600,805 Z" /><path d="M 310,365 L 340,365 L 340,755 L 310,755 Z" /><path d="M 440,365 L 470,365 L 470,755 L 440,755 Z" /><path d="M 310,1365 L 340,1365 L 340,1755 L 310,1755 Z" /><path d="M 440,1365 L 470,1365 L 470,1755 L 440,1755 Z" /><path d="M 4730,1415 L 4760,1415 L 4760,1805 L 4730,1805 Z" /><path d="M 4600,1415 L 4630,1415 L 4630,1805 L 4600,1805 Z" /><path d="M 2130,450 L 2130,870 L 2160,870 L 2160,450 Z" /><path d="M 2000,450 L 2000,870 L 2030,870 L 2030,450 Z" /><path d="M 1090,415 L 1090,805 L 1120,805 L 1120,415 Z" /><path d="M 1220,415 L 1220,805 L 1250,805 L 1250,415 Z" /><path d="M 2810,450 L 2810,415 L 2780,415 L 2780,450 L 2780,805 L 2780,870 L 2810,870 L 2810,805 Z" /><path d="M 2940,450 L 2940,415 L 2910,415 L 2910,450 L 2910,805 L 2910,870 L 2940,870 L 2940,805 Z" /><path d="M 4210,415 L 4210,805 L 4240,805 L 4240,415 Z" /><path d="M 4080,415 L 4080,805 L 4110,805 L 4110,415 Z" /><path d="M 2160,1365 L 2130,1365 L 2130,1415 L 2130,1755 L 2130,1805 L 2160,1805 L 2160,1755 L 2160,1415 Z" /><path d="M 2030,1365 L 2000,1365 L 2000,1415 L 2000,1755 L 2000,1805 L 2030,1805 L 2030,1755 L 2030,1415 Z" /><path d="M 1090,1415 L 1090,1805 L 1120,1805 L 1120,1415 Z" /><path d="M 1220,1415 L 1220,1805 L 1250,1805 L 1250,1415 Z" /><path d="M 2810,1365 L 2780,1365 L 2780,1415 L 2780,1755 L 2780,1805 L 2810,1805 L 2810,1755 L 2810,1415 Z" /><path d="M 2940,1365 L 2910,1365 L 2910,1415 L 2910,1755 L 2910,1805 L 2940,1805 L 2940,1755 L 2940,1415 Z" /><path d="M 4210,1415 L 4210,1805 L 4240,1805 L 4240,1415 Z" /><path d="M 4080,1415 L 4080,1805 L 4110,1805 L 4110,1415 Z" /><path d="M 3430,1415 L 3430,1805 L 3460,1805 L 3460,1415 Z" /><path d="M 3300,1415 L 3300,1805 L 3330,1805 L 3330,1415 Z" /><path d="M 3430,415 L 3430,805 L 3460,805 L 3460,415 Z" /><path d="M 3300,415 L 3300,805 L 3330,805 L 3330,415 Z" /></g></g><g id="CO"><g class="l30d0"><path d="M 4660,1865 L 4700,1865 L 4700,1905 L 4660,1905 Z" /><path d="M 4530,1865 L 4570,1865 L 4570,1905 L 4530,1905 Z" /><path d="M 4400,1865 L 4440,1865 L 4440,1905 L 4400,1905 Z" /><path d="M 4270,1865 L 4310,1865 L 4310,1905 L 4270,1905 Z" /><path d="M 4660,265 L 4700,265 L 4700,305 L 4660,305 Z" /><path d="M 4530,265 L 4570,265 L 4570,305 L 4530,305 Z" /><path d="M 4400,265 L 4440,265 L 4440,305 L 4400,305 Z" /><path d="M 4270,265 L 4310,265 L 4310,305 L 4270,305 Z" /><path d="M 370,265 L 410,265 L 410,305 L 370,305 Z" /><path d="M 500,265 L 540,265 L 540,305 L 500,305 Z" /><path d="M 630,265 L 670,265 L 670,305 L 630,305 Z" /><path d="M 760,265 L 800,265 L 800,305 L 760,305 Z" /><path d="M 890,265 L 930,265 L 930,305 L 890,305 Z" /><path d="M 1020,265 L 1060,265 L 1060,305 L 1020,305 Z" /><path d="M 370,1865 L 410,1865 L 410,1905 L 370,1905 Z" /><path d="M 500,1865 L 540,1865 L 540,1905 L 500,1905 Z" /><path d="M 630,1865 L 670,1865 L 670,1905 L 630,1905 Z" /><path d="M 760,1865 L 800,1865 L 800,1905 L 760,1905 Z" /><path d="M 890,1865 L 930,1865 L 930,1905 L 890,1905 Z" /><path d="M 1020,1865 L 1060,1865 L 1060,1905 L 1020,1905 Z" /><path d="M 4270,590 L 4310,590 L 4310,630 L 4270,630 Z" /><path d="M 1020,590 L 1060,590 L 1060,630 L 1020,630 Z" /><path d="M 4530,590 L 4570,590 L 4570,630 L 4530,630 Z" /><path d="M 4270,1590 L 4310,1590 L 4310,1630 L 4270,1630 Z" /><path d="M 630,540 L 670,540 L 670,580 L 630,580 Z" /><path d="M 500,540 L 540,540 L 540,580 L 500,580 Z" /><path d="M 500,1540 L 540,1540 L 540,1580 L 500,1580 Z" /><path d="M 760,590 L 800,590 L 800,630 L 760,630 Z" /><path d="M 760,1540 L 800,1540 L 800,1580 L 760,1580 Z" /><path d="M 890,1590 L 930,1590 L 930,1630 L 890,1630 Z" /><path d="M 1020,1590 L 1060,1590 L 1060,1630 L 1020,1630 Z" /><path d="M 4400,1590 L 4440,1590 L 4440,1630 L 4400,1630 Z" /><path d="M 4530,1590 L 4570,1590 L 4570,1630 L 4530,1630 Z" /><path d="M 4140,265 L 4140,305 L 4180,305 L 4180,265 Z" /><path d="M 4010,265 L 4050,265 L 4050,305 L 4010,305 Z" /><path d="M 3880,265 L 3920,265 L 3920,305 L 3880,305 Z" /><path d="M 3750,265 L 3790,265 L 3790,305 L 3750,305 Z" /><path d="M 3620,265 L 3660,265 L 3660,305 L 3620,305 Z" /><path d="M 3490,265 L 3530,265 L 3530,305 L 3490,305 Z" /><path d="M 3360,265 L 3400,265 L 3400,305 L 3360,305 Z" /><path d="M 3230,265 L 3270,265 L 3270,305 L 3230,305 Z" /><path d="M 3100,265 L 3140,265 L 3140,305 L 3100,305 Z" /><path d="M 2970,265 L 3010,265 L 3010,305 L 2970,305 Z" /><path d="M 2840,265 L 2880,265 L 2880,305 L 2840,305 Z" /><path d="M 2710,265 L 2750,265 L 2750,305 L 2710,305 Z" /><path d="M 2580,265 L 2620,265 L 2620,305 L 2580,305 Z" /><path d="M 2450,265 L 2490,265 L 2490,305 L 2450,305 Z" /><path d="M 2320,265 L 2360,265 L 2360,305 L 2320,305 Z" /><path d="M 2190,265 L 2230,265 L 2230,305 L 2190,305 Z" /><path d="M 2060,265 L 2100,265 L 2100,305 L 2060,305 Z" /><path d="M 1930,265 L 1970,265 L 1970,305 L 1930,305 Z" /><path d="M 1800,265 L 1840,265 L 1840,305 L 1800,305 Z" /><path d="M 1670,265 L 1710,265 L 1710,305 L 1670,305 Z" /><path d="M 1540,265 L 1580,265 L 1580,305 L 1540,305 Z" /><path d="M 1410,265 L 1450,265 L 1450,305 L 1410,305 Z" /><path d="M 1280,265 L 1320,265 L 1320,305 L 1280,305 Z" /><path d="M 1150,265 L 1150,305 L 1190,305 L 1190,265 Z" /><path d="M 4140,1865 L 4140,1905 L 4180,1905 L 4180,1865 Z" /><path d="M 4010,1865 L 4050,1865 L 4050,1905 L 4010,1905 Z" /><path d="M 3880,1865 L 3920,1865 L 3920,1905 L 3880,1905 Z" /><path d="M 3750,1865 L 3790,1865 L 3790,1905 L 3750,1905 Z" /><path d="M 3620,1865 L 3660,1865 L 3660,1905 L 3620,1905 Z" /><path d="M 3490,1865 L 3530,1865 L 3530,1905 L 3490,1905 Z" /><path d="M 3360,1865 L 3400,1865 L 3400,1905 L 3360,1905 Z" /><path d="M 3230,1865 L 3270,1865 L 3270,1905 L 3230,1905 Z" /><path d="M 3100,1865 L 3140,1865 L 3140,1905 L 3100,1905 Z" /><path d="M 2970,1865 L 3010,1865 L 3010,1905 L 2970,1905 Z" /><path d="M 2840,1865 L 2880,1865 L 2880,1905 L 2840,1905 Z" /><path d="M 2710,1865 L 2750,1865 L 2750,1905 L 2710,1905 Z" /><path d="M 2580,1865 L 2620,1865 L 2620,1905 L 2580,1905 Z" /><path d="M 2450,1865 L 2490,1865 L 2490,1905 L 2450,1905 Z" /><path d="M 2320,1865 L 2360,1865 L 2360,1905 L 2320,1905 Z" /><path d="M 2190,1865 L 2230,1865 L 2230,1905 L 2190,1905 Z" /><path d="M 2060,1865 L 2100,1865 L 2100,1905 L 2060,1905 Z" /><path d="M 1930,1865 L 1970,1865 L 1970,1905 L 1930,1905 Z" /><path d="M 1800,1865 L 1840,1865 L 1840,1905 L 1800,1905 Z" /><path d="M 1670,1865 L 1710,1865 L 1710,1905 L 1670,1905 Z" /><path d="M 1540,1865 L 1580,1865 L 1580,1905 L 1540,1905 Z" /><path d="M 1410,1865 L 1450,1865 L 1450,1905 L 1410,1905 Z" /><path d="M 1280,1865 L 1320,1865 L 1320,1905 L 1280,1905 Z" /><path d="M 1150,1865 L 1150,1905 L 1190,1905 L 1190,1865 Z" /><path d="M 2710,1540 L 2750,1540 L 2750,1580 L 2710,1580 Z" /><path d="M 2580,1540 L 2620,1540 L 2620,1580 L 2580,1580 Z" /><path d="M 2190,740 L 2230,740 L 2230,780 L 2190,780 Z" /><path d="M 2190,540 L 2230,540 L 2230,580 L 2190,580 Z" /><path d="M 2190,1540 L 2230,1540 L 2230,1580 L 2190,1580 Z" /><path d="M 1670,1590 L 1710,1590 L 1710,1630 L 1670,1630 Z" /><path d="M 1540,1590 L 1580,1590 L 1580,1630 L 1540,1630 Z" /><path d="M 3750,1590 L 3790,1590 L 3790,1630 L 3750,1630 Z" /><path d="M 1540,740 L 1580,740 L 1580,780 L 1540,780 Z" /><path d="M 1540,540 L 1580,540 L 1580,580 L 1540,580 Z" /><path d="M 2320,740 L 2360,740 L 2360,780 L 2320,780 Z" /><path d="M 2320,540 L 2360,540 L 2360,580 L 2320,580 Z" /><path d="M 1930,740 L 1970,740 L 1970,780 L 1930,780 Z" /><path d="M 1930,540 L 1970,540 L 1970,580 L 1930,580 Z" /><path d="M 2710,740 L 2750,740 L 2750,780 L 2710,780 Z" /><path d="M 2710,540 L 2750,540 L 2750,580 L 2710,580 Z" /><path d="M 1280,590 L 1320,590 L 1320,630 L 1280,630 Z" /><path d="M 2970,590 L 3010,590 L 3010,630 L 2970,630 Z" /><path d="M 3490,590 L 3530,590 L 3530,630 L 3490,630 Z" /><path d="M 4010,590 L 4050,590 L 4050,630 L 4010,630 Z" /><path d="M 1930,1590 L 1970,1590 L 1970,1630 L 1930,1630 Z" /><path d="M 1800,1590 L 1840,1590 L 1840,1630 L 1800,1630 Z" /><path d="M 1410,1590 L 1450,1590 L 1450,1630 L 1410,1630 Z" /><path d="M 1280,1590 L 1320,1590 L 1320,1630 L 1280,1630 Z" /><path d="M 3100,1590 L 3140,1590 L 3140,1630 L 3100,1630 Z" /><path d="M 2970,1590 L 3010,1590 L 3010,1630 L 2970,1630 Z" /><path d="M 3880,1590 L 3920,1590 L 3920,1630 L 3880,1630 Z" /><path d="M 4010,1590 L 4050,1590 L 4050,1630 L 4010,1630 Z" /><path d="M 3620,1590 L 3660,1590 L 3660,1630 L 3620,1630 Z" /><path d="M 3490,1590 L 3530,1590 L 3530,1630 L 3490,1630 Z" /><path d="M 2450,1540 L 2490,1540 L 2490,1580 L 2450,1580 Z" /><path d="M 2320,1540 L 2360,1540 L 2360,1580 L 2320,1580 Z" /><path d="M 3230,1590 L 3270,1590 L 3270,1630 L 3230,1630 Z" /><path d="M 3230,590 L 3270,590 L 3270,630 L 3230,630 Z" /><path d="M 3750,590 L 3790,590 L 3790,630 L 3750,630 Z" /><path d="M 1735,1290 L 1775,1290 L 1775,1330 L 1735,1330 Z" /><path d="M 2255,1290 L 2295,1290 L 2295,1330 L 2255,1330 Z" /><path d="M 3685,1290 L 3725,1290 L 3725,1330 L 3685,1330 Z" /><path d="M 1605,1190 L 1645,1190 L 1645,1230 L 1605,1230 Z" /><path d="M 1865,1190 L 1905,1190 L 1905,1230 L 1865,1230 Z" /><path d="M 2645,1190 L 2685,1190 L 2685,1230 L 2645,1230 Z" /><path d="M 3165,1190 L 3205,1190 L 3205,1230 L 3165,1230 Z" /><path d="M 3945,1190 L 3985,1190 L 3985,1230 L 3945,1230 Z" /><path d="M 1345,1090 L 1385,1090 L 1385,1130 L 1345,1130 Z" /><path d="M 2385,1090 L 2425,1090 L 2425,1130 L 2385,1130 Z" /><path d="M 3685,1090 L 3725,1090 L 3725,1130 L 3685,1130 Z" /><path d="M 1475,990 L 1515,990 L 1515,1030 L 1475,1030 Z" /><path d="M 2515,990 L 2555,990 L 2555,1030 L 2515,1030 Z" /><path d="M 3555,990 L 3595,990 L 3595,1030 L 3555,1030 Z" /><path d="M 3035,875 L 3075,875 L 3075,915 L 3035,915 Z" /><path d="M 3815,875 L 3855,875 L 3855,915 L 3815,915 Z" /><path d="M 3945,765 L 3985,765 L 3985,805 L 3945,805 Z" /><path d="M 4335,990 L 4375,990 L 4375,1030 L 4335,1030 Z" /><path d="M 4465,1090 L 4505,1090 L 4505,1130 L 4465,1130 Z" /><path d="M 955,1290 L 995,1290 L 995,1330 L 955,1330 Z" /><path d="M 825,1190 L 865,1190 L 865,1230 L 825,1230 Z" /><path d="M 695,1090 L 735,1090 L 735,1130 L 695,1130 Z" /><path d="M 565,990 L 605,990 L 605,1030 L 565,1030 Z" /></g></g><g id="M1"><g class="l31d0"><path d="M 2575,1605 L 2575,1610 L 2575,1670 L 2365,1670 L 2365,1610 L 2365,1605 L 2365,1510 L 2315,1510 L 2315,1605 L 2315,1610 L 2315,1670 L 2315,1720 L 2365,1720 L 2575,1720 L 2625,1720 L 2625,1670 L 2625,1610 L 2625,1605 L 2625,1510 L 2575,1510 Z" /><path d="M 545,510 L 545,335 L 755,335 L 755,560 L 755,660 L 805,660 L 805,560 L 805,335 L 1100,335 L 1240,335 L 1535,335 L 1535,510 L 1535,810 L 1585,810 L 1585,510 L 1585,335 L 2315,335 L 2315,510 L 2315,810 L 2365,810 L 2365,510 L 2365,335 L 3225,335 L 3225,560 L 3225,660 L 3275,660 L 3275,560 L 3275,335 L 3745,335 L 3745,560 L 3745,660 L 3795,660 L 3795,560 L 3795,335 L 4090,335 L 4230,335 L 4265,335 L 4265,560 L 4265,660 L 4315,660 L 4315,560 L 4315,335 L 4750,335 L 4750,235 L 4230,235 L 4090,235 L 1240,235 L 1100,235 L 320,235 L 320,335 L 495,335 L 495,510 L 495,610 L 545,610 Z" /><path d="M 755,1610 L 755,1835 L 320,1835 L 320,1935 L 1100,1935 L 1240,1935 L 4090,1935 L 4230,1935 L 4750,1935 L 4750,1835 L 4575,1835 L 4575,1660 L 4575,1560 L 4525,1560 L 4525,1660 L 4524,1660 L 4524,1835 L 4315,1835 L 4315,1660 L 4315,1560 L 4265,1560 L 4265,1660 L 4265,1835 L 4230,1835 L 4090,1835 L 4055,1835 L 4055,1660 L 4055,1560 L 4005,1560 L 4005,1660 L 4005,1835 L 3795,1835 L 3795,1660 L 3795,1560 L 3745,1560 L 3745,1660 L 3745,1835 L 3535,1835 L 3535,1660 L 3535,1560 L 3485,1560 L 3485,1660 L 3485,1835 L 3275,1835 L 3275,1660 L 3275,1560 L 3225,1560 L 3225,1660 L 3225,1835 L 3015,1835 L 3015,1660 L 3015,1560 L 2965,1560 L 2965,1660 L 2965,1835 L 2234,1835 L 2234,1610 L 2235,1610 L 2235,1510 L 2185,1510 L 2185,1610 L 2185,1835 L 1845,1835 L 1845,1660 L 1845,1560 L 1795,1560 L 1795,1660 L 1795,1835 L 1585,1835 L 1585,1660 L 1585,1560 L 1535,1560 L 1535,1660 L 1535,1835 L 1325,1835 L 1325,1660 L 1325,1560 L 1275,1560 L 1275,1660 L 1275,1835 L 1240,1835 L 1100,1835 L 1065,1835 L 1065,1660 L 1065,1560 L 1015,1560 L 1015,1660 L 1015,1835 L 805,1835 L 805,1610 L 805,1510 L 755,1510 Z" /><path d="M 3925,1560 L 3925,1335 L 3925,1285 L 3875,1285 L 3745,1285 L 3705,1285 L 3665,1285 L 3665,1335 L 3705,1335 L 3745,1335 L 3875,1335 L 3875,1560 L 3875,1660 L 3925,1660 Z" /><path d="M 2625,1185 L 1925,1185 L 1885,1185 L 1845,1185 L 1845,1235 L 1925,1235 L 1925,1234 L 2625,1234 L 2625,1235 L 2705,1235 L 2705,1185 L 2665,1185 Z" /><path d="M 3925,1185 L 3585,1185 L 3535,1185 L 3535,1234 L 3535,1395 L 3535,1444 L 3585,1444 L 3615,1444 L 3615,1560 L 3615,1660 L 3665,1660 L 3665,1560 L 3665,1444 L 3665,1395 L 3615,1395 L 3585,1395 L 3585,1234 L 3925,1234 L 3925,1235 L 4005,1235 L 4005,1185 L 3945,1185 Z" /><path d="M 3925,760 L 3535,760 L 3535,660 L 3535,560 L 3485,560 L 3485,660 L 3485,760 L 3485,810 L 3535,810 L 3925,810 L 3965,810 L 4005,810 L 4005,760 L 3965,760 Z" /><path d="M 4005,470 L 4005,555 L 4005,560 L 4005,660 L 4005,665 L 4005,700 L 4055,700 L 4055,665 L 4055,660 L 4055,560 L 4055,555 L 4055,470 Z" /><path d="M 2965,495 L 2965,555 L 2965,560 L 2965,660 L 2965,665 L 2965,725 L 3015,725 L 3015,665 L 3015,660 L 3015,560 L 3015,555 L 3015,495 Z" /><path d="M 1275,495 L 1275,555 L 1275,560 L 1275,660 L 1275,665 L 1275,725 L 1325,725 L 1325,665 L 1325,660 L 1325,560 L 1325,555 L 1325,495 Z" /><path d="M 2990,1085 L 2935,1085 L 2445,1085 L 2405,1085 L 2365,1085 L 1405,1085 L 1365,1085 L 1325,1085 L 1325,1135 L 1365,1135 L 1405,1135 L 2365,1135 L 2405,1135 L 2445,1135 L 2935,1135 L 2990,1135 L 2995,1135 L 2995,1450 L 2995,1500 L 3045,1500 L 3095,1500 L 3095,1560 L 3095,1660 L 3145,1660 L 3145,1560 L 3145,1500 L 3145,1450 L 3095,1450 L 3045,1450 L 3045,1135 L 3045,1085 L 2995,1085 Z" /><path d="M 2754,810 L 2755,810 L 2755,510 L 2705,510 L 2705,810 L 2705,870 L 2655,870 L 2545,870 L 2234,870 L 2234,810 L 2235,810 L 2235,510 L 2185,510 L 2185,810 L 2185,870 L 2185,920 L 2234,920 L 2545,920 L 2655,920 L 2705,920 L 2754,920 L 3015,920 L 3055,920 L 3095,920 L 3795,920 L 3835,920 L 3875,920 L 3875,870 L 3835,870 L 3795,870 L 3095,870 L 3055,870 L 3015,870 L 2754,870 Z" /><path d="M 2754,1510 L 2754,1450 L 2754,1400 L 2705,1400 L 2655,1400 L 2545,1400 L 2494,1400 L 2445,1400 L 2445,1450 L 2445,1510 L 2445,1610 L 2495,1610 L 2495,1510 L 2494,1510 L 2494,1450 L 2545,1450 L 2655,1450 L 2705,1450 L 2705,1510 L 2705,1610 L 2755,1610 L 2755,1510 Z" /><path d="M 1455,985 L 1455,1035 L 1495,1035 L 1535,1035 L 1765,1035 L 1875,1035 L 1925,1035 L 1974,1035 L 2495,1035 L 2535,1035 L 2575,1035 L 3535,1035 L 3575,1035 L 3615,1035 L 3615,985 L 3575,985 L 3535,985 L 2575,985 L 2535,985 L 2495,985 L 1974,985 L 1974,810 L 1975,810 L 1975,510 L 1925,510 L 1925,810 L 1925,985 L 1875,985 L 1765,985 L 1535,985 L 1495,985 Z" /><path d="M 1974,1560 L 1974,1500 L 1974,1450 L 1925,1450 L 1875,1450 L 1765,1450 L 1715,1450 L 1665,1450 L 1665,1500 L 1665,1560 L 1665,1660 L 1715,1660 L 1715,1560 L 1715,1500 L 1765,1500 L 1875,1500 L 1925,1500 L 1925,1560 L 1925,1660 L 1975,1660 L 1975,1560 Z" /><path d="M 1715,1335 L 1755,1335 L 1795,1335 L 1795,1285 L 1755,1285 L 1715,1285 L 1455,1285 L 1405,1285 L 1355,1285 L 1300,1285 L 1245,1285 L 1245,1335 L 1300,1335 L 1355,1335 L 1405,1335 L 1405,1560 L 1405,1660 L 1455,1660 L 1455,1560 L 1455,1335 Z" /><path d="M 4395,1495 L 4395,1555 L 4395,1560 L 4395,1660 L 4395,1665 L 4395,1725 L 4445,1725 L 4445,1665 L 4445,1660 L 4445,1560 L 4445,1555 L 4445,1495 Z" /><path d="M 885,1495 L 885,1555 L 885,1560 L 885,1660 L 885,1665 L 885,1725 L 935,1725 L 935,1665 L 935,1660 L 935,1560 L 935,1555 L 935,1495 Z" /><path d="M 625,445 L 625,505 L 625,510 L 625,610 L 625,615 L 625,675 L 675,675 L 675,615 L 675,610 L 675,510 L 675,505 L 675,445 Z" /><path d="M 4525,495 L 4525,555 L 4525,560 L 4525,660 L 4525,665 L 4525,725 L 4575,725 L 4575,665 L 4575,660 L 4575,560 L 4575,555 L 4575,495 Z" /><path d="M 1015,495 L 1015,555 L 1015,560 L 1015,660 L 1015,665 L 1015,725 L 1065,725 L 1065,665 L 1065,660 L 1065,560 L 1065,555 L 1065,495 Z" /><path d="M 495,1445 L 495,1505 L 495,1510 L 495,1610 L 495,1615 L 495,1675 L 545,1675 L 545,1615 L 545,1610 L 545,1510 L 545,1505 L 545,1445 Z" /><path d="M 4240,985 L 4240,1035 L 4315,1035 L 4395,1035 L 4470,1035 L 4470,985 L 4395,985 L 4315,985 Z" /><path d="M 860,1285 L 860,1335 L 935,1335 L 1015,1335 L 1090,1335 L 1090,1285 L 1015,1285 L 935,1285 Z" /><path d="M 730,1185 L 730,1235 L 805,1235 L 885,1235 L 960,1235 L 960,1185 L 885,1185 L 805,1185 Z" /><path d="M 600,1085 L 600,1135 L 675,1135 L 755,1135 L 830,1135 L 830,1085 L 755,1085 L 675,1085 Z" /><path d="M 470,985 L 470,1035 L 545,1035 L 625,1035 L 700,1035 L 700,985 L 625,985 L 545,985 Z" /><path d="M 2235,1335 L 2265,1335 L 2315,1335 L 2390,1335 L 2390,1285 L 2315,1285 L 2265,1285 L 2235,1285 L 2160,1285 L 2155,1285 L 2155,1335 L 2160,1335 Z" /><path d="M 4085,1085 L 4030,1085 L 3975,1085 L 3745,1085 L 3705,1085 L 3665,1085 L 3665,1135 L 3705,1135 L 3745,1135 L 3975,1135 L 4030,1135 L 4085,1135 L 4445,1135 L 4485,1135 L 4525,1135 L 4525,1085 L 4485,1085 L 4445,1085 Z" /><path d="M 1585,1235 L 1615,1235 L 1665,1235 L 1740,1235 L 1740,1185 L 1665,1185 L 1615,1185 L 1585,1185 L 1510,1185 L 1505,1185 L 1505,1235 L 1510,1235 Z" /><path d="M 3135,1235 L 3145,1235 L 3195,1235 L 3225,1235 L 3305,1235 L 3365,1235 L 3365,1185 L 3305,1185 L 3225,1185 L 3195,1185 L 3145,1185 L 3135,1185 Z" /></g></g><g id="VIA1"><g class="l51d0"><path d="M 4005,585 L 4055,585 L 4055,635 L 4005,635 Z" /><path d="M 2965,585 L 3015,585 L 3015,635 L 2965,635 Z" /><path d="M 1275,585 L 1325,585 L 1325,635 L 1275,635 Z" /><path d="M 2965,1085 L 3015,1085 L 3015,1135 L 2965,1135 Z" /><path d="M 2575,870 L 2625,870 L 2625,920 L 2575,920 Z" /><path d="M 2575,1400 L 2625,1400 L 2625,1450 L 2575,1450 Z" /><path d="M 1795,985 L 1845,985 L 1845,1035 L 1795,1035 Z" /><path d="M 1795,1450 L 1845,1450 L 1845,1500 L 1795,1500 Z" /><path d="M 1275,1285 L 1325,1285 L 1325,1335 L 1275,1335 Z" /><path d="M 4395,1585 L 4445,1585 L 4445,1635 L 4395,1635 Z" /><path d="M 885,1585 L 935,1585 L 935,1635 L 885,1635 Z" /><path d="M 625,535 L 675,535 L 675,585 L 625,585 Z" /><path d="M 4525,585 L 4575,585 L 4575,635 L 4525,635 Z" /><path d="M 1015,585 L 1065,585 L 1065,635 L 1015,635 Z" /><path d="M 495,1535 L 545,1535 L 545,1585 L 495,1585 Z" /><path d="M 2185,1285 L 2235,1285 L 2235,1335 L 2185,1335 Z" /><path d="M 4005,1085 L 4005,1135 L 4055,1135 L 4055,1085 Z" /><path d="M 1535,1185 L 1585,1185 L 1585,1235 L 1535,1235 Z" /><path d="M 3225,1185 L 3275,1185 L 3275,1235 L 3225,1235 Z" /></g></g><g id="M2"><g class="l32d0"><path d="M 3015,1055 L 3015,665 L 3015,610 L 3015,555 L 2965,555 L 2965,610 L 2965,665 L 2965,1055 L 2965,1110 L 2965,1165 L 3015,1165 L 3015,1110 Z" /><path d="M 2575,1370 L 2575,1425 L 2575,1480 L 2625,1480 L 2625,1425 L 2625,1370 L 2625,950 L 2625,895 L 2625,840 L 2575,840 L 2575,895 L 2575,950 Z" /><path d="M 1845,1420 L 1845,1065 L 1845,1010 L 1845,955 L 1795,955 L 1795,1010 L 1795,1065 L 1795,1420 L 1795,1475 L 1795,1530 L 1845,1530 L 1845,1475 Z" /><path d="M 1325,1255 L 1325,665 L 1325,610 L 1325,555 L 1275,555 L 1275,610 L 1275,665 L 1275,1255 L 1275,1310 L 1275,1365 L 1325,1365 L 1325,1310 Z" /><path d="M 4395,1610 L 4395,1665 L 4445,1665 L 4445,1610 L 4445,1555 L 4445,635 L 4495,635 L 4550,635 L 4605,635 L 4605,585 L 4550,585 L 4495,585 L 4445,585 L 4395,585 L 4395,635 L 4395,1555 Z" /><path d="M 4055,665 L 4055,610 L 4055,555 L 4005,555 L 4005,610 L 4005,665 L 4005,1055 L 4005,1110 L 4005,1165 L 4055,1165 L 4055,1110 L 4055,1055 Z" /><path d="M 1585,1070 L 1535,1070 L 1535,1155 L 1535,1265 L 1535,1350 L 1585,1350 L 1585,1265 L 1585,1155 Z" /><path d="M 985,635 L 1040,635 L 1095,635 L 1095,585 L 1040,585 L 985,585 L 935,585 L 885,585 L 885,635 L 885,1255 L 885,1365 L 885,1555 L 885,1610 L 885,1665 L 935,1665 L 935,1610 L 935,1555 L 935,1365 L 935,1255 L 935,635 Z" /><path d="M 2235,1170 L 2185,1170 L 2185,1255 L 2185,1365 L 2185,1450 L 2235,1450 L 2235,1365 L 2235,1255 Z" /><path d="M 675,505 L 625,505 L 625,560 L 625,615 L 625,1155 L 625,1265 L 625,1535 L 575,1535 L 520,1535 L 465,1535 L 465,1585 L 520,1585 L 575,1585 L 625,1585 L 675,1585 L 675,1535 L 675,1265 L 675,1155 L 675,615 L 675,560 Z" /><path d="M 3275,1070 L 3225,1070 L 3225,1155 L 3225,1265 L 3225,1350 L 3275,1350 L 3275,1265 L 3275,1155 Z" /></g></g><g id="VIA2"><g class="l52d0"><path d="M 1535,1185 L 1585,1185 L 1585,1235 L 1535,1235 Z" /><path d="M 885,1285 L 935,1285 L 935,1335 L 885,1335 Z" /><path d="M 2185,1285 L 2235,1285 L 2235,1335 L 2185,1335 Z" /><path d="M 625,1185 L 675,1185 L 675,1235 L 625,1235 Z" /><path d="M 3225,1185 L 3275,1185 L 3275,1235 L 3225,1235 Z" /></g></g><g id="M3"><g class="l33d0"><path d="M 2155,1285 L 965,1285 L 910,1285 L 855,1285 L 855,1335 L 910,1335 L 965,1335 L 2155,1335 L 2210,1335 L 2265,1335 L 2265,1285 L 2210,1285 Z" /><path d="M 1505,1235 L 1615,1235 L 1615,1234 L 3195,1234 L 3195,1235 L 3305,1235 L 3305,1185 L 3250,1185 L 3195,1185 L 1615,1185 L 1505,1185 L 705,1185 L 650,1185 L 595,1185 L 595,1235 L 705,1235 L 705,1234 L 1505,1234 Z" /></g></g></g></svg>