<svg width="2110" height="1810" viewBox="15 -1900 2110 1810" xmlns="http://www.w3.org/2000/svg" xmlns:xlink="http://www.w3.org/1999/xlink"><defs><style type="text/css">.l3d0 {fill: #fef9e7; fill-opacity: 0.5; stroke-width: 10; stroke: #f1c40f; stroke-linecap: round; stroke-linejoin: round; stroke-opacity: 0.2;}.l25d0 {fill: #8e44ad; fill-opacity: 0.05; stroke-width: 10; stroke: #8e44ad; stroke-linecap: round; stroke-linejoin: round; stroke-opacity: 1;}.l26d0 {fill: #ccd1d1; fill-opacity: 0.05; stroke-width: 10; stroke: #ccd1d1; stroke-linecap: round; stroke-linejoin: round; stroke-opacity: 1;}.l6d0 {fill: #f5b7b1; fill-opacity: 1; stroke-width: 10; stroke: #e74c3c; stroke-linecap: round; stroke-linejoin: round; stroke-opacity: 1;}.l17d0 {fill: #2980b9; fill-opacity: 1; stroke-width: 0; stroke: #000000; stroke-linecap: round; stroke-linejoin: round; stroke-opacity: 0;}.l17d7 {fill: #2980b9; fill-opacity: 1; stroke-width: 0; stroke: #000000; stroke-linecap: round; stroke-linejoin: round; stroke-opacity: 0;}.l30d0 {fill: #27ae60; fill-opacity: 1; stroke-width: 0; stroke: #000000; stroke-linecap: round; stroke-linejoin: round; stroke-opacity: 0;}.l31d0 {fill: #85c1e9; fill-opacity: 0.6; stroke-width: 0; stroke: #000000; stroke-linecap: round; stroke-linejoin: round; stroke-opacity: 0;}.l51d0 {fill: #f39c12; fill-opacity: 1; stroke-width: 10; stroke: #f39c12; stroke-linecap: round; stroke-linejoin: round; stroke-opacity: 1;}.l32d0 {fill: #f7dc6f; fill-opacity: 0.6; stroke-width: 0; stroke: #000000; stroke-linecap: round; stroke-linejoin: round; stroke-opacity: 0;}path {fill-rule: evenodd;}</style></defs><g transform="scale(1 -1)"><g id="NW"><g class="l3d0"><path d="M 20,975 L 20,1655 L 20,1895 L 2120,1895 L 2120,1655 L 2120,975 Z" /></g></g><g id="PP"><g class="l25d0"><path d="M 510,1695 L 640,1695 L 1160,1695 L 1240,1695 L 1940,1695 L 2080,1695 L 2080,975 L 60,975 L 60,1695 L 200,1695 Z" /><path d="M 60,95 L 60,255 L 2080,255 L 2080,95 Z" /></g></g><g id="NP"><g class="l26d0"><path d="M 1240,255 L 1160,255 L 590,255 L 460,255 L 200,255 L 60,255 L 60,975 L 2080,975 L 2080,255 L 1940,255 Z" /><path d="M 60,1695 L 60,1855 L 2080,1855 L 2080,1695 Z" /></g></g><g id="OD"><g class="l6d0"><path d="M 730,800 L 760,800 L 860,800 L 890,800 L 990,800 L 1020,800 L 1095,800 L 1095,400 L 1020,400 L 990,400 L 890,400 L 860,400 L 760,400 L 730,400 L 630,400 L 600,400 L 525,400 L 500,400 L 470,400 L 370,400 L 340,400 L 265,400 L 265,600 L 340,600 L 370,600 L 470,600 L 500,600 L 525,600 L 525,800 L 600,800 L 630,800 Z" /><path d="M 1670,1550 L 1770,1550 L 1800,1550 L 1875,1550 L 1875,1350 L 1800,1350 L 1770,1350 L 1670,1350 L 1640,1350 L 1540,1350 L 1510,1350 L 1410,1350 L 1380,1350 L 1305,1350 L 1305,1550 L 1380,1550 L 1410,1550 L 1510,1550 L 1540,1550 L 1640,1550 Z" /><path d="M 1670,800 L 1770,800 L 1800,800 L 1875,800 L 1875,400 L 1800,400 L 1770,400 L 1670,400 L 1640,400 L 1540,400 L 1510,400 L 1410,400 L 1380,400 L 1305,400 L 1305,800 L 1380,800 L 1410,800 L 1510,800 L 1540,800 L 1640,800 Z" /><path d="M 890,1550 L 990,1550 L 1020,1550 L 1095,1550 L 1095,1450 L 1020,1450 L 990,1450 L 890,1450 L 860,1450 L 760,1450 L 730,1450 L 630,1450 L 600,1450 L 575,1450 L 575,1350 L 500,1350 L 470,1350 L 370,1350 L 340,1350 L 265,1350 L 265,1550 L 340,1550 L 370,1550 L 470,1550 L 500,1550 L 575,1550 L 600,1550 L 630,1550 L 730,1550 L 760,1550 L 860,1550 Z" /><path d="M 90,1725 L 90,1825 L 2050,1825 L 2050,1725 Z" /><path d="M 90,125 L 90,225 L 2050,225 L 2050,125 Z" /></g></g><g id="PO"><g class="l17d0"><path d="M 1770,800 L 1770,880 L 1770,1060 L 1770,1140 L 1770,1270 L 1770,1350 L 1770,1550 L 1770,1630 L 1800,1630 L 1800,1550 L 1800,1350 L 1800,1270 L 1800,1140 L 1800,1060 L 1800,880 L 1800,800 L 1800,400 L 1800,320 L 1770,320 L 1770,400 Z" /><path d="M 1640,800 L 1640,880 L 1640,1060 L 1640,1140 L 1640,1270 L 1640,1350 L 1640,1550 L 1640,1630 L 1670,1630 L 1670,1550 L 1670,1350 L 1670,1270 L 1670,1140 L 1670,1060 L 1670,880 L 1670,800 L 1670,400 L 1670,320 L 1640,320 L 1640,400 Z" /><path d="M 1510,800 L 1510,880 L 1510,1060 L 1510,1140 L 1510,1270 L 1510,1350 L 1510,1550 L 1510,1630 L 1540,1630 L 1540,1550 L 1540,1350 L 1540,1270 L 1540,1140 L 1540,1060 L 1540,880 L 1540,800 L 1540,400 L 1540,320 L 1510,320 L 1510,400 Z" /><path d="M 1380,800 L 1380,880 L 1380,1060 L 1380,1140 L 1380,1270 L 1380,1350 L 1380,1550 L 1380,1630 L 1410,1630 L 1410,1550 L 1410,1350 L 1410,1270 L 1410,1140 L 1410,1060 L 1410,880 L 1410,800 L 1410,400 L 1410,320 L 1380,320 L 1380,400 Z" /><path d="M 340,1550 L 340,1630 L 370,1630 L 370,1550 L 370,1350 L 370,1270 L 370,1240 L 370,1160 L 370,680 L 370,600 L 370,400 L 370,320 L 340,320 L 340,400 L 340,600 L 340,680 L 339,680 L 339,1270 L 340,1270 L 340,1350 Z" /><path d="M 470,1550 L 470,1630 L 500,1630 L 500,1550 L 500,1350 L 500,1270 L 500,1240 L 500,1160 L 500,680 L 500,600 L 500,400 L 500,320 L 470,320 L 470,400 L 470,600 L 470,680 L 470,1160 L 470,1240 L 470,1270 L 470,1350 Z" /><path d="M 990,1550 L 990,1630 L 1020,1630 L 1020,1550 L 1020,1450 L 1020,1370 L 1020,1040 L 1020,960 L 1020,880 L 1020,800 L 1020,400 L 1020,320 L 990,320 L 990,400 L 990,800 L 990,880 L 990,960 L 990,1040 L 990,1370 L 990,1450 Z" /><path d="M 860,1550 L 860,1630 L 890,1630 L 890,1550 L 890,1450 L 890,1370 L 890,1040 L 890,960 L 890,880 L 890,800 L 890,400 L 890,320 L 860,320 L 860,400 L 860,800 L 860,880 L 860,960 L 860,1040 L 860,1370 L 860,1450 Z" /><path d="M 600,1550 L 600,1630 L 630,1630 L 630,1550 L 630,1450 L 630,1370 L 630,1040 L 630,960 L 630,880 L 630,800 L 630,400 L 630,320 L 600,320 L 600,400 L 600,800 L 600,880 L 600,960 L 600,1040 L 600,1370 L 600,1450 Z" /><path d="M 730,1550 L 730,1630 L 760,1630 L 760,1550 L 760,1450 L 760,1370 L 760,1040 L 760,960 L 760,880 L 760,800 L 760,400 L 760,320 L 730,320 L 730,400 L 730,800 L 730,880 L 730,960 L 730,1040 L 730,1370 L 730,1450 Z" /></g><g class="l17d7"><path d="M 80,305 L 110,305 L 110,695 L 80,695 Z" /><path d="M 210,305 L 240,305 L 240,695 L 210,695 Z" /><path d="M 80,1255 L 110,1255 L 110,1645 L 80,1645 Z" /><path d="M 210,1255 L 240,1255 L 240,1645 L 210,1645 Z" /><path d="M 2030,1255 L 2060,1255 L 2060,1645 L 2030,1645 Z" /><path d="M 1900,1255 L 1930,1255 L 1930,1645 L 1900,1645 Z" /><path d="M 2030,340 L 2060,340 L 2060,860 L 2030,860 Z" /><path d="M 1900,340 L 1930,340 L 1930,860 L 1900,860 Z" /><path d="M 1120,340 L 1120,860 L 1150,860 L 1150,340 Z" /><path d="M 1250,340 L 1250,860 L 1280,860 L 1280,340 Z" /><path d="M 1280,1255 L 1250,1255 L 1250,1305 L 1250,1645 L 1250,1695 L 1280,1695 L 1280,1645 L 1280,1305 Z" /><path d="M 1150,1255 L 1120,1255 L 1120,1305 L 1120,1645 L 1120,1695 L 1150,1695 L 1150,1645 L 1150,1305 Z" /></g></g><g id="CO"><g class="l30d0"><path d="M 1960,1755 L 2000,1755 L 2000,1795 L 1960,1795 Z" /><path d="M 1830,1755 L 1870,1755 L 1870,1795 L 1830,1795 Z" /><path d="M 1700,1755 L 1740,1755 L 1740,1795 L 1700,1795 Z" /><path d="M 1570,1755 L 1610,1755 L 1610,1795 L 1570,1795 Z" /><path d="M 1440,1755 L 1480,1755 L 1480,1795 L 1440,1795 Z" /><path d="M 1310,1755 L 1350,1755 L 1350,1795 L 1310,1795 Z" /><path d="M 1180,1755 L 1220,1755 L 1220,1795 L 1180,1795 Z" /><path d="M 1050,1755 L 1090,1755 L 1090,1795 L 1050,1795 Z" /><path d="M 920,1755 L 960,1755 L 960,1795 L 920,1795 Z" /><path d="M 790,1755 L 830,1755 L 830,1795 L 790,1795 Z" /><path d="M 660,1755 L 700,1755 L 700,1795 L 660,1795 Z" /><path d="M 530,1755 L 570,1755 L 570,1795 L 530,1795 Z" /><path d="M 400,1755 L 440,1755 L 440,1795 L 400,1795 Z" /><path d="M 270,1755 L 310,1755 L 310,1795 L 270,1795 Z" /><path d="M 140,1755 L 180,1755 L 180,1795 L 140,1795 Z" /><path d="M 1960,155 L 2000,155 L 2000,195 L 1960,195 Z" /><path d="M 1830,155 L 1870,155 L 1870,195 L 1830,195 Z" /><path d="M 1700,155 L 1740,155 L 1740,195 L 1700,195 Z" /><path d="M 1570,155 L 1610,155 L 1610,195 L 1570,195 Z" /><path d="M 1440,155 L 1480,155 L 1480,195 L 1440,195 Z" /><path d="M 1310,155 L 1350,155 L 1350,195 L 1310,195 Z" /><path d="M 1180,155 L 1220,155 L 1220,195 L 1180,195 Z" /><path d="M 1050,155 L 1090,155 L 1090,195 L 1050,195 Z" /><path d="M 920,155 L 960,155 L 960,195 L 920,195 Z" /><path d="M 790,155 L 830,155 L 830,195 L 790,195 Z" /><path d="M 660,155 L 700,155 L 700,195 L 660,195 Z" /><path d="M 530,155 L 570,155 L 570,195 L 530,195 Z" /><path d="M 400,155 L 440,155 L 440,195 L 400,195 Z" /><path d="M 270,155 L 310,155 L 310,195 L 270,195 Z" /><path d="M 140,155 L 180,155 L 180,195 L 140,195 Z" /><path d="M 400,480 L 440,480 L 440,520 L 400,520 Z" /><path d="M 270,480 L 310,480 L 310,520 L 270,520 Z" /><path d="M 530,1430 L 570,1430 L 570,1470 L 530,1470 Z" /><path d="M 400,1430 L 440,1430 L 440,1470 L 400,1470 Z" /><path d="M 270,1430 L 310,1430 L 310,1470 L 270,1470 Z" /><path d="M 1050,730 L 1090,730 L 1090,770 L 1050,770 Z" /><path d="M 1050,580 L 1090,580 L 1090,620 L 1050,620 Z" /><path d="M 1050,430 L 1090,430 L 1090,470 L 1050,470 Z" /><path d="M 920,730 L 960,730 L 960,770 L 920,770 Z" /><path d="M 920,580 L 960,580 L 960,620 L 920,620 Z" /><path d="M 920,430 L 960,430 L 960,470 L 920,470 Z" /><path d="M 790,730 L 830,730 L 830,770 L 790,770 Z" /><path d="M 790,580 L 830,580 L 830,620 L 790,620 Z" /><path d="M 790,430 L 830,430 L 830,470 L 790,470 Z" /><path d="M 660,730 L 700,730 L 700,770 L 660,770 Z" /><path d="M 660,580 L 700,580 L 700,620 L 660,620 Z" /><path d="M 660,430 L 700,430 L 700,470 L 660,470 Z" /><path d="M 530,730 L 570,730 L 570,770 L 530,770 Z" /><path d="M 530,580 L 570,580 L 570,620 L 530,620 Z" /><path d="M 530,430 L 570,430 L 570,470 L 530,470 Z" /><path d="M 1830,1430 L 1870,1430 L 1870,1470 L 1830,1470 Z" /><path d="M 1700,1430 L 1740,1430 L 1740,1470 L 1700,1470 Z" /><path d="M 1570,1430 L 1610,1430 L 1610,1470 L 1570,1470 Z" /><path d="M 1440,1430 L 1480,1430 L 1480,1470 L 1440,1470 Z" /><path d="M 1310,1430 L 1350,1430 L 1350,1470 L 1310,1470 Z" /><path d="M 1830,730 L 1870,730 L 1870,770 L 1830,770 Z" /><path d="M 1830,580 L 1870,580 L 1870,620 L 1830,620 Z" /><path d="M 1830,430 L 1870,430 L 1870,470 L 1830,470 Z" /><path d="M 1700,730 L 1740,730 L 1740,770 L 1700,770 Z" /><path d="M 1700,580 L 1740,580 L 1740,620 L 1700,620 Z" /><path d="M 1700,430 L 1740,430 L 1740,470 L 1700,470 Z" /><path d="M 1570,730 L 1610,730 L 1610,770 L 1570,770 Z" /><path d="M 1570,580 L 1610,580 L 1610,620 L 1570,620 Z" /><path d="M 1570,430 L 1610,430 L 1610,470 L 1570,470 Z" /><path d="M 1440,730 L 1480,730 L 1480,770 L 1440,770 Z" /><path d="M 1440,580 L 1480,580 L 1480,620 L 1440,620 Z" /><path d="M 1440,430 L 1480,430 L 1480,470 L 1440,470 Z" /><path d="M 1310,730 L 1350,730 L 1350,770 L 1310,770 Z" /><path d="M 1310,580 L 1350,580 L 1350,620 L 1310,620 Z" /><path d="M 1310,430 L 1350,430 L 1350,470 L 1310,470 Z" /><path d="M 1050,1480 L 1090,1480 L 1090,1520 L 1050,1520 Z" /><path d="M 920,1480 L 960,1480 L 960,1520 L 920,1520 Z" /><path d="M 790,1480 L 830,1480 L 830,1520 L 790,1520 Z" /><path d="M 660,1480 L 700,1480 L 700,1520 L 660,1520 Z" /><path d="M 1765,1080 L 1805,1080 L 1805,1120 L 1765,1120 Z" /><path d="M 1635,1080 L 1675,1080 L 1675,1120 L 1635,1120 Z" /><path d="M 1505,1080 L 1545,1080 L 1545,1120 L 1505,1120 Z" /><path d="M 1375,1080 L 1415,1080 L 1415,1120 L 1375,1120 Z" /><path d="M 335,1180 L 375,1180 L 375,1220 L 335,1220 Z" /><path d="M 465,1180 L 505,1180 L 505,1220 L 465,1220 Z" /><path d="M 985,980 L 1025,980 L 1025,1020 L 985,1020 Z" /><path d="M 855,980 L 895,980 L 895,1020 L 855,1020 Z" /><path d="M 595,980 L 635,980 L 635,1020 L 595,1020 Z" /><path d="M 725,980 L 765,980 L 765,1020 L 725,1020 Z" /></g></g><g id="M1"><g class="l31d0"><path d="M 1615,875 L 1615,800 L 1615,400 L 1565,400 L 1565,800 L 1565,875 L 1355,875 L 1355,800 L 1355,400 L 1305,400 L 1305,800 L 1305,875 L 965,875 L 965,800 L 965,400 L 915,400 L 915,800 L 915,875 L 705,875 L 705,800 L 705,400 L 655,400 L 655,800 L 655,875 L 655,925 L 705,925 L 915,925 L 965,925 L 1305,925 L 1355,925 L 1565,925 L 1615,925 L 1825,925 L 1875,925 L 1875,875 L 1875,800 L 1875,400 L 1825,400 L 1825,800 L 1825,875 Z" /><path d="M 265,1400 L 265,1500 L 264,1500 L 264,1725 L 90,1725 L 90,1825 L 2050,1825 L 2050,1725 L 1875,1725 L 1875,1500 L 1875,1400 L 1825,1400 L 1825,1500 L 1825,1725 L 1615,1725 L 1615,1500 L 1615,1400 L 1565,1400 L 1565,1500 L 1565,1725 L 1355,1725 L 1355,1500 L 1355,1400 L 1305,1400 L 1305,1500 L 1305,1725 L 1095,1725 L 1095,1550 L 1095,1450 L 1045,1450 L 1045,1550 L 1045,1725 L 835,1725 L 835,1550 L 835,1450 L 785,1450 L 785,1550 L 785,1725 L 575,1725 L 575,1500 L 575,1400 L 525,1400 L 525,1500 L 525,1725 L 315,1725 L 315,1500 L 315,1400 Z" /><path d="M 315,550 L 315,450 L 315,225 L 525,225 L 525,400 L 525,800 L 575,800 L 575,400 L 575,225 L 785,225 L 785,400 L 785,800 L 835,800 L 835,400 L 835,225 L 1045,225 L 1045,400 L 1045,800 L 1095,800 L 1095,400 L 1095,225 L 2050,225 L 2050,125 L 90,125 L 90,225 L 264,225 L 264,450 L 265,450 L 265,550 Z" /><path d="M 1485,400 L 1435,400 L 1435,545 L 1435,655 L 1435,800 L 1485,800 L 1485,655 L 1485,545 Z" /><path d="M 1745,400 L 1695,400 L 1695,545 L 1695,655 L 1695,800 L 1745,800 L 1745,655 L 1745,545 Z" /><path d="M 395,1335 L 395,1395 L 395,1400 L 395,1500 L 395,1505 L 395,1565 L 445,1565 L 445,1505 L 445,1500 L 445,1400 L 445,1395 L 445,1335 Z" /><path d="M 395,385 L 395,445 L 395,450 L 395,550 L 395,555 L 395,615 L 445,615 L 445,555 L 445,550 L 445,450 L 445,445 L 445,385 Z" /><path d="M 705,1325 L 915,1325 L 915,1450 L 915,1550 L 965,1550 L 965,1450 L 965,1325 L 1405,1325 L 1435,1325 L 1435,1400 L 1435,1500 L 1485,1500 L 1485,1400 L 1484,1400 L 1484,1325 L 1515,1325 L 1665,1325 L 1695,1325 L 1695,1400 L 1695,1500 L 1745,1500 L 1745,1400 L 1744,1400 L 1744,1325 L 1775,1325 L 1775,1275 L 1744,1275 L 1695,1275 L 1665,1275 L 1515,1275 L 1484,1275 L 1435,1275 L 1405,1275 L 965,1275 L 915,1275 L 705,1275 L 655,1275 L 655,1325 L 655,1450 L 655,1550 L 705,1550 L 705,1450 Z" /><path d="M 1785,1125 L 1825,1125 L 1825,1075 L 1785,1075 L 1745,1075 L 1695,1075 L 1655,1075 L 1615,1075 L 1565,1075 L 1525,1075 L 1485,1075 L 1435,1075 L 1395,1075 L 1355,1075 L 475,1075 L 420,1075 L 365,1075 L 365,1125 L 420,1125 L 475,1125 L 1355,1125 L 1395,1125 L 1435,1125 L 1485,1125 L 1525,1125 L 1565,1125 L 1615,1125 L 1655,1125 L 1695,1125 L 1745,1125 Z" /><path d="M 315,1225 L 395,1225 L 445,1225 L 525,1225 L 535,1225 L 535,1175 L 525,1175 L 485,1175 L 445,1175 L 395,1175 L 355,1175 L 315,1175 L 305,1175 L 305,1225 Z" /><path d="M 835,975 L 785,975 L 745,975 L 705,975 L 655,975 L 615,975 L 575,975 L 575,1025 L 615,1025 L 655,1025 L 705,1025 L 745,1025 L 785,1025 L 835,1025 L 875,1025 L 915,1025 L 965,1025 L 1005,1025 L 1045,1025 L 1045,975 L 1005,975 L 965,975 L 915,975 L 875,975 Z" /></g></g><g id="VIA1"><g class="l51d0"><path d="M 1435,575 L 1485,575 L 1485,625 L 1435,625 Z" /><path d="M 1695,575 L 1745,575 L 1745,625 L 1695,625 Z" /><path d="M 395,1425 L 445,1425 L 445,1475 L 395,1475 Z" /><path d="M 395,475 L 445,475 L 445,525 L 395,525 Z" /><path d="M 395,1075 L 445,1075 L 445,1125 L 395,1125 Z" /><path d="M 1435,1275 L 1485,1275 L 1485,1325 L 1435,1325 Z" /><path d="M 1695,1275 L 1745,1275 L 1745,1325 L 1695,1325 Z" /></g></g><g id="M2"><g class="l32d0"><path d="M 445,1505 L 445,1450 L 445,1395 L 445,1155 L 445,1045 L 445,555 L 445,500 L 445,445 L 395,445 L 395,500 L 394,500 L 394,1450 L 395,1450 L 395,1505 Z" /><path d="M 1484,655 L 1485,655 L 1485,545 L 1435,545 L 1435,600 L 1435,655 L 1435,1245 L 1435,1300 L 1435,1355 L 1485,1355 L 1485,1245 L 1484,1245 Z" /><path d="M 1744,655 L 1745,655 L 1745,545 L 1695,545 L 1695,600 L 1695,655 L 1695,1245 L 1695,1300 L 1695,1355 L 1745,1355 L 1745,1245 L 1744,1245 Z" /></g></g></g></svg>