<svg width="3280" height="1810" viewBox="110 -1885 3280 1810" xmlns="http://www.w3.org/2000/svg" xmlns:xlink="http://www.w3.org/1999/xlink"><defs><style type="text/css">.l3d0 {fill: #fef9e7; fill-opacity: 0.5; stroke-width: 10; stroke: #f1c40f; stroke-linecap: round; stroke-linejoin: round; stroke-opacity: 0.2;}.l25d0 {fill: #8e44ad; fill-opacity: 0.05; stroke-width: 10; stroke: #8e44ad; stroke-linecap: round; stroke-linejoin: round; stroke-opacity: 1;}.l26d0 {fill: #ccd1d1; fill-opacity: 0.05; stroke-width: 10; stroke: #ccd1d1; stroke-linecap: round; stroke-linejoin: round; stroke-opacity: 1;}.l6d0 {fill: #f5b7b1; fill-opacity: 1; stroke-width: 10; stroke: #e74c3c; stroke-linecap: round; stroke-linejoin: round; stroke-opacity: 1;}.l17d0 {fill: #2980b9; fill-opacity: 1; stroke-width: 0; stroke: #000000; stroke-linecap: round; stroke-linejoin: round; stroke-opacity: 0;}.l17d7 {fill: #2980b9; fill-opacity: 1; stroke-width: 0; stroke: #000000; stroke-linecap: round; stroke-linejoin: round; stroke-opacity: 0;}.l30d0 {fill: #27ae60; fill-opacity: 1; stroke-width: 0; stroke: #000000; stroke-linecap: round; stroke-linejoin: round; stroke-opacity: 0;}.l31d0 {fill: #85c1e9; fill-opacity: 0.6; stroke-width: 0; stroke: #000000; stroke-linecap: round; stroke-linejoin: round; stroke-opacity: 0;}.l51d0 {fill: #f39c12; fill-opacity: 1; stroke-width: 10; stroke: #f39c12; stroke-linecap: round; stroke-linejoin: round; stroke-opacity: 1;}.l32d0 {fill: #f7dc6f; fill-opacity: 0.6; stroke-width: 0; stroke: #000000; stroke-linecap: round; stroke-linejoin: round; stroke-opacity: 0;}path {fill-rule: evenodd;}</style></defs><g transform="scale(1 -1)"><g id="NW"><g class="l3d0"><path d="M 3385,960 L 115,960 L 115,1640 L 115,1880 L 3385,1880 L 3385,1640 Z" /></g></g><g id="PP"><g class="l25d0"><path d="M 2165,1680 L 2295,1680 L 2425,1680 L 2505,1680 L 2685,1680 L 2765,1680 L 2815,1680 L 2895,1680 L 3025,1680 L 3205,1680 L 3345,1680 L 3345,960 L 155,960 L 155,1680 L 295,1680 L 475,1680 L 555,1680 L 605,1680 L 685,1680 L 815,1680 L 945,1680 L 1125,1680 L 1205,1680 L 1335,1680 L 1465,1680 L 1595,1680 L 1725,1680 L 1905,1680 L 1985,1680 Z" /><path d="M 155,80 L 155,240 L 3345,240 L 3345,80 Z" /></g></g><g id="NP"><g class="l26d0"><path d="M 3050,240 L 2920,240 L 2895,240 L 2790,240 L 2765,240 L 2660,240 L 2505,240 L 2425,240 L 2270,240 L 2140,240 L 1985,240 L 1905,240 L 1750,240 L 1620,240 L 1490,240 L 1465,240 L 1335,240 L 1205,240 L 1125,240 L 970,240 L 840,240 L 710,240 L 685,240 L 580,240 L 555,240 L 450,240 L 295,240 L 155,240 L 155,960 L 3345,960 L 3345,240 L 3205,240 Z" /><path d="M 155,1680 L 155,1840 L 3345,1840 L 3345,1680 Z" /></g></g><g id="OD"><g class="l6d0"><path d="M 1605,685 L 1635,685 L 1685,685 L 1735,685 L 1765,685 L 1840,685 L 1840,385 L 1765,385 L 1735,385 L 1685,385 L 1635,385 L 1605,385 L 1555,385 L 1505,385 L 1475,385 L 1400,385 L 1375,385 L 1345,385 L 1270,385 L 1270,685 L 1345,685 L 1375,685 L 1400,685 L 1475,685 L 1505,685 L 1555,685 Z" /><path d="M 905,385 L 855,385 L 825,385 L 775,385 L 725,385 L 695,385 L 620,385 L 595,385 L 565,385 L 515,385 L 465,385 L 435,385 L 360,385 L 360,585 L 435,585 L 465,585 L 515,585 L 565,585 L 595,585 L 620,585 L 620,685 L 695,685 L 725,685 L 775,685 L 825,685 L 855,685 L 905,685 L 955,685 L 985,685 L 1060,685 L 1060,385 L 985,385 L 955,385 Z" /><path d="M 435,1535 L 465,1535 L 540,1535 L 565,1535 L 595,1535 L 620,1535 L 695,1535 L 725,1535 L 750,1535 L 825,1535 L 855,1535 L 880,1535 L 955,1535 L 985,1535 L 1060,1535 L 1060,1435 L 985,1435 L 955,1435 L 880,1435 L 855,1435 L 825,1435 L 750,1435 L 725,1435 L 695,1435 L 620,1435 L 595,1435 L 565,1435 L 540,1435 L 465,1435 L 435,1435 L 360,1435 L 360,1535 Z" /><path d="M 2645,1535 L 2675,1535 L 2750,1535 L 2775,1535 L 2805,1535 L 2830,1535 L 2905,1535 L 2935,1535 L 2960,1535 L 3035,1535 L 3065,1535 L 3140,1535 L 3140,1435 L 3065,1435 L 3035,1435 L 2960,1435 L 2935,1435 L 2905,1435 L 2830,1435 L 2805,1435 L 2775,1435 L 2750,1435 L 2675,1435 L 2645,1435 L 2570,1435 L 2570,1535 Z" /><path d="M 1505,1535 L 1530,1535 L 1605,1535 L 1635,1535 L 1660,1535 L 1735,1535 L 1765,1535 L 1840,1535 L 1840,1335 L 1765,1335 L 1735,1335 L 1660,1335 L 1635,1335 L 1605,1335 L 1530,1335 L 1505,1335 L 1475,1335 L 1400,1335 L 1375,1335 L 1345,1335 L 1270,1335 L 1270,1535 L 1345,1535 L 1375,1535 L 1400,1535 L 1475,1535 Z" /><path d="M 2230,1435 L 2155,1435 L 2125,1435 L 2050,1435 L 2050,1535 L 2125,1535 L 2155,1535 L 2230,1535 L 2255,1535 L 2285,1535 L 2360,1535 L 2360,1435 L 2285,1435 L 2255,1435 Z" /><path d="M 2205,385 L 2155,385 L 2125,385 L 2050,385 L 2050,585 L 2125,585 L 2155,585 L 2205,585 L 2255,585 L 2285,585 L 2360,585 L 2360,385 L 2285,385 L 2255,385 Z" /><path d="M 2570,585 L 2645,585 L 2675,585 L 2725,585 L 2775,585 L 2805,585 L 2830,585 L 2905,585 L 2935,585 L 2985,585 L 3035,585 L 3065,585 L 3140,585 L 3140,385 L 3065,385 L 3035,385 L 2985,385 L 2935,385 L 2905,385 L 2830,385 L 2805,385 L 2775,385 L 2725,385 L 2675,385 L 2645,385 L 2570,385 Z" /><path d="M 185,110 L 185,210 L 3315,210 L 3315,110 Z" /><path d="M 185,1710 L 185,1810 L 3315,1810 L 3315,1710 Z" /></g></g><g id="PO"><g class="l17d0"><path d="M 825,685 L 825,765 L 825,1165 L 825,1205 L 825,1355 L 825,1435 L 825,1535 L 825,1615 L 855,1615 L 855,1535 L 855,1435 L 855,1355 L 855,1205 L 855,1165 L 855,765 L 855,685 L 855,385 L 855,305 L 825,305 L 825,385 Z" /><path d="M 1345,1535 L 1345,1615 L 1375,1615 L 1375,1535 L 1375,1335 L 1375,1255 L 1375,1205 L 1375,1165 L 1375,765 L 1375,685 L 1375,385 L 1375,305 L 1345,305 L 1345,385 L 1345,685 L 1345,765 L 1345,1165 L 1345,1205 L 1345,1255 L 1345,1335 Z" /><path d="M 695,685 L 695,765 L 695,1065 L 695,1105 L 695,1355 L 695,1435 L 695,1535 L 695,1615 L 725,1615 L 725,1535 L 725,1435 L 725,1355 L 725,1105 L 725,1065 L 725,765 L 725,685 L 725,385 L 725,305 L 695,305 L 695,385 Z" /><path d="M 985,1435 L 985,1355 L 985,1105 L 985,1065 L 985,765 L 985,685 L 985,385 L 985,305 L 955,305 L 955,385 L 955,685 L 955,765 L 955,1065 L 955,1105 L 955,1355 L 955,1435 L 955,1535 L 955,1615 L 985,1615 L 985,1535 Z" /><path d="M 1735,685 L 1735,765 L 1735,1065 L 1735,1105 L 1735,1255 L 1735,1335 L 1735,1535 L 1735,1615 L 1765,1615 L 1765,1535 L 1765,1335 L 1765,1255 L 1765,1105 L 1765,1065 L 1765,765 L 1765,685 L 1765,385 L 1765,305 L 1735,305 L 1735,385 Z" /><path d="M 2255,585 L 2255,665 L 2255,1065 L 2255,1105 L 2255,1355 L 2255,1435 L 2255,1535 L 2255,1615 L 2285,1615 L 2285,1535 L 2285,1435 L 2285,1355 L 2285,1105 L 2285,1065 L 2285,665 L 2285,585 L 2285,385 L 2285,305 L 2255,305 L 2255,385 Z" /><path d="M 435,1535 L 435,1615 L 465,1615 L 465,1535 L 465,1435 L 465,1355 L 465,1005 L 465,965 L 465,665 L 465,585 L 465,385 L 465,305 L 435,305 L 435,385 L 435,585 L 435,665 L 435,965 L 435,1005 L 435,1355 L 435,1435 Z" /><path d="M 1475,1535 L 1475,1615 L 1505,1615 L 1505,1535 L 1505,1335 L 1505,1255 L 1505,1005 L 1505,965 L 1505,765 L 1505,685 L 1505,385 L 1505,305 L 1475,305 L 1475,385 L 1475,685 L 1475,765 L 1475,965 L 1475,1005 L 1475,1255 L 1475,1335 Z" /><path d="M 2775,665 L 2775,965 L 2775,1005 L 2775,1165 L 2775,1205 L 2775,1355 L 2775,1435 L 2775,1535 L 2775,1615 L 2805,1615 L 2805,1535 L 2805,1435 L 2805,1355 L 2805,1205 L 2805,1165 L 2805,1005 L 2805,965 L 2805,665 L 2805,585 L 2805,385 L 2805,305 L 2775,305 L 2775,385 L 2775,585 Z" /><path d="M 565,585 L 565,665 L 565,865 L 565,905 L 565,1355 L 565,1435 L 565,1535 L 565,1615 L 595,1615 L 595,1535 L 595,1435 L 595,1355 L 595,905 L 595,865 L 595,665 L 595,585 L 595,385 L 595,305 L 565,305 L 565,385 Z" /><path d="M 1605,1535 L 1605,1615 L 1635,1615 L 1635,1535 L 1635,1335 L 1635,1255 L 1635,905 L 1635,865 L 1635,765 L 1635,685 L 1635,385 L 1635,305 L 1605,305 L 1605,385 L 1605,685 L 1605,765 L 1605,865 L 1605,905 L 1605,1255 L 1605,1335 Z" /><path d="M 2645,1535 L 2645,1615 L 2675,1615 L 2675,1535 L 2675,1435 L 2675,1355 L 2675,905 L 2675,865 L 2675,665 L 2675,585 L 2675,385 L 2675,305 L 2645,305 L 2645,385 L 2645,585 L 2645,665 L 2645,865 L 2645,905 L 2645,1355 L 2645,1435 Z" /><path d="M 2125,1535 L 2125,1615 L 2155,1615 L 2155,1535 L 2155,1435 L 2155,1355 L 2155,790 L 2155,750 L 2155,665 L 2155,585 L 2155,385 L 2155,305 L 2125,305 L 2125,385 L 2125,585 L 2125,665 L 2125,750 L 2125,790 L 2125,1355 L 2125,1435 Z" /><path d="M 2905,585 L 2905,665 L 2905,750 L 2905,790 L 2905,1355 L 2905,1435 L 2905,1535 L 2905,1615 L 2935,1615 L 2935,1535 L 2935,1435 L 2935,1355 L 2935,790 L 2935,750 L 2935,665 L 2935,585 L 2935,385 L 2935,305 L 2905,305 L 2905,385 Z" /><path d="M 3035,1615 L 3065,1615 L 3065,1535 L 3065,1435 L 3065,1355 L 3065,1105 L 3065,1065 L 3065,680 L 3065,665 L 3065,640 L 3065,585 L 3065,385 L 3065,305 L 3035,305 L 3035,385 L 3035,585 L 3035,640 L 3035,665 L 3035,680 L 3035,1065 L 3035,1105 L 3035,1355 L 3035,1435 L 3035,1535 Z" /></g><g class="l17d7"><path d="M 1215,325 L 1215,745 L 1245,745 L 1245,325 Z" /><path d="M 1085,325 L 1085,745 L 1115,745 L 1115,325 Z" /><path d="M 175,290 L 205,290 L 205,680 L 175,680 Z" /><path d="M 305,290 L 335,290 L 335,680 L 305,680 Z" /><path d="M 1895,325 L 1895,290 L 1865,290 L 1865,325 L 1865,680 L 1865,745 L 1895,745 L 1895,680 Z" /><path d="M 2025,325 L 2025,290 L 1995,290 L 1995,325 L 1995,680 L 1995,745 L 2025,745 L 2025,680 Z" /><path d="M 3295,290 L 3325,290 L 3325,680 L 3295,680 Z" /><path d="M 3165,290 L 3195,290 L 3195,680 L 3165,680 Z" /><path d="M 1245,1240 L 1215,1240 L 1215,1290 L 1215,1630 L 1215,1680 L 1245,1680 L 1245,1630 L 1245,1290 Z" /><path d="M 1115,1240 L 1085,1240 L 1085,1290 L 1085,1630 L 1085,1680 L 1115,1680 L 1115,1630 L 1115,1290 Z" /><path d="M 175,1290 L 205,1290 L 205,1680 L 175,1680 Z" /><path d="M 305,1290 L 335,1290 L 335,1680 L 305,1680 Z" /><path d="M 1895,1240 L 1865,1240 L 1865,1290 L 1865,1630 L 1865,1680 L 1895,1680 L 1895,1630 L 1895,1290 Z" /><path d="M 2025,1240 L 1995,1240 L 1995,1290 L 1995,1630 L 1995,1680 L 2025,1680 L 2025,1630 L 2025,1290 Z" /><path d="M 3295,1290 L 3325,1290 L 3325,1680 L 3295,1680 Z" /><path d="M 3165,1290 L 3195,1290 L 3195,1680 L 3165,1680 Z" /><path d="M 2515,1290 L 2515,1680 L 2545,1680 L 2545,1290 Z" /><path d="M 2385,1290 L 2385,1680 L 2415,1680 L 2415,1290 Z" /><path d="M 2515,290 L 2515,680 L 2545,680 L 2545,290 Z" /><path d="M 2385,290 L 2385,680 L 2415,680 L 2415,290 Z" /></g></g><g id="CO"><g class="l30d0"><path d="M 3225,140 L 3265,140 L 3265,180 L 3225,180 Z" /><path d="M 3095,140 L 3135,140 L 3135,180 L 3095,180 Z" /><path d="M 2965,140 L 3005,140 L 3005,180 L 2965,180 Z" /><path d="M 2835,140 L 2875,140 L 2875,180 L 2835,180 Z" /><path d="M 2705,140 L 2745,140 L 2745,180 L 2705,180 Z" /><path d="M 2575,140 L 2615,140 L 2615,180 L 2575,180 Z" /><path d="M 2445,140 L 2485,140 L 2485,180 L 2445,180 Z" /><path d="M 2315,140 L 2355,140 L 2355,180 L 2315,180 Z" /><path d="M 2185,140 L 2225,140 L 2225,180 L 2185,180 Z" /><path d="M 2055,140 L 2095,140 L 2095,180 L 2055,180 Z" /><path d="M 1925,140 L 1965,140 L 1965,180 L 1925,180 Z" /><path d="M 1795,140 L 1835,140 L 1835,180 L 1795,180 Z" /><path d="M 1665,140 L 1705,140 L 1705,180 L 1665,180 Z" /><path d="M 1535,140 L 1575,140 L 1575,180 L 1535,180 Z" /><path d="M 1405,140 L 1445,140 L 1445,180 L 1405,180 Z" /><path d="M 1275,140 L 1315,140 L 1315,180 L 1275,180 Z" /><path d="M 1145,140 L 1185,140 L 1185,180 L 1145,180 Z" /><path d="M 1015,140 L 1055,140 L 1055,180 L 1015,180 Z" /><path d="M 885,140 L 925,140 L 925,180 L 885,180 Z" /><path d="M 755,140 L 795,140 L 795,180 L 755,180 Z" /><path d="M 625,140 L 665,140 L 665,180 L 625,180 Z" /><path d="M 495,140 L 535,140 L 535,180 L 495,180 Z" /><path d="M 365,140 L 405,140 L 405,180 L 365,180 Z" /><path d="M 235,140 L 275,140 L 275,180 L 235,180 Z" /><path d="M 3225,1740 L 3265,1740 L 3265,1780 L 3225,1780 Z" /><path d="M 3095,1740 L 3135,1740 L 3135,1780 L 3095,1780 Z" /><path d="M 2965,1740 L 3005,1740 L 3005,1780 L 2965,1780 Z" /><path d="M 2835,1740 L 2875,1740 L 2875,1780 L 2835,1780 Z" /><path d="M 2705,1740 L 2745,1740 L 2745,1780 L 2705,1780 Z" /><path d="M 2575,1740 L 2615,1740 L 2615,1780 L 2575,1780 Z" /><path d="M 2445,1740 L 2485,1740 L 2485,1780 L 2445,1780 Z" /><path d="M 2315,1740 L 2355,1740 L 2355,1780 L 2315,1780 Z" /><path d="M 2185,1740 L 2225,1740 L 2225,1780 L 2185,1780 Z" /><path d="M 2055,1740 L 2095,1740 L 2095,1780 L 2055,1780 Z" /><path d="M 1925,1740 L 1965,1740 L 1965,1780 L 1925,1780 Z" /><path d="M 1795,1740 L 1835,1740 L 1835,1780 L 1795,1780 Z" /><path d="M 1665,1740 L 1705,1740 L 1705,1780 L 1665,1780 Z" /><path d="M 1535,1740 L 1575,1740 L 1575,1780 L 1535,1780 Z" /><path d="M 1405,1740 L 1445,1740 L 1445,1780 L 1405,1780 Z" /><path d="M 1275,1740 L 1315,1740 L 1315,1780 L 1275,1780 Z" /><path d="M 1145,1740 L 1185,1740 L 1185,1780 L 1145,1780 Z" /><path d="M 1015,1740 L 1055,1740 L 1055,1780 L 1015,1780 Z" /><path d="M 885,1740 L 925,1740 L 925,1780 L 885,1780 Z" /><path d="M 755,1740 L 795,1740 L 795,1780 L 755,1780 Z" /><path d="M 625,1740 L 665,1740 L 665,1780 L 625,1780 Z" /><path d="M 495,1740 L 535,1740 L 535,1780 L 495,1780 Z" /><path d="M 365,1740 L 405,1740 L 405,1780 L 365,1780 Z" /><path d="M 235,1740 L 275,1740 L 275,1780 L 235,1780 Z" /><path d="M 1795,1415 L 1835,1415 L 1835,1455 L 1795,1455 Z" /><path d="M 1665,1415 L 1705,1415 L 1705,1455 L 1665,1455 Z" /><path d="M 1275,615 L 1315,615 L 1315,655 L 1275,655 Z" /><path d="M 1275,415 L 1315,415 L 1315,455 L 1275,455 Z" /><path d="M 1275,1415 L 1315,1415 L 1315,1455 L 1275,1455 Z" /><path d="M 755,1465 L 795,1465 L 795,1505 L 755,1505 Z" /><path d="M 625,1465 L 665,1465 L 665,1505 L 625,1505 Z" /><path d="M 2835,1465 L 2875,1465 L 2875,1505 L 2835,1505 Z" /><path d="M 625,615 L 665,615 L 665,655 L 625,655 Z" /><path d="M 625,415 L 665,415 L 665,455 L 625,455 Z" /><path d="M 1405,615 L 1445,615 L 1445,655 L 1405,655 Z" /><path d="M 1405,415 L 1445,415 L 1445,455 L 1405,455 Z" /><path d="M 1015,615 L 1055,615 L 1055,655 L 1015,655 Z" /><path d="M 1015,415 L 1055,415 L 1055,455 L 1015,455 Z" /><path d="M 1795,615 L 1835,615 L 1835,655 L 1795,655 Z" /><path d="M 1795,415 L 1835,415 L 1835,455 L 1795,455 Z" /><path d="M 365,465 L 405,465 L 405,505 L 365,505 Z" /><path d="M 2055,465 L 2095,465 L 2095,505 L 2055,505 Z" /><path d="M 2575,465 L 2615,465 L 2615,505 L 2575,505 Z" /><path d="M 3095,465 L 3135,465 L 3135,505 L 3095,505 Z" /><path d="M 1015,1465 L 1055,1465 L 1055,1505 L 1015,1505 Z" /><path d="M 885,1465 L 925,1465 L 925,1505 L 885,1505 Z" /><path d="M 495,1465 L 535,1465 L 535,1505 L 495,1505 Z" /><path d="M 365,1465 L 405,1465 L 405,1505 L 365,1505 Z" /><path d="M 2185,1465 L 2225,1465 L 2225,1505 L 2185,1505 Z" /><path d="M 2055,1465 L 2095,1465 L 2095,1505 L 2055,1505 Z" /><path d="M 2965,1465 L 3005,1465 L 3005,1505 L 2965,1505 Z" /><path d="M 3095,1465 L 3135,1465 L 3135,1505 L 3095,1505 Z" /><path d="M 2705,1465 L 2745,1465 L 2745,1505 L 2705,1505 Z" /><path d="M 2575,1465 L 2615,1465 L 2615,1505 L 2575,1505 Z" /><path d="M 1535,1415 L 1575,1415 L 1575,1455 L 1535,1455 Z" /><path d="M 1405,1415 L 1445,1415 L 1445,1455 L 1405,1455 Z" /><path d="M 2315,1465 L 2355,1465 L 2355,1505 L 2315,1505 Z" /><path d="M 2315,465 L 2355,465 L 2355,505 L 2315,505 Z" /><path d="M 2835,465 L 2875,465 L 2875,505 L 2835,505 Z" /><path d="M 820,1165 L 860,1165 L 860,1205 L 820,1205 Z" /><path d="M 1340,1165 L 1380,1165 L 1380,1205 L 1340,1205 Z" /><path d="M 2770,1165 L 2810,1165 L 2810,1205 L 2770,1205 Z" /><path d="M 690,1065 L 730,1065 L 730,1105 L 690,1105 Z" /><path d="M 950,1065 L 990,1065 L 990,1105 L 950,1105 Z" /><path d="M 1730,1065 L 1770,1065 L 1770,1105 L 1730,1105 Z" /><path d="M 2250,1065 L 2290,1065 L 2290,1105 L 2250,1105 Z" /><path d="M 3030,1065 L 3070,1065 L 3070,1105 L 3030,1105 Z" /><path d="M 430,965 L 470,965 L 470,1005 L 430,1005 Z" /><path d="M 1470,965 L 1510,965 L 1510,1005 L 1470,1005 Z" /><path d="M 2770,965 L 2810,965 L 2810,1005 L 2770,1005 Z" /><path d="M 560,865 L 600,865 L 600,905 L 560,905 Z" /><path d="M 1600,865 L 1640,865 L 1640,905 L 1600,905 Z" /><path d="M 2640,865 L 2680,865 L 2680,905 L 2640,905 Z" /><path d="M 2120,750 L 2160,750 L 2160,790 L 2120,790 Z" /><path d="M 2900,750 L 2940,750 L 2940,790 L 2900,790 Z" /><path d="M 3030,640 L 3070,640 L 3070,680 L 3030,680 Z" /></g></g><g id="M1"><g class="l31d0"><path d="M 1660,1480 L 1660,1485 L 1660,1545 L 1450,1545 L 1450,1485 L 1450,1480 L 1450,1385 L 1400,1385 L 1400,1480 L 1400,1485 L 1400,1545 L 1400,1595 L 1450,1595 L 1660,1595 L 1710,1595 L 1710,1545 L 1710,1485 L 1710,1480 L 1710,1385 L 1660,1385 Z" /><path d="M 2310,535 L 2360,535 L 2360,435 L 2360,210 L 2830,210 L 2830,435 L 2830,535 L 2880,535 L 2880,435 L 2880,210 L 3315,210 L 3315,110 L 185,110 L 185,210 L 620,210 L 620,385 L 620,685 L 670,685 L 670,385 L 670,210 L 1400,210 L 1400,385 L 1400,685 L 1450,685 L 1450,385 L 1450,210 L 2310,210 L 2310,435 Z" /><path d="M 3090,1710 L 2880,1710 L 2880,1535 L 2880,1435 L 2830,1435 L 2830,1535 L 2830,1710 L 2620,1710 L 2620,1535 L 2620,1435 L 2570,1435 L 2570,1535 L 2570,1710 L 2360,1710 L 2360,1535 L 2360,1435 L 2310,1435 L 2310,1535 L 2310,1710 L 2100,1710 L 2100,1535 L 2100,1435 L 2050,1435 L 2050,1535 L 2050,1710 L 1319,1710 L 1319,1485 L 1320,1485 L 1320,1385 L 1270,1385 L 1270,1485 L 1270,1710 L 930,1710 L 930,1535 L 930,1435 L 880,1435 L 880,1535 L 880,1710 L 670,1710 L 670,1535 L 670,1435 L 620,1435 L 620,1535 L 620,1710 L 410,1710 L 410,1535 L 410,1435 L 360,1435 L 360,1535 L 360,1710 L 185,1710 L 185,1810 L 3315,1810 L 3315,1710 L 3140,1710 L 3140,1535 L 3140,1435 L 3090,1435 L 3090,1535 Z" /><path d="M 1245,1160 L 1245,1210 L 1320,1210 L 1400,1210 L 1475,1210 L 1475,1160 L 1400,1160 L 1320,1160 Z" /><path d="M 3010,1435 L 3010,1210 L 3010,1160 L 2960,1160 L 2830,1160 L 2790,1160 L 2750,1160 L 2750,1210 L 2790,1210 L 2830,1210 L 2960,1210 L 2960,1435 L 2960,1535 L 3010,1535 Z" /><path d="M 595,1060 L 595,1110 L 670,1110 L 750,1110 L 825,1110 L 825,1060 L 750,1060 L 670,1060 Z" /><path d="M 1710,1060 L 1010,1060 L 970,1060 L 930,1060 L 930,1110 L 1010,1110 L 1010,1109 L 1710,1109 L 1710,1110 L 1790,1110 L 1790,1060 L 1750,1060 Z" /><path d="M 2220,1060 L 2220,1110 L 2230,1110 L 2310,1110 L 2450,1110 L 2450,1060 L 2310,1060 L 2230,1060 Z" /><path d="M 3010,1060 L 2670,1060 L 2620,1060 L 2620,1109 L 2620,1270 L 2620,1319 L 2670,1319 L 2700,1319 L 2700,1435 L 2700,1535 L 2750,1535 L 2750,1435 L 2750,1319 L 2750,1270 L 2700,1270 L 2670,1270 L 2670,1109 L 3010,1109 L 3010,1110 L 3090,1110 L 3090,1060 L 3030,1060 Z" /><path d="M 3010,635 L 2620,635 L 2620,535 L 2620,435 L 2570,435 L 2570,535 L 2570,635 L 2570,685 L 2620,685 L 3010,685 L 3050,685 L 3090,685 L 3090,635 L 3050,635 Z" /><path d="M 3090,345 L 3090,430 L 3090,435 L 3090,535 L 3090,540 L 3090,575 L 3140,575 L 3140,540 L 3140,535 L 3140,435 L 3140,430 L 3140,345 Z" /><path d="M 2050,370 L 2050,430 L 2050,435 L 2050,535 L 2050,540 L 2050,600 L 2100,600 L 2100,540 L 2100,535 L 2100,435 L 2100,430 L 2100,370 Z" /><path d="M 360,370 L 360,430 L 360,435 L 360,535 L 360,540 L 360,600 L 410,600 L 410,540 L 410,535 L 410,435 L 410,430 L 410,370 Z" /><path d="M 3060,1010 L 3115,1010 L 3170,1010 L 3170,960 L 3115,960 L 3060,960 L 2830,960 L 2790,960 L 2750,960 L 2750,1010 L 2790,1010 L 2830,1010 Z" /><path d="M 2075,960 L 2020,960 L 1530,960 L 1490,960 L 1450,960 L 490,960 L 450,960 L 410,960 L 410,1010 L 450,1010 L 490,1010 L 1450,1010 L 1490,1010 L 1530,1010 L 2020,1010 L 2075,1010 L 2080,1010 L 2080,1325 L 2080,1375 L 2130,1375 L 2180,1375 L 2180,1435 L 2180,1535 L 2230,1535 L 2230,1435 L 2230,1375 L 2230,1325 L 2180,1325 L 2130,1325 L 2130,1010 L 2130,960 L 2080,960 Z" /><path d="M 1839,685 L 1840,685 L 1840,385 L 1790,385 L 1790,685 L 1790,745 L 1740,745 L 1630,745 L 1319,745 L 1319,685 L 1320,685 L 1320,385 L 1270,385 L 1270,685 L 1270,745 L 1270,795 L 1319,795 L 1630,795 L 1740,795 L 1790,795 L 1839,795 L 2100,795 L 2140,795 L 2180,795 L 2880,795 L 2920,795 L 2960,795 L 2960,745 L 2920,745 L 2880,745 L 2180,745 L 2140,745 L 2100,745 L 1839,745 Z" /><path d="M 1839,1385 L 1839,1325 L 1839,1275 L 1790,1275 L 1740,1275 L 1630,1275 L 1579,1275 L 1530,1275 L 1530,1325 L 1530,1385 L 1530,1485 L 1580,1485 L 1580,1385 L 1579,1385 L 1579,1325 L 1630,1325 L 1740,1325 L 1790,1325 L 1790,1385 L 1790,1485 L 1840,1485 L 1840,1385 Z" /><path d="M 540,860 L 540,910 L 580,910 L 620,910 L 850,910 L 960,910 L 1010,910 L 1059,910 L 1580,910 L 1620,910 L 1660,910 L 2620,910 L 2660,910 L 2700,910 L 2700,860 L 2660,860 L 2620,860 L 1660,860 L 1620,860 L 1580,860 L 1059,860 L 1059,685 L 1060,685 L 1060,385 L 1010,385 L 1010,685 L 1010,860 L 960,860 L 850,860 L 620,860 L 580,860 Z" /><path d="M 1059,1435 L 1059,1375 L 1059,1325 L 1010,1325 L 960,1325 L 850,1325 L 800,1325 L 750,1325 L 750,1375 L 750,1435 L 750,1535 L 800,1535 L 800,1435 L 800,1375 L 850,1375 L 960,1375 L 1010,1375 L 1010,1435 L 1010,1535 L 1060,1535 L 1060,1435 Z" /><path d="M 800,1210 L 840,1210 L 880,1210 L 880,1160 L 840,1160 L 800,1160 L 540,1160 L 490,1160 L 440,1160 L 385,1160 L 330,1160 L 330,1210 L 385,1210 L 440,1210 L 490,1210 L 490,1435 L 490,1535 L 540,1535 L 540,1435 L 540,1210 Z" /></g></g><g id="VIA1"><g class="l51d0"><path d="M 3090,460 L 3140,460 L 3140,510 L 3090,510 Z" /><path d="M 2050,460 L 2100,460 L 2100,510 L 2050,510 Z" /><path d="M 360,460 L 410,460 L 410,510 L 360,510 Z" /><path d="M 3090,960 L 3140,960 L 3140,1010 L 3090,1010 Z" /><path d="M 2050,960 L 2100,960 L 2100,1010 L 2050,1010 Z" /><path d="M 1660,745 L 1710,745 L 1710,795 L 1660,795 Z" /><path d="M 1660,1275 L 1710,1275 L 1710,1325 L 1660,1325 Z" /><path d="M 880,860 L 930,860 L 930,910 L 880,910 Z" /><path d="M 880,1325 L 930,1325 L 930,1375 L 880,1375 Z" /><path d="M 360,1160 L 410,1160 L 410,1210 L 360,1210 Z" /></g></g><g id="M2"><g class="l32d0"><path d="M 3140,930 L 3140,540 L 3140,485 L 3140,430 L 3090,430 L 3090,485 L 3090,540 L 3090,930 L 3090,985 L 3090,1040 L 3140,1040 L 3140,985 Z" /><path d="M 2100,930 L 2100,540 L 2100,485 L 2100,430 L 2050,430 L 2050,485 L 2050,540 L 2050,930 L 2050,985 L 2050,1040 L 2100,1040 L 2100,985 Z" /><path d="M 1660,1245 L 1660,1300 L 1660,1355 L 1710,1355 L 1710,1300 L 1710,1245 L 1710,825 L 1710,770 L 1710,715 L 1660,715 L 1660,770 L 1660,825 Z" /><path d="M 930,1295 L 930,940 L 930,885 L 930,830 L 880,830 L 880,885 L 880,940 L 880,1295 L 880,1350 L 880,1405 L 930,1405 L 930,1350 Z" /><path d="M 410,1130 L 410,540 L 410,485 L 410,430 L 360,430 L 360,485 L 360,540 L 360,1130 L 360,1185 L 360,1240 L 410,1240 L 410,1185 Z" /></g></g></g></svg>