<svg width="4580" height="1810" viewBox="495 -2490 4580 1810" xmlns="http://www.w3.org/2000/svg" xmlns:xlink="http://www.w3.org/1999/xlink"><defs><style type="text/css">.l3d0 {fill: #fef9e7; fill-opacity: 0.5; stroke-width: 10; stroke: #f1c40f; stroke-linecap: round; stroke-linejoin: round; stroke-opacity: 0.2;}.l25d0 {fill: #8e44ad; fill-opacity: 0.05; stroke-width: 10; stroke: #8e44ad; stroke-linecap: round; stroke-linejoin: round; stroke-opacity: 1;}.l26d0 {fill: #ccd1d1; fill-opacity: 0.05; stroke-width: 10; stroke: #ccd1d1; stroke-linecap: round; stroke-linejoin: round; stroke-opacity: 1;}.l6d0 {fill: #f5b7b1; fill-opacity: 1; stroke-width: 10; stroke: #e74c3c; stroke-linecap: round; stroke-linejoin: round; stroke-opacity: 1;}.l17d0 {fill: #2980b9; fill-opacity: 1; stroke-width: 0; stroke: #000000; stroke-linecap: round; stroke-linejoin: round; stroke-opacity: 0;}.l17d7 {fill: #2980b9; fill-opacity: 1; stroke-width: 0; stroke: #000000; stroke-linecap: round; stroke-linejoin: round; stroke-opacity: 0;}.l30d0 {fill: #27ae60; fill-opacity: 1; stroke-width: 0; stroke: #000000; stroke-linecap: round; stroke-linejoin: round; stroke-opacity: 0;}.l31d0 {fill: #85c1e9; fill-opacity: 0.6; stroke-width: 0; stroke: #000000; stroke-linecap: round; stroke-linejoin: round; stroke-opacity: 0;}.l51d0 {fill: #f39c12; fill-opacity: 1; stroke-width: 10; stroke: #f39c12; stroke-linecap: round; stroke-linejoin: round; stroke-opacity: 1;}.l32d0 {fill: #f7dc6f; fill-opacity: 0.6; stroke-width: 0; stroke: #000000; stroke-linecap: round; stroke-linejoin: round; stroke-opacity: 0;}.l52d0 {fill: #a04000; fill-opacity: 1; stroke-width: 10; stroke: #a04000; stroke-linecap: round; stroke-linejoin: round; stroke-opacity: 1;}.l33d0 {fill: #16a085; fill-opacity: 0.6; stroke-width: 0; stroke: #000000; stroke-linecap: round; stroke-linejoin: round; stroke-opacity: 0;}path {fill-rule: evenodd;}</style></defs><g transform="scale(1 -1)"><g id="NW"><g class="l3d0"><path d="M 1930,1565 L 500,1565 L 500,2245 L 500,2485 L 1930,2485 L 2210,2485 L 3360,2485 L 3640,2485 L 5070,2485 L 5070,2245 L 5070,1565 L 3640,1565 L 3360,1565 L 2210,1565 Z" /></g></g><g id="PP"><g class="l25d0"><path d="M 2500,2285 L 2680,2285 L 2760,2285 L 2890,2285 L 3020,2285 L 3150,2285 L 3280,2285 L 3400,2285 L 3460,2285 L 3540,2285 L 3600,2285 L 3670,2285 L 3800,2285 L 3930,2285 L 4110,2285 L 4190,2285 L 4320,2285 L 4450,2285 L 4580,2285 L 4710,2285 L 4890,2285 L 5030,2285 L 5030,1565 L 3600,1565 L 3400,1565 L 2170,1565 L 1970,1565 L 540,1565 L 540,2285 L 680,2285 L 810,2285 L 940,2285 L 1070,2285 L 1250,2285 L 1330,2285 L 1460,2285 L 1590,2285 L 1720,2285 L 1850,2285 L 1970,2285 L 2030,2285 L 2110,2285 L 2170,2285 L 2240,2285 L 2370,2285 Z" /><path d="M 3400,845 L 3600,845 L 5030,845 L 5030,684 L 3600,684 L 3400,684 L 2170,684 L 1970,684 L 540,684 L 540,845 L 1970,845 L 2170,845 Z" /></g></g><g id="NP"><g class="l26d0"><path d="M 2170,845 L 2110,845 L 2030,845 L 1970,845 L 1875,845 L 1745,845 L 1720,845 L 1615,845 L 1590,845 L 1485,845 L 1330,845 L 1250,845 L 1095,845 L 965,845 L 940,845 L 810,845 L 680,845 L 540,845 L 540,1565 L 1970,1565 L 2170,1565 L 3400,1565 L 3600,1565 L 5030,1565 L 5030,845 L 4890,845 L 4735,845 L 4605,845 L 4580,845 L 4475,845 L 4450,845 L 4345,845 L 4190,845 L 4110,845 L 3955,845 L 3825,845 L 3800,845 L 3670,845 L 3600,845 L 3540,845 L 3460,845 L 3400,845 L 3305,845 L 3175,845 L 3150,845 L 3045,845 L 3020,845 L 2915,845 L 2760,845 L 2680,845 L 2525,845 L 2395,845 L 2370,845 L 2240,845 Z" /><path d="M 3400,2445 L 3600,2445 L 5030,2445 L 5030,2285 L 3600,2285 L 3400,2285 L 2170,2285 L 1970,2285 L 540,2285 L 540,2445 L 1970,2445 L 2170,2445 Z" /></g></g><g id="OD"><g class="l6d0"><path d="M 2930,990 L 2900,990 L 2825,990 L 2825,1190 L 2900,1190 L 2930,1190 L 2980,1190 L 3030,1190 L 3060,1190 L 3085,1190 L 3160,1190 L 3190,1190 L 3240,1190 L 3290,1190 L 3320,1190 L 3395,1190 L 3395,990 L 3320,990 L 3290,990 L 3240,990 L 3190,990 L 3160,990 L 3085,990 L 3060,990 L 3030,990 L 2980,990 Z" /><path d="M 2305,1090 L 2305,1190 L 2380,1190 L 2410,1190 L 2460,1190 L 2510,1190 L 2540,1190 L 2615,1190 L 2615,990 L 2540,990 L 2510,990 L 2460,990 L 2410,990 L 2380,990 L 2305,990 L 2280,990 L 2250,990 L 2175,990 L 2175,1090 L 2250,1090 L 2280,1090 Z" /><path d="M 2825,2140 L 2900,2140 L 2930,2140 L 2955,2140 L 3030,2140 L 3060,2140 L 3085,2140 L 3160,2140 L 3190,2140 L 3215,2140 L 3290,2140 L 3320,2140 L 3395,2140 L 3395,2040 L 3320,2040 L 3290,2040 L 3215,2040 L 3190,2040 L 3160,2040 L 3085,2040 L 3060,2040 L 3030,2040 L 2955,2040 L 2930,2040 L 2900,2040 L 2825,2040 Z" /><path d="M 2615,2140 L 2615,2040 L 2540,2040 L 2510,2040 L 2435,2040 L 2410,2040 L 2380,2040 L 2305,2040 L 2280,2040 L 2250,2040 L 2175,2040 L 2175,2140 L 2250,2140 L 2280,2140 L 2305,2140 L 2380,2140 L 2410,2140 L 2435,2140 L 2510,2140 L 2540,2140 Z" /><path d="M 1500,990 L 1470,990 L 1395,990 L 1395,1190 L 1470,1190 L 1500,1190 L 1550,1190 L 1600,1190 L 1630,1190 L 1655,1190 L 1730,1190 L 1760,1190 L 1810,1190 L 1860,1190 L 1890,1190 L 1965,1190 L 1965,990 L 1890,990 L 1860,990 L 1810,990 L 1760,990 L 1730,990 L 1655,990 L 1630,990 L 1600,990 L 1550,990 Z" /><path d="M 875,1090 L 875,1190 L 950,1190 L 980,1190 L 1030,1190 L 1080,1190 L 1110,1190 L 1185,1190 L 1185,990 L 1110,990 L 1080,990 L 1030,990 L 980,990 L 950,990 L 875,990 L 850,990 L 820,990 L 745,990 L 745,1090 L 820,1090 L 850,1090 Z" /><path d="M 1395,2140 L 1470,2140 L 1500,2140 L 1525,2140 L 1600,2140 L 1630,2140 L 1655,2140 L 1730,2140 L 1760,2140 L 1785,2140 L 1860,2140 L 1890,2140 L 1965,2140 L 1965,2040 L 1890,2040 L 1860,2040 L 1785,2040 L 1760,2040 L 1730,2040 L 1655,2040 L 1630,2040 L 1600,2040 L 1525,2040 L 1500,2040 L 1470,2040 L 1395,2040 Z" /><path d="M 1185,2140 L 1185,2040 L 1110,2040 L 1080,2040 L 1005,2040 L 980,2040 L 950,2040 L 875,2040 L 850,2040 L 820,2040 L 745,2040 L 745,2140 L 820,2140 L 850,2140 L 875,2140 L 950,2140 L 980,2140 L 1005,2140 L 1080,2140 L 1110,2140 Z" /><path d="M 4360,990 L 4330,990 L 4255,990 L 4255,1190 L 4330,1190 L 4360,1190 L 4410,1190 L 4460,1190 L 4490,1190 L 4515,1190 L 4590,1190 L 4620,1190 L 4670,1190 L 4720,1190 L 4750,1190 L 4825,1190 L 4825,990 L 4750,990 L 4720,990 L 4670,990 L 4620,990 L 4590,990 L 4515,990 L 4490,990 L 4460,990 L 4410,990 Z" /><path d="M 3735,1090 L 3735,1190 L 3810,1190 L 3840,1190 L 3890,1190 L 3940,1190 L 3970,1190 L 4045,1190 L 4045,990 L 3970,990 L 3940,990 L 3890,990 L 3840,990 L 3810,990 L 3735,990 L 3710,990 L 3680,990 L 3605,990 L 3605,1090 L 3680,1090 L 3710,1090 Z" /><path d="M 4255,2140 L 4330,2140 L 4360,2140 L 4385,2140 L 4460,2140 L 4490,2140 L 4515,2140 L 4590,2140 L 4620,2140 L 4645,2140 L 4720,2140 L 4750,2140 L 4825,2140 L 4825,2040 L 4750,2040 L 4720,2040 L 4645,2040 L 4620,2040 L 4590,2040 L 4515,2040 L 4490,2040 L 4460,2040 L 4385,2040 L 4360,2040 L 4330,2040 L 4255,2040 Z" /><path d="M 4045,2140 L 4045,2040 L 3970,2040 L 3940,2040 L 3865,2040 L 3840,2040 L 3810,2040 L 3735,2040 L 3710,2040 L 3680,2040 L 3605,2040 L 3605,2140 L 3680,2140 L 3710,2140 L 3735,2140 L 3810,2140 L 3840,2140 L 3865,2140 L 3940,2140 L 3970,2140 Z" /><path d="M 3430,2415 L 3570,2415 L 5000,2415 L 5000,2315 L 3570,2315 L 3430,2315 L 2140,2315 L 2000,2315 L 570,2315 L 570,2415 L 2000,2415 L 2140,2415 Z" /><path d="M 3430,815 L 3570,815 L 5000,815 L 5000,715 L 3570,715 L 3430,715 L 2140,715 L 2000,715 L 570,715 L 570,815 L 2000,815 L 2140,815 Z" /></g></g><g id="PO"><g class="l17d0"><path d="M 2510,2140 L 2510,2220 L 2540,2220 L 2540,2140 L 2540,2040 L 2540,1960 L 2540,1805 L 2540,1725 L 2540,1270 L 2540,1190 L 2540,990 L 2540,910 L 2510,910 L 2510,990 L 2510,1190 L 2510,1270 L 2510,1725 L 2510,1805 L 2510,1960 L 2510,2040 Z" /><path d="M 2900,2140 L 2900,2220 L 2930,2220 L 2930,2140 L 2930,2040 L 2930,1960 L 2930,1505 L 2930,1425 L 2930,1270 L 2930,1190 L 2930,990 L 2930,910 L 2900,910 L 2900,990 L 2900,1190 L 2900,1270 L 2900,1425 L 2900,1505 L 2900,1960 L 2900,2040 Z" /><path d="M 3160,2140 L 3160,2220 L 3190,2220 L 3190,2140 L 3190,2040 L 3190,1960 L 3190,1805 L 3190,1725 L 3190,1270 L 3190,1190 L 3190,990 L 3190,910 L 3160,910 L 3160,990 L 3160,1190 L 3160,1270 L 3160,1725 L 3160,1805 L 3160,1960 L 3160,2040 Z" /><path d="M 3290,2140 L 3290,2220 L 3320,2220 L 3320,2140 L 3320,2040 L 3320,1960 L 3320,1605 L 3320,1525 L 3320,1270 L 3320,1190 L 3320,990 L 3320,910 L 3290,910 L 3290,990 L 3290,1190 L 3290,1270 L 3290,1525 L 3290,1605 L 3290,1960 L 3290,2040 Z" /><path d="M 3030,2140 L 3030,2220 L 3060,2220 L 3060,2140 L 3060,2040 L 3060,1960 L 3060,1705 L 3060,1625 L 3060,1270 L 3060,1190 L 3060,990 L 3060,910 L 3030,910 L 3030,990 L 3030,1190 L 3030,1270 L 3030,1625 L 3030,1705 L 3030,1960 L 3030,2040 Z" /><path d="M 2380,2220 L 2410,2220 L 2410,2140 L 2410,2040 L 2410,1960 L 2410,1605 L 2410,1525 L 2410,1270 L 2410,1190 L 2410,990 L 2410,910 L 2380,910 L 2380,990 L 2380,1190 L 2380,1270 L 2380,1525 L 2380,1605 L 2380,1960 L 2380,2040 L 2380,2140 Z" /><path d="M 2250,1090 L 2250,1170 L 2249,1170 L 2249,1960 L 2250,1960 L 2250,2040 L 2250,2140 L 2250,2220 L 2280,2220 L 2280,2140 L 2280,2040 L 2280,1960 L 2280,1605 L 2280,1525 L 2280,1170 L 2280,1090 L 2280,990 L 2280,910 L 2250,910 L 2250,990 Z" /><path d="M 1080,2140 L 1080,2220 L 1110,2220 L 1110,2140 L 1110,2040 L 1110,1960 L 1110,1805 L 1110,1725 L 1110,1270 L 1110,1190 L 1110,990 L 1110,910 L 1080,910 L 1080,990 L 1080,1190 L 1080,1270 L 1080,1725 L 1080,1805 L 1080,1960 L 1080,2040 Z" /><path d="M 1470,2140 L 1470,2220 L 1500,2220 L 1500,2140 L 1500,2040 L 1500,1960 L 1500,1505 L 1500,1425 L 1500,1270 L 1500,1190 L 1500,990 L 1500,910 L 1470,910 L 1470,990 L 1470,1190 L 1470,1270 L 1470,1425 L 1470,1505 L 1470,1960 L 1470,2040 Z" /><path d="M 1730,2140 L 1730,2220 L 1760,2220 L 1760,2140 L 1760,2040 L 1760,1960 L 1760,1805 L 1760,1725 L 1760,1270 L 1760,1190 L 1760,990 L 1760,910 L 1730,910 L 1730,990 L 1730,1190 L 1730,1270 L 1730,1725 L 1730,1805 L 1730,1960 L 1730,2040 Z" /><path d="M 1860,2140 L 1860,2220 L 1890,2220 L 1890,2140 L 1890,2040 L 1890,1960 L 1890,1605 L 1890,1525 L 1890,1270 L 1890,1190 L 1890,990 L 1890,910 L 1860,910 L 1860,990 L 1860,1190 L 1860,1270 L 1860,1525 L 1860,1605 L 1860,1960 L 1860,2040 Z" /><path d="M 1600,2140 L 1600,2220 L 1630,2220 L 1630,2140 L 1630,2040 L 1630,1960 L 1630,1705 L 1630,1625 L 1630,1270 L 1630,1190 L 1630,990 L 1630,910 L 1600,910 L 1600,990 L 1600,1190 L 1600,1270 L 1600,1625 L 1600,1705 L 1600,1960 L 1600,2040 Z" /><path d="M 950,2220 L 980,2220 L 980,2140 L 980,2040 L 980,1960 L 980,1605 L 980,1525 L 980,1270 L 980,1190 L 980,990 L 980,910 L 950,910 L 950,990 L 950,1190 L 950,1270 L 950,1525 L 950,1605 L 950,1960 L 950,2040 L 950,2140 Z" /><path d="M 820,1090 L 820,1170 L 819,1170 L 819,1960 L 820,1960 L 820,2040 L 820,2140 L 820,2220 L 850,2220 L 850,2140 L 850,2040 L 850,1960 L 850,1605 L 850,1525 L 850,1170 L 850,1090 L 850,990 L 850,910 L 820,910 L 820,990 Z" /><path d="M 3940,2140 L 3940,2220 L 3970,2220 L 3970,2140 L 3970,2040 L 3970,1960 L 3970,1805 L 3970,1725 L 3970,1270 L 3970,1190 L 3970,990 L 3970,910 L 3940,910 L 3940,990 L 3940,1190 L 3940,1270 L 3940,1725 L 3940,1805 L 3940,1960 L 3940,2040 Z" /><path d="M 4330,2140 L 4330,2220 L 4360,2220 L 4360,2140 L 4360,2040 L 4360,1960 L 4360,1505 L 4360,1425 L 4360,1270 L 4360,1190 L 4360,990 L 4360,910 L 4330,910 L 4330,990 L 4330,1190 L 4330,1270 L 4330,1425 L 4330,1505 L 4330,1960 L 4330,2040 Z" /><path d="M 4590,2140 L 4590,2220 L 4620,2220 L 4620,2140 L 4620,2040 L 4620,1960 L 4620,1805 L 4620,1725 L 4620,1270 L 4620,1190 L 4620,990 L 4620,910 L 4590,910 L 4590,990 L 4590,1190 L 4590,1270 L 4590,1725 L 4590,1805 L 4590,1960 L 4590,2040 Z" /><path d="M 4720,2140 L 4720,2220 L 4750,2220 L 4750,2140 L 4750,2040 L 4750,1960 L 4750,1605 L 4750,1525 L 4750,1270 L 4750,1190 L 4750,990 L 4750,910 L 4720,910 L 4720,990 L 4720,1190 L 4720,1270 L 4720,1525 L 4720,1605 L 4720,1960 L 4720,2040 Z" /><path d="M 4460,2140 L 4460,2220 L 4490,2220 L 4490,2140 L 4490,2040 L 4490,1960 L 4490,1705 L 4490,1625 L 4490,1270 L 4490,1190 L 4490,990 L 4490,910 L 4460,910 L 4460,990 L 4460,1190 L 4460,1270 L 4460,1625 L 4460,1705 L 4460,1960 L 4460,2040 Z" /><path d="M 3810,2220 L 3840,2220 L 3840,2140 L 3840,2040 L 3840,1960 L 3840,1605 L 3840,1525 L 3840,1270 L 3840,1190 L 3840,990 L 3840,910 L 3810,910 L 3810,990 L 3810,1190 L 3810,1270 L 3810,1525 L 3810,1605 L 3810,1960 L 3810,2040 L 3810,2140 Z" /><path d="M 3680,1090 L 3680,1170 L 3679,1170 L 3679,1960 L 3680,1960 L 3680,2040 L 3680,2140 L 3680,2220 L 3710,2220 L 3710,2140 L 3710,2040 L 3710,1960 L 3710,1605 L 3710,1525 L 3710,1170 L 3710,1090 L 3710,990 L 3710,910 L 3680,910 L 3680,990 Z" /></g><g class="l17d7"><path d="M 2640,895 L 2640,1285 L 2670,1285 L 2670,895 Z" /><path d="M 2770,895 L 2770,1285 L 2800,1285 L 2800,895 Z" /><path d="M 2770,1895 L 2770,2285 L 2800,2285 L 2800,1895 Z" /><path d="M 2640,1895 L 2640,2285 L 2670,2285 L 2670,1895 Z" /><path d="M 560,1895 L 590,1895 L 590,2285 L 560,2285 Z" /><path d="M 690,1895 L 720,1895 L 720,2285 L 690,2285 Z" /><path d="M 560,845 L 590,845 L 590,1235 L 560,1235 Z" /><path d="M 690,845 L 720,845 L 720,1235 L 690,1235 Z" /><path d="M 2150,845 L 2120,845 L 2120,895 L 2120,1235 L 2120,1285 L 2150,1285 L 2150,1235 L 2150,895 Z" /><path d="M 2020,845 L 1990,845 L 1990,895 L 1990,1235 L 1990,1285 L 2020,1285 L 2020,1235 L 2020,895 Z" /><path d="M 1210,895 L 1210,1285 L 1240,1285 L 1240,895 Z" /><path d="M 1340,895 L 1340,1285 L 1370,1285 L 1370,895 Z" /><path d="M 2120,1895 L 2120,2285 L 2150,2285 L 2150,1895 Z" /><path d="M 1990,1895 L 1990,2285 L 2020,2285 L 2020,1895 Z" /><path d="M 1340,1895 L 1340,2285 L 1370,2285 L 1370,1895 Z" /><path d="M 1210,1895 L 1210,2285 L 1240,2285 L 1240,1895 Z" /><path d="M 3420,1895 L 3420,2285 L 3450,2285 L 3450,1895 Z" /><path d="M 3550,1895 L 3550,2285 L 3580,2285 L 3580,1895 Z" /><path d="M 3450,895 L 3450,845 L 3420,845 L 3420,895 L 3420,1235 L 3420,1285 L 3450,1285 L 3450,1235 Z" /><path d="M 3580,895 L 3580,845 L 3550,845 L 3550,895 L 3550,1235 L 3550,1285 L 3580,1285 L 3580,1235 Z" /><path d="M 4980,895 L 5010,895 L 5010,1285 L 4980,1285 Z" /><path d="M 4850,895 L 4880,895 L 4880,1285 L 4850,1285 Z" /><path d="M 4070,895 L 4070,1285 L 4100,1285 L 4100,895 Z" /><path d="M 4200,895 L 4200,1285 L 4230,1285 L 4230,895 Z" /><path d="M 4980,1895 L 5010,1895 L 5010,2285 L 4980,2285 Z" /><path d="M 4850,1895 L 4880,1895 L 4880,2285 L 4850,2285 Z" /><path d="M 4200,1895 L 4200,2285 L 4230,2285 L 4230,1895 Z" /><path d="M 4070,1895 L 4070,2285 L 4100,2285 L 4100,1895 Z" /></g></g><g id="CO"><g class="l30d0"><path d="M 2180,2345 L 2220,2345 L 2220,2385 L 2180,2385 Z" /><path d="M 2310,2345 L 2350,2345 L 2350,2385 L 2310,2385 Z" /><path d="M 2440,2345 L 2480,2345 L 2480,2385 L 2440,2385 Z" /><path d="M 2570,2345 L 2610,2345 L 2610,2385 L 2570,2385 Z" /><path d="M 2700,2345 L 2740,2345 L 2740,2385 L 2700,2385 Z" /><path d="M 2830,2345 L 2870,2345 L 2870,2385 L 2830,2385 Z" /><path d="M 2960,2345 L 3000,2345 L 3000,2385 L 2960,2385 Z" /><path d="M 3090,2345 L 3130,2345 L 3130,2385 L 3090,2385 Z" /><path d="M 3220,2345 L 3260,2345 L 3260,2385 L 3220,2385 Z" /><path d="M 3350,2345 L 3390,2345 L 3390,2385 L 3350,2385 Z" /><path d="M 2180,745 L 2220,745 L 2220,785 L 2180,785 Z" /><path d="M 2310,745 L 2350,745 L 2350,785 L 2310,785 Z" /><path d="M 2440,745 L 2480,745 L 2480,785 L 2440,785 Z" /><path d="M 2570,745 L 2610,745 L 2610,785 L 2570,785 Z" /><path d="M 2700,745 L 2740,745 L 2740,785 L 2700,785 Z" /><path d="M 2830,745 L 2870,745 L 2870,785 L 2830,785 Z" /><path d="M 2960,745 L 3000,745 L 3000,785 L 2960,785 Z" /><path d="M 3090,745 L 3130,745 L 3130,785 L 3090,785 Z" /><path d="M 3220,745 L 3260,745 L 3260,785 L 3220,785 Z" /><path d="M 3350,745 L 3390,745 L 3390,785 L 3350,785 Z" /><path d="M 2180,2070 L 2220,2070 L 2220,2110 L 2180,2110 Z" /><path d="M 2180,1020 L 2220,1020 L 2220,1060 L 2180,1060 Z" /><path d="M 3350,1070 L 3390,1070 L 3390,1110 L 3350,1110 Z" /><path d="M 2570,1070 L 2610,1070 L 2610,1110 L 2570,1110 Z" /><path d="M 2830,1070 L 2870,1070 L 2870,1110 L 2830,1110 Z" /><path d="M 2830,2070 L 2870,2070 L 2870,2110 L 2830,2110 Z" /><path d="M 3220,2070 L 3260,2070 L 3260,2110 L 3220,2110 Z" /><path d="M 3350,2070 L 3390,2070 L 3390,2110 L 3350,2110 Z" /><path d="M 2440,2070 L 2480,2070 L 2480,2110 L 2440,2110 Z" /><path d="M 2570,2070 L 2610,2070 L 2610,2110 L 2570,2110 Z" /><path d="M 2960,2070 L 3000,2070 L 3000,2110 L 2960,2110 Z" /><path d="M 3090,1070 L 3130,1070 L 3130,1110 L 3090,1110 Z" /><path d="M 2310,1070 L 2350,1070 L 2350,1110 L 2310,1110 Z" /><path d="M 3090,2070 L 3130,2070 L 3130,2110 L 3090,2110 Z" /><path d="M 2310,2070 L 2350,2070 L 2350,2110 L 2310,2110 Z" /><path d="M 2505,1745 L 2545,1745 L 2545,1785 L 2505,1785 Z" /><path d="M 2895,1445 L 2935,1445 L 2935,1485 L 2895,1485 Z" /><path d="M 3155,1745 L 3195,1745 L 3195,1785 L 3155,1785 Z" /><path d="M 3285,1545 L 3325,1545 L 3325,1585 L 3285,1585 Z" /><path d="M 3025,1645 L 3065,1645 L 3065,1685 L 3025,1685 Z" /><path d="M 2375,1545 L 2415,1545 L 2415,1585 L 2375,1585 Z" /><path d="M 2245,1545 L 2285,1545 L 2285,1585 L 2245,1585 Z" /><path d="M 620,2345 L 660,2345 L 660,2385 L 620,2385 Z" /><path d="M 750,2345 L 790,2345 L 790,2385 L 750,2385 Z" /><path d="M 880,2345 L 920,2345 L 920,2385 L 880,2385 Z" /><path d="M 1010,2345 L 1050,2345 L 1050,2385 L 1010,2385 Z" /><path d="M 1140,2345 L 1180,2345 L 1180,2385 L 1140,2385 Z" /><path d="M 1270,2345 L 1310,2345 L 1310,2385 L 1270,2385 Z" /><path d="M 1400,2345 L 1440,2345 L 1440,2385 L 1400,2385 Z" /><path d="M 1530,2345 L 1570,2345 L 1570,2385 L 1530,2385 Z" /><path d="M 1660,2345 L 1700,2345 L 1700,2385 L 1660,2385 Z" /><path d="M 1790,2345 L 1830,2345 L 1830,2385 L 1790,2385 Z" /><path d="M 1920,2345 L 1960,2345 L 1960,2385 L 1920,2385 Z" /><path d="M 2050,2345 L 2050,2385 L 2090,2385 L 2090,2345 Z" /><path d="M 620,745 L 660,745 L 660,785 L 620,785 Z" /><path d="M 750,745 L 790,745 L 790,785 L 750,785 Z" /><path d="M 880,745 L 920,745 L 920,785 L 880,785 Z" /><path d="M 1010,745 L 1050,745 L 1050,785 L 1010,785 Z" /><path d="M 1140,745 L 1180,745 L 1180,785 L 1140,785 Z" /><path d="M 1270,745 L 1310,745 L 1310,785 L 1270,785 Z" /><path d="M 1400,745 L 1440,745 L 1440,785 L 1400,785 Z" /><path d="M 1530,745 L 1570,745 L 1570,785 L 1530,785 Z" /><path d="M 1660,745 L 1700,745 L 1700,785 L 1660,785 Z" /><path d="M 1790,745 L 1830,745 L 1830,785 L 1790,785 Z" /><path d="M 1920,745 L 1960,745 L 1960,785 L 1920,785 Z" /><path d="M 2050,745 L 2050,785 L 2090,785 L 2090,745 Z" /><path d="M 750,2070 L 790,2070 L 790,2110 L 750,2110 Z" /><path d="M 750,1020 L 790,1020 L 790,1060 L 750,1060 Z" /><path d="M 1920,1070 L 1960,1070 L 1960,1110 L 1920,1110 Z" /><path d="M 1140,1070 L 1180,1070 L 1180,1110 L 1140,1110 Z" /><path d="M 1400,1070 L 1440,1070 L 1440,1110 L 1400,1110 Z" /><path d="M 1400,2070 L 1440,2070 L 1440,2110 L 1400,2110 Z" /><path d="M 1790,2070 L 1830,2070 L 1830,2110 L 1790,2110 Z" /><path d="M 1920,2070 L 1960,2070 L 1960,2110 L 1920,2110 Z" /><path d="M 1010,2070 L 1050,2070 L 1050,2110 L 1010,2110 Z" /><path d="M 1140,2070 L 1180,2070 L 1180,2110 L 1140,2110 Z" /><path d="M 1530,2070 L 1570,2070 L 1570,2110 L 1530,2110 Z" /><path d="M 1660,1070 L 1700,1070 L 1700,1110 L 1660,1110 Z" /><path d="M 880,1070 L 920,1070 L 920,1110 L 880,1110 Z" /><path d="M 1660,2070 L 1700,2070 L 1700,2110 L 1660,2110 Z" /><path d="M 880,2070 L 920,2070 L 920,2110 L 880,2110 Z" /><path d="M 1075,1745 L 1115,1745 L 1115,1785 L 1075,1785 Z" /><path d="M 1465,1445 L 1505,1445 L 1505,1485 L 1465,1485 Z" /><path d="M 1725,1745 L 1765,1745 L 1765,1785 L 1725,1785 Z" /><path d="M 1855,1545 L 1895,1545 L 1895,1585 L 1855,1585 Z" /><path d="M 1595,1645 L 1635,1645 L 1635,1685 L 1595,1685 Z" /><path d="M 945,1545 L 985,1545 L 985,1585 L 945,1585 Z" /><path d="M 815,1545 L 855,1545 L 855,1585 L 815,1585 Z" /><path d="M 3480,2345 L 3480,2385 L 3520,2385 L 3520,2345 Z" /><path d="M 3610,2345 L 3650,2345 L 3650,2385 L 3610,2385 Z" /><path d="M 3740,2345 L 3780,2345 L 3780,2385 L 3740,2385 Z" /><path d="M 3870,2345 L 3910,2345 L 3910,2385 L 3870,2385 Z" /><path d="M 4000,2345 L 4040,2345 L 4040,2385 L 4000,2385 Z" /><path d="M 4130,2345 L 4170,2345 L 4170,2385 L 4130,2385 Z" /><path d="M 4260,2345 L 4300,2345 L 4300,2385 L 4260,2385 Z" /><path d="M 4390,2345 L 4430,2345 L 4430,2385 L 4390,2385 Z" /><path d="M 4520,2345 L 4560,2345 L 4560,2385 L 4520,2385 Z" /><path d="M 4650,2345 L 4690,2345 L 4690,2385 L 4650,2385 Z" /><path d="M 4780,2345 L 4820,2345 L 4820,2385 L 4780,2385 Z" /><path d="M 4910,2345 L 4950,2345 L 4950,2385 L 4910,2385 Z" /><path d="M 3480,745 L 3480,785 L 3520,785 L 3520,745 Z" /><path d="M 3610,745 L 3650,745 L 3650,785 L 3610,785 Z" /><path d="M 3740,745 L 3780,745 L 3780,785 L 3740,785 Z" /><path d="M 3870,745 L 3910,745 L 3910,785 L 3870,785 Z" /><path d="M 4000,745 L 4040,745 L 4040,785 L 4000,785 Z" /><path d="M 4130,745 L 4170,745 L 4170,785 L 4130,785 Z" /><path d="M 4260,745 L 4300,745 L 4300,785 L 4260,785 Z" /><path d="M 4390,745 L 4430,745 L 4430,785 L 4390,785 Z" /><path d="M 4520,745 L 4560,745 L 4560,785 L 4520,785 Z" /><path d="M 4650,745 L 4690,745 L 4690,785 L 4650,785 Z" /><path d="M 4780,745 L 4820,745 L 4820,785 L 4780,785 Z" /><path d="M 4910,745 L 4950,745 L 4950,785 L 4910,785 Z" /><path d="M 3610,2070 L 3650,2070 L 3650,2110 L 3610,2110 Z" /><path d="M 3610,1020 L 3650,1020 L 3650,1060 L 3610,1060 Z" /><path d="M 4780,1070 L 4820,1070 L 4820,1110 L 4780,1110 Z" /><path d="M 4000,1070 L 4040,1070 L 4040,1110 L 4000,1110 Z" /><path d="M 4260,1070 L 4300,1070 L 4300,1110 L 4260,1110 Z" /><path d="M 4260,2070 L 4300,2070 L 4300,2110 L 4260,2110 Z" /><path d="M 4650,2070 L 4690,2070 L 4690,2110 L 4650,2110 Z" /><path d="M 4780,2070 L 4820,2070 L 4820,2110 L 4780,2110 Z" /><path d="M 3870,2070 L 3910,2070 L 3910,2110 L 3870,2110 Z" /><path d="M 4000,2070 L 4040,2070 L 4040,2110 L 4000,2110 Z" /><path d="M 4390,2070 L 4430,2070 L 4430,2110 L 4390,2110 Z" /><path d="M 4520,1070 L 4560,1070 L 4560,1110 L 4520,1110 Z" /><path d="M 3740,1070 L 3780,1070 L 3780,1110 L 3740,1110 Z" /><path d="M 4520,2070 L 4560,2070 L 4560,2110 L 4520,2110 Z" /><path d="M 3740,2070 L 3780,2070 L 3780,2110 L 3740,2110 Z" /><path d="M 3935,1745 L 3975,1745 L 3975,1785 L 3935,1785 Z" /><path d="M 4325,1445 L 4365,1445 L 4365,1485 L 4325,1485 Z" /><path d="M 4585,1745 L 4625,1745 L 4625,1785 L 4585,1785 Z" /><path d="M 4715,1545 L 4755,1545 L 4755,1585 L 4715,1585 Z" /><path d="M 4455,1645 L 4495,1645 L 4495,1685 L 4455,1685 Z" /><path d="M 3805,1545 L 3845,1545 L 3845,1585 L 3805,1585 Z" /><path d="M 3675,1545 L 3715,1545 L 3715,1585 L 3675,1585 Z" /></g></g><g id="M1"><g class="l31d0"><path d="M 2410,1740 L 2410,1790 L 2485,1790 L 2565,1790 L 2640,1790 L 2640,1740 L 2565,1740 L 2485,1740 Z" /><path d="M 2800,1440 L 2800,1490 L 2875,1490 L 2955,1490 L 3030,1490 L 3030,1440 L 2955,1440 L 2875,1440 Z" /><path d="M 3345,975 L 3345,1035 L 3345,1040 L 3345,1140 L 3345,1145 L 3345,1205 L 3395,1205 L 3395,1145 L 3395,1140 L 3395,1040 L 3395,1035 L 3395,975 Z" /><path d="M 3215,1975 L 3215,2035 L 3215,2040 L 3215,2140 L 3215,2145 L 3215,2205 L 3265,2205 L 3265,2145 L 3265,2140 L 3265,2040 L 3265,2035 L 3265,1975 Z" /><path d="M 2825,975 L 2825,1035 L 2825,1040 L 2825,1140 L 2825,1145 L 2825,1205 L 2875,1205 L 2875,1145 L 2875,1140 L 2875,1040 L 2875,1035 L 2875,975 Z" /><path d="M 2565,975 L 2565,1035 L 2565,1040 L 2565,1140 L 2565,1145 L 2565,1205 L 2615,1205 L 2615,1145 L 2615,1140 L 2615,1040 L 2615,1035 L 2615,975 Z" /><path d="M 2175,925 L 2175,985 L 2175,990 L 2175,1090 L 2175,1095 L 2175,1155 L 2225,1155 L 2225,1095 L 2225,1090 L 2225,990 L 2225,985 L 2225,925 Z" /><path d="M 2175,1975 L 2175,2035 L 2175,2040 L 2175,2140 L 2175,2145 L 2175,2205 L 2225,2205 L 2225,2145 L 2225,2140 L 2225,2040 L 2225,2035 L 2225,1975 Z" /><path d="M 2905,1740 L 2850,1740 L 2795,1740 L 2795,1790 L 2850,1790 L 2905,1790 L 3135,1790 L 3175,1790 L 3215,1790 L 3215,1740 L 3175,1740 L 3135,1740 Z" /><path d="M 2955,1930 L 2905,1930 L 2850,1930 L 2795,1930 L 2795,1980 L 2905,1980 L 2905,1979 L 2955,1979 L 2955,2040 L 2955,2140 L 3005,2140 L 3005,2040 L 3005,1979 L 3005,1930 Z" /><path d="M 2645,1540 L 2590,1540 L 2535,1540 L 2535,1590 L 2590,1590 L 2645,1590 L 3265,1590 L 3305,1590 L 3345,1590 L 3345,1540 L 3305,1540 L 3265,1540 Z" /><path d="M 2485,2040 L 2485,1979 L 2535,1979 L 2535,1980 L 2645,1980 L 2645,1930 L 2615,1930 L 2535,1930 L 2485,1930 L 2435,1930 L 2435,1979 L 2435,2040 L 2435,2140 L 2485,2140 Z" /><path d="M 2255,1640 L 2200,1640 L 2145,1640 L 2145,1690 L 2200,1690 L 2255,1690 L 3005,1690 L 3045,1690 L 3085,1690 L 3085,1640 L 3045,1640 L 3005,1640 Z" /><path d="M 980,1740 L 980,1790 L 1055,1790 L 1135,1790 L 1210,1790 L 1210,1740 L 1135,1740 L 1055,1740 Z" /><path d="M 1370,1440 L 1370,1490 L 1445,1490 L 1525,1490 L 1600,1490 L 1600,1440 L 1525,1440 L 1445,1440 Z" /><path d="M 1915,975 L 1915,1035 L 1915,1040 L 1915,1140 L 1915,1145 L 1915,1205 L 1965,1205 L 1965,1145 L 1965,1140 L 1965,1040 L 1965,1035 L 1965,975 Z" /><path d="M 1785,1975 L 1785,2035 L 1785,2040 L 1785,2140 L 1785,2145 L 1785,2205 L 1835,2205 L 1835,2145 L 1835,2140 L 1835,2040 L 1835,2035 L 1835,1975 Z" /><path d="M 1395,975 L 1395,1035 L 1395,1040 L 1395,1140 L 1395,1145 L 1395,1205 L 1445,1205 L 1445,1145 L 1445,1140 L 1445,1040 L 1445,1035 L 1445,975 Z" /><path d="M 1135,975 L 1135,1035 L 1135,1040 L 1135,1140 L 1135,1145 L 1135,1205 L 1185,1205 L 1185,1145 L 1185,1140 L 1185,1040 L 1185,1035 L 1185,975 Z" /><path d="M 745,925 L 745,985 L 745,990 L 745,1090 L 745,1095 L 745,1155 L 795,1155 L 795,1095 L 795,1090 L 795,990 L 795,985 L 795,925 Z" /><path d="M 745,1975 L 745,2035 L 745,2040 L 745,2140 L 745,2145 L 745,2205 L 795,2205 L 795,2145 L 795,2140 L 795,2040 L 795,2035 L 795,1975 Z" /><path d="M 1475,1740 L 1420,1740 L 1365,1740 L 1365,1790 L 1420,1790 L 1475,1790 L 1705,1790 L 1745,1790 L 1785,1790 L 1785,1740 L 1745,1740 L 1705,1740 Z" /><path d="M 1525,1930 L 1475,1930 L 1420,1930 L 1365,1930 L 1365,1980 L 1475,1980 L 1475,1979 L 1525,1979 L 1525,2040 L 1525,2140 L 1575,2140 L 1575,2040 L 1575,1979 L 1575,1930 Z" /><path d="M 1215,1540 L 1160,1540 L 1105,1540 L 1105,1590 L 1160,1590 L 1215,1590 L 1835,1590 L 1875,1590 L 1915,1590 L 1915,1540 L 1875,1540 L 1835,1540 Z" /><path d="M 1055,2040 L 1055,1979 L 1105,1979 L 1105,1980 L 1215,1980 L 1215,1930 L 1185,1930 L 1105,1930 L 1055,1930 L 1005,1930 L 1005,1979 L 1005,2040 L 1005,2140 L 1055,2140 Z" /><path d="M 825,1640 L 770,1640 L 715,1640 L 715,1690 L 770,1690 L 825,1690 L 1575,1690 L 1615,1690 L 1655,1690 L 1655,1640 L 1615,1640 L 1575,1640 Z" /><path d="M 3135,2040 L 3085,2040 L 3085,2140 L 3085,2315 L 2874,2315 L 2874,2140 L 2875,2140 L 2875,2040 L 2825,2040 L 2825,2140 L 2825,2315 L 2615,2315 L 2615,2140 L 2615,2040 L 2565,2040 L 2565,2140 L 2565,2315 L 2355,2315 L 2355,2140 L 2355,2040 L 2305,2040 L 2305,2140 L 2305,2315 L 2140,2315 L 2000,2315 L 1964,2315 L 1964,2140 L 1965,2140 L 1965,2040 L 1915,2040 L 1915,2140 L 1915,2315 L 1704,2315 L 1704,2140 L 1705,2140 L 1705,2040 L 1655,2040 L 1655,2140 L 1655,2315 L 1444,2315 L 1444,2140 L 1445,2140 L 1445,2040 L 1395,2040 L 1395,2140 L 1395,2315 L 1185,2315 L 1185,2140 L 1185,2040 L 1135,2040 L 1135,2140 L 1135,2315 L 925,2315 L 925,2140 L 925,2040 L 875,2040 L 875,2140 L 875,2315 L 570,2315 L 570,2415 L 2000,2415 L 2140,2415 L 3430,2415 L 3570,2415 L 5000,2415 L 5000,2315 L 4824,2315 L 4824,2140 L 4825,2140 L 4825,2040 L 4775,2040 L 4775,2140 L 4775,2315 L 4564,2315 L 4564,2140 L 4565,2140 L 4565,2040 L 4515,2040 L 4515,2140 L 4515,2315 L 4304,2315 L 4304,2140 L 4305,2140 L 4305,2040 L 4255,2040 L 4255,2140 L 4255,2315 L 4045,2315 L 4045,2140 L 4045,2040 L 3995,2040 L 3995,2140 L 3995,2315 L 3785,2315 L 3785,2140 L 3785,2040 L 3735,2040 L 3735,2140 L 3735,2315 L 3570,2315 L 3430,2315 L 3394,2315 L 3394,2140 L 3395,2140 L 3395,2040 L 3345,2040 L 3345,2140 L 3345,2315 L 3134,2315 L 3134,2140 L 3135,2140 Z" /><path d="M 2305,1140 L 2355,1140 L 2355,1040 L 2355,815 L 3085,815 L 3085,1040 L 3085,1140 L 3135,1140 L 3135,1040 L 3134,1040 L 3134,815 L 3430,815 L 3570,815 L 3735,815 L 3735,1040 L 3735,1140 L 3785,1140 L 3785,1040 L 3785,815 L 4515,815 L 4515,1040 L 4515,1140 L 4565,1140 L 4565,1040 L 4564,1040 L 4564,815 L 5000,815 L 5000,715 L 3570,715 L 3430,715 L 2140,715 L 2000,715 L 570,715 L 570,815 L 875,815 L 875,1040 L 875,1140 L 925,1140 L 925,1040 L 925,815 L 1655,815 L 1655,1040 L 1655,1140 L 1705,1140 L 1705,1040 L 1704,1040 L 1704,815 L 2000,815 L 2140,815 L 2305,815 L 2305,1040 Z" /><path d="M 3655,1590 L 3695,1590 L 3735,1590 L 3785,1590 L 3825,1590 L 3865,1590 L 3875,1590 L 3875,1540 L 3865,1540 L 3825,1540 L 3785,1540 L 3735,1540 L 3695,1540 L 3655,1540 L 3645,1540 L 3645,1590 Z" /><path d="M 4775,975 L 4775,1035 L 4775,1040 L 4775,1140 L 4775,1145 L 4775,1205 L 4825,1205 L 4825,1145 L 4825,1140 L 4825,1040 L 4825,1035 L 4825,975 Z" /><path d="M 4645,1975 L 4645,2035 L 4645,2040 L 4645,2140 L 4645,2145 L 4645,2205 L 4695,2205 L 4695,2145 L 4695,2140 L 4695,2040 L 4695,2035 L 4695,1975 Z" /><path d="M 4255,975 L 4255,1035 L 4255,1040 L 4255,1140 L 4255,1145 L 4255,1205 L 4305,1205 L 4305,1145 L 4305,1140 L 4305,1040 L 4305,1035 L 4305,975 Z" /><path d="M 3995,975 L 3995,1035 L 3995,1040 L 3995,1140 L 3995,1145 L 3995,1205 L 4045,1205 L 4045,1145 L 4045,1140 L 4045,1040 L 4045,1035 L 4045,975 Z" /><path d="M 3605,925 L 3605,985 L 3605,990 L 3605,1090 L 3605,1095 L 3605,1155 L 3655,1155 L 3655,1095 L 3655,1090 L 3655,990 L 3655,985 L 3655,925 Z" /><path d="M 3605,1975 L 3605,2035 L 3605,2040 L 3605,2140 L 3605,2145 L 3605,2205 L 3655,2205 L 3655,2145 L 3655,2140 L 3655,2040 L 3655,2035 L 3655,1975 Z" /><path d="M 4335,1740 L 4280,1740 L 4225,1740 L 4225,1790 L 4280,1790 L 4335,1790 L 4565,1790 L 4605,1790 L 4645,1790 L 4645,1740 L 4605,1740 L 4565,1740 Z" /><path d="M 4385,1930 L 4335,1930 L 4280,1930 L 4225,1930 L 4225,1980 L 4335,1980 L 4335,1979 L 4385,1979 L 4385,2040 L 4385,2140 L 4435,2140 L 4435,2040 L 4435,1979 L 4435,1930 Z" /><path d="M 4075,1540 L 4020,1540 L 3965,1540 L 3965,1590 L 4020,1590 L 4075,1590 L 4695,1590 L 4735,1590 L 4775,1590 L 4775,1540 L 4735,1540 L 4695,1540 Z" /><path d="M 3915,2040 L 3915,1979 L 3965,1979 L 3965,1980 L 4075,1980 L 4075,1930 L 4045,1930 L 3965,1930 L 3915,1930 L 3865,1930 L 3865,1979 L 3865,2040 L 3865,2140 L 3915,2140 Z" /><path d="M 3685,1640 L 3630,1640 L 3575,1640 L 3575,1690 L 3630,1690 L 3685,1690 L 4435,1690 L 4475,1690 L 4515,1690 L 4515,1640 L 4475,1640 L 4435,1640 Z" /><path d="M 3840,1740 L 3395,1740 L 3395,1690 L 3395,1640 L 3360,1640 L 3345,1640 L 3305,1640 L 3250,1640 L 3250,1690 L 3305,1690 L 3345,1690 L 3345,1740 L 3345,1790 L 3395,1790 L 3840,1790 L 3915,1790 L 3930,1790 L 3980,1790 L 3995,1790 L 4070,1790 L 4070,1740 L 3995,1740 L 3980,1740 L 3930,1740 L 3915,1740 Z" /><path d="M 835,1590 L 845,1590 L 875,1590 L 925,1590 L 955,1590 L 965,1590 L 1005,1590 L 1015,1590 L 1015,1540 L 1005,1540 L 965,1540 L 955,1540 L 925,1540 L 875,1540 L 845,1540 L 835,1540 L 795,1540 L 785,1540 L 785,1590 L 795,1590 Z" /><path d="M 2265,1590 L 2275,1590 L 2305,1590 L 2355,1590 L 2385,1590 L 2395,1590 L 2435,1590 L 2445,1590 L 2445,1540 L 2435,1540 L 2395,1540 L 2385,1540 L 2355,1540 L 2305,1540 L 2275,1540 L 2265,1540 L 2225,1540 L 2215,1540 L 2215,1590 L 2225,1590 Z" /><path d="M 4230,1490 L 4305,1490 L 4325,1490 L 4385,1490 L 4435,1490 L 4460,1490 L 4460,1440 L 4435,1440 L 4385,1440 L 4325,1440 L 4305,1440 L 4230,1440 Z" /></g></g><g id="VIA1"><g class="l51d0"><path d="M 3345,1065 L 3395,1065 L 3395,1115 L 3345,1115 Z" /><path d="M 3215,2065 L 3265,2065 L 3265,2115 L 3215,2115 Z" /><path d="M 2825,1065 L 2875,1065 L 2875,1115 L 2825,1115 Z" /><path d="M 2565,1065 L 2615,1065 L 2615,1115 L 2565,1115 Z" /><path d="M 2175,1015 L 2225,1015 L 2225,1065 L 2175,1065 Z" /><path d="M 2175,2065 L 2225,2065 L 2225,2115 L 2175,2115 Z" /><path d="M 2825,1740 L 2875,1740 L 2875,1790 L 2825,1790 Z" /><path d="M 2825,1930 L 2875,1930 L 2875,1980 L 2825,1980 Z" /><path d="M 2565,1540 L 2615,1540 L 2615,1590 L 2565,1590 Z" /><path d="M 2565,1930 L 2615,1930 L 2615,1980 L 2565,1980 Z" /><path d="M 2175,1640 L 2225,1640 L 2225,1690 L 2175,1690 Z" /><path d="M 1915,1065 L 1965,1065 L 1965,1115 L 1915,1115 Z" /><path d="M 1785,2065 L 1835,2065 L 1835,2115 L 1785,2115 Z" /><path d="M 1395,1065 L 1445,1065 L 1445,1115 L 1395,1115 Z" /><path d="M 1135,1065 L 1185,1065 L 1185,1115 L 1135,1115 Z" /><path d="M 745,1015 L 795,1015 L 795,1065 L 745,1065 Z" /><path d="M 745,2065 L 795,2065 L 795,2115 L 745,2115 Z" /><path d="M 1395,1740 L 1445,1740 L 1445,1790 L 1395,1790 Z" /><path d="M 1395,1930 L 1445,1930 L 1445,1980 L 1395,1980 Z" /><path d="M 1135,1540 L 1185,1540 L 1185,1590 L 1135,1590 Z" /><path d="M 1135,1930 L 1185,1930 L 1185,1980 L 1135,1980 Z" /><path d="M 745,1640 L 795,1640 L 795,1690 L 745,1690 Z" /><path d="M 4775,1065 L 4825,1065 L 4825,1115 L 4775,1115 Z" /><path d="M 4645,2065 L 4695,2065 L 4695,2115 L 4645,2115 Z" /><path d="M 4255,1065 L 4305,1065 L 4305,1115 L 4255,1115 Z" /><path d="M 3995,1065 L 4045,1065 L 4045,1115 L 3995,1115 Z" /><path d="M 3605,1015 L 3655,1015 L 3655,1065 L 3605,1065 Z" /><path d="M 3605,2065 L 3655,2065 L 3655,2115 L 3605,2115 Z" /><path d="M 4255,1740 L 4305,1740 L 4305,1790 L 4255,1790 Z" /><path d="M 4255,1930 L 4305,1930 L 4305,1980 L 4255,1980 Z" /><path d="M 3995,1540 L 4045,1540 L 4045,1590 L 3995,1590 Z" /><path d="M 3995,1930 L 4045,1930 L 4045,1980 L 3995,1980 Z" /><path d="M 3605,1640 L 3655,1640 L 3655,1690 L 3605,1690 Z" /><path d="M 3280,1640 L 3330,1640 L 3330,1690 L 3280,1690 Z" /><path d="M 875,1540 L 925,1540 L 925,1590 L 875,1590 Z" /><path d="M 2305,1540 L 2355,1540 L 2355,1590 L 2305,1590 Z" /><path d="M 4355,1440 L 4405,1440 L 4405,1490 L 4355,1490 Z" /></g></g><g id="M2"><g class="l32d0"><path d="M 2875,1820 L 2875,1710 L 2874,1710 L 2874,1145 L 2875,1145 L 2875,1035 L 2825,1035 L 2825,1090 L 2825,1145 L 2825,1710 L 2825,1820 L 2825,1900 L 2825,1955 L 2825,2010 L 2875,2010 L 2875,1900 L 2874,1900 L 2874,1820 Z" /><path d="M 2615,1510 L 2615,1145 L 2615,1090 L 2615,1035 L 2565,1035 L 2565,1090 L 2565,1145 L 2565,1510 L 2565,1620 L 2565,1900 L 2565,1955 L 2565,2010 L 2615,2010 L 2615,1955 L 2615,1900 L 2615,1620 Z" /><path d="M 2175,2090 L 2175,2145 L 2225,2145 L 2225,2090 L 2225,2035 L 2225,1720 L 2225,1610 L 2225,1095 L 2225,1040 L 2225,985 L 2175,985 L 2175,1040 L 2175,1095 L 2175,1610 L 2175,1720 L 2175,2035 Z" /><path d="M 1445,1820 L 1445,1710 L 1444,1710 L 1444,1145 L 1445,1145 L 1445,1035 L 1395,1035 L 1395,1090 L 1395,1145 L 1395,1710 L 1395,1820 L 1395,1900 L 1395,1955 L 1395,2010 L 1445,2010 L 1445,1900 L 1444,1900 L 1444,1820 Z" /><path d="M 1185,1510 L 1185,1145 L 1185,1090 L 1185,1035 L 1135,1035 L 1135,1090 L 1135,1145 L 1135,1510 L 1135,1620 L 1135,1900 L 1135,1955 L 1135,2010 L 1185,2010 L 1185,1955 L 1185,1900 L 1185,1620 Z" /><path d="M 745,2090 L 745,2145 L 795,2145 L 795,2090 L 795,2035 L 795,1720 L 795,1610 L 795,1095 L 795,1040 L 795,985 L 745,985 L 745,1040 L 745,1095 L 745,1610 L 745,1720 L 745,2035 Z" /><path d="M 4695,1690 L 4775,1690 L 4824,1690 L 4824,1640 L 4824,1145 L 4825,1145 L 4825,1035 L 4775,1035 L 4775,1145 L 4775,1640 L 4695,1640 L 4645,1640 L 4645,1690 L 4645,2035 L 4645,2145 L 4695,2145 L 4695,2035 Z" /><path d="M 4305,1820 L 4305,1710 L 4304,1710 L 4304,1145 L 4305,1145 L 4305,1035 L 4255,1035 L 4255,1090 L 4255,1145 L 4255,1710 L 4255,1820 L 4255,1900 L 4255,1955 L 4255,2010 L 4305,2010 L 4305,1900 L 4304,1900 L 4304,1820 Z" /><path d="M 4045,1510 L 4045,1145 L 4045,1090 L 4045,1035 L 3995,1035 L 3995,1090 L 3995,1145 L 3995,1510 L 3995,1620 L 3995,1900 L 3995,1955 L 3995,2010 L 4045,2010 L 4045,1955 L 4045,1900 L 4045,1620 Z" /><path d="M 3605,2090 L 3605,2145 L 3655,2145 L 3655,2090 L 3655,2035 L 3655,1720 L 3655,1610 L 3655,1095 L 3655,1040 L 3655,985 L 3605,985 L 3605,1040 L 3605,1095 L 3605,1610 L 3605,1720 L 3605,2035 Z" /><path d="M 3345,1690 L 3360,1690 L 3394,1690 L 3394,1640 L 3394,1145 L 3395,1145 L 3395,1035 L 3345,1035 L 3345,1145 L 3345,1640 L 3265,1640 L 3250,1640 L 3215,1640 L 3215,1690 L 3215,2035 L 3215,2145 L 3265,2145 L 3265,2035 L 3265,1690 Z" /><path d="M 925,1425 L 875,1425 L 875,1510 L 875,1620 L 875,1705 L 925,1705 L 925,1620 L 925,1510 Z" /><path d="M 2355,1425 L 2305,1425 L 2305,1510 L 2305,1620 L 2305,1705 L 2355,1705 L 2355,1620 L 2355,1510 Z" /><path d="M 1915,1690 L 1964,1690 L 1964,1640 L 1964,1520 L 1965,1520 L 1965,1410 L 1964,1410 L 1964,1145 L 1965,1145 L 1965,1035 L 1915,1035 L 1915,1145 L 1915,1410 L 1915,1520 L 1915,1640 L 1835,1640 L 1785,1640 L 1785,1690 L 1785,2035 L 1785,2145 L 1835,2145 L 1835,2035 L 1835,1690 Z" /><path d="M 4405,1325 L 4355,1325 L 4355,1410 L 4355,1520 L 4355,1605 L 4405,1605 L 4405,1520 L 4405,1410 Z" /></g></g><g id="VIA2"><g class="l52d0"><path d="M 875,1540 L 925,1540 L 925,1590 L 875,1590 Z" /><path d="M 2305,1540 L 2355,1540 L 2355,1590 L 2305,1590 Z" /><path d="M 1915,1440 L 1965,1440 L 1965,1490 L 1915,1490 Z" /><path d="M 4355,1440 L 4405,1440 L 4405,1490 L 4355,1490 Z" /></g></g><g id="M3"><g class="l33d0"><path d="M 2275,1540 L 955,1540 L 900,1540 L 845,1540 L 845,1590 L 955,1590 L 955,1589 L 2275,1589 L 2275,1590 L 2385,1590 L 2385,1540 L 2330,1540 Z" /><path d="M 4325,1490 L 4380,1490 L 4435,1490 L 4435,1440 L 4380,1440 L 4325,1440 L 1995,1440 L 1940,1440 L 1885,1440 L 1885,1490 L 1940,1490 L 1995,1490 Z" /></g></g></g></svg>