<svg width="7960" height="3800" viewBox="220 -3940 7960 3800" xmlns="http://www.w3.org/2000/svg" xmlns:xlink="http://www.w3.org/1999/xlink"><defs><style type="text/css">.l1d0 {fill: #d4ac0d; fill-opacity: 0.05; stroke-width: 10; stroke: #d4ac0d; stroke-linecap: round; stroke-linejoin: round; stroke-opacity: 0.7;}.l3d0 {fill: #fef9e7; fill-opacity: 0.5; stroke-width: 10; stroke: #f1c40f; stroke-linecap: round; stroke-linejoin: round; stroke-opacity: 0.2;}.l25d0 {fill: #8e44ad; fill-opacity: 0.05; stroke-width: 10; stroke: #8e44ad; stroke-linecap: round; stroke-linejoin: round; stroke-opacity: 1;}.l26d0 {fill: #ccd1d1; fill-opacity: 0.05; stroke-width: 10; stroke: #ccd1d1; stroke-linecap: round; stroke-linejoin: round; stroke-opacity: 1;}.l6d0 {fill: #f5b7b1; fill-opacity: 1; stroke-width: 10; stroke: #e74c3c; stroke-linecap: round; stroke-linejoin: round; stroke-opacity: 1;}.l17d0 {fill: #2980b9; fill-opacity: 1; stroke-width: 0; stroke: #000000; stroke-linecap: round; stroke-linejoin: round; stroke-opacity: 0;}.l17d7 {fill: #2980b9; fill-opacity: 1; stroke-width: 0; stroke: #000000; stroke-linecap: round; stroke-linejoin: round; stroke-opacity: 0;}.l30d0 {fill: #27ae60; fill-opacity: 1; stroke-width: 0; stroke: #000000; stroke-linecap: round; stroke-linejoin: round; stroke-opacity: 0;}.l31d0 {fill: #85c1e9; fill-opacity: 0.6; stroke-width: 0; stroke: #000000; stroke-linecap: round; stroke-linejoin: round; stroke-opacity: 0;}.l51d0 {fill: #f39c12; fill-opacity: 1; stroke-width: 10; stroke: #f39c12; stroke-linecap: round; stroke-linejoin: round; stroke-opacity: 1;}.l32d0 {fill: #f7dc6f; fill-opacity: 0.6; stroke-width: 0; stroke: #000000; stroke-linecap: round; stroke-linejoin: round; stroke-opacity: 0;}path {fill-rule: evenodd;}</style></defs><g transform="scale(1 -1)"><g id="DNW"><g class="l1d0"><path d="M 8175,3935 L 8175,145 L 225,145 L 225,3935 Z" /></g></g><g id="NW"><g class="l3d0"><path d="M 8175,425 L 8175,145 L 7895,145 L 7375,145 L 1025,145 L 505,145 L 225,145 L 225,425 L 225,1480 L 225,2600 L 225,3655 L 225,3935 L 505,3935 L 1025,3935 L 7375,3935 L 7895,3935 L 8175,3935 L 8175,3655 L 8175,2600 L 8175,1480 Z M 1915,1480 L 2195,1480 L 2435,1480 L 2715,1480 L 2955,1480 L 3235,1480 L 3475,1480 L 3755,1480 L 3995,1480 L 4275,1480 L 4515,1480 L 4795,1480 L 5035,1480 L 5315,1480 L 5555,1480 L 5835,1480 L 6355,1480 L 6875,1480 L 7375,1480 L 7375,2600 L 6875,2600 L 6355,2600 L 5835,2600 L 5555,2600 L 5315,2600 L 5035,2600 L 4795,2600 L 4515,2600 L 4275,2600 L 3995,2600 L 3755,2600 L 3475,2600 L 3235,2600 L 2955,2600 L 2715,2600 L 2435,2600 L 2195,2600 L 1915,2600 L 1525,2600 L 1025,2600 L 1025,1480 L 1525,1480 Z" /></g></g><g id="PP"><g class="l25d0"><path d="M 6835,1470 L 6835,1000 L 6315,1000 L 6175,1000 L 6020,1000 L 5890,1000 L 5795,1000 L 5735,1000 L 5655,1000 L 5595,1000 L 5500,1000 L 5370,1000 L 5275,1000 L 5215,1000 L 5135,1000 L 5075,1000 L 4980,1000 L 4850,1000 L 4755,1000 L 4695,1000 L 4615,1000 L 4555,1000 L 4460,1000 L 4330,1000 L 4235,1000 L 4175,1000 L 4095,1000 L 4035,1000 L 3940,1000 L 3810,1000 L 3715,1000 L 3655,1000 L 3575,1000 L 3515,1000 L 3420,1000 L 3290,1000 L 3195,1000 L 3135,1000 L 3055,1000 L 2995,1000 L 2900,1000 L 2770,1000 L 2675,1000 L 2615,1000 L 2535,1000 L 2475,1000 L 2380,1000 L 2250,1000 L 2155,1000 L 2095,1000 L 2015,1000 L 1955,1000 L 1705,1000 L 1565,1000 L 1565,1470 L 1955,1470 L 2155,1470 L 2475,1470 L 2675,1470 L 2995,1470 L 3195,1470 L 3515,1470 L 3715,1470 L 4035,1470 L 4235,1470 L 4555,1470 L 4755,1470 L 5075,1470 L 5275,1470 L 5595,1470 L 5795,1470 L 6315,1470 Z" /><path d="M 6315,3080 L 6385,3080 L 6515,3080 L 6695,3080 L 6835,3080 L 6835,2610 L 6315,2610 L 5795,2610 L 5595,2610 L 5275,2610 L 5075,2610 L 4755,2610 L 4555,2610 L 4235,2610 L 4035,2610 L 3715,2610 L 3515,2610 L 3195,2610 L 2995,2610 L 2675,2610 L 2475,2610 L 2155,2610 L 1955,2610 L 1565,2610 L 1565,3080 L 1705,3080 L 1955,3080 L 2015,3080 L 2095,3080 L 2155,3080 L 2250,3080 L 2380,3080 L 2475,3080 L 2535,3080 L 2615,3080 L 2675,3080 L 2770,3080 L 2900,3080 L 2995,3080 L 3055,3080 L 3135,3080 L 3195,3080 L 3290,3080 L 3420,3080 L 3515,3080 L 3575,3080 L 3655,3080 L 3715,3080 L 3810,3080 L 3940,3080 L 4035,3080 L 4095,3080 L 4175,3080 L 4235,3080 L 4330,3080 L 4460,3080 L 4555,3080 L 4615,3080 L 4695,3080 L 4755,3080 L 4850,3080 L 4980,3080 L 5075,3080 L 5135,3080 L 5215,3080 L 5275,3080 L 5370,3080 L 5500,3080 L 5595,3080 L 5655,3080 L 5735,3080 L 5795,3080 L 5890,3080 L 6020,3080 L 6175,3080 L 6255,3080 Z" /><path d="M 6315,2120 L 6835,2120 L 6835,1960 L 6315,1960 L 6115,1960 L 5795,1960 L 5595,1960 L 5275,1960 L 5075,1960 L 4755,1960 L 4555,1960 L 4235,1960 L 4035,1960 L 3715,1960 L 3515,1960 L 3195,1960 L 2995,1960 L 2675,1960 L 2475,1960 L 2155,1960 L 1955,1960 L 1565,1960 L 1565,2120 L 1955,2120 L 2155,2120 L 2475,2120 L 2675,2120 L 2995,2120 L 3195,2120 L 3515,2120 L 3715,2120 L 4035,2120 L 4235,2120 L 4555,2120 L 4755,2120 L 5075,2120 L 5275,2120 L 5595,2120 L 5795,2120 L 6115,2120 Z" /></g></g><g id="NP"><g class="l26d0"><path d="M 265,3695 L 265,3895 L 465,3895 L 7935,3895 L 8135,3895 L 8135,3695 L 8135,385 L 8135,185 L 7935,185 L 465,185 L 265,185 L 265,385 Z M 465,3695 L 465,385 L 7935,385 L 7935,3695 Z" /><path d="M 6835,1960 L 6835,1470 L 6315,1470 L 5795,1470 L 5595,1470 L 5275,1470 L 5075,1470 L 4755,1470 L 4555,1470 L 4235,1470 L 4035,1470 L 3715,1470 L 3515,1470 L 3195,1470 L 2995,1470 L 2675,1470 L 2475,1470 L 2155,1470 L 1955,1470 L 1565,1470 L 1565,1960 L 1705,1960 L 1955,1960 L 2015,1960 L 2095,1960 L 2155,1960 L 2250,1960 L 2380,1960 L 2475,1960 L 2535,1960 L 2615,1960 L 2675,1960 L 2770,1960 L 2900,1960 L 2995,1960 L 3055,1960 L 3135,1960 L 3195,1960 L 3290,1960 L 3420,1960 L 3515,1960 L 3575,1960 L 3655,1960 L 3715,1960 L 3810,1960 L 3940,1960 L 4035,1960 L 4095,1960 L 4175,1960 L 4235,1960 L 4330,1960 L 4460,1960 L 4555,1960 L 4615,1960 L 4695,1960 L 4755,1960 L 4850,1960 L 4980,1960 L 5075,1960 L 5135,1960 L 5215,1960 L 5275,1960 L 5370,1960 L 5500,1960 L 5595,1960 L 5655,1960 L 5735,1960 L 5795,1960 L 5890,1960 L 6020,1960 L 6175,1960 L 6315,1960 Z" /><path d="M 6315,1000 L 6835,1000 L 6835,840 L 6315,840 L 6115,840 L 5795,840 L 5595,840 L 5275,840 L 5075,840 L 4755,840 L 4555,840 L 4235,840 L 4035,840 L 3715,840 L 3515,840 L 3195,840 L 2995,840 L 2675,840 L 2475,840 L 2155,840 L 1955,840 L 1565,840 L 1565,1000 L 1955,1000 L 2155,1000 L 2475,1000 L 2675,1000 L 2995,1000 L 3195,1000 L 3515,1000 L 3715,1000 L 4035,1000 L 4235,1000 L 4555,1000 L 4755,1000 L 5075,1000 L 5275,1000 L 5595,1000 L 5795,1000 L 6115,1000 Z" /><path d="M 6255,2120 L 6175,2120 L 6020,2120 L 5890,2120 L 5795,2120 L 5735,2120 L 5655,2120 L 5595,2120 L 5500,2120 L 5370,2120 L 5275,2120 L 5215,2120 L 5135,2120 L 5075,2120 L 4980,2120 L 4850,2120 L 4755,2120 L 4695,2120 L 4615,2120 L 4555,2120 L 4460,2120 L 4330,2120 L 4235,2120 L 4175,2120 L 4095,2120 L 4035,2120 L 3940,2120 L 3810,2120 L 3715,2120 L 3655,2120 L 3575,2120 L 3515,2120 L 3420,2120 L 3290,2120 L 3195,2120 L 3135,2120 L 3055,2120 L 2995,2120 L 2900,2120 L 2770,2120 L 2675,2120 L 2615,2120 L 2535,2120 L 2475,2120 L 2380,2120 L 2250,2120 L 2155,2120 L 2095,2120 L 2015,2120 L 1955,2120 L 1705,2120 L 1565,2120 L 1565,2610 L 1955,2610 L 2155,2610 L 2475,2610 L 2675,2610 L 2995,2610 L 3195,2610 L 3515,2610 L 3715,2610 L 4035,2610 L 4235,2610 L 4555,2610 L 4755,2610 L 5075,2610 L 5275,2610 L 5595,2610 L 5795,2610 L 6255,2610 L 6315,2610 L 6410,2610 L 6540,2610 L 6695,2610 L 6835,2610 L 6835,2120 L 6695,2120 L 6540,2120 L 6410,2120 L 6315,2120 Z" /><path d="M 6315,3240 L 6835,3240 L 6835,3080 L 6315,3080 L 6115,3080 L 5795,3080 L 5595,3080 L 5275,3080 L 5075,3080 L 4755,3080 L 4555,3080 L 4235,3080 L 4035,3080 L 3715,3080 L 3515,3080 L 3195,3080 L 2995,3080 L 2675,3080 L 2475,3080 L 2155,3080 L 1955,3080 L 1565,3080 L 1565,3240 L 1955,3240 L 2155,3240 L 2475,3240 L 2675,3240 L 2995,3240 L 3195,3240 L 3515,3240 L 3715,3240 L 4035,3240 L 4235,3240 L 4555,3240 L 4755,3240 L 5075,3240 L 5275,3240 L 5595,3240 L 5795,3240 L 6115,3240 Z" /></g></g><g id="OD"><g class="l6d0"><path d="M 6450,2835 L 6425,2835 L 6395,2835 L 6320,2835 L 6320,2935 L 6395,2935 L 6425,2935 L 6450,2935 L 6525,2935 L 6555,2935 L 6630,2935 L 6630,2835 L 6555,2835 L 6525,2835 Z" /><path d="M 6395,2465 L 6425,2465 L 6475,2465 L 6525,2465 L 6555,2465 L 6630,2465 L 6630,2265 L 6555,2265 L 6525,2265 L 6475,2265 L 6425,2265 L 6395,2265 L 6320,2265 L 6320,2465 Z" /><path d="M 1845,1145 L 1875,1145 L 1950,1145 L 1950,1245 L 1875,1245 L 1845,1245 L 1770,1245 L 1770,1145 Z" /><path d="M 1845,1715 L 1875,1715 L 1950,1715 L 1950,1815 L 1875,1815 L 1845,1815 L 1770,1815 L 1770,1715 Z" /><path d="M 1845,2935 L 1875,2935 L 1950,2935 L 1950,2835 L 1875,2835 L 1845,2835 L 1770,2835 L 1770,2935 Z" /><path d="M 1845,2365 L 1875,2365 L 1950,2365 L 1950,2265 L 1875,2265 L 1845,2265 L 1770,2265 L 1770,2365 Z" /><path d="M 6035,1145 L 6110,1145 L 6110,1245 L 6035,1245 L 6005,1245 L 5955,1245 L 5905,1245 L 5875,1245 L 5800,1245 L 5800,1145 L 5875,1145 L 5905,1145 L 5955,1145 L 6005,1145 Z" /><path d="M 6110,1815 L 6035,1815 L 6005,1815 L 5955,1815 L 5905,1815 L 5875,1815 L 5800,1815 L 5800,1715 L 5875,1715 L 5905,1715 L 5955,1715 L 6005,1715 L 6035,1715 L 6110,1715 Z" /><path d="M 6035,2935 L 6110,2935 L 6110,2835 L 6035,2835 L 6005,2835 L 5955,2835 L 5905,2835 L 5875,2835 L 5800,2835 L 5800,2935 L 5875,2935 L 5905,2935 L 5955,2935 L 6005,2935 Z" /><path d="M 6110,2265 L 6035,2265 L 6005,2265 L 5955,2265 L 5905,2265 L 5875,2265 L 5800,2265 L 5800,2365 L 5875,2365 L 5905,2365 L 5955,2365 L 6005,2365 L 6035,2365 L 6110,2365 Z" /><path d="M 5515,1145 L 5590,1145 L 5590,1245 L 5515,1245 L 5485,1245 L 5435,1245 L 5385,1245 L 5355,1245 L 5280,1245 L 5280,1145 L 5355,1145 L 5385,1145 L 5435,1145 L 5485,1145 Z" /><path d="M 5590,1815 L 5515,1815 L 5485,1815 L 5435,1815 L 5385,1815 L 5355,1815 L 5280,1815 L 5280,1715 L 5355,1715 L 5385,1715 L 5435,1715 L 5485,1715 L 5515,1715 L 5590,1715 Z" /><path d="M 5515,2935 L 5590,2935 L 5590,2835 L 5515,2835 L 5485,2835 L 5435,2835 L 5385,2835 L 5355,2835 L 5280,2835 L 5280,2935 L 5355,2935 L 5385,2935 L 5435,2935 L 5485,2935 Z" /><path d="M 5590,2265 L 5515,2265 L 5485,2265 L 5435,2265 L 5385,2265 L 5355,2265 L 5280,2265 L 5280,2365 L 5355,2365 L 5385,2365 L 5435,2365 L 5485,2365 L 5515,2365 L 5590,2365 Z" /><path d="M 4995,1145 L 5070,1145 L 5070,1245 L 4995,1245 L 4965,1245 L 4915,1245 L 4865,1245 L 4835,1245 L 4760,1245 L 4760,1145 L 4835,1145 L 4865,1145 L 4915,1145 L 4965,1145 Z" /><path d="M 5070,1815 L 4995,1815 L 4965,1815 L 4915,1815 L 4865,1815 L 4835,1815 L 4760,1815 L 4760,1715 L 4835,1715 L 4865,1715 L 4915,1715 L 4965,1715 L 4995,1715 L 5070,1715 Z" /><path d="M 4995,2935 L 5070,2935 L 5070,2835 L 4995,2835 L 4965,2835 L 4915,2835 L 4865,2835 L 4835,2835 L 4760,2835 L 4760,2935 L 4835,2935 L 4865,2935 L 4915,2935 L 4965,2935 Z" /><path d="M 5070,2265 L 4995,2265 L 4965,2265 L 4915,2265 L 4865,2265 L 4835,2265 L 4760,2265 L 4760,2365 L 4835,2365 L 4865,2365 L 4915,2365 L 4965,2365 L 4995,2365 L 5070,2365 Z" /><path d="M 4475,1145 L 4550,1145 L 4550,1245 L 4475,1245 L 4445,1245 L 4395,1245 L 4345,1245 L 4315,1245 L 4240,1245 L 4240,1145 L 4315,1145 L 4345,1145 L 4395,1145 L 4445,1145 Z" /><path d="M 4550,1815 L 4475,1815 L 4445,1815 L 4395,1815 L 4345,1815 L 4315,1815 L 4240,1815 L 4240,1715 L 4315,1715 L 4345,1715 L 4395,1715 L 4445,1715 L 4475,1715 L 4550,1715 Z" /><path d="M 4475,2935 L 4550,2935 L 4550,2835 L 4475,2835 L 4445,2835 L 4395,2835 L 4345,2835 L 4315,2835 L 4240,2835 L 4240,2935 L 4315,2935 L 4345,2935 L 4395,2935 L 4445,2935 Z" /><path d="M 4550,2265 L 4475,2265 L 4445,2265 L 4395,2265 L 4345,2265 L 4315,2265 L 4240,2265 L 4240,2365 L 4315,2365 L 4345,2365 L 4395,2365 L 4445,2365 L 4475,2365 L 4550,2365 Z" /><path d="M 3955,1145 L 4030,1145 L 4030,1245 L 3955,1245 L 3925,1245 L 3875,1245 L 3825,1245 L 3795,1245 L 3720,1245 L 3720,1145 L 3795,1145 L 3825,1145 L 3875,1145 L 3925,1145 Z" /><path d="M 4030,1815 L 3955,1815 L 3925,1815 L 3875,1815 L 3825,1815 L 3795,1815 L 3720,1815 L 3720,1715 L 3795,1715 L 3825,1715 L 3875,1715 L 3925,1715 L 3955,1715 L 4030,1715 Z" /><path d="M 3955,2935 L 4030,2935 L 4030,2835 L 3955,2835 L 3925,2835 L 3875,2835 L 3825,2835 L 3795,2835 L 3720,2835 L 3720,2935 L 3795,2935 L 3825,2935 L 3875,2935 L 3925,2935 Z" /><path d="M 4030,2265 L 3955,2265 L 3925,2265 L 3875,2265 L 3825,2265 L 3795,2265 L 3720,2265 L 3720,2365 L 3795,2365 L 3825,2365 L 3875,2365 L 3925,2365 L 3955,2365 L 4030,2365 Z" /><path d="M 3435,1145 L 3510,1145 L 3510,1245 L 3435,1245 L 3405,1245 L 3355,1245 L 3305,1245 L 3275,1245 L 3200,1245 L 3200,1145 L 3275,1145 L 3305,1145 L 3355,1145 L 3405,1145 Z" /><path d="M 3510,1815 L 3435,1815 L 3405,1815 L 3355,1815 L 3305,1815 L 3275,1815 L 3200,1815 L 3200,1715 L 3275,1715 L 3305,1715 L 3355,1715 L 3405,1715 L 3435,1715 L 3510,1715 Z" /><path d="M 3435,2935 L 3510,2935 L 3510,2835 L 3435,2835 L 3405,2835 L 3355,2835 L 3305,2835 L 3275,2835 L 3200,2835 L 3200,2935 L 3275,2935 L 3305,2935 L 3355,2935 L 3405,2935 Z" /><path d="M 3510,2265 L 3435,2265 L 3405,2265 L 3355,2265 L 3305,2265 L 3275,2265 L 3200,2265 L 3200,2365 L 3275,2365 L 3305,2365 L 3355,2365 L 3405,2365 L 3435,2365 L 3510,2365 Z" /><path d="M 2915,1145 L 2990,1145 L 2990,1245 L 2915,1245 L 2885,1245 L 2835,1245 L 2785,1245 L 2755,1245 L 2680,1245 L 2680,1145 L 2755,1145 L 2785,1145 L 2835,1145 L 2885,1145 Z" /><path d="M 2990,1815 L 2915,1815 L 2885,1815 L 2835,1815 L 2785,1815 L 2755,1815 L 2680,1815 L 2680,1715 L 2755,1715 L 2785,1715 L 2835,1715 L 2885,1715 L 2915,1715 L 2990,1715 Z" /><path d="M 2915,2935 L 2990,2935 L 2990,2835 L 2915,2835 L 2885,2835 L 2835,2835 L 2785,2835 L 2755,2835 L 2680,2835 L 2680,2935 L 2755,2935 L 2785,2935 L 2835,2935 L 2885,2935 Z" /><path d="M 2990,2265 L 2915,2265 L 2885,2265 L 2835,2265 L 2785,2265 L 2755,2265 L 2680,2265 L 2680,2365 L 2755,2365 L 2785,2365 L 2835,2365 L 2885,2365 L 2915,2365 L 2990,2365 Z" /><path d="M 2395,1145 L 2470,1145 L 2470,1245 L 2395,1245 L 2365,1245 L 2315,1245 L 2265,1245 L 2235,1245 L 2160,1245 L 2160,1145 L 2235,1145 L 2265,1145 L 2315,1145 L 2365,1145 Z" /><path d="M 2470,1815 L 2395,1815 L 2365,1815 L 2315,1815 L 2265,1815 L 2235,1815 L 2160,1815 L 2160,1715 L 2235,1715 L 2265,1715 L 2315,1715 L 2365,1715 L 2395,1715 L 2470,1715 Z" /><path d="M 6284,970 L 6805,970 L 6805,870 L 6284,870 L 6145,870 L 5764,870 L 5625,870 L 5244,870 L 5105,870 L 4724,870 L 4585,870 L 4204,870 L 4065,870 L 3684,870 L 3545,870 L 3164,870 L 3025,870 L 2644,870 L 2505,870 L 2125,870 L 1985,870 L 1595,870 L 1595,970 L 1985,970 L 2125,970 L 2505,970 L 2644,970 L 3025,970 L 3164,970 L 3545,970 L 3684,970 L 4065,970 L 4204,970 L 4585,970 L 4724,970 L 5105,970 L 5244,970 L 5625,970 L 5764,970 L 6145,970 Z" /><path d="M 2395,2935 L 2470,2935 L 2470,2835 L 2395,2835 L 2365,2835 L 2315,2835 L 2265,2835 L 2235,2835 L 2160,2835 L 2160,2935 L 2235,2935 L 2265,2935 L 2315,2935 L 2365,2935 Z" /><path d="M 2470,2265 L 2395,2265 L 2365,2265 L 2315,2265 L 2265,2265 L 2235,2265 L 2160,2265 L 2160,2365 L 2235,2365 L 2265,2365 L 2315,2365 L 2365,2365 L 2395,2365 L 2470,2365 Z" /><path d="M 6284,2090 L 6805,2090 L 6805,1990 L 6284,1990 L 6145,1990 L 5764,1990 L 5625,1990 L 5244,1990 L 5105,1990 L 4724,1990 L 4585,1990 L 4204,1990 L 4065,1990 L 3684,1990 L 3545,1990 L 3164,1990 L 3025,1990 L 2644,1990 L 2505,1990 L 2125,1990 L 1985,1990 L 1595,1990 L 1595,2090 L 1985,2090 L 2125,2090 L 2505,2090 L 2644,2090 L 3025,2090 L 3164,2090 L 3545,2090 L 3684,2090 L 4065,2090 L 4204,2090 L 4585,2090 L 4724,2090 L 5105,2090 L 5244,2090 L 5625,2090 L 5764,2090 L 6145,2090 Z" /><path d="M 6284,3210 L 6805,3210 L 6805,3110 L 6284,3110 L 6145,3110 L 5764,3110 L 5625,3110 L 5244,3110 L 5105,3110 L 4724,3110 L 4585,3110 L 4204,3110 L 4065,3110 L 3684,3110 L 3545,3110 L 3164,3110 L 3025,3110 L 2644,3110 L 2505,3110 L 2125,3110 L 1985,3110 L 1595,3110 L 1595,3210 L 1985,3210 L 2125,3210 L 2505,3210 L 2644,3210 L 3025,3210 L 3164,3210 L 3545,3210 L 3684,3210 L 4065,3210 L 4204,3210 L 4585,3210 L 4724,3210 L 5105,3210 L 5244,3210 L 5625,3210 L 5764,3210 L 6145,3210 Z" /><path d="M 295,3865 L 435,3865 L 7965,3865 L 8105,3865 L 8105,3725 L 8105,355 L 8105,215 L 7965,215 L 435,215 L 295,215 L 295,355 L 295,3725 Z M 435,355 L 7965,355 L 7965,3725 L 435,3725 Z" /></g></g><g id="PO"><g class="l17d0"><path d="M 1845,1065 L 1875,1065 L 1875,1145 L 1875,1245 L 1875,1325 L 1875,1390 L 1875,1430 L 1875,1470 L 1875,1635 L 1875,1715 L 1875,1815 L 1875,1895 L 1845,1895 L 1845,1815 L 1845,1715 L 1845,1635 L 1845,1470 L 1845,1430 L 1845,1390 L 1845,1325 L 1845,1245 L 1845,1145 Z" /><path d="M 1845,3015 L 1875,3015 L 1875,2935 L 1875,2835 L 1875,2755 L 1875,2690 L 1875,2650 L 1875,2610 L 1875,2445 L 1875,2365 L 1875,2265 L 1875,2185 L 1845,2185 L 1845,2265 L 1845,2365 L 1845,2445 L 1845,2610 L 1845,2650 L 1845,2690 L 1845,2755 L 1845,2835 L 1845,2935 Z" /><path d="M 5875,1815 L 5875,1715 L 5875,1670 L 5875,1635 L 5875,1590 L 5875,1560 L 5905,1560 L 5905,1590 L 5905,1635 L 5905,1670 L 5905,1715 L 5905,1815 L 5905,1895 L 5875,1895 Z" /><path d="M 6005,1715 L 6005,1635 L 6005,1470 L 6005,1430 L 6005,1390 L 6005,1325 L 6005,1245 L 6005,1145 L 6005,1065 L 6035,1065 L 6035,1145 L 6035,1245 L 6035,1325 L 6035,1390 L 6035,1430 L 6035,1470 L 6035,1635 L 6035,1715 L 6035,1815 L 6035,1895 L 6005,1895 L 6005,1815 Z" /><path d="M 5875,1290 L 5875,1245 L 5875,1145 L 5875,1065 L 5905,1065 L 5905,1145 L 5905,1245 L 5905,1290 L 5905,1325 L 5905,1370 L 5905,1400 L 5875,1400 L 5875,1370 L 5875,1325 Z" /><path d="M 5875,2265 L 5875,2365 L 5875,2410 L 5875,2445 L 5875,2490 L 5875,2520 L 5905,2520 L 5905,2490 L 5905,2445 L 5905,2410 L 5905,2365 L 5905,2265 L 5905,2185 L 5875,2185 Z" /><path d="M 6005,2365 L 6005,2445 L 6005,2610 L 6005,2650 L 6005,2690 L 6005,2755 L 6005,2835 L 6005,2935 L 6005,3015 L 6035,3015 L 6035,2935 L 6035,2835 L 6035,2755 L 6035,2690 L 6035,2650 L 6035,2610 L 6035,2445 L 6035,2365 L 6035,2265 L 6035,2185 L 6005,2185 L 6005,2265 Z" /><path d="M 5875,2790 L 5875,2835 L 5875,2935 L 5875,3015 L 5905,3015 L 5905,2935 L 5905,2835 L 5905,2790 L 5905,2755 L 5905,2710 L 5905,2680 L 5875,2680 L 5875,2710 L 5875,2755 Z" /><path d="M 5355,1815 L 5355,1715 L 5355,1670 L 5355,1635 L 5355,1590 L 5355,1560 L 5385,1560 L 5385,1590 L 5385,1635 L 5385,1670 L 5385,1715 L 5385,1815 L 5385,1895 L 5355,1895 Z" /><path d="M 5485,1715 L 5485,1635 L 5485,1470 L 5485,1430 L 5485,1390 L 5485,1325 L 5485,1245 L 5485,1145 L 5485,1065 L 5515,1065 L 5515,1145 L 5515,1245 L 5515,1325 L 5515,1390 L 5515,1430 L 5515,1470 L 5515,1635 L 5515,1715 L 5515,1815 L 5515,1895 L 5485,1895 L 5485,1815 Z" /><path d="M 5355,1290 L 5355,1245 L 5355,1145 L 5355,1065 L 5385,1065 L 5385,1145 L 5385,1245 L 5385,1290 L 5385,1325 L 5385,1370 L 5385,1400 L 5355,1400 L 5355,1370 L 5355,1325 Z" /><path d="M 5355,2265 L 5355,2365 L 5355,2410 L 5355,2445 L 5355,2490 L 5355,2520 L 5385,2520 L 5385,2490 L 5385,2445 L 5385,2410 L 5385,2365 L 5385,2265 L 5385,2185 L 5355,2185 Z" /><path d="M 5485,2365 L 5485,2445 L 5485,2610 L 5485,2650 L 5485,2690 L 5485,2755 L 5485,2835 L 5485,2935 L 5485,3015 L 5515,3015 L 5515,2935 L 5515,2835 L 5515,2755 L 5515,2690 L 5515,2650 L 5515,2610 L 5515,2445 L 5515,2365 L 5515,2265 L 5515,2185 L 5485,2185 L 5485,2265 Z" /><path d="M 5355,2790 L 5355,2835 L 5355,2935 L 5355,3015 L 5385,3015 L 5385,2935 L 5385,2835 L 5385,2790 L 5385,2755 L 5385,2710 L 5385,2680 L 5355,2680 L 5355,2710 L 5355,2755 Z" /><path d="M 4835,1815 L 4835,1715 L 4835,1670 L 4835,1635 L 4835,1590 L 4835,1560 L 4865,1560 L 4865,1590 L 4865,1635 L 4865,1670 L 4865,1715 L 4865,1815 L 4865,1895 L 4835,1895 Z" /><path d="M 4965,1715 L 4965,1635 L 4965,1470 L 4965,1430 L 4965,1390 L 4965,1325 L 4965,1245 L 4965,1145 L 4965,1065 L 4995,1065 L 4995,1145 L 4995,1245 L 4995,1325 L 4995,1390 L 4995,1430 L 4995,1470 L 4995,1635 L 4995,1715 L 4995,1815 L 4995,1895 L 4965,1895 L 4965,1815 Z" /><path d="M 4835,1290 L 4835,1245 L 4835,1145 L 4835,1065 L 4865,1065 L 4865,1145 L 4865,1245 L 4865,1290 L 4865,1325 L 4865,1370 L 4865,1400 L 4835,1400 L 4835,1370 L 4835,1325 Z" /><path d="M 4835,2265 L 4835,2365 L 4835,2410 L 4835,2445 L 4835,2490 L 4835,2520 L 4865,2520 L 4865,2490 L 4865,2445 L 4865,2410 L 4865,2365 L 4865,2265 L 4865,2185 L 4835,2185 Z" /><path d="M 4965,2365 L 4965,2445 L 4965,2610 L 4965,2650 L 4965,2690 L 4965,2755 L 4965,2835 L 4965,2935 L 4965,3015 L 4995,3015 L 4995,2935 L 4995,2835 L 4995,2755 L 4995,2690 L 4995,2650 L 4995,2610 L 4995,2445 L 4995,2365 L 4995,2265 L 4995,2185 L 4965,2185 L 4965,2265 Z" /><path d="M 4835,2790 L 4835,2835 L 4835,2935 L 4835,3015 L 4865,3015 L 4865,2935 L 4865,2835 L 4865,2790 L 4865,2755 L 4865,2710 L 4865,2680 L 4835,2680 L 4835,2710 L 4835,2755 Z" /><path d="M 4315,1815 L 4315,1715 L 4315,1670 L 4315,1635 L 4315,1590 L 4315,1560 L 4345,1560 L 4345,1590 L 4345,1635 L 4345,1670 L 4345,1715 L 4345,1815 L 4345,1895 L 4315,1895 Z" /><path d="M 4445,1715 L 4445,1635 L 4445,1470 L 4445,1430 L 4445,1390 L 4445,1325 L 4445,1245 L 4445,1145 L 4445,1065 L 4475,1065 L 4475,1145 L 4475,1245 L 4475,1325 L 4475,1390 L 4475,1430 L 4475,1470 L 4475,1635 L 4475,1715 L 4475,1815 L 4475,1895 L 4445,1895 L 4445,1815 Z" /><path d="M 4315,1290 L 4315,1245 L 4315,1145 L 4315,1065 L 4345,1065 L 4345,1145 L 4345,1245 L 4345,1290 L 4345,1325 L 4345,1370 L 4345,1400 L 4315,1400 L 4315,1370 L 4315,1325 Z" /><path d="M 4315,2265 L 4315,2365 L 4315,2410 L 4315,2445 L 4315,2490 L 4315,2520 L 4345,2520 L 4345,2490 L 4345,2445 L 4345,2410 L 4345,2365 L 4345,2265 L 4345,2185 L 4315,2185 Z" /><path d="M 4445,2365 L 4445,2445 L 4445,2610 L 4445,2650 L 4445,2690 L 4445,2755 L 4445,2835 L 4445,2935 L 4445,3015 L 4475,3015 L 4475,2935 L 4475,2835 L 4475,2755 L 4475,2690 L 4475,2650 L 4475,2610 L 4475,2445 L 4475,2365 L 4475,2265 L 4475,2185 L 4445,2185 L 4445,2265 Z" /><path d="M 4315,2790 L 4315,2835 L 4315,2935 L 4315,3015 L 4345,3015 L 4345,2935 L 4345,2835 L 4345,2790 L 4345,2755 L 4345,2710 L 4345,2680 L 4315,2680 L 4315,2710 L 4315,2755 Z" /><path d="M 3795,1815 L 3795,1715 L 3795,1670 L 3795,1635 L 3795,1590 L 3795,1560 L 3825,1560 L 3825,1590 L 3825,1635 L 3825,1670 L 3825,1715 L 3825,1815 L 3825,1895 L 3795,1895 Z" /><path d="M 3925,1715 L 3925,1635 L 3925,1470 L 3925,1430 L 3925,1390 L 3925,1325 L 3925,1245 L 3925,1145 L 3925,1065 L 3955,1065 L 3955,1145 L 3955,1245 L 3955,1325 L 3955,1390 L 3955,1430 L 3955,1470 L 3955,1635 L 3955,1715 L 3955,1815 L 3955,1895 L 3925,1895 L 3925,1815 Z" /><path d="M 3795,1290 L 3795,1245 L 3795,1145 L 3795,1065 L 3825,1065 L 3825,1145 L 3825,1245 L 3825,1290 L 3825,1325 L 3825,1370 L 3825,1400 L 3795,1400 L 3795,1370 L 3795,1325 Z" /><path d="M 3795,2265 L 3795,2365 L 3795,2410 L 3795,2445 L 3795,2490 L 3795,2520 L 3825,2520 L 3825,2490 L 3825,2445 L 3825,2410 L 3825,2365 L 3825,2265 L 3825,2185 L 3795,2185 Z" /><path d="M 3925,2365 L 3925,2445 L 3925,2610 L 3925,2650 L 3925,2690 L 3925,2755 L 3925,2835 L 3925,2935 L 3925,3015 L 3955,3015 L 3955,2935 L 3955,2835 L 3955,2755 L 3955,2690 L 3955,2650 L 3955,2610 L 3955,2445 L 3955,2365 L 3955,2265 L 3955,2185 L 3925,2185 L 3925,2265 Z" /><path d="M 3795,2790 L 3795,2835 L 3795,2935 L 3795,3015 L 3825,3015 L 3825,2935 L 3825,2835 L 3825,2790 L 3825,2755 L 3825,2710 L 3825,2680 L 3795,2680 L 3795,2710 L 3795,2755 Z" /><path d="M 3275,1815 L 3275,1715 L 3275,1670 L 3275,1635 L 3275,1590 L 3275,1560 L 3305,1560 L 3305,1590 L 3305,1635 L 3305,1670 L 3305,1715 L 3305,1815 L 3305,1895 L 3275,1895 Z" /><path d="M 3405,1715 L 3405,1635 L 3405,1470 L 3405,1430 L 3405,1390 L 3405,1325 L 3405,1245 L 3405,1145 L 3405,1065 L 3435,1065 L 3435,1145 L 3435,1245 L 3435,1325 L 3435,1390 L 3435,1430 L 3435,1470 L 3435,1635 L 3435,1715 L 3435,1815 L 3435,1895 L 3405,1895 L 3405,1815 Z" /><path d="M 3275,1290 L 3275,1245 L 3275,1145 L 3275,1065 L 3305,1065 L 3305,1145 L 3305,1245 L 3305,1290 L 3305,1325 L 3305,1370 L 3305,1400 L 3275,1400 L 3275,1370 L 3275,1325 Z" /><path d="M 3275,2265 L 3275,2365 L 3275,2410 L 3275,2445 L 3275,2490 L 3275,2520 L 3305,2520 L 3305,2490 L 3305,2445 L 3305,2410 L 3305,2365 L 3305,2265 L 3305,2185 L 3275,2185 Z" /><path d="M 3405,2365 L 3405,2445 L 3405,2610 L 3405,2650 L 3405,2690 L 3405,2755 L 3405,2835 L 3405,2935 L 3405,3015 L 3435,3015 L 3435,2935 L 3435,2835 L 3435,2755 L 3435,2690 L 3435,2650 L 3435,2610 L 3435,2445 L 3435,2365 L 3435,2265 L 3435,2185 L 3405,2185 L 3405,2265 Z" /><path d="M 3275,2790 L 3275,2835 L 3275,2935 L 3275,3015 L 3305,3015 L 3305,2935 L 3305,2835 L 3305,2790 L 3305,2755 L 3305,2710 L 3305,2680 L 3275,2680 L 3275,2710 L 3275,2755 Z" /><path d="M 2755,1815 L 2755,1715 L 2755,1670 L 2755,1635 L 2755,1590 L 2755,1560 L 2785,1560 L 2785,1590 L 2785,1635 L 2785,1670 L 2785,1715 L 2785,1815 L 2785,1895 L 2755,1895 Z" /><path d="M 2885,1715 L 2885,1635 L 2885,1470 L 2885,1430 L 2885,1390 L 2885,1325 L 2885,1245 L 2885,1145 L 2885,1065 L 2915,1065 L 2915,1145 L 2915,1245 L 2915,1325 L 2915,1390 L 2915,1430 L 2915,1470 L 2915,1635 L 2915,1715 L 2915,1815 L 2915,1895 L 2885,1895 L 2885,1815 Z" /><path d="M 2755,1290 L 2755,1245 L 2755,1145 L 2755,1065 L 2785,1065 L 2785,1145 L 2785,1245 L 2785,1290 L 2785,1325 L 2785,1370 L 2785,1400 L 2755,1400 L 2755,1370 L 2755,1325 Z" /><path d="M 2755,2265 L 2755,2365 L 2755,2410 L 2755,2445 L 2755,2490 L 2755,2520 L 2785,2520 L 2785,2490 L 2785,2445 L 2785,2410 L 2785,2365 L 2785,2265 L 2785,2185 L 2755,2185 Z" /><path d="M 2885,2365 L 2885,2445 L 2885,2610 L 2885,2650 L 2885,2690 L 2885,2755 L 2885,2835 L 2885,2935 L 2885,3015 L 2915,3015 L 2915,2935 L 2915,2835 L 2915,2755 L 2915,2690 L 2915,2650 L 2915,2610 L 2915,2445 L 2915,2365 L 2915,2265 L 2915,2185 L 2885,2185 L 2885,2265 Z" /><path d="M 2755,2790 L 2755,2835 L 2755,2935 L 2755,3015 L 2785,3015 L 2785,2935 L 2785,2835 L 2785,2790 L 2785,2755 L 2785,2710 L 2785,2680 L 2755,2680 L 2755,2710 L 2755,2755 Z" /><path d="M 2235,1815 L 2235,1715 L 2235,1670 L 2235,1635 L 2235,1590 L 2235,1560 L 2265,1560 L 2265,1590 L 2265,1635 L 2265,1670 L 2265,1715 L 2265,1815 L 2265,1895 L 2235,1895 Z" /><path d="M 2365,1715 L 2365,1635 L 2365,1470 L 2365,1430 L 2365,1390 L 2365,1325 L 2365,1245 L 2365,1145 L 2365,1065 L 2395,1065 L 2395,1145 L 2395,1245 L 2395,1325 L 2395,1390 L 2395,1430 L 2395,1470 L 2395,1635 L 2395,1715 L 2395,1815 L 2395,1895 L 2365,1895 L 2365,1815 Z" /><path d="M 2235,1290 L 2235,1245 L 2235,1145 L 2235,1065 L 2265,1065 L 2265,1145 L 2265,1245 L 2265,1290 L 2265,1325 L 2265,1370 L 2265,1400 L 2235,1400 L 2235,1370 L 2235,1325 Z" /><path d="M 2235,2265 L 2235,2365 L 2235,2410 L 2235,2445 L 2235,2490 L 2235,2520 L 2265,2520 L 2265,2490 L 2265,2445 L 2265,2410 L 2265,2365 L 2265,2265 L 2265,2185 L 2235,2185 Z" /><path d="M 2365,2365 L 2365,2445 L 2365,2610 L 2365,2650 L 2365,2690 L 2365,2755 L 2365,2835 L 2365,2935 L 2365,3015 L 2395,3015 L 2395,2935 L 2395,2835 L 2395,2755 L 2395,2690 L 2395,2650 L 2395,2610 L 2395,2445 L 2395,2365 L 2395,2265 L 2395,2185 L 2365,2185 L 2365,2265 Z" /><path d="M 2235,2790 L 2235,2835 L 2235,2935 L 2235,3015 L 2265,3015 L 2265,2935 L 2265,2835 L 2265,2790 L 2265,2755 L 2265,2710 L 2265,2680 L 2235,2680 L 2235,2710 L 2235,2755 Z" /><path d="M 6525,2935 L 6525,3015 L 6555,3015 L 6555,2935 L 6555,2835 L 6555,2755 L 6555,2590 L 6555,2545 L 6555,2510 L 6555,2465 L 6555,2265 L 6555,2185 L 6525,2185 L 6525,2265 L 6525,2465 L 6525,2510 L 6525,2545 L 6525,2590 L 6525,2755 L 6525,2835 Z" /><path d="M 6395,2465 L 6395,2545 L 6395,2710 L 6395,2755 L 6395,2790 L 6395,2835 L 6395,2935 L 6395,3015 L 6425,3015 L 6425,2935 L 6425,2835 L 6425,2790 L 6425,2755 L 6425,2710 L 6425,2545 L 6425,2465 L 6425,2265 L 6425,2185 L 6395,2185 L 6395,2265 Z" /></g><g class="l17d7"><path d="M 6785,2170 L 6815,2170 L 6815,2560 L 6785,2560 Z" /><path d="M 6655,2170 L 6685,2170 L 6685,2560 L 6655,2560 Z" /><path d="M 6785,2690 L 6815,2690 L 6815,3080 L 6785,3080 Z" /><path d="M 6655,2690 L 6685,2690 L 6685,3080 L 6655,3080 Z" /><path d="M 1585,1390 L 1615,1390 L 1615,1000 L 1585,1000 Z" /><path d="M 1715,1390 L 1745,1390 L 1745,1000 L 1715,1000 Z" /><path d="M 1585,1960 L 1615,1960 L 1615,1570 L 1585,1570 Z" /><path d="M 1715,1960 L 1745,1960 L 1745,1570 L 1715,1570 Z" /><path d="M 1585,2690 L 1615,2690 L 1615,3080 L 1585,3080 Z" /><path d="M 1715,2690 L 1745,2690 L 1745,3080 L 1715,3080 Z" /><path d="M 1585,2120 L 1615,2120 L 1615,2510 L 1585,2510 Z" /><path d="M 1715,2120 L 1745,2120 L 1745,2510 L 1715,2510 Z" /><path d="M 6265,1390 L 6295,1390 L 6295,1000 L 6265,1000 Z" /><path d="M 6135,1390 L 6165,1390 L 6165,1000 L 6135,1000 Z" /><path d="M 6265,1960 L 6295,1960 L 6295,1570 L 6265,1570 Z" /><path d="M 6135,1960 L 6165,1960 L 6165,1570 L 6135,1570 Z" /><path d="M 6265,2690 L 6265,3080 L 6295,3080 L 6295,2690 Z" /><path d="M 6135,2690 L 6135,3080 L 6165,3080 L 6165,2690 Z" /><path d="M 6295,2170 L 6295,2120 L 6265,2120 L 6265,2170 L 6265,2510 L 6265,2560 L 6295,2560 L 6295,2510 Z" /><path d="M 6165,2170 L 6165,2120 L 6135,2120 L 6135,2170 L 6135,2510 L 6135,2560 L 6165,2560 L 6165,2510 Z" /><path d="M 5775,1390 L 5775,1000 L 5745,1000 L 5745,1390 Z" /><path d="M 5645,1390 L 5645,1000 L 5615,1000 L 5615,1390 Z" /><path d="M 5775,1960 L 5775,1570 L 5745,1570 L 5745,1960 Z" /><path d="M 5645,1960 L 5645,1570 L 5615,1570 L 5615,1960 Z" /><path d="M 5745,2690 L 5745,3080 L 5775,3080 L 5775,2690 Z" /><path d="M 5615,2690 L 5615,3080 L 5645,3080 L 5645,2690 Z" /><path d="M 5745,2120 L 5745,2510 L 5775,2510 L 5775,2120 Z" /><path d="M 5615,2120 L 5615,2510 L 5645,2510 L 5645,2120 Z" /><path d="M 5255,1390 L 5255,1000 L 5225,1000 L 5225,1390 Z" /><path d="M 5125,1390 L 5125,1000 L 5095,1000 L 5095,1390 Z" /><path d="M 5255,1960 L 5255,1570 L 5225,1570 L 5225,1960 Z" /><path d="M 5125,1960 L 5125,1570 L 5095,1570 L 5095,1960 Z" /><path d="M 5225,2690 L 5225,3080 L 5255,3080 L 5255,2690 Z" /><path d="M 5095,2690 L 5095,3080 L 5125,3080 L 5125,2690 Z" /><path d="M 5225,2120 L 5225,2510 L 5255,2510 L 5255,2120 Z" /><path d="M 5095,2120 L 5095,2510 L 5125,2510 L 5125,2120 Z" /><path d="M 4735,1390 L 4735,1000 L 4705,1000 L 4705,1390 Z" /><path d="M 4605,1390 L 4605,1000 L 4575,1000 L 4575,1390 Z" /><path d="M 4735,1960 L 4735,1570 L 4705,1570 L 4705,1960 Z" /><path d="M 4605,1960 L 4605,1570 L 4575,1570 L 4575,1960 Z" /><path d="M 4705,2690 L 4705,3080 L 4735,3080 L 4735,2690 Z" /><path d="M 4575,2690 L 4575,3080 L 4605,3080 L 4605,2690 Z" /><path d="M 4705,2120 L 4705,2510 L 4735,2510 L 4735,2120 Z" /><path d="M 4575,2120 L 4575,2510 L 4605,2510 L 4605,2120 Z" /><path d="M 4215,1390 L 4215,1000 L 4185,1000 L 4185,1390 Z" /><path d="M 4085,1390 L 4085,1000 L 4055,1000 L 4055,1390 Z" /><path d="M 4215,1960 L 4215,1570 L 4185,1570 L 4185,1960 Z" /><path d="M 4085,1960 L 4085,1570 L 4055,1570 L 4055,1960 Z" /><path d="M 4185,2690 L 4185,3080 L 4215,3080 L 4215,2690 Z" /><path d="M 4055,2690 L 4055,3080 L 4085,3080 L 4085,2690 Z" /><path d="M 4185,2120 L 4185,2510 L 4215,2510 L 4215,2120 Z" /><path d="M 4055,2120 L 4055,2510 L 4085,2510 L 4085,2120 Z" /><path d="M 3695,1390 L 3695,1000 L 3665,1000 L 3665,1390 Z" /><path d="M 3565,1390 L 3565,1000 L 3535,1000 L 3535,1390 Z" /><path d="M 3695,1960 L 3695,1570 L 3665,1570 L 3665,1960 Z" /><path d="M 3565,1960 L 3565,1570 L 3535,1570 L 3535,1960 Z" /><path d="M 3665,2690 L 3665,3080 L 3695,3080 L 3695,2690 Z" /><path d="M 3535,2690 L 3535,3080 L 3565,3080 L 3565,2690 Z" /><path d="M 3665,2120 L 3665,2510 L 3695,2510 L 3695,2120 Z" /><path d="M 3535,2120 L 3535,2510 L 3565,2510 L 3565,2120 Z" /><path d="M 3175,1390 L 3175,1000 L 3145,1000 L 3145,1390 Z" /><path d="M 3045,1390 L 3045,1000 L 3015,1000 L 3015,1390 Z" /><path d="M 3175,1960 L 3175,1570 L 3145,1570 L 3145,1960 Z" /><path d="M 3045,1960 L 3045,1570 L 3015,1570 L 3015,1960 Z" /><path d="M 3145,2690 L 3145,3080 L 3175,3080 L 3175,2690 Z" /><path d="M 3015,2690 L 3015,3080 L 3045,3080 L 3045,2690 Z" /><path d="M 3145,2120 L 3145,2510 L 3175,2510 L 3175,2120 Z" /><path d="M 3015,2120 L 3015,2510 L 3045,2510 L 3045,2120 Z" /><path d="M 2005,1960 L 2005,1570 L 1975,1570 L 1975,1960 Z" /><path d="M 2135,1960 L 2135,1570 L 2105,1570 L 2105,1960 Z" /><path d="M 2005,1390 L 2005,1000 L 1975,1000 L 1975,1390 Z" /><path d="M 2135,1390 L 2135,1000 L 2105,1000 L 2105,1390 Z" /><path d="M 2655,1390 L 2655,1000 L 2625,1000 L 2625,1390 Z" /><path d="M 2525,1390 L 2525,1000 L 2495,1000 L 2495,1390 Z" /><path d="M 2655,1960 L 2655,1570 L 2625,1570 L 2625,1960 Z" /><path d="M 2525,1960 L 2525,1570 L 2495,1570 L 2495,1960 Z" /><path d="M 1975,2120 L 1975,2510 L 2005,2510 L 2005,2120 Z" /><path d="M 2105,2120 L 2105,2510 L 2135,2510 L 2135,2120 Z" /><path d="M 1975,2690 L 1975,3080 L 2005,3080 L 2005,2690 Z" /><path d="M 2105,2690 L 2105,3080 L 2135,3080 L 2135,2690 Z" /><path d="M 2625,2690 L 2625,3080 L 2655,3080 L 2655,2690 Z" /><path d="M 2495,2690 L 2495,3080 L 2525,3080 L 2525,2690 Z" /><path d="M 2625,2120 L 2625,2510 L 2655,2510 L 2655,2120 Z" /><path d="M 2495,2120 L 2495,2510 L 2525,2510 L 2525,2120 Z" /></g></g><g id="CO"><g class="l30d0"><path d="M 6715,900 L 6755,900 L 6755,940 L 6715,940 Z" /><path d="M 6585,900 L 6625,900 L 6625,940 L 6585,940 Z" /><path d="M 6455,900 L 6495,900 L 6495,940 L 6455,940 Z" /><path d="M 6325,900 L 6365,900 L 6365,940 L 6325,940 Z" /><path d="M 6715,3140 L 6755,3140 L 6755,3180 L 6715,3180 Z" /><path d="M 6585,3140 L 6625,3140 L 6625,3180 L 6585,3180 Z" /><path d="M 6455,3140 L 6495,3140 L 6495,3180 L 6455,3180 Z" /><path d="M 6325,3140 L 6365,3140 L 6365,3180 L 6325,3180 Z" /><path d="M 6325,2865 L 6365,2865 L 6365,2905 L 6325,2905 Z" /><path d="M 6585,2345 L 6625,2345 L 6625,2385 L 6585,2385 Z" /><path d="M 6455,2865 L 6495,2865 L 6495,2905 L 6455,2905 Z" /><path d="M 6585,2865 L 6625,2865 L 6625,2905 L 6585,2905 Z" /><path d="M 6325,2345 L 6365,2345 L 6365,2385 L 6325,2385 Z" /><path d="M 6715,2020 L 6755,2020 L 6755,2060 L 6715,2060 Z" /><path d="M 6585,2020 L 6625,2020 L 6625,2060 L 6585,2060 Z" /><path d="M 6455,2020 L 6495,2020 L 6495,2060 L 6455,2060 Z" /><path d="M 6325,2020 L 6365,2020 L 6365,2060 L 6325,2060 Z" /><path d="M 1645,940 L 1685,940 L 1685,900 L 1645,900 Z" /><path d="M 1775,940 L 1815,940 L 1815,900 L 1775,900 Z" /><path d="M 1905,940 L 1945,940 L 1945,900 L 1905,900 Z" /><path d="M 1905,1215 L 1945,1215 L 1945,1175 L 1905,1175 Z" /><path d="M 1775,1215 L 1815,1215 L 1815,1175 L 1775,1175 Z" /><path d="M 1905,1785 L 1945,1785 L 1945,1745 L 1905,1745 Z" /><path d="M 1775,1785 L 1815,1785 L 1815,1745 L 1775,1745 Z" /><path d="M 1840,1450 L 1880,1450 L 1880,1410 L 1840,1410 Z" /><path d="M 1685,2060 L 1685,2020 L 1645,2020 L 1645,2060 Z" /><path d="M 1815,2060 L 1815,2020 L 1775,2020 L 1775,2060 Z" /><path d="M 1945,2060 L 1945,2020 L 1905,2020 L 1905,2060 Z" /><path d="M 1645,3140 L 1685,3140 L 1685,3180 L 1645,3180 Z" /><path d="M 1775,3140 L 1815,3140 L 1815,3180 L 1775,3180 Z" /><path d="M 1905,3140 L 1945,3140 L 1945,3180 L 1905,3180 Z" /><path d="M 1905,2865 L 1945,2865 L 1945,2905 L 1905,2905 Z" /><path d="M 1775,2865 L 1815,2865 L 1815,2905 L 1775,2905 Z" /><path d="M 1905,2295 L 1945,2295 L 1945,2335 L 1905,2335 Z" /><path d="M 1775,2295 L 1815,2295 L 1815,2335 L 1775,2335 Z" /><path d="M 1840,2630 L 1880,2630 L 1880,2670 L 1840,2670 Z" /><path d="M 6195,900 L 6195,940 L 6235,940 L 6235,900 Z" /><path d="M 6065,940 L 6105,940 L 6105,900 L 6065,900 Z" /><path d="M 5935,940 L 5975,940 L 5975,900 L 5935,900 Z" /><path d="M 5805,940 L 5845,940 L 5845,900 L 5805,900 Z" /><path d="M 5805,1785 L 5845,1785 L 5845,1745 L 5805,1745 Z" /><path d="M 5805,1215 L 5845,1215 L 5845,1175 L 5805,1175 Z" /><path d="M 6065,1215 L 6105,1215 L 6105,1175 L 6065,1175 Z" /><path d="M 6065,1785 L 6105,1785 L 6105,1745 L 6065,1745 Z" /><path d="M 5870,1650 L 5910,1650 L 5910,1610 L 5870,1610 Z" /><path d="M 6000,1450 L 6040,1450 L 6040,1410 L 6000,1410 Z" /><path d="M 5870,1350 L 5910,1350 L 5910,1310 L 5870,1310 Z" /><path d="M 6195,2020 L 6195,2060 L 6235,2060 L 6235,2020 Z" /><path d="M 6105,2060 L 6105,2020 L 6065,2020 L 6065,2060 Z" /><path d="M 5975,2060 L 5975,2020 L 5935,2020 L 5935,2060 Z" /><path d="M 5845,2060 L 5845,2020 L 5805,2020 L 5805,2060 Z" /><path d="M 6195,3140 L 6195,3180 L 6235,3180 L 6235,3140 Z" /><path d="M 6065,3140 L 6105,3140 L 6105,3180 L 6065,3180 Z" /><path d="M 5935,3140 L 5975,3140 L 5975,3180 L 5935,3180 Z" /><path d="M 5805,3140 L 5845,3140 L 5845,3180 L 5805,3180 Z" /><path d="M 5805,2295 L 5845,2295 L 5845,2335 L 5805,2335 Z" /><path d="M 5805,2865 L 5845,2865 L 5845,2905 L 5805,2905 Z" /><path d="M 6065,2865 L 6105,2865 L 6105,2905 L 6065,2905 Z" /><path d="M 6065,2295 L 6105,2295 L 6105,2335 L 6065,2335 Z" /><path d="M 5870,2430 L 5910,2430 L 5910,2470 L 5870,2470 Z" /><path d="M 6000,2630 L 6040,2630 L 6040,2670 L 6000,2670 Z" /><path d="M 5870,2730 L 5910,2730 L 5910,2770 L 5870,2770 Z" /><path d="M 5715,940 L 5715,900 L 5675,900 L 5675,940 Z" /><path d="M 5545,940 L 5585,940 L 5585,900 L 5545,900 Z" /><path d="M 5415,940 L 5455,940 L 5455,900 L 5415,900 Z" /><path d="M 5285,940 L 5325,940 L 5325,900 L 5285,900 Z" /><path d="M 5285,1785 L 5325,1785 L 5325,1745 L 5285,1745 Z" /><path d="M 5285,1215 L 5325,1215 L 5325,1175 L 5285,1175 Z" /><path d="M 5545,1215 L 5585,1215 L 5585,1175 L 5545,1175 Z" /><path d="M 5545,1785 L 5585,1785 L 5585,1745 L 5545,1745 Z" /><path d="M 5350,1650 L 5390,1650 L 5390,1610 L 5350,1610 Z" /><path d="M 5480,1450 L 5520,1450 L 5520,1410 L 5480,1410 Z" /><path d="M 5350,1350 L 5390,1350 L 5390,1310 L 5350,1310 Z" /><path d="M 5675,2020 L 5675,2060 L 5715,2060 L 5715,2020 Z" /><path d="M 5585,2060 L 5585,2020 L 5545,2020 L 5545,2060 Z" /><path d="M 5455,2060 L 5455,2020 L 5415,2020 L 5415,2060 Z" /><path d="M 5325,2060 L 5325,2020 L 5285,2020 L 5285,2060 Z" /><path d="M 5675,3140 L 5675,3180 L 5715,3180 L 5715,3140 Z" /><path d="M 5545,3140 L 5585,3140 L 5585,3180 L 5545,3180 Z" /><path d="M 5415,3140 L 5455,3140 L 5455,3180 L 5415,3180 Z" /><path d="M 5285,3140 L 5325,3140 L 5325,3180 L 5285,3180 Z" /><path d="M 5285,2295 L 5325,2295 L 5325,2335 L 5285,2335 Z" /><path d="M 5285,2865 L 5325,2865 L 5325,2905 L 5285,2905 Z" /><path d="M 5545,2865 L 5585,2865 L 5585,2905 L 5545,2905 Z" /><path d="M 5545,2295 L 5585,2295 L 5585,2335 L 5545,2335 Z" /><path d="M 5350,2430 L 5390,2430 L 5390,2470 L 5350,2470 Z" /><path d="M 5480,2630 L 5520,2630 L 5520,2670 L 5480,2670 Z" /><path d="M 5350,2730 L 5390,2730 L 5390,2770 L 5350,2770 Z" /><path d="M 5195,940 L 5195,900 L 5155,900 L 5155,940 Z" /><path d="M 5025,940 L 5065,940 L 5065,900 L 5025,900 Z" /><path d="M 4895,940 L 4935,940 L 4935,900 L 4895,900 Z" /><path d="M 4765,940 L 4805,940 L 4805,900 L 4765,900 Z" /><path d="M 4765,1785 L 4805,1785 L 4805,1745 L 4765,1745 Z" /><path d="M 4765,1215 L 4805,1215 L 4805,1175 L 4765,1175 Z" /><path d="M 5025,1215 L 5065,1215 L 5065,1175 L 5025,1175 Z" /><path d="M 5025,1785 L 5065,1785 L 5065,1745 L 5025,1745 Z" /><path d="M 4830,1650 L 4870,1650 L 4870,1610 L 4830,1610 Z" /><path d="M 4960,1450 L 5000,1450 L 5000,1410 L 4960,1410 Z" /><path d="M 4830,1350 L 4870,1350 L 4870,1310 L 4830,1310 Z" /><path d="M 5155,2020 L 5155,2060 L 5195,2060 L 5195,2020 Z" /><path d="M 5065,2060 L 5065,2020 L 5025,2020 L 5025,2060 Z" /><path d="M 4935,2060 L 4935,2020 L 4895,2020 L 4895,2060 Z" /><path d="M 4805,2060 L 4805,2020 L 4765,2020 L 4765,2060 Z" /><path d="M 5155,3140 L 5155,3180 L 5195,3180 L 5195,3140 Z" /><path d="M 5025,3140 L 5065,3140 L 5065,3180 L 5025,3180 Z" /><path d="M 4895,3140 L 4935,3140 L 4935,3180 L 4895,3180 Z" /><path d="M 4765,3140 L 4805,3140 L 4805,3180 L 4765,3180 Z" /><path d="M 4765,2295 L 4805,2295 L 4805,2335 L 4765,2335 Z" /><path d="M 4765,2865 L 4805,2865 L 4805,2905 L 4765,2905 Z" /><path d="M 5025,2865 L 5065,2865 L 5065,2905 L 5025,2905 Z" /><path d="M 5025,2295 L 5065,2295 L 5065,2335 L 5025,2335 Z" /><path d="M 4830,2430 L 4870,2430 L 4870,2470 L 4830,2470 Z" /><path d="M 4960,2630 L 5000,2630 L 5000,2670 L 4960,2670 Z" /><path d="M 4830,2730 L 4870,2730 L 4870,2770 L 4830,2770 Z" /><path d="M 4675,940 L 4675,900 L 4635,900 L 4635,940 Z" /><path d="M 4505,940 L 4545,940 L 4545,900 L 4505,900 Z" /><path d="M 4375,940 L 4415,940 L 4415,900 L 4375,900 Z" /><path d="M 4245,940 L 4285,940 L 4285,900 L 4245,900 Z" /><path d="M 4245,1785 L 4285,1785 L 4285,1745 L 4245,1745 Z" /><path d="M 4245,1215 L 4285,1215 L 4285,1175 L 4245,1175 Z" /><path d="M 4505,1215 L 4545,1215 L 4545,1175 L 4505,1175 Z" /><path d="M 4505,1785 L 4545,1785 L 4545,1745 L 4505,1745 Z" /><path d="M 4310,1650 L 4350,1650 L 4350,1610 L 4310,1610 Z" /><path d="M 4440,1450 L 4480,1450 L 4480,1410 L 4440,1410 Z" /><path d="M 4310,1350 L 4350,1350 L 4350,1310 L 4310,1310 Z" /><path d="M 4635,2020 L 4635,2060 L 4675,2060 L 4675,2020 Z" /><path d="M 4545,2060 L 4545,2020 L 4505,2020 L 4505,2060 Z" /><path d="M 4415,2060 L 4415,2020 L 4375,2020 L 4375,2060 Z" /><path d="M 4285,2060 L 4285,2020 L 4245,2020 L 4245,2060 Z" /><path d="M 4635,3140 L 4635,3180 L 4675,3180 L 4675,3140 Z" /><path d="M 4505,3140 L 4545,3140 L 4545,3180 L 4505,3180 Z" /><path d="M 4375,3140 L 4415,3140 L 4415,3180 L 4375,3180 Z" /><path d="M 4245,3140 L 4285,3140 L 4285,3180 L 4245,3180 Z" /><path d="M 4245,2295 L 4285,2295 L 4285,2335 L 4245,2335 Z" /><path d="M 4245,2865 L 4285,2865 L 4285,2905 L 4245,2905 Z" /><path d="M 4505,2865 L 4545,2865 L 4545,2905 L 4505,2905 Z" /><path d="M 4505,2295 L 4545,2295 L 4545,2335 L 4505,2335 Z" /><path d="M 4310,2430 L 4350,2430 L 4350,2470 L 4310,2470 Z" /><path d="M 4440,2630 L 4480,2630 L 4480,2670 L 4440,2670 Z" /><path d="M 4310,2730 L 4350,2730 L 4350,2770 L 4310,2770 Z" /><path d="M 4155,940 L 4155,900 L 4115,900 L 4115,940 Z" /><path d="M 3985,940 L 4025,940 L 4025,900 L 3985,900 Z" /><path d="M 3855,940 L 3895,940 L 3895,900 L 3855,900 Z" /><path d="M 3725,940 L 3765,940 L 3765,900 L 3725,900 Z" /><path d="M 3725,1785 L 3765,1785 L 3765,1745 L 3725,1745 Z" /><path d="M 3725,1215 L 3765,1215 L 3765,1175 L 3725,1175 Z" /><path d="M 3985,1215 L 4025,1215 L 4025,1175 L 3985,1175 Z" /><path d="M 3985,1785 L 4025,1785 L 4025,1745 L 3985,1745 Z" /><path d="M 3790,1650 L 3830,1650 L 3830,1610 L 3790,1610 Z" /><path d="M 3920,1450 L 3960,1450 L 3960,1410 L 3920,1410 Z" /><path d="M 3790,1350 L 3830,1350 L 3830,1310 L 3790,1310 Z" /><path d="M 4115,2020 L 4115,2060 L 4155,2060 L 4155,2020 Z" /><path d="M 4025,2060 L 4025,2020 L 3985,2020 L 3985,2060 Z" /><path d="M 3895,2060 L 3895,2020 L 3855,2020 L 3855,2060 Z" /><path d="M 3765,2060 L 3765,2020 L 3725,2020 L 3725,2060 Z" /><path d="M 4115,3140 L 4115,3180 L 4155,3180 L 4155,3140 Z" /><path d="M 3985,3140 L 4025,3140 L 4025,3180 L 3985,3180 Z" /><path d="M 3855,3140 L 3895,3140 L 3895,3180 L 3855,3180 Z" /><path d="M 3725,3140 L 3765,3140 L 3765,3180 L 3725,3180 Z" /><path d="M 3725,2295 L 3765,2295 L 3765,2335 L 3725,2335 Z" /><path d="M 3725,2865 L 3765,2865 L 3765,2905 L 3725,2905 Z" /><path d="M 3985,2865 L 4025,2865 L 4025,2905 L 3985,2905 Z" /><path d="M 3985,2295 L 4025,2295 L 4025,2335 L 3985,2335 Z" /><path d="M 3790,2430 L 3830,2430 L 3830,2470 L 3790,2470 Z" /><path d="M 3920,2630 L 3960,2630 L 3960,2670 L 3920,2670 Z" /><path d="M 3790,2730 L 3830,2730 L 3830,2770 L 3790,2770 Z" /><path d="M 3635,940 L 3635,900 L 3595,900 L 3595,940 Z" /><path d="M 3465,940 L 3505,940 L 3505,900 L 3465,900 Z" /><path d="M 3335,940 L 3375,940 L 3375,900 L 3335,900 Z" /><path d="M 3205,940 L 3245,940 L 3245,900 L 3205,900 Z" /><path d="M 3205,1785 L 3245,1785 L 3245,1745 L 3205,1745 Z" /><path d="M 3205,1215 L 3245,1215 L 3245,1175 L 3205,1175 Z" /><path d="M 3465,1215 L 3505,1215 L 3505,1175 L 3465,1175 Z" /><path d="M 3465,1785 L 3505,1785 L 3505,1745 L 3465,1745 Z" /><path d="M 3270,1650 L 3310,1650 L 3310,1610 L 3270,1610 Z" /><path d="M 3400,1450 L 3440,1450 L 3440,1410 L 3400,1410 Z" /><path d="M 3270,1350 L 3310,1350 L 3310,1310 L 3270,1310 Z" /><path d="M 3595,2020 L 3595,2060 L 3635,2060 L 3635,2020 Z" /><path d="M 3505,2060 L 3505,2020 L 3465,2020 L 3465,2060 Z" /><path d="M 3375,2060 L 3375,2020 L 3335,2020 L 3335,2060 Z" /><path d="M 3245,2060 L 3245,2020 L 3205,2020 L 3205,2060 Z" /><path d="M 3595,3140 L 3595,3180 L 3635,3180 L 3635,3140 Z" /><path d="M 3465,3140 L 3505,3140 L 3505,3180 L 3465,3180 Z" /><path d="M 3335,3140 L 3375,3140 L 3375,3180 L 3335,3180 Z" /><path d="M 3205,3140 L 3245,3140 L 3245,3180 L 3205,3180 Z" /><path d="M 3205,2295 L 3245,2295 L 3245,2335 L 3205,2335 Z" /><path d="M 3205,2865 L 3245,2865 L 3245,2905 L 3205,2905 Z" /><path d="M 3465,2865 L 3505,2865 L 3505,2905 L 3465,2905 Z" /><path d="M 3465,2295 L 3505,2295 L 3505,2335 L 3465,2335 Z" /><path d="M 3270,2430 L 3310,2430 L 3310,2470 L 3270,2470 Z" /><path d="M 3400,2630 L 3440,2630 L 3440,2670 L 3400,2670 Z" /><path d="M 3270,2730 L 3310,2730 L 3310,2770 L 3270,2770 Z" /><path d="M 3115,940 L 3115,900 L 3075,900 L 3075,940 Z" /><path d="M 2945,940 L 2985,940 L 2985,900 L 2945,900 Z" /><path d="M 2815,940 L 2855,940 L 2855,900 L 2815,900 Z" /><path d="M 2685,940 L 2725,940 L 2725,900 L 2685,900 Z" /><path d="M 2685,1785 L 2725,1785 L 2725,1745 L 2685,1745 Z" /><path d="M 2685,1215 L 2725,1215 L 2725,1175 L 2685,1175 Z" /><path d="M 2945,1215 L 2985,1215 L 2985,1175 L 2945,1175 Z" /><path d="M 2945,1785 L 2985,1785 L 2985,1745 L 2945,1745 Z" /><path d="M 2750,1650 L 2790,1650 L 2790,1610 L 2750,1610 Z" /><path d="M 2880,1450 L 2920,1450 L 2920,1410 L 2880,1410 Z" /><path d="M 2750,1350 L 2790,1350 L 2790,1310 L 2750,1310 Z" /><path d="M 3075,2020 L 3075,2060 L 3115,2060 L 3115,2020 Z" /><path d="M 2985,2060 L 2985,2020 L 2945,2020 L 2945,2060 Z" /><path d="M 2855,2060 L 2855,2020 L 2815,2020 L 2815,2060 Z" /><path d="M 2725,2060 L 2725,2020 L 2685,2020 L 2685,2060 Z" /><path d="M 3075,3140 L 3075,3180 L 3115,3180 L 3115,3140 Z" /><path d="M 2945,3140 L 2985,3140 L 2985,3180 L 2945,3180 Z" /><path d="M 2815,3140 L 2855,3140 L 2855,3180 L 2815,3180 Z" /><path d="M 2685,3140 L 2725,3140 L 2725,3180 L 2685,3180 Z" /><path d="M 2685,2295 L 2725,2295 L 2725,2335 L 2685,2335 Z" /><path d="M 2685,2865 L 2725,2865 L 2725,2905 L 2685,2905 Z" /><path d="M 2945,2865 L 2985,2865 L 2985,2905 L 2945,2905 Z" /><path d="M 2945,2295 L 2985,2295 L 2985,2335 L 2945,2335 Z" /><path d="M 2750,2430 L 2790,2430 L 2790,2470 L 2750,2470 Z" /><path d="M 2880,2630 L 2920,2630 L 2920,2670 L 2880,2670 Z" /><path d="M 2750,2730 L 2790,2730 L 2790,2770 L 2750,2770 Z" /><path d="M 2595,940 L 2595,900 L 2555,900 L 2555,940 Z" /><path d="M 2425,940 L 2465,940 L 2465,900 L 2425,900 Z" /><path d="M 2295,940 L 2335,940 L 2335,900 L 2295,900 Z" /><path d="M 2165,940 L 2205,940 L 2205,900 L 2165,900 Z" /><path d="M 2075,940 L 2075,900 L 2035,900 L 2035,940 Z" /><path d="M 2165,1785 L 2205,1785 L 2205,1745 L 2165,1745 Z" /><path d="M 2165,1215 L 2205,1215 L 2205,1175 L 2165,1175 Z" /><path d="M 2425,1215 L 2465,1215 L 2465,1175 L 2425,1175 Z" /><path d="M 2425,1785 L 2465,1785 L 2465,1745 L 2425,1745 Z" /><path d="M 2230,1650 L 2270,1650 L 2270,1610 L 2230,1610 Z" /><path d="M 2360,1450 L 2400,1450 L 2400,1410 L 2360,1410 Z" /><path d="M 2230,1350 L 2270,1350 L 2270,1310 L 2230,1310 Z" /><path d="M 2555,2020 L 2555,2060 L 2595,2060 L 2595,2020 Z" /><path d="M 2465,2060 L 2465,2020 L 2425,2020 L 2425,2060 Z" /><path d="M 2335,2060 L 2335,2020 L 2295,2020 L 2295,2060 Z" /><path d="M 2205,2060 L 2205,2020 L 2165,2020 L 2165,2060 Z" /><path d="M 2035,2020 L 2035,2060 L 2075,2060 L 2075,2020 Z" /><path d="M 2555,3140 L 2555,3180 L 2595,3180 L 2595,3140 Z" /><path d="M 2425,3140 L 2465,3140 L 2465,3180 L 2425,3180 Z" /><path d="M 2295,3140 L 2335,3140 L 2335,3180 L 2295,3180 Z" /><path d="M 2165,3140 L 2205,3140 L 2205,3180 L 2165,3180 Z" /><path d="M 2035,3140 L 2035,3180 L 2075,3180 L 2075,3140 Z" /><path d="M 2165,2295 L 2205,2295 L 2205,2335 L 2165,2335 Z" /><path d="M 2165,2865 L 2205,2865 L 2205,2905 L 2165,2905 Z" /><path d="M 2425,2865 L 2465,2865 L 2465,2905 L 2425,2905 Z" /><path d="M 2425,2295 L 2465,2295 L 2465,2335 L 2425,2335 Z" /><path d="M 2230,2430 L 2270,2430 L 2270,2470 L 2230,2470 Z" /><path d="M 2360,2630 L 2400,2630 L 2400,2670 L 2360,2670 Z" /><path d="M 2230,2730 L 2270,2730 L 2270,2770 L 2230,2770 Z" /><path d="M 345,3645 L 385,3645 L 385,3685 L 345,3685 Z" /><path d="M 345,3515 L 385,3515 L 385,3555 L 345,3555 Z" /><path d="M 345,3385 L 385,3385 L 385,3425 L 345,3425 Z" /><path d="M 345,3255 L 385,3255 L 385,3295 L 345,3295 Z" /><path d="M 345,3125 L 385,3125 L 385,3165 L 345,3165 Z" /><path d="M 345,2995 L 385,2995 L 385,3035 L 345,3035 Z" /><path d="M 345,2865 L 385,2865 L 385,2905 L 345,2905 Z" /><path d="M 345,2735 L 385,2735 L 385,2775 L 345,2775 Z" /><path d="M 345,2605 L 385,2605 L 385,2645 L 345,2645 Z" /><path d="M 345,2475 L 385,2475 L 385,2515 L 345,2515 Z" /><path d="M 345,2345 L 385,2345 L 385,2385 L 345,2385 Z" /><path d="M 345,2215 L 385,2215 L 385,2255 L 345,2255 Z" /><path d="M 345,2085 L 385,2085 L 385,2125 L 345,2125 Z" /><path d="M 345,1955 L 385,1955 L 385,1995 L 345,1995 Z" /><path d="M 345,1825 L 385,1825 L 385,1865 L 345,1865 Z" /><path d="M 345,1695 L 385,1695 L 385,1735 L 345,1735 Z" /><path d="M 345,1565 L 385,1565 L 385,1605 L 345,1605 Z" /><path d="M 345,1435 L 385,1435 L 385,1475 L 345,1475 Z" /><path d="M 345,1305 L 385,1305 L 385,1345 L 345,1345 Z" /><path d="M 345,1175 L 385,1175 L 385,1215 L 345,1215 Z" /><path d="M 345,1045 L 385,1045 L 385,1085 L 345,1085 Z" /><path d="M 345,915 L 385,915 L 385,955 L 345,955 Z" /><path d="M 345,785 L 385,785 L 385,825 L 345,825 Z" /><path d="M 345,655 L 385,655 L 385,695 L 345,695 Z" /><path d="M 345,525 L 385,525 L 385,565 L 345,565 Z" /><path d="M 345,395 L 385,395 L 385,435 L 345,435 Z" /><path d="M 8015,3645 L 8055,3645 L 8055,3685 L 8015,3685 Z" /><path d="M 8015,3515 L 8055,3515 L 8055,3555 L 8015,3555 Z" /><path d="M 8015,3385 L 8055,3385 L 8055,3425 L 8015,3425 Z" /><path d="M 8015,3255 L 8055,3255 L 8055,3295 L 8015,3295 Z" /><path d="M 8015,3125 L 8055,3125 L 8055,3165 L 8015,3165 Z" /><path d="M 8015,2995 L 8055,2995 L 8055,3035 L 8015,3035 Z" /><path d="M 8015,2865 L 8055,2865 L 8055,2905 L 8015,2905 Z" /><path d="M 8015,2735 L 8055,2735 L 8055,2775 L 8015,2775 Z" /><path d="M 8015,2605 L 8055,2605 L 8055,2645 L 8015,2645 Z" /><path d="M 8015,2475 L 8055,2475 L 8055,2515 L 8015,2515 Z" /><path d="M 8015,2345 L 8055,2345 L 8055,2385 L 8015,2385 Z" /><path d="M 8015,2215 L 8055,2215 L 8055,2255 L 8015,2255 Z" /><path d="M 8015,2085 L 8055,2085 L 8055,2125 L 8015,2125 Z" /><path d="M 8015,1955 L 8055,1955 L 8055,1995 L 8015,1995 Z" /><path d="M 8015,1825 L 8055,1825 L 8055,1865 L 8015,1865 Z" /><path d="M 8015,1695 L 8055,1695 L 8055,1735 L 8015,1735 Z" /><path d="M 8015,1565 L 8055,1565 L 8055,1605 L 8015,1605 Z" /><path d="M 8015,1435 L 8055,1435 L 8055,1475 L 8015,1475 Z" /><path d="M 8015,1305 L 8055,1305 L 8055,1345 L 8015,1345 Z" /><path d="M 8015,1175 L 8055,1175 L 8055,1215 L 8015,1215 Z" /><path d="M 8015,1045 L 8055,1045 L 8055,1085 L 8015,1085 Z" /><path d="M 8015,915 L 8055,915 L 8055,955 L 8015,955 Z" /><path d="M 8015,785 L 8055,785 L 8055,825 L 8015,825 Z" /><path d="M 8015,655 L 8055,655 L 8055,695 L 8015,695 Z" /><path d="M 8015,525 L 8055,525 L 8055,565 L 8015,565 Z" /><path d="M 8015,395 L 8055,395 L 8055,435 L 8015,435 Z" /><path d="M 8015,265 L 8015,305 L 8055,305 L 8055,265 Z" /><path d="M 7885,265 L 7925,265 L 7925,305 L 7885,305 Z" /><path d="M 7755,265 L 7795,265 L 7795,305 L 7755,305 Z" /><path d="M 7625,265 L 7665,265 L 7665,305 L 7625,305 Z" /><path d="M 7495,265 L 7535,265 L 7535,305 L 7495,305 Z" /><path d="M 7365,265 L 7405,265 L 7405,305 L 7365,305 Z" /><path d="M 7235,265 L 7275,265 L 7275,305 L 7235,305 Z" /><path d="M 7105,265 L 7145,265 L 7145,305 L 7105,305 Z" /><path d="M 6975,265 L 7015,265 L 7015,305 L 6975,305 Z" /><path d="M 6845,265 L 6885,265 L 6885,305 L 6845,305 Z" /><path d="M 6715,265 L 6755,265 L 6755,305 L 6715,305 Z" /><path d="M 6585,265 L 6625,265 L 6625,305 L 6585,305 Z" /><path d="M 6455,265 L 6495,265 L 6495,305 L 6455,305 Z" /><path d="M 6325,265 L 6365,265 L 6365,305 L 6325,305 Z" /><path d="M 6195,265 L 6235,265 L 6235,305 L 6195,305 Z" /><path d="M 6065,265 L 6105,265 L 6105,305 L 6065,305 Z" /><path d="M 5935,265 L 5975,265 L 5975,305 L 5935,305 Z" /><path d="M 5805,265 L 5845,265 L 5845,305 L 5805,305 Z" /><path d="M 5675,265 L 5715,265 L 5715,305 L 5675,305 Z" /><path d="M 5545,265 L 5585,265 L 5585,305 L 5545,305 Z" /><path d="M 5415,265 L 5455,265 L 5455,305 L 5415,305 Z" /><path d="M 5285,265 L 5325,265 L 5325,305 L 5285,305 Z" /><path d="M 5155,265 L 5195,265 L 5195,305 L 5155,305 Z" /><path d="M 5025,265 L 5065,265 L 5065,305 L 5025,305 Z" /><path d="M 4895,265 L 4935,265 L 4935,305 L 4895,305 Z" /><path d="M 4765,265 L 4805,265 L 4805,305 L 4765,305 Z" /><path d="M 4635,265 L 4675,265 L 4675,305 L 4635,305 Z" /><path d="M 4505,265 L 4545,265 L 4545,305 L 4505,305 Z" /><path d="M 4375,265 L 4415,265 L 4415,305 L 4375,305 Z" /><path d="M 4245,265 L 4285,265 L 4285,305 L 4245,305 Z" /><path d="M 4115,265 L 4155,265 L 4155,305 L 4115,305 Z" /><path d="M 3985,265 L 4025,265 L 4025,305 L 3985,305 Z" /><path d="M 3855,265 L 3895,265 L 3895,305 L 3855,305 Z" /><path d="M 3725,265 L 3765,265 L 3765,305 L 3725,305 Z" /><path d="M 3595,265 L 3635,265 L 3635,305 L 3595,305 Z" /><path d="M 3465,265 L 3505,265 L 3505,305 L 3465,305 Z" /><path d="M 3335,265 L 3375,265 L 3375,305 L 3335,305 Z" /><path d="M 3205,265 L 3245,265 L 3245,305 L 3205,305 Z" /><path d="M 3075,265 L 3115,265 L 3115,305 L 3075,305 Z" /><path d="M 2945,265 L 2985,265 L 2985,305 L 2945,305 Z" /><path d="M 2815,265 L 2855,265 L 2855,305 L 2815,305 Z" /><path d="M 2685,265 L 2725,265 L 2725,305 L 2685,305 Z" /><path d="M 2555,265 L 2595,265 L 2595,305 L 2555,305 Z" /><path d="M 2425,265 L 2465,265 L 2465,305 L 2425,305 Z" /><path d="M 2295,265 L 2335,265 L 2335,305 L 2295,305 Z" /><path d="M 2165,265 L 2205,265 L 2205,305 L 2165,305 Z" /><path d="M 2035,265 L 2075,265 L 2075,305 L 2035,305 Z" /><path d="M 1905,265 L 1945,265 L 1945,305 L 1905,305 Z" /><path d="M 1775,265 L 1815,265 L 1815,305 L 1775,305 Z" /><path d="M 1645,265 L 1685,265 L 1685,305 L 1645,305 Z" /><path d="M 1515,265 L 1555,265 L 1555,305 L 1515,305 Z" /><path d="M 1385,265 L 1425,265 L 1425,305 L 1385,305 Z" /><path d="M 1255,265 L 1295,265 L 1295,305 L 1255,305 Z" /><path d="M 1125,265 L 1165,265 L 1165,305 L 1125,305 Z" /><path d="M 995,265 L 1035,265 L 1035,305 L 995,305 Z" /><path d="M 865,265 L 905,265 L 905,305 L 865,305 Z" /><path d="M 735,265 L 775,265 L 775,305 L 735,305 Z" /><path d="M 605,265 L 645,265 L 645,305 L 605,305 Z" /><path d="M 475,265 L 515,265 L 515,305 L 475,305 Z" /><path d="M 345,265 L 345,305 L 385,305 L 385,265 Z" /><path d="M 8015,3775 L 8015,3815 L 8055,3815 L 8055,3775 Z" /><path d="M 7885,3775 L 7925,3775 L 7925,3815 L 7885,3815 Z" /><path d="M 7755,3775 L 7795,3775 L 7795,3815 L 7755,3815 Z" /><path d="M 7625,3775 L 7665,3775 L 7665,3815 L 7625,3815 Z" /><path d="M 7495,3775 L 7535,3775 L 7535,3815 L 7495,3815 Z" /><path d="M 7365,3775 L 7405,3775 L 7405,3815 L 7365,3815 Z" /><path d="M 7235,3775 L 7275,3775 L 7275,3815 L 7235,3815 Z" /><path d="M 7105,3775 L 7145,3775 L 7145,3815 L 7105,3815 Z" /><path d="M 6975,3775 L 7015,3775 L 7015,3815 L 6975,3815 Z" /><path d="M 6845,3775 L 6885,3775 L 6885,3815 L 6845,3815 Z" /><path d="M 6715,3775 L 6755,3775 L 6755,3815 L 6715,3815 Z" /><path d="M 6585,3775 L 6625,3775 L 6625,3815 L 6585,3815 Z" /><path d="M 6455,3775 L 6495,3775 L 6495,3815 L 6455,3815 Z" /><path d="M 6325,3775 L 6365,3775 L 6365,3815 L 6325,3815 Z" /><path d="M 6195,3775 L 6235,3775 L 6235,3815 L 6195,3815 Z" /><path d="M 6065,3775 L 6105,3775 L 6105,3815 L 6065,3815 Z" /><path d="M 5935,3775 L 5975,3775 L 5975,3815 L 5935,3815 Z" /><path d="M 5805,3775 L 5845,3775 L 5845,3815 L 5805,3815 Z" /><path d="M 5675,3775 L 5715,3775 L 5715,3815 L 5675,3815 Z" /><path d="M 5545,3775 L 5585,3775 L 5585,3815 L 5545,3815 Z" /><path d="M 5415,3775 L 5455,3775 L 5455,3815 L 5415,3815 Z" /><path d="M 5285,3775 L 5325,3775 L 5325,3815 L 5285,3815 Z" /><path d="M 5155,3775 L 5195,3775 L 5195,3815 L 5155,3815 Z" /><path d="M 5025,3775 L 5065,3775 L 5065,3815 L 5025,3815 Z" /><path d="M 4895,3775 L 4935,3775 L 4935,3815 L 4895,3815 Z" /><path d="M 4765,3775 L 4805,3775 L 4805,3815 L 4765,3815 Z" /><path d="M 4635,3775 L 4675,3775 L 4675,3815 L 4635,3815 Z" /><path d="M 4505,3775 L 4545,3775 L 4545,3815 L 4505,3815 Z" /><path d="M 4375,3775 L 4415,3775 L 4415,3815 L 4375,3815 Z" /><path d="M 4245,3775 L 4285,3775 L 4285,3815 L 4245,3815 Z" /><path d="M 4115,3775 L 4155,3775 L 4155,3815 L 4115,3815 Z" /><path d="M 3985,3775 L 4025,3775 L 4025,3815 L 3985,3815 Z" /><path d="M 3855,3775 L 3895,3775 L 3895,3815 L 3855,3815 Z" /><path d="M 3725,3775 L 3765,3775 L 3765,3815 L 3725,3815 Z" /><path d="M 3595,3775 L 3635,3775 L 3635,3815 L 3595,3815 Z" /><path d="M 3465,3775 L 3505,3775 L 3505,3815 L 3465,3815 Z" /><path d="M 3335,3775 L 3375,3775 L 3375,3815 L 3335,3815 Z" /><path d="M 3205,3775 L 3245,3775 L 3245,3815 L 3205,3815 Z" /><path d="M 3075,3775 L 3115,3775 L 3115,3815 L 3075,3815 Z" /><path d="M 2945,3775 L 2985,3775 L 2985,3815 L 2945,3815 Z" /><path d="M 2815,3775 L 2855,3775 L 2855,3815 L 2815,3815 Z" /><path d="M 2685,3775 L 2725,3775 L 2725,3815 L 2685,3815 Z" /><path d="M 2555,3775 L 2595,3775 L 2595,3815 L 2555,3815 Z" /><path d="M 2425,3775 L 2465,3775 L 2465,3815 L 2425,3815 Z" /><path d="M 2295,3775 L 2335,3775 L 2335,3815 L 2295,3815 Z" /><path d="M 2165,3775 L 2205,3775 L 2205,3815 L 2165,3815 Z" /><path d="M 2035,3775 L 2075,3775 L 2075,3815 L 2035,3815 Z" /><path d="M 1905,3775 L 1945,3775 L 1945,3815 L 1905,3815 Z" /><path d="M 1775,3775 L 1815,3775 L 1815,3815 L 1775,3815 Z" /><path d="M 1645,3775 L 1685,3775 L 1685,3815 L 1645,3815 Z" /><path d="M 1515,3775 L 1555,3775 L 1555,3815 L 1515,3815 Z" /><path d="M 1385,3775 L 1425,3775 L 1425,3815 L 1385,3815 Z" /><path d="M 1255,3775 L 1295,3775 L 1295,3815 L 1255,3815 Z" /><path d="M 1125,3775 L 1165,3775 L 1165,3815 L 1125,3815 Z" /><path d="M 995,3775 L 1035,3775 L 1035,3815 L 995,3815 Z" /><path d="M 865,3775 L 905,3775 L 905,3815 L 865,3815 Z" /><path d="M 735,3775 L 775,3775 L 775,3815 L 735,3815 Z" /><path d="M 605,3775 L 645,3775 L 645,3815 L 605,3815 Z" /><path d="M 475,3775 L 515,3775 L 515,3815 L 475,3815 Z" /><path d="M 345,3775 L 345,3815 L 385,3815 L 385,3775 Z" /><path d="M 6520,2530 L 6560,2530 L 6560,2570 L 6520,2570 Z" /><path d="M 6390,2730 L 6430,2730 L 6430,2770 L 6390,2770 Z" /></g></g><g id="M1"><g class="l31d0"><path d="M 1900,1310 L 1900,1250 L 1900,1245 L 1900,1145 L 1900,1140 L 1900,1080 L 1950,1080 L 1950,1140 L 1950,1145 L 1950,1245 L 1950,1250 L 1950,1310 Z" /><path d="M 1900,1880 L 1900,1820 L 1900,1815 L 1900,1715 L 1900,1710 L 1900,1650 L 1950,1650 L 1950,1710 L 1950,1715 L 1950,1815 L 1950,1820 L 1950,1880 Z" /><path d="M 1900,2770 L 1900,2830 L 1900,2835 L 1900,2935 L 1900,2940 L 1900,3000 L 1950,3000 L 1950,2940 L 1950,2935 L 1950,2835 L 1950,2830 L 1950,2770 Z" /><path d="M 1900,2200 L 1900,2260 L 1900,2265 L 1900,2365 L 1900,2370 L 1900,2430 L 1950,2430 L 1950,2370 L 1950,2365 L 1950,2265 L 1950,2260 L 1950,2200 Z" /><path d="M 6060,1310 L 6060,1250 L 6060,1245 L 6060,1145 L 6060,1140 L 6060,1080 L 6110,1080 L 6110,1140 L 6110,1145 L 6110,1245 L 6110,1250 L 6110,1310 Z" /><path d="M 6060,1880 L 6060,1820 L 6060,1815 L 6060,1715 L 6060,1710 L 6060,1650 L 6110,1650 L 6110,1710 L 6110,1715 L 6110,1815 L 6110,1820 L 6110,1880 Z" /><path d="M 5760,1655 L 5760,1605 L 5850,1605 L 5930,1605 L 5990,1605 L 5990,1655 L 5930,1655 L 5850,1655 Z" /><path d="M 5760,1355 L 5760,1305 L 5850,1305 L 5930,1305 L 5990,1305 L 5990,1355 L 5930,1355 L 5850,1355 Z" /><path d="M 6060,2770 L 6060,2830 L 6060,2835 L 6060,2935 L 6060,2940 L 6060,3000 L 6110,3000 L 6110,2940 L 6110,2935 L 6110,2835 L 6110,2830 L 6110,2770 Z" /><path d="M 6060,2200 L 6060,2260 L 6060,2265 L 6060,2365 L 6060,2370 L 6060,2430 L 6110,2430 L 6110,2370 L 6110,2365 L 6110,2265 L 6110,2260 L 6110,2200 Z" /><path d="M 5760,2425 L 5760,2475 L 5850,2475 L 5930,2475 L 5990,2475 L 5990,2425 L 5930,2425 L 5850,2425 Z" /><path d="M 5760,2725 L 5760,2775 L 5850,2775 L 5930,2775 L 5990,2775 L 5990,2725 L 5930,2725 L 5850,2725 Z" /><path d="M 5540,1310 L 5540,1250 L 5540,1245 L 5540,1145 L 5540,1140 L 5540,1080 L 5590,1080 L 5590,1140 L 5590,1145 L 5590,1245 L 5590,1250 L 5590,1310 Z" /><path d="M 5540,1880 L 5540,1820 L 5540,1815 L 5540,1715 L 5540,1710 L 5540,1650 L 5590,1650 L 5590,1710 L 5590,1715 L 5590,1815 L 5590,1820 L 5590,1880 Z" /><path d="M 5240,1655 L 5240,1605 L 5330,1605 L 5410,1605 L 5470,1605 L 5470,1655 L 5410,1655 L 5330,1655 Z" /><path d="M 5240,1355 L 5240,1305 L 5330,1305 L 5410,1305 L 5470,1305 L 5470,1355 L 5410,1355 L 5330,1355 Z" /><path d="M 5540,2770 L 5540,2830 L 5540,2835 L 5540,2935 L 5540,2940 L 5540,3000 L 5590,3000 L 5590,2940 L 5590,2935 L 5590,2835 L 5590,2830 L 5590,2770 Z" /><path d="M 5540,2200 L 5540,2260 L 5540,2265 L 5540,2365 L 5540,2370 L 5540,2430 L 5590,2430 L 5590,2370 L 5590,2365 L 5590,2265 L 5590,2260 L 5590,2200 Z" /><path d="M 5240,2425 L 5240,2475 L 5330,2475 L 5410,2475 L 5470,2475 L 5470,2425 L 5410,2425 L 5330,2425 Z" /><path d="M 5240,2725 L 5240,2775 L 5330,2775 L 5410,2775 L 5470,2775 L 5470,2725 L 5410,2725 L 5330,2725 Z" /><path d="M 5020,1310 L 5020,1250 L 5020,1245 L 5020,1145 L 5020,1140 L 5020,1080 L 5070,1080 L 5070,1140 L 5070,1145 L 5070,1245 L 5070,1250 L 5070,1310 Z" /><path d="M 5020,1880 L 5020,1820 L 5020,1815 L 5020,1715 L 5020,1710 L 5020,1650 L 5070,1650 L 5070,1710 L 5070,1715 L 5070,1815 L 5070,1820 L 5070,1880 Z" /><path d="M 4720,1655 L 4720,1605 L 4810,1605 L 4890,1605 L 4950,1605 L 4950,1655 L 4890,1655 L 4810,1655 Z" /><path d="M 4720,1355 L 4720,1305 L 4810,1305 L 4890,1305 L 4950,1305 L 4950,1355 L 4890,1355 L 4810,1355 Z" /><path d="M 5020,2770 L 5020,2830 L 5020,2835 L 5020,2935 L 5020,2940 L 5020,3000 L 5070,3000 L 5070,2940 L 5070,2935 L 5070,2835 L 5070,2830 L 5070,2770 Z" /><path d="M 5020,2200 L 5020,2260 L 5020,2265 L 5020,2365 L 5020,2370 L 5020,2430 L 5070,2430 L 5070,2370 L 5070,2365 L 5070,2265 L 5070,2260 L 5070,2200 Z" /><path d="M 4720,2425 L 4720,2475 L 4810,2475 L 4890,2475 L 4950,2475 L 4950,2425 L 4890,2425 L 4810,2425 Z" /><path d="M 4720,2725 L 4720,2775 L 4810,2775 L 4890,2775 L 4950,2775 L 4950,2725 L 4890,2725 L 4810,2725 Z" /><path d="M 4500,1310 L 4500,1250 L 4500,1245 L 4500,1145 L 4500,1140 L 4500,1080 L 4550,1080 L 4550,1140 L 4550,1145 L 4550,1245 L 4550,1250 L 4550,1310 Z" /><path d="M 4500,1880 L 4500,1820 L 4500,1815 L 4500,1715 L 4500,1710 L 4500,1650 L 4550,1650 L 4550,1710 L 4550,1715 L 4550,1815 L 4550,1820 L 4550,1880 Z" /><path d="M 4200,1655 L 4200,1605 L 4290,1605 L 4370,1605 L 4430,1605 L 4430,1655 L 4370,1655 L 4290,1655 Z" /><path d="M 4200,1355 L 4200,1305 L 4290,1305 L 4370,1305 L 4430,1305 L 4430,1355 L 4370,1355 L 4290,1355 Z" /><path d="M 4500,2770 L 4500,2830 L 4500,2835 L 4500,2935 L 4500,2940 L 4500,3000 L 4550,3000 L 4550,2940 L 4550,2935 L 4550,2835 L 4550,2830 L 4550,2770 Z" /><path d="M 4500,2200 L 4500,2260 L 4500,2265 L 4500,2365 L 4500,2370 L 4500,2430 L 4550,2430 L 4550,2370 L 4550,2365 L 4550,2265 L 4550,2260 L 4550,2200 Z" /><path d="M 4200,2425 L 4200,2475 L 4290,2475 L 4370,2475 L 4430,2475 L 4430,2425 L 4370,2425 L 4290,2425 Z" /><path d="M 4200,2725 L 4200,2775 L 4290,2775 L 4370,2775 L 4430,2775 L 4430,2725 L 4370,2725 L 4290,2725 Z" /><path d="M 3980,1310 L 3980,1250 L 3980,1245 L 3980,1145 L 3980,1140 L 3980,1080 L 4030,1080 L 4030,1140 L 4030,1145 L 4030,1245 L 4030,1250 L 4030,1310 Z" /><path d="M 3980,1880 L 3980,1820 L 3980,1815 L 3980,1715 L 3980,1710 L 3980,1650 L 4030,1650 L 4030,1710 L 4030,1715 L 4030,1815 L 4030,1820 L 4030,1880 Z" /><path d="M 3680,1655 L 3680,1605 L 3770,1605 L 3850,1605 L 3910,1605 L 3910,1655 L 3850,1655 L 3770,1655 Z" /><path d="M 3680,1355 L 3680,1305 L 3770,1305 L 3850,1305 L 3910,1305 L 3910,1355 L 3850,1355 L 3770,1355 Z" /><path d="M 3980,2770 L 3980,2830 L 3980,2835 L 3980,2935 L 3980,2940 L 3980,3000 L 4030,3000 L 4030,2940 L 4030,2935 L 4030,2835 L 4030,2830 L 4030,2770 Z" /><path d="M 3980,2200 L 3980,2260 L 3980,2265 L 3980,2365 L 3980,2370 L 3980,2430 L 4030,2430 L 4030,2370 L 4030,2365 L 4030,2265 L 4030,2260 L 4030,2200 Z" /><path d="M 3680,2425 L 3680,2475 L 3770,2475 L 3850,2475 L 3910,2475 L 3910,2425 L 3850,2425 L 3770,2425 Z" /><path d="M 3680,2725 L 3680,2775 L 3770,2775 L 3850,2775 L 3910,2775 L 3910,2725 L 3850,2725 L 3770,2725 Z" /><path d="M 3460,1310 L 3460,1250 L 3460,1245 L 3460,1145 L 3460,1140 L 3460,1080 L 3510,1080 L 3510,1140 L 3510,1145 L 3510,1245 L 3510,1250 L 3510,1310 Z" /><path d="M 3460,1880 L 3460,1820 L 3460,1815 L 3460,1715 L 3460,1710 L 3460,1650 L 3510,1650 L 3510,1710 L 3510,1715 L 3510,1815 L 3510,1820 L 3510,1880 Z" /><path d="M 3160,1655 L 3160,1605 L 3250,1605 L 3330,1605 L 3390,1605 L 3390,1655 L 3330,1655 L 3250,1655 Z" /><path d="M 3160,1355 L 3160,1305 L 3250,1305 L 3330,1305 L 3390,1305 L 3390,1355 L 3330,1355 L 3250,1355 Z" /><path d="M 3460,2770 L 3460,2830 L 3460,2835 L 3460,2935 L 3460,2940 L 3460,3000 L 3510,3000 L 3510,2940 L 3510,2935 L 3510,2835 L 3510,2830 L 3510,2770 Z" /><path d="M 3460,2200 L 3460,2260 L 3460,2265 L 3460,2365 L 3460,2370 L 3460,2430 L 3510,2430 L 3510,2370 L 3510,2365 L 3510,2265 L 3510,2260 L 3510,2200 Z" /><path d="M 3160,2425 L 3160,2475 L 3250,2475 L 3330,2475 L 3390,2475 L 3390,2425 L 3330,2425 L 3250,2425 Z" /><path d="M 3160,2725 L 3160,2775 L 3250,2775 L 3330,2775 L 3390,2775 L 3390,2725 L 3330,2725 L 3250,2725 Z" /><path d="M 2940,1310 L 2940,1250 L 2940,1245 L 2940,1145 L 2940,1140 L 2940,1080 L 2990,1080 L 2990,1140 L 2990,1145 L 2990,1245 L 2990,1250 L 2990,1310 Z" /><path d="M 2940,1880 L 2940,1820 L 2940,1815 L 2940,1715 L 2940,1710 L 2940,1650 L 2990,1650 L 2990,1710 L 2990,1715 L 2990,1815 L 2990,1820 L 2990,1880 Z" /><path d="M 2640,1655 L 2640,1605 L 2730,1605 L 2810,1605 L 2870,1605 L 2870,1655 L 2810,1655 L 2730,1655 Z" /><path d="M 2640,1355 L 2640,1305 L 2730,1305 L 2810,1305 L 2870,1305 L 2870,1355 L 2810,1355 L 2730,1355 Z" /><path d="M 2940,2770 L 2940,2830 L 2940,2835 L 2940,2935 L 2940,2940 L 2940,3000 L 2990,3000 L 2990,2940 L 2990,2935 L 2990,2835 L 2990,2830 L 2990,2770 Z" /><path d="M 2940,2200 L 2940,2260 L 2940,2265 L 2940,2365 L 2940,2370 L 2940,2430 L 2990,2430 L 2990,2370 L 2990,2365 L 2990,2265 L 2990,2260 L 2990,2200 Z" /><path d="M 2640,2425 L 2640,2475 L 2730,2475 L 2810,2475 L 2870,2475 L 2870,2425 L 2810,2425 L 2730,2425 Z" /><path d="M 2640,2725 L 2640,2775 L 2730,2775 L 2810,2775 L 2870,2775 L 2870,2725 L 2810,2725 L 2730,2725 Z" /><path d="M 2420,1310 L 2420,1250 L 2420,1245 L 2420,1145 L 2420,1140 L 2420,1080 L 2470,1080 L 2470,1140 L 2470,1145 L 2470,1245 L 2470,1250 L 2470,1310 Z" /><path d="M 2420,1880 L 2420,1820 L 2420,1815 L 2420,1715 L 2420,1710 L 2420,1650 L 2470,1650 L 2470,1710 L 2470,1715 L 2470,1815 L 2470,1820 L 2470,1880 Z" /><path d="M 2120,1655 L 2120,1605 L 2210,1605 L 2290,1605 L 2350,1605 L 2350,1655 L 2290,1655 L 2210,1655 Z" /><path d="M 2120,1355 L 2120,1305 L 2210,1305 L 2290,1305 L 2350,1305 L 2350,1355 L 2290,1355 L 2210,1355 Z" /><path d="M 6284,2090 L 6319,2090 L 6319,2315 L 6320,2315 L 6320,2415 L 6370,2415 L 6370,2315 L 6370,2090 L 6805,2090 L 6805,1990 L 6284,1990 L 6145,1990 L 5849,1990 L 5849,1815 L 5850,1815 L 5850,1715 L 5800,1715 L 5800,1815 L 5800,1990 L 5764,1990 L 5625,1990 L 5329,1990 L 5329,1815 L 5330,1815 L 5330,1715 L 5280,1715 L 5280,1815 L 5280,1990 L 5244,1990 L 5105,1990 L 4809,1990 L 4809,1815 L 4810,1815 L 4810,1715 L 4760,1715 L 4760,1815 L 4760,1990 L 4724,1990 L 4585,1990 L 4289,1990 L 4289,1815 L 4290,1815 L 4290,1715 L 4240,1715 L 4240,1815 L 4240,1990 L 4204,1990 L 4065,1990 L 3769,1990 L 3769,1815 L 3770,1815 L 3770,1715 L 3720,1715 L 3720,1815 L 3720,1990 L 3684,1990 L 3545,1990 L 3249,1990 L 3249,1815 L 3250,1815 L 3250,1715 L 3200,1715 L 3200,1815 L 3200,1990 L 3164,1990 L 3025,1990 L 2729,1990 L 2729,1815 L 2730,1815 L 2730,1715 L 2680,1715 L 2680,1815 L 2680,1990 L 2644,1990 L 2505,1990 L 2209,1990 L 2209,1815 L 2210,1815 L 2210,1715 L 2160,1715 L 2160,1815 L 2160,1990 L 2125,1990 L 1985,1990 L 1820,1990 L 1820,1815 L 1820,1715 L 1770,1715 L 1770,1815 L 1770,1990 L 1595,1990 L 1595,2090 L 1770,2090 L 1770,2265 L 1770,2365 L 1820,2365 L 1820,2265 L 1820,2090 L 1985,2090 L 2125,2090 L 2160,2090 L 2160,2265 L 2160,2365 L 2210,2365 L 2210,2265 L 2209,2265 L 2209,2090 L 2505,2090 L 2644,2090 L 2680,2090 L 2680,2265 L 2680,2365 L 2730,2365 L 2730,2265 L 2729,2265 L 2729,2090 L 3025,2090 L 3164,2090 L 3200,2090 L 3200,2265 L 3200,2365 L 3250,2365 L 3250,2265 L 3249,2265 L 3249,2090 L 3545,2090 L 3684,2090 L 3720,2090 L 3720,2265 L 3720,2365 L 3770,2365 L 3770,2265 L 3769,2265 L 3769,2090 L 4065,2090 L 4204,2090 L 4240,2090 L 4240,2265 L 4240,2365 L 4290,2365 L 4290,2265 L 4289,2265 L 4289,2090 L 4585,2090 L 4724,2090 L 4760,2090 L 4760,2265 L 4760,2365 L 4810,2365 L 4810,2265 L 4809,2265 L 4809,2090 L 5105,2090 L 5244,2090 L 5280,2090 L 5280,2265 L 5280,2365 L 5330,2365 L 5330,2265 L 5329,2265 L 5329,2090 L 5625,2090 L 5764,2090 L 5800,2090 L 5800,2265 L 5800,2365 L 5850,2365 L 5850,2265 L 5849,2265 L 5849,2090 L 6145,2090 Z" /><path d="M 2420,2770 L 2420,2830 L 2420,2835 L 2420,2935 L 2420,2940 L 2420,3000 L 2470,3000 L 2470,2940 L 2470,2935 L 2470,2835 L 2470,2830 L 2470,2770 Z" /><path d="M 2420,2200 L 2420,2260 L 2420,2265 L 2420,2365 L 2420,2370 L 2420,2430 L 2470,2430 L 2470,2370 L 2470,2365 L 2470,2265 L 2470,2260 L 2470,2200 Z" /><path d="M 2120,2425 L 2120,2475 L 2210,2475 L 2290,2475 L 2350,2475 L 2350,2425 L 2290,2425 L 2210,2425 Z" /><path d="M 2120,2725 L 2120,2775 L 2210,2775 L 2290,2775 L 2350,2775 L 2350,2725 L 2290,2725 L 2210,2725 Z" /><path d="M 5460,1405 L 5175,1405 L 5020,1405 L 4940,1405 L 4655,1405 L 4500,1405 L 4420,1405 L 4135,1405 L 3980,1405 L 3900,1405 L 3615,1405 L 3460,1405 L 3380,1405 L 3095,1405 L 2940,1405 L 2860,1405 L 2575,1405 L 2420,1405 L 2370,1405 L 2340,1405 L 2260,1405 L 2055,1405 L 1900,1405 L 1820,1405 L 1665,1405 L 1665,1455 L 1820,1455 L 1900,1455 L 2055,1455 L 2260,1455 L 2340,1455 L 2370,1455 L 2420,1455 L 2575,1455 L 2860,1455 L 2940,1455 L 3095,1455 L 3380,1455 L 3460,1455 L 3615,1455 L 3900,1455 L 3980,1455 L 4135,1455 L 4420,1455 L 4500,1455 L 4655,1455 L 4940,1455 L 5020,1455 L 5175,1455 L 5460,1455 L 5540,1455 L 5695,1455 L 5900,1455 L 5980,1455 L 6010,1455 L 6060,1455 L 6215,1455 L 6215,1405 L 6060,1405 L 6010,1405 L 5980,1405 L 5900,1405 L 5695,1405 L 5540,1405 Z" /><path d="M 5510,2525 L 5175,2525 L 5100,2525 L 4990,2525 L 4655,2525 L 4580,2525 L 4470,2525 L 4135,2525 L 4060,2525 L 3950,2525 L 3615,2525 L 3540,2525 L 3430,2525 L 3095,2525 L 3020,2525 L 2910,2525 L 2575,2525 L 2500,2525 L 2390,2525 L 2370,2525 L 2260,2525 L 2055,2525 L 1980,2525 L 1870,2525 L 1665,2525 L 1665,2575 L 1870,2575 L 1980,2575 L 2055,2575 L 2260,2575 L 2370,2575 L 2390,2575 L 2500,2575 L 2575,2575 L 2910,2575 L 3020,2575 L 3095,2575 L 3430,2575 L 3540,2575 L 3615,2575 L 3950,2575 L 4060,2575 L 4135,2575 L 4470,2575 L 4580,2575 L 4655,2575 L 4990,2575 L 5100,2575 L 5175,2575 L 5510,2575 L 5620,2575 L 5695,2575 L 5900,2575 L 6010,2575 L 6030,2575 L 6140,2575 L 6215,2575 L 6215,2525 L 6140,2525 L 6030,2525 L 6010,2525 L 5900,2525 L 5695,2525 L 5620,2525 Z" /><path d="M 8105,870 L 8105,355 L 8105,215 L 7965,215 L 435,215 L 295,215 L 295,355 L 295,870 L 295,970 L 295,3110 L 295,3210 L 295,3725 L 295,3865 L 435,3865 L 7965,3865 L 8105,3865 L 8105,3725 L 8105,3210 L 8105,3110 L 8105,970 Z M 6755,870 L 6284,870 L 6145,870 L 5764,870 L 5625,870 L 5244,870 L 5105,870 L 4724,870 L 4585,870 L 4204,870 L 4065,870 L 3684,870 L 3545,870 L 3164,870 L 3025,870 L 2644,870 L 2505,870 L 2125,870 L 1985,870 L 1645,870 L 1595,870 L 435,870 L 435,355 L 7965,355 L 7965,870 L 6805,870 Z M 6805,970 L 7965,970 L 7965,3110 L 6805,3110 L 6755,3110 L 6630,3110 L 6630,2935 L 6630,2835 L 6580,2835 L 6580,2935 L 6580,3110 L 6370,3110 L 6370,2935 L 6370,2835 L 6320,2835 L 6320,2935 L 6319,2935 L 6319,3110 L 6284,3110 L 6145,3110 L 5849,3110 L 5849,2935 L 5850,2935 L 5850,2835 L 5800,2835 L 5800,2935 L 5800,3110 L 5764,3110 L 5625,3110 L 5329,3110 L 5329,2935 L 5330,2935 L 5330,2835 L 5280,2835 L 5280,2935 L 5280,3110 L 5244,3110 L 5105,3110 L 4809,3110 L 4809,2935 L 4810,2935 L 4810,2835 L 4760,2835 L 4760,2935 L 4760,3110 L 4724,3110 L 4585,3110 L 4289,3110 L 4289,2935 L 4290,2935 L 4290,2835 L 4240,2835 L 4240,2935 L 4240,3110 L 4204,3110 L 4065,3110 L 3769,3110 L 3769,2935 L 3770,2935 L 3770,2835 L 3720,2835 L 3720,2935 L 3720,3110 L 3684,3110 L 3545,3110 L 3249,3110 L 3249,2935 L 3250,2935 L 3250,2835 L 3200,2835 L 3200,2935 L 3200,3110 L 3164,3110 L 3025,3110 L 2729,3110 L 2729,2935 L 2730,2935 L 2730,2835 L 2680,2835 L 2680,2935 L 2680,3110 L 2644,3110 L 2505,3110 L 2209,3110 L 2209,2935 L 2210,2935 L 2210,2835 L 2160,2835 L 2160,2935 L 2160,3110 L 2125,3110 L 1985,3110 L 1820,3110 L 1820,2935 L 1820,2835 L 1770,2835 L 1770,2935 L 1770,3110 L 1645,3110 L 1595,3110 L 435,3110 L 435,970 L 1595,970 L 1645,970 L 1770,970 L 1770,1145 L 1770,1245 L 1820,1245 L 1820,1145 L 1820,970 L 1985,970 L 2125,970 L 2160,970 L 2160,1145 L 2160,1245 L 2210,1245 L 2210,1145 L 2209,1145 L 2209,970 L 2505,970 L 2644,970 L 2680,970 L 2680,1145 L 2680,1245 L 2730,1245 L 2730,1145 L 2729,1145 L 2729,970 L 3025,970 L 3164,970 L 3200,970 L 3200,1145 L 3200,1245 L 3250,1245 L 3250,1145 L 3249,1145 L 3249,970 L 3545,970 L 3684,970 L 3720,970 L 3720,1145 L 3720,1245 L 3770,1245 L 3770,1145 L 3769,1145 L 3769,970 L 4065,970 L 4204,970 L 4240,970 L 4240,1145 L 4240,1245 L 4290,1245 L 4290,1145 L 4289,1145 L 4289,970 L 4585,970 L 4724,970 L 4760,970 L 4760,1145 L 4760,1245 L 4810,1245 L 4810,1145 L 4809,1145 L 4809,970 L 5105,970 L 5244,970 L 5280,970 L 5280,1145 L 5280,1245 L 5330,1245 L 5330,1145 L 5329,1145 L 5329,970 L 5625,970 L 5764,970 L 5800,970 L 5800,1145 L 5800,1245 L 5850,1245 L 5850,1145 L 5849,1145 L 5849,970 L 6145,970 L 6284,970 L 6755,970 Z M 6755,3210 L 6805,3210 L 7965,3210 L 7965,3725 L 435,3725 L 435,3210 L 1595,3210 L 1645,3210 L 1985,3210 L 2125,3210 L 2505,3210 L 2644,3210 L 3025,3210 L 3164,3210 L 3545,3210 L 3684,3210 L 4065,3210 L 4204,3210 L 4585,3210 L 4724,3210 L 5105,3210 L 5244,3210 L 5625,3210 L 5764,3210 L 6145,3210 L 6284,3210 Z" /><path d="M 6580,2185 L 6580,2305 L 6580,2315 L 6580,2415 L 6630,2415 L 6630,2315 L 6630,2305 L 6630,2185 Z" /><path d="M 6445,3035 L 6505,3035 L 6505,2835 L 6500,2835 L 6450,2835 L 6445,2835 Z" /><path d="M 6400,2525 L 6345,2525 L 6290,2525 L 6290,2575 L 6345,2575 L 6400,2575 L 6500,2575 L 6540,2575 L 6580,2575 L 6580,2525 L 6540,2525 L 6500,2525 Z" /><path d="M 6290,1505 L 6215,1505 L 6140,1505 L 6030,1505 L 5695,1505 L 5620,1505 L 5510,1505 L 5175,1505 L 5100,1505 L 4990,1505 L 4655,1505 L 4580,1505 L 4470,1505 L 4135,1505 L 4060,1505 L 3950,1505 L 3615,1505 L 3540,1505 L 3430,1505 L 3095,1505 L 3020,1505 L 2910,1505 L 2575,1505 L 2500,1505 L 2390,1505 L 2055,1505 L 1980,1505 L 1870,1505 L 1665,1505 L 1665,1555 L 1870,1555 L 1980,1555 L 2055,1555 L 2390,1555 L 2500,1555 L 2575,1555 L 2910,1555 L 3020,1555 L 3095,1555 L 3430,1555 L 3540,1555 L 3615,1555 L 3950,1555 L 4060,1555 L 4135,1555 L 4470,1555 L 4580,1555 L 4655,1555 L 4990,1555 L 5100,1555 L 5175,1555 L 5510,1555 L 5620,1555 L 5695,1555 L 6030,1555 L 6140,1555 L 6215,1555 L 6290,1555 L 6345,1555 L 6400,1555 L 6400,1505 L 6345,1505 Z" /><path d="M 1900,2675 L 2055,2675 L 2340,2675 L 2420,2675 L 2575,2675 L 2860,2675 L 2940,2675 L 3095,2675 L 3380,2675 L 3460,2675 L 3615,2675 L 3900,2675 L 3980,2675 L 4135,2675 L 4420,2675 L 4500,2675 L 4655,2675 L 4940,2675 L 5020,2675 L 5175,2675 L 5460,2675 L 5540,2675 L 5695,2675 L 5980,2675 L 6060,2675 L 6215,2675 L 6550,2675 L 6605,2675 L 6660,2675 L 6660,2625 L 6605,2625 L 6550,2625 L 6215,2625 L 6060,2625 L 5980,2625 L 5695,2625 L 5540,2625 L 5460,2625 L 5175,2625 L 5020,2625 L 4940,2625 L 4655,2625 L 4500,2625 L 4420,2625 L 4135,2625 L 3980,2625 L 3900,2625 L 3615,2625 L 3460,2625 L 3380,2625 L 3095,2625 L 2940,2625 L 2860,2625 L 2575,2625 L 2420,2625 L 2340,2625 L 2055,2625 L 1900,2625 L 1820,2625 L 1715,2625 L 1665,2625 L 1665,2675 L 1715,2675 L 1820,2675 Z" /><path d="M 6330,2775 L 6370,2775 L 6410,2775 L 6450,2775 L 6460,2775 L 6460,2725 L 6450,2725 L 6410,2725 L 6370,2725 L 6330,2725 L 6275,2725 L 6220,2725 L 6220,2775 L 6275,2775 Z" /></g></g><g id="VIA1"><g class="l51d0"><path d="M 1900,1220 L 1950,1220 L 1950,1170 L 1900,1170 Z" /><path d="M 1900,1790 L 1950,1790 L 1950,1740 L 1900,1740 Z" /><path d="M 1900,1555 L 1950,1555 L 1950,1505 L 1900,1505 Z" /><path d="M 1900,2860 L 1950,2860 L 1950,2910 L 1900,2910 Z" /><path d="M 1900,2290 L 1950,2290 L 1950,2340 L 1900,2340 Z" /><path d="M 1900,2525 L 1950,2525 L 1950,2575 L 1900,2575 Z" /><path d="M 6060,1220 L 6110,1220 L 6110,1170 L 6060,1170 Z" /><path d="M 6060,1790 L 6110,1790 L 6110,1740 L 6060,1740 Z" /><path d="M 6060,1555 L 6110,1555 L 6110,1505 L 6060,1505 Z" /><path d="M 6060,2860 L 6110,2860 L 6110,2910 L 6060,2910 Z" /><path d="M 6060,2290 L 6110,2290 L 6110,2340 L 6060,2340 Z" /><path d="M 6060,2525 L 6110,2525 L 6110,2575 L 6060,2575 Z" /><path d="M 5540,1220 L 5590,1220 L 5590,1170 L 5540,1170 Z" /><path d="M 5540,1790 L 5590,1790 L 5590,1740 L 5540,1740 Z" /><path d="M 5540,1555 L 5590,1555 L 5590,1505 L 5540,1505 Z" /><path d="M 5540,2860 L 5590,2860 L 5590,2910 L 5540,2910 Z" /><path d="M 5540,2290 L 5590,2290 L 5590,2340 L 5540,2340 Z" /><path d="M 5540,2525 L 5590,2525 L 5590,2575 L 5540,2575 Z" /><path d="M 5020,1220 L 5070,1220 L 5070,1170 L 5020,1170 Z" /><path d="M 5020,1790 L 5070,1790 L 5070,1740 L 5020,1740 Z" /><path d="M 5020,1555 L 5070,1555 L 5070,1505 L 5020,1505 Z" /><path d="M 5020,2860 L 5070,2860 L 5070,2910 L 5020,2910 Z" /><path d="M 5020,2290 L 5070,2290 L 5070,2340 L 5020,2340 Z" /><path d="M 5020,2525 L 5070,2525 L 5070,2575 L 5020,2575 Z" /><path d="M 4500,1220 L 4550,1220 L 4550,1170 L 4500,1170 Z" /><path d="M 4500,1790 L 4550,1790 L 4550,1740 L 4500,1740 Z" /><path d="M 4500,1555 L 4550,1555 L 4550,1505 L 4500,1505 Z" /><path d="M 4500,2860 L 4550,2860 L 4550,2910 L 4500,2910 Z" /><path d="M 4500,2290 L 4550,2290 L 4550,2340 L 4500,2340 Z" /><path d="M 4500,2525 L 4550,2525 L 4550,2575 L 4500,2575 Z" /><path d="M 3980,1220 L 4030,1220 L 4030,1170 L 3980,1170 Z" /><path d="M 3980,1790 L 4030,1790 L 4030,1740 L 3980,1740 Z" /><path d="M 3980,1555 L 4030,1555 L 4030,1505 L 3980,1505 Z" /><path d="M 3980,2860 L 4030,2860 L 4030,2910 L 3980,2910 Z" /><path d="M 3980,2290 L 4030,2290 L 4030,2340 L 3980,2340 Z" /><path d="M 3980,2525 L 4030,2525 L 4030,2575 L 3980,2575 Z" /><path d="M 3460,1220 L 3510,1220 L 3510,1170 L 3460,1170 Z" /><path d="M 3460,1790 L 3510,1790 L 3510,1740 L 3460,1740 Z" /><path d="M 3460,1555 L 3510,1555 L 3510,1505 L 3460,1505 Z" /><path d="M 3460,2860 L 3510,2860 L 3510,2910 L 3460,2910 Z" /><path d="M 3460,2290 L 3510,2290 L 3510,2340 L 3460,2340 Z" /><path d="M 3460,2525 L 3510,2525 L 3510,2575 L 3460,2575 Z" /><path d="M 2940,1220 L 2990,1220 L 2990,1170 L 2940,1170 Z" /><path d="M 2940,1790 L 2990,1790 L 2990,1740 L 2940,1740 Z" /><path d="M 2940,1555 L 2990,1555 L 2990,1505 L 2940,1505 Z" /><path d="M 2940,2860 L 2990,2860 L 2990,2910 L 2940,2910 Z" /><path d="M 2940,2290 L 2990,2290 L 2990,2340 L 2940,2340 Z" /><path d="M 2940,2525 L 2990,2525 L 2990,2575 L 2940,2575 Z" /><path d="M 2420,1220 L 2470,1220 L 2470,1170 L 2420,1170 Z" /><path d="M 2420,1790 L 2470,1790 L 2470,1740 L 2420,1740 Z" /><path d="M 2420,1555 L 2470,1555 L 2470,1505 L 2420,1505 Z" /><path d="M 2420,2860 L 2470,2860 L 2470,2910 L 2420,2910 Z" /><path d="M 2420,2290 L 2470,2290 L 2470,2340 L 2420,2340 Z" /><path d="M 2420,2525 L 2470,2525 L 2470,2575 L 2420,2575 Z" /><path d="M 5930,1405 L 5980,1405 L 5980,1455 L 5930,1455 Z" /><path d="M 5930,2525 L 5980,2525 L 5980,2575 L 5930,2575 Z" /><path d="M 5670,895 L 5720,895 L 5720,945 L 5670,945 Z" /><path d="M 5670,3135 L 5720,3135 L 5720,3185 L 5670,3185 Z" /><path d="M 2290,1405 L 2340,1405 L 2340,1455 L 2290,1455 Z" /><path d="M 2290,2525 L 2340,2525 L 2340,2575 L 2290,2575 Z" /><path d="M 1770,895 L 1820,895 L 1820,945 L 1770,945 Z" /><path d="M 1770,3135 L 1820,3135 L 1820,3185 L 1770,3185 Z" /><path d="M 6580,2335 L 6630,2335 L 6630,2385 L 6580,2385 Z" /><path d="M 6450,2865 L 6500,2865 L 6500,2915 L 6450,2915 Z" /><path d="M 6320,2525 L 6370,2525 L 6370,2575 L 6320,2575 Z" /><path d="M 6320,1505 L 6370,1505 L 6370,1555 L 6320,1555 Z" /><path d="M 6580,2625 L 6630,2625 L 6630,2675 L 6580,2675 Z" /><path d="M 6250,2725 L 6300,2725 L 6300,2775 L 6250,2775 Z" /></g></g><g id="M2"><g class="l32d0"><path d="M 1900,1585 L 1900,1530 L 1900,1475 L 1900,1250 L 1900,1195 L 1900,1140 L 1950,1140 L 1950,1250 L 1949,1250 L 1949,1475 L 1950,1475 L 1950,1585 L 1949,1585 L 1949,1710 L 1950,1710 L 1950,1820 L 1900,1820 L 1900,1765 L 1900,1710 Z" /><path d="M 1900,2495 L 1900,2550 L 1900,2605 L 1900,2830 L 1900,2885 L 1900,2940 L 1950,2940 L 1950,2830 L 1949,2830 L 1949,2605 L 1950,2605 L 1950,2495 L 1949,2495 L 1949,2370 L 1950,2370 L 1950,2260 L 1900,2260 L 1900,2315 L 1900,2370 Z" /><path d="M 6060,1585 L 6060,1530 L 6060,1475 L 6060,1250 L 6060,1195 L 6060,1140 L 6110,1140 L 6110,1250 L 6109,1250 L 6109,1475 L 6110,1475 L 6110,1585 L 6109,1585 L 6109,1710 L 6110,1710 L 6110,1820 L 6060,1820 L 6060,1765 L 6060,1710 Z" /><path d="M 6060,2495 L 6060,2550 L 6060,2605 L 6060,2830 L 6060,2885 L 6060,2940 L 6110,2940 L 6110,2830 L 6109,2830 L 6109,2605 L 6110,2605 L 6110,2495 L 6109,2495 L 6109,2370 L 6110,2370 L 6110,2260 L 6060,2260 L 6060,2315 L 6060,2370 Z" /><path d="M 5540,1585 L 5540,1530 L 5540,1475 L 5540,1250 L 5540,1195 L 5540,1140 L 5590,1140 L 5590,1250 L 5589,1250 L 5589,1475 L 5590,1475 L 5590,1585 L 5589,1585 L 5589,1710 L 5590,1710 L 5590,1820 L 5540,1820 L 5540,1765 L 5540,1710 Z" /><path d="M 5540,2495 L 5540,2550 L 5540,2605 L 5540,2830 L 5540,2885 L 5540,2940 L 5590,2940 L 5590,2830 L 5589,2830 L 5589,2605 L 5590,2605 L 5590,2495 L 5589,2495 L 5589,2370 L 5590,2370 L 5590,2260 L 5540,2260 L 5540,2315 L 5540,2370 Z" /><path d="M 5020,1585 L 5020,1530 L 5020,1475 L 5020,1250 L 5020,1195 L 5020,1140 L 5070,1140 L 5070,1250 L 5069,1250 L 5069,1475 L 5070,1475 L 5070,1585 L 5069,1585 L 5069,1710 L 5070,1710 L 5070,1820 L 5020,1820 L 5020,1765 L 5020,1710 Z" /><path d="M 5020,2495 L 5020,2550 L 5020,2605 L 5020,2830 L 5020,2885 L 5020,2940 L 5070,2940 L 5070,2830 L 5069,2830 L 5069,2605 L 5070,2605 L 5070,2495 L 5069,2495 L 5069,2370 L 5070,2370 L 5070,2260 L 5020,2260 L 5020,2315 L 5020,2370 Z" /><path d="M 4500,1585 L 4500,1530 L 4500,1475 L 4500,1250 L 4500,1195 L 4500,1140 L 4550,1140 L 4550,1250 L 4549,1250 L 4549,1475 L 4550,1475 L 4550,1585 L 4549,1585 L 4549,1710 L 4550,1710 L 4550,1820 L 4500,1820 L 4500,1765 L 4500,1710 Z" /><path d="M 4500,2495 L 4500,2550 L 4500,2605 L 4500,2830 L 4500,2885 L 4500,2940 L 4550,2940 L 4550,2830 L 4549,2830 L 4549,2605 L 4550,2605 L 4550,2495 L 4549,2495 L 4549,2370 L 4550,2370 L 4550,2260 L 4500,2260 L 4500,2315 L 4500,2370 Z" /><path d="M 3980,1585 L 3980,1530 L 3980,1475 L 3980,1250 L 3980,1195 L 3980,1140 L 4030,1140 L 4030,1250 L 4029,1250 L 4029,1475 L 4030,1475 L 4030,1585 L 4029,1585 L 4029,1710 L 4030,1710 L 4030,1820 L 3980,1820 L 3980,1765 L 3980,1710 Z" /><path d="M 3980,2495 L 3980,2550 L 3980,2605 L 3980,2830 L 3980,2885 L 3980,2940 L 4030,2940 L 4030,2830 L 4029,2830 L 4029,2605 L 4030,2605 L 4030,2495 L 4029,2495 L 4029,2370 L 4030,2370 L 4030,2260 L 3980,2260 L 3980,2315 L 3980,2370 Z" /><path d="M 3460,1585 L 3460,1530 L 3460,1475 L 3460,1250 L 3460,1195 L 3460,1140 L 3510,1140 L 3510,1250 L 3509,1250 L 3509,1475 L 3510,1475 L 3510,1585 L 3509,1585 L 3509,1710 L 3510,1710 L 3510,1820 L 3460,1820 L 3460,1765 L 3460,1710 Z" /><path d="M 3460,2495 L 3460,2550 L 3460,2605 L 3460,2830 L 3460,2885 L 3460,2940 L 3510,2940 L 3510,2830 L 3509,2830 L 3509,2605 L 3510,2605 L 3510,2495 L 3509,2495 L 3509,2370 L 3510,2370 L 3510,2260 L 3460,2260 L 3460,2315 L 3460,2370 Z" /><path d="M 2940,1585 L 2940,1530 L 2940,1475 L 2940,1250 L 2940,1195 L 2940,1140 L 2990,1140 L 2990,1250 L 2989,1250 L 2989,1475 L 2990,1475 L 2990,1585 L 2989,1585 L 2989,1710 L 2990,1710 L 2990,1820 L 2940,1820 L 2940,1765 L 2940,1710 Z" /><path d="M 2940,2495 L 2940,2550 L 2940,2605 L 2940,2830 L 2940,2885 L 2940,2940 L 2990,2940 L 2990,2830 L 2989,2830 L 2989,2605 L 2990,2605 L 2990,2495 L 2989,2495 L 2989,2370 L 2990,2370 L 2990,2260 L 2940,2260 L 2940,2315 L 2940,2370 Z" /><path d="M 2420,1585 L 2420,1530 L 2420,1475 L 2420,1250 L 2420,1195 L 2420,1140 L 2470,1140 L 2470,1250 L 2469,1250 L 2469,1475 L 2470,1475 L 2470,1585 L 2469,1585 L 2469,1710 L 2470,1710 L 2470,1820 L 2420,1820 L 2420,1765 L 2420,1710 Z" /><path d="M 2420,2495 L 2420,2550 L 2420,2605 L 2420,2830 L 2420,2885 L 2420,2940 L 2470,2940 L 2470,2830 L 2469,2830 L 2469,2605 L 2470,2605 L 2470,2495 L 2469,2495 L 2469,2370 L 2470,2370 L 2470,2260 L 2420,2260 L 2420,2315 L 2420,2370 Z" /><path d="M 5980,2495 L 5980,1485 L 5980,1430 L 5980,1375 L 5930,1375 L 5930,1430 L 5930,1485 L 5930,2495 L 5930,2550 L 5930,2605 L 5980,2605 L 5980,2550 Z" /><path d="M 5670,3105 L 5670,3160 L 5670,3215 L 5720,3215 L 5720,3160 L 5720,3105 L 5720,975 L 5720,920 L 5720,865 L 5670,865 L 5670,920 L 5670,975 Z" /><path d="M 2290,2495 L 2290,2550 L 2290,2605 L 2340,2605 L 2340,2550 L 2340,2495 L 2340,1485 L 2340,1430 L 2340,1375 L 2290,1375 L 2290,1430 L 2290,1485 Z" /><path d="M 1820,3105 L 1820,975 L 1820,920 L 1820,865 L 1770,865 L 1770,920 L 1770,975 L 1770,3105 L 1770,3160 L 1770,3215 L 1820,3215 L 1820,3160 Z" /><path d="M 6319,1530 L 6319,2495 L 6320,2495 L 6320,2605 L 6370,2605 L 6370,2495 L 6370,1585 L 6370,1530 L 6370,1475 L 6370,800 L 6319,800 Z" /><path d="M 6630,2360 L 6630,2305 L 6580,2305 L 6580,2360 L 6580,2415 L 6580,2595 L 6580,2705 L 6580,2865 L 6530,2865 L 6475,2865 L 6420,2865 L 6420,2915 L 6475,2915 L 6530,2915 L 6580,2915 L 6630,2915 L 6630,2865 L 6630,2705 L 6630,2595 L 6630,2415 Z" /><path d="M 6240,2725 L 6240,800 L 6189,800 L 6189,2725 L 6189,2775 L 6220,2775 L 6240,2775 L 6275,2775 L 6330,2775 L 6330,2725 L 6275,2725 Z" /></g></g></g></svg>