<svg width="1720" height="1810" viewBox="140 -1975 1720 1810" xmlns="http://www.w3.org/2000/svg" xmlns:xlink="http://www.w3.org/1999/xlink"><defs><style type="text/css">.l3d0 {fill: #fef9e7; fill-opacity: 0.5; stroke-width: 10; stroke: #f1c40f; stroke-linecap: round; stroke-linejoin: round; stroke-opacity: 0.2;}.l25d0 {fill: #8e44ad; fill-opacity: 0.05; stroke-width: 10; stroke: #8e44ad; stroke-linecap: round; stroke-linejoin: round; stroke-opacity: 1;}.l26d0 {fill: #ccd1d1; fill-opacity: 0.05; stroke-width: 10; stroke: #ccd1d1; stroke-linecap: round; stroke-linejoin: round; stroke-opacity: 1;}.l6d0 {fill: #f5b7b1; fill-opacity: 1; stroke-width: 10; stroke: #e74c3c; stroke-linecap: round; stroke-linejoin: round; stroke-opacity: 1;}.l17d0 {fill: #2980b9; fill-opacity: 1; stroke-width: 0; stroke: #000000; stroke-linecap: round; stroke-linejoin: round; stroke-opacity: 0;}.l17d7 {fill: #2980b9; fill-opacity: 1; stroke-width: 0; stroke: #000000; stroke-linecap: round; stroke-linejoin: round; stroke-opacity: 0;}.l30d0 {fill: #27ae60; fill-opacity: 1; stroke-width: 0; stroke: #000000; stroke-linecap: round; stroke-linejoin: round; stroke-opacity: 0;}.l31d0 {fill: #85c1e9; fill-opacity: 0.6; stroke-width: 0; stroke: #000000; stroke-linecap: round; stroke-linejoin: round; stroke-opacity: 0;}.l51d0 {fill: #f39c12; fill-opacity: 1; stroke-width: 10; stroke: #f39c12; stroke-linecap: round; stroke-linejoin: round; stroke-opacity: 1;}.l32d0 {fill: #f7dc6f; fill-opacity: 0.6; stroke-width: 0; stroke: #000000; stroke-linecap: round; stroke-linejoin: round; stroke-opacity: 0;}path {fill-rule: evenodd;}</style></defs><g transform="scale(1 -1)"><g id="NW"><g class="l3d0"><path d="M 1855,1050 L 145,1050 L 145,1730 L 145,1970 L 1855,1970 L 1855,1730 Z" /></g></g><g id="PP"><g class="l25d0"><path d="M 455,1770 L 585,1770 L 715,1770 L 895,1770 L 975,1770 L 1105,1770 L 1235,1770 L 1365,1770 L 1495,1770 L 1675,1770 L 1815,1770 L 1815,1050 L 185,1050 L 185,1770 L 325,1770 Z" /><path d="M 185,169 L 185,330 L 1815,330 L 1815,169 Z" /></g></g><g id="NP"><g class="l26d0"><path d="M 585,330 L 455,330 L 325,330 L 185,330 L 185,1050 L 1815,1050 L 1815,330 L 1675,330 L 1520,330 L 1390,330 L 1365,330 L 1260,330 L 1235,330 L 1130,330 L 975,330 L 895,330 L 740,330 L 610,330 Z" /><path d="M 185,1770 L 185,1930 L 1815,1930 L 1815,1770 Z" /></g></g><g id="OD"><g class="l6d0"><path d="M 1145,475 L 1115,475 L 1040,475 L 1040,675 L 1115,675 L 1145,675 L 1195,675 L 1245,675 L 1275,675 L 1300,675 L 1375,675 L 1405,675 L 1455,675 L 1505,675 L 1535,675 L 1610,675 L 1610,475 L 1535,475 L 1505,475 L 1455,475 L 1405,475 L 1375,475 L 1300,475 L 1275,475 L 1245,475 L 1195,475 Z" /><path d="M 520,575 L 520,675 L 595,675 L 625,675 L 675,675 L 725,675 L 755,675 L 830,675 L 830,475 L 755,475 L 725,475 L 675,475 L 625,475 L 595,475 L 520,475 L 495,475 L 465,475 L 390,475 L 390,575 L 465,575 L 495,575 Z" /><path d="M 1040,1625 L 1115,1625 L 1145,1625 L 1170,1625 L 1245,1625 L 1275,1625 L 1300,1625 L 1375,1625 L 1405,1625 L 1430,1625 L 1505,1625 L 1535,1625 L 1610,1625 L 1610,1525 L 1535,1525 L 1505,1525 L 1430,1525 L 1405,1525 L 1375,1525 L 1300,1525 L 1275,1525 L 1245,1525 L 1170,1525 L 1145,1525 L 1115,1525 L 1040,1525 Z" /><path d="M 830,1625 L 830,1525 L 755,1525 L 725,1525 L 650,1525 L 625,1525 L 595,1525 L 520,1525 L 495,1525 L 465,1525 L 390,1525 L 390,1625 L 465,1625 L 495,1625 L 520,1625 L 595,1625 L 625,1625 L 650,1625 L 725,1625 L 755,1625 Z" /><path d="M 215,1800 L 215,1900 L 1785,1900 L 1785,1800 Z" /><path d="M 215,200 L 215,300 L 1785,300 L 1785,200 Z" /></g></g><g id="PO"><g class="l17d0"><path d="M 725,1625 L 725,1705 L 755,1705 L 755,1625 L 755,1525 L 755,1445 L 755,1290 L 755,1210 L 755,755 L 755,675 L 755,475 L 755,395 L 725,395 L 725,475 L 725,675 L 725,755 L 725,1210 L 725,1290 L 725,1445 L 725,1525 Z" /><path d="M 1115,1625 L 1115,1705 L 1145,1705 L 1145,1625 L 1145,1525 L 1145,1445 L 1145,990 L 1145,910 L 1145,755 L 1145,675 L 1145,475 L 1145,395 L 1115,395 L 1115,475 L 1115,675 L 1115,755 L 1115,910 L 1115,990 L 1115,1445 L 1115,1525 Z" /><path d="M 1375,1625 L 1375,1705 L 1405,1705 L 1405,1625 L 1405,1525 L 1405,1445 L 1405,1290 L 1405,1210 L 1405,755 L 1405,675 L 1405,475 L 1405,395 L 1375,395 L 1375,475 L 1375,675 L 1375,755 L 1375,1210 L 1375,1290 L 1375,1445 L 1375,1525 Z" /><path d="M 1505,1625 L 1505,1705 L 1535,1705 L 1535,1625 L 1535,1525 L 1535,1445 L 1535,1090 L 1535,1010 L 1535,755 L 1535,675 L 1535,475 L 1535,395 L 1505,395 L 1505,475 L 1505,675 L 1505,755 L 1505,1010 L 1505,1090 L 1505,1445 L 1505,1525 Z" /><path d="M 1245,1625 L 1245,1705 L 1275,1705 L 1275,1625 L 1275,1525 L 1275,1445 L 1275,1190 L 1275,1110 L 1275,755 L 1275,675 L 1275,475 L 1275,395 L 1245,395 L 1245,475 L 1245,675 L 1245,755 L 1245,1110 L 1245,1190 L 1245,1445 L 1245,1525 Z" /><path d="M 595,1705 L 625,1705 L 625,1625 L 625,1525 L 625,1445 L 625,1090 L 625,1010 L 625,755 L 625,675 L 625,475 L 625,395 L 595,395 L 595,475 L 595,675 L 595,755 L 595,1010 L 595,1090 L 595,1445 L 595,1525 L 595,1625 Z" /><path d="M 465,575 L 465,655 L 464,655 L 464,1445 L 465,1445 L 465,1525 L 465,1625 L 465,1705 L 495,1705 L 495,1625 L 495,1525 L 495,1445 L 495,1090 L 495,1010 L 495,655 L 495,575 L 495,475 L 495,395 L 465,395 L 465,475 Z" /></g><g class="l17d7"><path d="M 205,1380 L 235,1380 L 235,1770 L 205,1770 Z" /><path d="M 335,1380 L 365,1380 L 365,1770 L 335,1770 Z" /><path d="M 205,330 L 235,330 L 235,720 L 205,720 Z" /><path d="M 335,330 L 365,330 L 365,720 L 335,720 Z" /><path d="M 1765,380 L 1795,380 L 1795,770 L 1765,770 Z" /><path d="M 1635,380 L 1665,380 L 1665,770 L 1635,770 Z" /><path d="M 855,380 L 855,770 L 885,770 L 885,380 Z" /><path d="M 985,380 L 985,770 L 1015,770 L 1015,380 Z" /><path d="M 1765,1380 L 1795,1380 L 1795,1770 L 1765,1770 Z" /><path d="M 1635,1380 L 1665,1380 L 1665,1770 L 1635,1770 Z" /><path d="M 985,1380 L 985,1770 L 1015,1770 L 1015,1380 Z" /><path d="M 855,1380 L 855,1770 L 885,1770 L 885,1380 Z" /></g></g><g id="CO"><g class="l30d0"><path d="M 265,1830 L 305,1830 L 305,1870 L 265,1870 Z" /><path d="M 395,1830 L 435,1830 L 435,1870 L 395,1870 Z" /><path d="M 525,1830 L 565,1830 L 565,1870 L 525,1870 Z" /><path d="M 655,1830 L 695,1830 L 695,1870 L 655,1870 Z" /><path d="M 785,1830 L 825,1830 L 825,1870 L 785,1870 Z" /><path d="M 915,1830 L 955,1830 L 955,1870 L 915,1870 Z" /><path d="M 1045,1830 L 1085,1830 L 1085,1870 L 1045,1870 Z" /><path d="M 1175,1830 L 1215,1830 L 1215,1870 L 1175,1870 Z" /><path d="M 1305,1830 L 1345,1830 L 1345,1870 L 1305,1870 Z" /><path d="M 1435,1830 L 1475,1830 L 1475,1870 L 1435,1870 Z" /><path d="M 1565,1830 L 1605,1830 L 1605,1870 L 1565,1870 Z" /><path d="M 1695,1830 L 1735,1830 L 1735,1870 L 1695,1870 Z" /><path d="M 265,230 L 305,230 L 305,270 L 265,270 Z" /><path d="M 395,230 L 435,230 L 435,270 L 395,270 Z" /><path d="M 525,230 L 565,230 L 565,270 L 525,270 Z" /><path d="M 655,230 L 695,230 L 695,270 L 655,270 Z" /><path d="M 785,230 L 825,230 L 825,270 L 785,270 Z" /><path d="M 915,230 L 955,230 L 955,270 L 915,270 Z" /><path d="M 1045,230 L 1085,230 L 1085,270 L 1045,270 Z" /><path d="M 1175,230 L 1215,230 L 1215,270 L 1175,270 Z" /><path d="M 1305,230 L 1345,230 L 1345,270 L 1305,270 Z" /><path d="M 1435,230 L 1475,230 L 1475,270 L 1435,270 Z" /><path d="M 1565,230 L 1605,230 L 1605,270 L 1565,270 Z" /><path d="M 1695,230 L 1735,230 L 1735,270 L 1695,270 Z" /><path d="M 395,1555 L 435,1555 L 435,1595 L 395,1595 Z" /><path d="M 395,505 L 435,505 L 435,545 L 395,545 Z" /><path d="M 1565,555 L 1605,555 L 1605,595 L 1565,595 Z" /><path d="M 785,555 L 825,555 L 825,595 L 785,595 Z" /><path d="M 1045,555 L 1085,555 L 1085,595 L 1045,595 Z" /><path d="M 1045,1555 L 1085,1555 L 1085,1595 L 1045,1595 Z" /><path d="M 1435,1555 L 1475,1555 L 1475,1595 L 1435,1595 Z" /><path d="M 1565,1555 L 1605,1555 L 1605,1595 L 1565,1595 Z" /><path d="M 655,1555 L 695,1555 L 695,1595 L 655,1595 Z" /><path d="M 785,1555 L 825,1555 L 825,1595 L 785,1595 Z" /><path d="M 1175,1555 L 1215,1555 L 1215,1595 L 1175,1595 Z" /><path d="M 1305,555 L 1345,555 L 1345,595 L 1305,595 Z" /><path d="M 525,555 L 565,555 L 565,595 L 525,595 Z" /><path d="M 1305,1555 L 1345,1555 L 1345,1595 L 1305,1595 Z" /><path d="M 525,1555 L 565,1555 L 565,1595 L 525,1595 Z" /><path d="M 720,1230 L 760,1230 L 760,1270 L 720,1270 Z" /><path d="M 1110,930 L 1150,930 L 1150,970 L 1110,970 Z" /><path d="M 1370,1230 L 1410,1230 L 1410,1270 L 1370,1270 Z" /><path d="M 1500,1030 L 1540,1030 L 1540,1070 L 1500,1070 Z" /><path d="M 1240,1130 L 1280,1130 L 1280,1170 L 1240,1170 Z" /><path d="M 590,1030 L 630,1030 L 630,1070 L 590,1070 Z" /><path d="M 460,1030 L 500,1030 L 500,1070 L 460,1070 Z" /></g></g><g id="M1"><g class="l31d0"><path d="M 1349,1625 L 1350,1625 L 1350,1525 L 1300,1525 L 1300,1625 L 1300,1800 L 1089,1800 L 1089,1625 L 1090,1625 L 1090,1525 L 1040,1525 L 1040,1625 L 1040,1800 L 830,1800 L 830,1625 L 830,1525 L 780,1525 L 780,1625 L 780,1800 L 570,1800 L 570,1625 L 570,1525 L 520,1525 L 520,1625 L 520,1800 L 215,1800 L 215,1900 L 1785,1900 L 1785,1800 L 1609,1800 L 1609,1625 L 1610,1625 L 1610,1525 L 1560,1525 L 1560,1625 L 1560,1800 L 1349,1800 Z" /><path d="M 520,300 L 520,525 L 520,625 L 570,625 L 570,525 L 570,300 L 1300,300 L 1300,525 L 1300,625 L 1350,625 L 1350,525 L 1349,525 L 1349,300 L 1785,300 L 1785,200 L 215,200 L 215,300 Z" /><path d="M 625,1225 L 625,1275 L 700,1275 L 780,1275 L 855,1275 L 855,1225 L 780,1225 L 700,1225 Z" /><path d="M 1015,925 L 1015,975 L 1090,975 L 1170,975 L 1245,975 L 1245,925 L 1170,925 L 1090,925 Z" /><path d="M 440,1075 L 480,1075 L 520,1075 L 570,1075 L 610,1075 L 650,1075 L 660,1075 L 660,1025 L 650,1025 L 610,1025 L 570,1025 L 520,1025 L 480,1025 L 440,1025 L 430,1025 L 430,1075 Z" /><path d="M 1560,460 L 1560,520 L 1560,525 L 1560,625 L 1560,630 L 1560,690 L 1610,690 L 1610,630 L 1610,625 L 1610,525 L 1610,520 L 1610,460 Z" /><path d="M 1430,1460 L 1430,1520 L 1430,1525 L 1430,1625 L 1430,1630 L 1430,1690 L 1480,1690 L 1480,1630 L 1480,1625 L 1480,1525 L 1480,1520 L 1480,1460 Z" /><path d="M 1040,460 L 1040,520 L 1040,525 L 1040,625 L 1040,630 L 1040,690 L 1090,690 L 1090,630 L 1090,625 L 1090,525 L 1090,520 L 1090,460 Z" /><path d="M 780,460 L 780,520 L 780,525 L 780,625 L 780,630 L 780,690 L 830,690 L 830,630 L 830,625 L 830,525 L 830,520 L 830,460 Z" /><path d="M 390,410 L 390,470 L 390,475 L 390,575 L 390,580 L 390,640 L 440,640 L 440,580 L 440,575 L 440,475 L 440,470 L 440,410 Z" /><path d="M 390,1460 L 390,1520 L 390,1525 L 390,1625 L 390,1630 L 390,1690 L 440,1690 L 440,1630 L 440,1625 L 440,1525 L 440,1520 L 440,1460 Z" /><path d="M 1120,1225 L 1065,1225 L 1010,1225 L 1010,1275 L 1065,1275 L 1120,1275 L 1350,1275 L 1390,1275 L 1430,1275 L 1430,1225 L 1390,1225 L 1350,1225 Z" /><path d="M 1170,1415 L 1120,1415 L 1065,1415 L 1010,1415 L 1010,1465 L 1120,1465 L 1120,1464 L 1170,1464 L 1170,1525 L 1170,1625 L 1220,1625 L 1220,1525 L 1220,1464 L 1220,1415 Z" /><path d="M 860,1025 L 805,1025 L 750,1025 L 750,1075 L 805,1075 L 860,1075 L 1480,1075 L 1520,1075 L 1560,1075 L 1560,1025 L 1520,1025 L 1480,1025 Z" /><path d="M 700,1525 L 700,1464 L 750,1464 L 750,1465 L 860,1465 L 860,1415 L 830,1415 L 750,1415 L 700,1415 L 650,1415 L 650,1464 L 650,1525 L 650,1625 L 700,1625 Z" /><path d="M 470,1125 L 415,1125 L 360,1125 L 360,1175 L 415,1175 L 470,1175 L 1220,1175 L 1260,1175 L 1300,1175 L 1300,1125 L 1260,1125 L 1220,1125 Z" /></g></g><g id="VIA1"><g class="l51d0"><path d="M 1560,550 L 1610,550 L 1610,600 L 1560,600 Z" /><path d="M 1430,1550 L 1480,1550 L 1480,1600 L 1430,1600 Z" /><path d="M 1040,550 L 1090,550 L 1090,600 L 1040,600 Z" /><path d="M 780,550 L 830,550 L 830,600 L 780,600 Z" /><path d="M 390,500 L 440,500 L 440,550 L 390,550 Z" /><path d="M 390,1550 L 440,1550 L 440,1600 L 390,1600 Z" /><path d="M 1040,1225 L 1090,1225 L 1090,1275 L 1040,1275 Z" /><path d="M 1040,1415 L 1090,1415 L 1090,1465 L 1040,1465 Z" /><path d="M 780,1025 L 830,1025 L 830,1075 L 780,1075 Z" /><path d="M 780,1415 L 830,1415 L 830,1465 L 780,1465 Z" /><path d="M 390,1125 L 440,1125 L 440,1175 L 390,1175 Z" /></g></g><g id="M2"><g class="l32d0"><path d="M 1480,1175 L 1560,1175 L 1609,1175 L 1609,1125 L 1609,630 L 1610,630 L 1610,520 L 1560,520 L 1560,630 L 1560,1125 L 1480,1125 L 1430,1125 L 1430,1175 L 1430,1520 L 1430,1630 L 1480,1630 L 1480,1520 Z" /><path d="M 1090,1305 L 1090,1195 L 1089,1195 L 1089,630 L 1090,630 L 1090,520 L 1040,520 L 1040,575 L 1040,630 L 1040,1195 L 1040,1305 L 1040,1385 L 1040,1440 L 1040,1495 L 1090,1495 L 1090,1385 L 1089,1385 L 1089,1305 Z" /><path d="M 830,995 L 830,630 L 830,575 L 830,520 L 780,520 L 780,575 L 780,630 L 780,995 L 780,1105 L 780,1385 L 780,1440 L 780,1495 L 830,1495 L 830,1440 L 830,1385 L 830,1105 Z" /><path d="M 390,1575 L 390,1630 L 440,1630 L 440,1575 L 440,1520 L 440,1205 L 440,1095 L 440,580 L 440,525 L 440,470 L 390,470 L 390,525 L 390,580 L 390,1095 L 390,1205 L 390,1520 Z" /></g></g></g></svg>