<svg width="1720" height="1810" viewBox="70 -1840 1720 1810" xmlns="http://www.w3.org/2000/svg" xmlns:xlink="http://www.w3.org/1999/xlink"><defs><style type="text/css">.l3d0 {fill: #fef9e7; fill-opacity: 0.5; stroke-width: 10; stroke: #f1c40f; stroke-linecap: round; stroke-linejoin: round; stroke-opacity: 0.2;}.l25d0 {fill: #8e44ad; fill-opacity: 0.05; stroke-width: 10; stroke: #8e44ad; stroke-linecap: round; stroke-linejoin: round; stroke-opacity: 1;}.l26d0 {fill: #ccd1d1; fill-opacity: 0.05; stroke-width: 10; stroke: #ccd1d1; stroke-linecap: round; stroke-linejoin: round; stroke-opacity: 1;}.l6d0 {fill: #f5b7b1; fill-opacity: 1; stroke-width: 10; stroke: #e74c3c; stroke-linecap: round; stroke-linejoin: round; stroke-opacity: 1;}.l17d0 {fill: #2980b9; fill-opacity: 1; stroke-width: 0; stroke: #000000; stroke-linecap: round; stroke-linejoin: round; stroke-opacity: 0;}.l17d7 {fill: #2980b9; fill-opacity: 1; stroke-width: 0; stroke: #000000; stroke-linecap: round; stroke-linejoin: round; stroke-opacity: 0;}.l30d0 {fill: #27ae60; fill-opacity: 1; stroke-width: 0; stroke: #000000; stroke-linecap: round; stroke-linejoin: round; stroke-opacity: 0;}.l31d0 {fill: #85c1e9; fill-opacity: 0.6; stroke-width: 0; stroke: #000000; stroke-linecap: round; stroke-linejoin: round; stroke-opacity: 0;}.l51d0 {fill: #f39c12; fill-opacity: 1; stroke-width: 10; stroke: #f39c12; stroke-linecap: round; stroke-linejoin: round; stroke-opacity: 1;}.l32d0 {fill: #f7dc6f; fill-opacity: 0.6; stroke-width: 0; stroke: #000000; stroke-linecap: round; stroke-linejoin: round; stroke-opacity: 0;}path {fill-rule: evenodd;}</style></defs><g transform="scale(1 -1)"><g id="NW"><g class="l3d0"><path d="M 1785,915 L 75,915 L 75,1595 L 75,1835 L 1785,1835 L 1785,1595 Z" /></g></g><g id="PP"><g class="l25d0"><path d="M 435,1635 L 565,1635 L 695,1635 L 775,1635 L 905,1635 L 1035,1635 L 1165,1635 L 1295,1635 L 1425,1635 L 1605,1635 L 1745,1635 L 1745,915 L 115,915 L 115,1635 L 255,1635 Z" /><path d="M 115,35 L 115,195 L 1745,195 L 1745,35 Z" /></g></g><g id="NP"><g class="l26d0"><path d="M 515,195 L 385,195 L 255,195 L 115,195 L 115,915 L 1745,915 L 1745,195 L 1605,195 L 1450,195 L 1320,195 L 1190,195 L 1060,195 L 930,195 L 775,195 L 695,195 Z" /><path d="M 115,1635 L 115,1795 L 1745,1795 L 1745,1635 Z" /></g></g><g id="OD"><g class="l6d0"><path d="M 915,1490 L 945,1490 L 970,1490 L 1045,1490 L 1075,1490 L 1100,1490 L 1175,1490 L 1205,1490 L 1230,1490 L 1305,1490 L 1335,1490 L 1360,1490 L 1435,1490 L 1465,1490 L 1540,1490 L 1540,1390 L 1465,1390 L 1435,1390 L 1360,1390 L 1335,1390 L 1305,1390 L 1230,1390 L 1205,1390 L 1175,1390 L 1100,1390 L 1075,1390 L 1045,1390 L 970,1390 L 945,1390 L 915,1390 L 840,1390 L 840,1490 Z" /><path d="M 1385,340 L 1335,340 L 1305,340 L 1255,340 L 1205,340 L 1175,340 L 1125,340 L 1075,340 L 1045,340 L 995,340 L 945,340 L 915,340 L 840,340 L 840,740 L 915,740 L 945,740 L 995,740 L 1045,740 L 1075,740 L 1125,740 L 1175,740 L 1205,740 L 1255,740 L 1305,740 L 1335,740 L 1385,740 L 1435,740 L 1465,740 L 1540,740 L 1540,340 L 1465,340 L 1435,340 Z" /><path d="M 450,440 L 525,440 L 555,440 L 630,440 L 630,340 L 555,340 L 525,340 L 450,340 L 425,340 L 395,340 L 320,340 L 320,440 L 395,440 L 425,440 Z" /><path d="M 500,1490 L 525,1490 L 555,1490 L 630,1490 L 630,1390 L 555,1390 L 525,1390 L 500,1390 L 425,1390 L 395,1390 L 320,1390 L 320,1490 L 395,1490 L 425,1490 Z" /><path d="M 145,65 L 145,165 L 1715,165 L 1715,65 Z" /><path d="M 145,1665 L 145,1765 L 1715,1765 L 1715,1665 Z" /></g></g><g id="PO"><g class="l17d0"><path d="M 525,1490 L 525,1570 L 555,1570 L 555,1490 L 555,1390 L 555,1310 L 555,930 L 555,850 L 555,520 L 555,440 L 555,340 L 555,260 L 525,260 L 525,340 L 525,440 L 525,520 L 525,850 L 525,930 L 525,1310 L 525,1390 Z" /><path d="M 395,1490 L 395,1570 L 425,1570 L 425,1490 L 425,1390 L 425,1310 L 425,1130 L 425,1050 L 425,520 L 425,440 L 425,340 L 425,260 L 395,260 L 395,340 L 395,440 L 395,520 L 395,1050 L 395,1130 L 395,1310 L 395,1390 Z" /><path d="M 1435,740 L 1435,820 L 1435,850 L 1435,930 L 1435,1310 L 1435,1390 L 1435,1490 L 1435,1570 L 1465,1570 L 1465,1490 L 1465,1390 L 1465,1310 L 1464,1310 L 1464,930 L 1465,930 L 1465,850 L 1464,850 L 1464,820 L 1465,820 L 1465,740 L 1465,340 L 1465,260 L 1435,260 L 1435,340 Z" /><path d="M 1305,1490 L 1305,1570 L 1335,1570 L 1335,1490 L 1335,1390 L 1335,1310 L 1335,1030 L 1335,950 L 1335,820 L 1335,740 L 1335,340 L 1335,260 L 1305,260 L 1305,340 L 1305,740 L 1305,820 L 1305,950 L 1305,1030 L 1305,1310 L 1305,1390 Z" /><path d="M 1175,1490 L 1175,1570 L 1205,1570 L 1205,1490 L 1205,1390 L 1205,1310 L 1204,1310 L 1204,1130 L 1205,1130 L 1205,1050 L 1204,1050 L 1204,820 L 1205,820 L 1205,740 L 1205,340 L 1205,260 L 1175,260 L 1175,340 L 1175,740 L 1175,820 L 1175,1050 L 1175,1130 L 1175,1310 L 1175,1390 Z" /><path d="M 1045,1490 L 1045,1570 L 1075,1570 L 1075,1490 L 1075,1390 L 1075,1310 L 1075,1230 L 1075,1150 L 1075,820 L 1075,740 L 1075,340 L 1075,260 L 1045,260 L 1045,340 L 1045,740 L 1045,820 L 1045,1150 L 1045,1230 L 1045,1310 L 1045,1390 Z" /><path d="M 915,1490 L 915,1570 L 945,1570 L 945,1490 L 945,1390 L 945,1330 L 945,1310 L 945,1250 L 945,820 L 945,740 L 945,340 L 945,260 L 915,260 L 915,340 L 915,740 L 915,820 L 915,1250 L 915,1310 L 915,1330 L 915,1390 Z" /></g><g class="l17d7"><path d="M 135,195 L 165,195 L 165,585 L 135,585 Z" /><path d="M 265,195 L 295,195 L 295,585 L 265,585 Z" /><path d="M 1695,1245 L 1725,1245 L 1725,1635 L 1695,1635 Z" /><path d="M 1565,1245 L 1595,1245 L 1595,1635 L 1565,1635 Z" /><path d="M 135,1245 L 165,1245 L 165,1635 L 135,1635 Z" /><path d="M 265,1245 L 295,1245 L 295,1635 L 265,1635 Z" /><path d="M 1695,280 L 1725,280 L 1725,800 L 1695,800 Z" /><path d="M 1565,280 L 1595,280 L 1595,800 L 1565,800 Z" /><path d="M 815,280 L 815,195 L 785,195 L 785,280 L 785,585 L 785,800 L 815,800 L 815,585 Z" /><path d="M 685,280 L 685,195 L 655,195 L 655,280 L 655,585 L 655,800 L 685,800 L 685,585 Z" /><path d="M 785,1245 L 785,1635 L 815,1635 L 815,1245 Z" /><path d="M 655,1245 L 655,1635 L 685,1635 L 685,1245 Z" /></g></g><g id="CO"><g class="l30d0"><path d="M 1625,95 L 1665,95 L 1665,135 L 1625,135 Z" /><path d="M 1495,95 L 1535,95 L 1535,135 L 1495,135 Z" /><path d="M 1365,95 L 1405,95 L 1405,135 L 1365,135 Z" /><path d="M 1235,95 L 1275,95 L 1275,135 L 1235,135 Z" /><path d="M 1105,95 L 1145,95 L 1145,135 L 1105,135 Z" /><path d="M 975,95 L 1015,95 L 1015,135 L 975,135 Z" /><path d="M 845,95 L 885,95 L 885,135 L 845,135 Z" /><path d="M 715,95 L 755,95 L 755,135 L 715,135 Z" /><path d="M 585,95 L 625,95 L 625,135 L 585,135 Z" /><path d="M 455,95 L 495,95 L 495,135 L 455,135 Z" /><path d="M 325,95 L 365,95 L 365,135 L 325,135 Z" /><path d="M 195,95 L 235,95 L 235,135 L 195,135 Z" /><path d="M 1625,1695 L 1665,1695 L 1665,1735 L 1625,1735 Z" /><path d="M 1495,1695 L 1535,1695 L 1535,1735 L 1495,1735 Z" /><path d="M 1365,1695 L 1405,1695 L 1405,1735 L 1365,1735 Z" /><path d="M 1235,1695 L 1275,1695 L 1275,1735 L 1235,1735 Z" /><path d="M 1105,1695 L 1145,1695 L 1145,1735 L 1105,1735 Z" /><path d="M 975,1695 L 1015,1695 L 1015,1735 L 975,1735 Z" /><path d="M 845,1695 L 885,1695 L 885,1735 L 845,1735 Z" /><path d="M 715,1695 L 755,1695 L 755,1735 L 715,1735 Z" /><path d="M 585,1695 L 625,1695 L 625,1735 L 585,1735 Z" /><path d="M 455,1695 L 495,1695 L 495,1735 L 455,1735 Z" /><path d="M 325,1695 L 365,1695 L 365,1735 L 325,1735 Z" /><path d="M 195,1695 L 235,1695 L 235,1735 L 195,1735 Z" /><path d="M 325,370 L 365,370 L 365,410 L 325,410 Z" /><path d="M 845,670 L 885,670 L 885,710 L 845,710 Z" /><path d="M 845,520 L 885,520 L 885,560 L 845,560 Z" /><path d="M 845,370 L 885,370 L 885,410 L 845,410 Z" /><path d="M 1105,1420 L 1145,1420 L 1145,1460 L 1105,1460 Z" /><path d="M 975,1420 L 1015,1420 L 1015,1460 L 975,1460 Z" /><path d="M 1235,1420 L 1275,1420 L 1275,1460 L 1235,1460 Z" /><path d="M 1495,1420 L 1535,1420 L 1535,1460 L 1495,1460 Z" /><path d="M 1365,1420 L 1405,1420 L 1405,1460 L 1365,1460 Z" /><path d="M 325,1420 L 365,1420 L 365,1460 L 325,1460 Z" /><path d="M 455,1420 L 495,1420 L 495,1460 L 455,1460 Z" /><path d="M 845,1420 L 885,1420 L 885,1460 L 845,1460 Z" /><path d="M 1495,670 L 1535,670 L 1535,710 L 1495,710 Z" /><path d="M 1495,520 L 1535,520 L 1535,560 L 1495,560 Z" /><path d="M 1495,370 L 1535,370 L 1535,410 L 1495,410 Z" /><path d="M 585,370 L 625,370 L 625,410 L 585,410 Z" /><path d="M 455,370 L 495,370 L 495,410 L 455,410 Z" /><path d="M 585,1420 L 625,1420 L 625,1460 L 585,1460 Z" /><path d="M 520,870 L 560,870 L 560,910 L 520,910 Z" /><path d="M 390,1070 L 430,1070 L 430,1110 L 390,1110 Z" /><path d="M 1430,870 L 1470,870 L 1470,910 L 1430,910 Z" /><path d="M 1300,970 L 1340,970 L 1340,1010 L 1300,1010 Z" /><path d="M 1170,1070 L 1210,1070 L 1210,1110 L 1170,1110 Z" /><path d="M 1040,1170 L 1080,1170 L 1080,1210 L 1040,1210 Z" /><path d="M 910,1270 L 950,1270 L 950,1310 L 910,1310 Z" /></g></g><g id="M1"><g class="l31d0"><path d="M 500,440 L 500,340 L 500,165 L 1490,165 L 1490,340 L 1490,740 L 1540,740 L 1540,340 L 1540,165 L 1715,165 L 1715,65 L 145,65 L 145,165 L 450,165 L 450,340 L 450,440 Z" /><path d="M 450,1390 L 450,1490 L 450,1665 L 145,1665 L 145,1765 L 1715,1765 L 1715,1665 L 1410,1665 L 1410,1490 L 1410,1390 L 1360,1390 L 1360,1490 L 1360,1665 L 1150,1665 L 1150,1490 L 1150,1390 L 1100,1390 L 1100,1490 L 1100,1665 L 890,1665 L 890,1490 L 890,1390 L 840,1390 L 840,1490 L 840,1665 L 500,1665 L 500,1490 L 500,1390 Z" /><path d="M 890,340 L 840,340 L 840,485 L 840,595 L 840,740 L 890,740 L 890,595 L 890,485 Z" /><path d="M 320,1325 L 320,1385 L 320,1390 L 320,1490 L 320,1495 L 320,1555 L 370,1555 L 370,1495 L 370,1490 L 370,1390 L 370,1385 L 370,1325 Z" /><path d="M 580,1325 L 580,1385 L 580,1390 L 580,1490 L 580,1495 L 580,1555 L 630,1555 L 630,1495 L 630,1490 L 630,1390 L 630,1385 L 630,1325 Z" /><path d="M 580,275 L 580,335 L 580,340 L 580,440 L 580,445 L 580,505 L 630,505 L 630,445 L 630,440 L 630,340 L 630,335 L 630,275 Z" /><path d="M 320,275 L 320,335 L 320,340 L 320,440 L 320,445 L 320,505 L 370,505 L 370,445 L 370,440 L 370,340 L 370,335 L 370,275 Z" /><path d="M 425,865 L 425,915 L 500,915 L 580,915 L 655,915 L 655,865 L 580,865 L 500,865 Z" /><path d="M 295,1065 L 295,1115 L 370,1115 L 450,1115 L 525,1115 L 525,1065 L 450,1065 L 370,1065 Z" /><path d="M 1335,865 L 1335,915 L 1410,915 L 1490,915 L 1565,915 L 1565,865 L 1490,865 L 1410,865 Z" /><path d="M 1075,1065 L 1075,1115 L 1150,1115 L 1230,1115 L 1305,1115 L 1305,1065 L 1230,1065 L 1150,1065 Z" /><path d="M 815,1265 L 815,1315 L 890,1315 L 970,1315 L 1045,1315 L 1045,1265 L 970,1265 L 890,1265 Z" /><path d="M 400,965 L 345,965 L 290,965 L 290,1015 L 400,1015 L 400,1014 L 1280,1014 L 1280,1015 L 1360,1015 L 1360,965 L 1320,965 L 1280,965 Z" /><path d="M 660,1165 L 605,1165 L 550,1165 L 550,1215 L 660,1215 L 660,1214 L 1020,1214 L 1020,1215 L 1100,1215 L 1100,1165 L 1060,1165 L 1020,1165 Z" /><path d="M 1490,1375 L 1490,1385 L 1490,1390 L 1490,1490 L 1490,1495 L 1490,1605 L 1540,1605 L 1540,1495 L 1540,1490 L 1540,1390 L 1540,1385 L 1540,1375 Z" /><path d="M 1230,1375 L 1230,1385 L 1230,1390 L 1230,1490 L 1230,1495 L 1230,1605 L 1280,1605 L 1280,1495 L 1280,1490 L 1280,1390 L 1280,1385 L 1280,1375 Z" /><path d="M 970,1375 L 970,1385 L 970,1390 L 970,1490 L 970,1495 L 970,1605 L 1020,1605 L 1020,1495 L 1020,1490 L 1020,1390 L 1020,1385 L 1020,1375 Z" /></g></g><g id="VIA1"><g class="l51d0"><path d="M 840,515 L 890,515 L 890,565 L 840,565 Z" /><path d="M 320,1415 L 370,1415 L 370,1465 L 320,1465 Z" /><path d="M 580,1415 L 630,1415 L 630,1465 L 580,1465 Z" /><path d="M 580,365 L 630,365 L 630,415 L 580,415 Z" /><path d="M 320,365 L 370,365 L 370,415 L 320,415 Z" /><path d="M 320,965 L 370,965 L 370,1015 L 320,1015 Z" /><path d="M 580,1165 L 630,1165 L 630,1215 L 580,1215 Z" /><path d="M 1490,1415 L 1540,1415 L 1540,1465 L 1490,1465 Z" /><path d="M 1230,1415 L 1280,1415 L 1280,1465 L 1230,1465 Z" /><path d="M 970,1415 L 1020,1415 L 1020,1465 L 970,1465 Z" /></g></g><g id="M2"><g class="l32d0"><path d="M 370,390 L 370,335 L 320,335 L 320,390 L 320,445 L 320,935 L 320,1045 L 320,1385 L 320,1440 L 320,1495 L 370,1495 L 370,1440 L 370,1385 L 370,1045 L 370,935 L 370,445 Z" /><path d="M 580,1135 L 580,1245 L 580,1385 L 580,1440 L 580,1495 L 630,1495 L 630,1440 L 630,1385 L 630,1245 L 630,1135 L 630,445 L 630,390 L 630,335 L 580,335 L 580,390 L 580,445 Z" /><path d="M 1255,1415 L 1200,1415 L 1050,1415 L 995,1415 L 940,1415 L 890,1415 L 890,595 L 890,540 L 890,485 L 840,485 L 840,540 L 840,595 L 840,1415 L 840,1464 L 890,1464 L 940,1464 L 940,1465 L 1050,1465 L 1050,1464 L 1200,1464 L 1200,1465 L 1310,1465 L 1310,1464 L 1460,1464 L 1460,1465 L 1570,1465 L 1570,1415 L 1515,1415 L 1460,1415 L 1310,1415 Z" /></g></g></g></svg>