<svg width="9260" height="1810" viewBox="570 -2220 9260 1810" xmlns="http://www.w3.org/2000/svg" xmlns:xlink="http://www.w3.org/1999/xlink"><defs><style type="text/css">.l3d0 {fill: #fef9e7; fill-opacity: 0.5; stroke-width: 10; stroke: #f1c40f; stroke-linecap: round; stroke-linejoin: round; stroke-opacity: 0.2;}.l25d0 {fill: #8e44ad; fill-opacity: 0.05; stroke-width: 10; stroke: #8e44ad; stroke-linecap: round; stroke-linejoin: round; stroke-opacity: 1;}.l26d0 {fill: #ccd1d1; fill-opacity: 0.05; stroke-width: 10; stroke: #ccd1d1; stroke-linecap: round; stroke-linejoin: round; stroke-opacity: 1;}.l6d0 {fill: #f5b7b1; fill-opacity: 1; stroke-width: 10; stroke: #e74c3c; stroke-linecap: round; stroke-linejoin: round; stroke-opacity: 1;}.l17d0 {fill: #2980b9; fill-opacity: 1; stroke-width: 0; stroke: #000000; stroke-linecap: round; stroke-linejoin: round; stroke-opacity: 0;}.l17d7 {fill: #2980b9; fill-opacity: 1; stroke-width: 0; stroke: #000000; stroke-linecap: round; stroke-linejoin: round; stroke-opacity: 0;}.l30d0 {fill: #27ae60; fill-opacity: 1; stroke-width: 0; stroke: #000000; stroke-linecap: round; stroke-linejoin: round; stroke-opacity: 0;}.l31d0 {fill: #85c1e9; fill-opacity: 0.6; stroke-width: 0; stroke: #000000; stroke-linecap: round; stroke-linejoin: round; stroke-opacity: 0;}.l51d0 {fill: #f39c12; fill-opacity: 1; stroke-width: 10; stroke: #f39c12; stroke-linecap: round; stroke-linejoin: round; stroke-opacity: 1;}.l32d0 {fill: #f7dc6f; fill-opacity: 0.6; stroke-width: 0; stroke: #000000; stroke-linecap: round; stroke-linejoin: round; stroke-opacity: 0;}.l52d0 {fill: #a04000; fill-opacity: 1; stroke-width: 10; stroke: #a04000; stroke-linecap: round; stroke-linejoin: round; stroke-opacity: 1;}.l33d0 {fill: #16a085; fill-opacity: 0.6; stroke-width: 0; stroke: #000000; stroke-linecap: round; stroke-linejoin: round; stroke-opacity: 0;}path {fill-rule: evenodd;}</style></defs><g transform="scale(1 -1)"><g id="NW"><g class="l3d0"><path d="M 3565,1295 L 575,1295 L 575,1975 L 575,2215 L 3565,2215 L 3845,2215 L 6555,2215 L 6835,2215 L 9825,2215 L 9825,1975 L 9825,1295 L 6835,1295 L 6555,1295 L 3845,1295 Z" /></g></g><g id="PP"><g class="l25d0"><path d="M 2755,2015 L 2885,2015 L 2965,2015 L 3145,2015 L 3225,2015 L 3275,2015 L 3355,2015 L 3485,2015 L 3605,2015 L 3665,2015 L 3745,2015 L 3805,2015 L 3925,2015 L 4005,2015 L 4055,2015 L 4135,2015 L 4265,2015 L 4395,2015 L 4575,2015 L 4655,2015 L 4785,2015 L 4915,2015 L 5045,2015 L 5175,2015 L 5355,2015 L 5435,2015 L 5615,2015 L 5745,2015 L 5875,2015 L 5955,2015 L 6135,2015 L 6215,2015 L 6265,2015 L 6345,2015 L 6475,2015 L 6595,2015 L 6655,2015 L 6735,2015 L 6795,2015 L 6915,2015 L 6995,2015 L 7045,2015 L 7125,2015 L 7255,2015 L 7385,2015 L 7565,2015 L 7645,2015 L 7775,2015 L 7905,2015 L 8035,2015 L 8165,2015 L 8345,2015 L 8425,2015 L 8605,2015 L 8735,2015 L 8865,2015 L 8945,2015 L 9125,2015 L 9205,2015 L 9255,2015 L 9335,2015 L 9465,2015 L 9645,2015 L 9785,2015 L 9785,1295 L 6795,1295 L 6595,1295 L 3805,1295 L 3605,1295 L 615,1295 L 615,2015 L 755,2015 L 935,2015 L 1015,2015 L 1065,2015 L 1145,2015 L 1275,2015 L 1405,2015 L 1585,2015 L 1665,2015 L 1795,2015 L 1925,2015 L 2055,2015 L 2185,2015 L 2365,2015 L 2445,2015 L 2625,2015 Z" /><path d="M 615,575 L 3605,575 L 3805,575 L 6595,575 L 6795,575 L 9785,575 L 9785,415 L 6795,415 L 6595,415 L 3805,415 L 3605,415 L 615,415 Z" /></g></g><g id="NP"><g class="l26d0"><path d="M 3380,575 L 3355,575 L 3250,575 L 3225,575 L 3120,575 L 2965,575 L 2885,575 L 2730,575 L 2600,575 L 2445,575 L 2365,575 L 2210,575 L 2080,575 L 1950,575 L 1925,575 L 1795,575 L 1665,575 L 1585,575 L 1430,575 L 1300,575 L 1170,575 L 1145,575 L 1040,575 L 1015,575 L 910,575 L 755,575 L 615,575 L 615,1295 L 3605,1295 L 3805,1295 L 6595,1295 L 6795,1295 L 9785,1295 L 9785,575 L 9645,575 L 9490,575 L 9360,575 L 9335,575 L 9230,575 L 9205,575 L 9100,575 L 8945,575 L 8865,575 L 8710,575 L 8580,575 L 8425,575 L 8345,575 L 8190,575 L 8060,575 L 7930,575 L 7905,575 L 7775,575 L 7645,575 L 7565,575 L 7410,575 L 7280,575 L 7150,575 L 7125,575 L 7020,575 L 6995,575 L 6890,575 L 6795,575 L 6735,575 L 6655,575 L 6595,575 L 6500,575 L 6370,575 L 6345,575 L 6240,575 L 6215,575 L 6110,575 L 5955,575 L 5875,575 L 5720,575 L 5590,575 L 5435,575 L 5355,575 L 5200,575 L 5070,575 L 4940,575 L 4915,575 L 4785,575 L 4655,575 L 4575,575 L 4420,575 L 4290,575 L 4160,575 L 4135,575 L 4030,575 L 4005,575 L 3900,575 L 3805,575 L 3745,575 L 3665,575 L 3605,575 L 3510,575 Z" /><path d="M 615,2175 L 3605,2175 L 3805,2175 L 6595,2175 L 6795,2175 L 9785,2175 L 9785,2015 L 6795,2015 L 6595,2015 L 3805,2015 L 3605,2015 L 615,2015 Z" /></g></g><g id="OD"><g class="l6d0"><path d="M 8045,1020 L 8075,1020 L 8125,1020 L 8175,1020 L 8205,1020 L 8280,1020 L 8280,720 L 8205,720 L 8175,720 L 8125,720 L 8075,720 L 8045,720 L 7995,720 L 7945,720 L 7915,720 L 7840,720 L 7815,720 L 7785,720 L 7710,720 L 7710,1020 L 7785,1020 L 7815,1020 L 7840,1020 L 7915,1020 L 7945,1020 L 7995,1020 Z" /><path d="M 7345,720 L 7295,720 L 7265,720 L 7215,720 L 7165,720 L 7135,720 L 7060,720 L 7035,720 L 7005,720 L 6955,720 L 6905,720 L 6875,720 L 6800,720 L 6800,920 L 6875,920 L 6905,920 L 6955,920 L 7005,920 L 7035,920 L 7060,920 L 7060,1020 L 7135,1020 L 7165,1020 L 7215,1020 L 7265,1020 L 7295,1020 L 7345,1020 L 7395,1020 L 7425,1020 L 7500,1020 L 7500,720 L 7425,720 L 7395,720 Z" /><path d="M 6875,1870 L 6905,1870 L 6980,1870 L 7005,1870 L 7035,1870 L 7060,1870 L 7135,1870 L 7165,1870 L 7190,1870 L 7265,1870 L 7295,1870 L 7320,1870 L 7395,1870 L 7425,1870 L 7500,1870 L 7500,1770 L 7425,1770 L 7395,1770 L 7320,1770 L 7295,1770 L 7265,1770 L 7190,1770 L 7165,1770 L 7135,1770 L 7060,1770 L 7035,1770 L 7005,1770 L 6980,1770 L 6905,1770 L 6875,1770 L 6800,1770 L 6800,1870 Z" /><path d="M 9085,1870 L 9115,1870 L 9190,1870 L 9215,1870 L 9245,1870 L 9270,1870 L 9345,1870 L 9375,1870 L 9400,1870 L 9475,1870 L 9505,1870 L 9580,1870 L 9580,1770 L 9505,1770 L 9475,1770 L 9400,1770 L 9375,1770 L 9345,1770 L 9270,1770 L 9245,1770 L 9215,1770 L 9190,1770 L 9115,1770 L 9085,1770 L 9010,1770 L 9010,1870 Z" /><path d="M 7945,1870 L 7970,1870 L 8045,1870 L 8075,1870 L 8100,1870 L 8175,1870 L 8205,1870 L 8280,1870 L 8280,1670 L 8205,1670 L 8175,1670 L 8100,1670 L 8075,1670 L 8045,1670 L 7970,1670 L 7945,1670 L 7915,1670 L 7840,1670 L 7815,1670 L 7785,1670 L 7710,1670 L 7710,1870 L 7785,1870 L 7815,1870 L 7840,1870 L 7915,1870 Z" /><path d="M 8670,1770 L 8595,1770 L 8565,1770 L 8490,1770 L 8490,1870 L 8565,1870 L 8595,1870 L 8670,1870 L 8695,1870 L 8725,1870 L 8800,1870 L 8800,1770 L 8725,1770 L 8695,1770 Z" /><path d="M 8645,720 L 8595,720 L 8565,720 L 8490,720 L 8490,920 L 8565,920 L 8595,920 L 8645,920 L 8695,920 L 8725,920 L 8800,920 L 8800,720 L 8725,720 L 8695,720 Z" /><path d="M 9010,920 L 9085,920 L 9115,920 L 9165,920 L 9215,920 L 9245,920 L 9270,920 L 9345,920 L 9375,920 L 9425,920 L 9475,920 L 9505,920 L 9580,920 L 9580,720 L 9505,720 L 9475,720 L 9425,720 L 9375,720 L 9345,720 L 9270,720 L 9245,720 L 9215,720 L 9165,720 L 9115,720 L 9085,720 L 9010,720 Z" /><path d="M 2065,1020 L 2095,1020 L 2145,1020 L 2195,1020 L 2225,1020 L 2300,1020 L 2300,720 L 2225,720 L 2195,720 L 2145,720 L 2095,720 L 2065,720 L 2015,720 L 1965,720 L 1935,720 L 1860,720 L 1835,720 L 1805,720 L 1730,720 L 1730,1020 L 1805,1020 L 1835,1020 L 1860,1020 L 1935,1020 L 1965,1020 L 2015,1020 Z" /><path d="M 1365,720 L 1315,720 L 1285,720 L 1235,720 L 1185,720 L 1155,720 L 1080,720 L 1055,720 L 1025,720 L 975,720 L 925,720 L 895,720 L 820,720 L 820,920 L 895,920 L 925,920 L 975,920 L 1025,920 L 1055,920 L 1080,920 L 1080,1020 L 1155,1020 L 1185,1020 L 1235,1020 L 1285,1020 L 1315,1020 L 1365,1020 L 1415,1020 L 1445,1020 L 1520,1020 L 1520,720 L 1445,720 L 1415,720 Z" /><path d="M 895,1870 L 925,1870 L 1000,1870 L 1025,1870 L 1055,1870 L 1080,1870 L 1155,1870 L 1185,1870 L 1210,1870 L 1285,1870 L 1315,1870 L 1340,1870 L 1415,1870 L 1445,1870 L 1520,1870 L 1520,1770 L 1445,1770 L 1415,1770 L 1340,1770 L 1315,1770 L 1285,1770 L 1210,1770 L 1185,1770 L 1155,1770 L 1080,1770 L 1055,1770 L 1025,1770 L 1000,1770 L 925,1770 L 895,1770 L 820,1770 L 820,1870 Z" /><path d="M 3105,1870 L 3135,1870 L 3210,1870 L 3235,1870 L 3265,1870 L 3290,1870 L 3365,1870 L 3395,1870 L 3420,1870 L 3495,1870 L 3525,1870 L 3600,1870 L 3600,1770 L 3525,1770 L 3495,1770 L 3420,1770 L 3395,1770 L 3365,1770 L 3290,1770 L 3265,1770 L 3235,1770 L 3210,1770 L 3135,1770 L 3105,1770 L 3030,1770 L 3030,1870 Z" /><path d="M 1965,1870 L 1990,1870 L 2065,1870 L 2095,1870 L 2120,1870 L 2195,1870 L 2225,1870 L 2300,1870 L 2300,1670 L 2225,1670 L 2195,1670 L 2120,1670 L 2095,1670 L 2065,1670 L 1990,1670 L 1965,1670 L 1935,1670 L 1860,1670 L 1835,1670 L 1805,1670 L 1730,1670 L 1730,1870 L 1805,1870 L 1835,1870 L 1860,1870 L 1935,1870 Z" /><path d="M 2690,1770 L 2615,1770 L 2585,1770 L 2510,1770 L 2510,1870 L 2585,1870 L 2615,1870 L 2690,1870 L 2715,1870 L 2745,1870 L 2820,1870 L 2820,1770 L 2745,1770 L 2715,1770 Z" /><path d="M 2665,720 L 2615,720 L 2585,720 L 2510,720 L 2510,920 L 2585,920 L 2615,920 L 2665,920 L 2715,920 L 2745,920 L 2820,920 L 2820,720 L 2745,720 L 2715,720 Z" /><path d="M 3030,920 L 3105,920 L 3135,920 L 3185,920 L 3235,920 L 3265,920 L 3290,920 L 3365,920 L 3395,920 L 3445,920 L 3495,920 L 3525,920 L 3600,920 L 3600,720 L 3525,720 L 3495,720 L 3445,720 L 3395,720 L 3365,720 L 3290,720 L 3265,720 L 3235,720 L 3185,720 L 3135,720 L 3105,720 L 3030,720 Z" /><path d="M 5055,1020 L 5085,1020 L 5135,1020 L 5185,1020 L 5215,1020 L 5290,1020 L 5290,720 L 5215,720 L 5185,720 L 5135,720 L 5085,720 L 5055,720 L 5005,720 L 4955,720 L 4925,720 L 4850,720 L 4825,720 L 4795,720 L 4720,720 L 4720,1020 L 4795,1020 L 4825,1020 L 4850,1020 L 4925,1020 L 4955,1020 L 5005,1020 Z" /><path d="M 4355,720 L 4305,720 L 4275,720 L 4225,720 L 4175,720 L 4145,720 L 4070,720 L 4045,720 L 4015,720 L 3965,720 L 3915,720 L 3885,720 L 3810,720 L 3810,920 L 3885,920 L 3915,920 L 3965,920 L 4015,920 L 4045,920 L 4070,920 L 4070,1020 L 4145,1020 L 4175,1020 L 4225,1020 L 4275,1020 L 4305,1020 L 4355,1020 L 4405,1020 L 4435,1020 L 4510,1020 L 4510,720 L 4435,720 L 4405,720 Z" /><path d="M 3885,1870 L 3915,1870 L 3990,1870 L 4015,1870 L 4045,1870 L 4070,1870 L 4145,1870 L 4175,1870 L 4200,1870 L 4275,1870 L 4305,1870 L 4330,1870 L 4405,1870 L 4435,1870 L 4510,1870 L 4510,1770 L 4435,1770 L 4405,1770 L 4330,1770 L 4305,1770 L 4275,1770 L 4200,1770 L 4175,1770 L 4145,1770 L 4070,1770 L 4045,1770 L 4015,1770 L 3990,1770 L 3915,1770 L 3885,1770 L 3810,1770 L 3810,1870 Z" /><path d="M 6095,1870 L 6125,1870 L 6200,1870 L 6225,1870 L 6255,1870 L 6280,1870 L 6355,1870 L 6385,1870 L 6410,1870 L 6485,1870 L 6515,1870 L 6590,1870 L 6590,1770 L 6515,1770 L 6485,1770 L 6410,1770 L 6385,1770 L 6355,1770 L 6280,1770 L 6255,1770 L 6225,1770 L 6200,1770 L 6125,1770 L 6095,1770 L 6020,1770 L 6020,1870 Z" /><path d="M 4955,1870 L 4980,1870 L 5055,1870 L 5085,1870 L 5110,1870 L 5185,1870 L 5215,1870 L 5290,1870 L 5290,1670 L 5215,1670 L 5185,1670 L 5110,1670 L 5085,1670 L 5055,1670 L 4980,1670 L 4955,1670 L 4925,1670 L 4850,1670 L 4825,1670 L 4795,1670 L 4720,1670 L 4720,1870 L 4795,1870 L 4825,1870 L 4850,1870 L 4925,1870 Z" /><path d="M 5680,1770 L 5605,1770 L 5575,1770 L 5500,1770 L 5500,1870 L 5575,1870 L 5605,1870 L 5680,1870 L 5705,1870 L 5735,1870 L 5810,1870 L 5810,1770 L 5735,1770 L 5705,1770 Z" /><path d="M 5655,720 L 5605,720 L 5575,720 L 5500,720 L 5500,920 L 5575,920 L 5605,920 L 5655,920 L 5705,920 L 5735,920 L 5810,920 L 5810,720 L 5735,720 L 5705,720 Z" /><path d="M 6020,920 L 6095,920 L 6125,920 L 6175,920 L 6225,920 L 6255,920 L 6280,920 L 6355,920 L 6385,920 L 6435,920 L 6485,920 L 6515,920 L 6590,920 L 6590,720 L 6515,720 L 6485,720 L 6435,720 L 6385,720 L 6355,720 L 6280,720 L 6255,720 L 6225,720 L 6175,720 L 6125,720 L 6095,720 L 6020,720 Z" /><path d="M 645,545 L 3635,545 L 3775,545 L 6625,545 L 6765,545 L 9755,545 L 9755,445 L 6765,445 L 6625,445 L 3775,445 L 3635,445 L 645,445 Z" /><path d="M 645,2145 L 3635,2145 L 3775,2145 L 6625,2145 L 6765,2145 L 9755,2145 L 9755,2045 L 6765,2045 L 6625,2045 L 3775,2045 L 3635,2045 L 645,2045 Z" /></g></g><g id="PO"><g class="l17d0"><path d="M 7265,1020 L 7265,1100 L 7265,1500 L 7265,1540 L 7265,1690 L 7265,1770 L 7265,1870 L 7265,1950 L 7295,1950 L 7295,1870 L 7295,1770 L 7295,1690 L 7295,1540 L 7295,1500 L 7295,1100 L 7295,1020 L 7295,720 L 7295,640 L 7265,640 L 7265,720 Z" /><path d="M 7785,1870 L 7785,1950 L 7815,1950 L 7815,1870 L 7815,1670 L 7815,1590 L 7815,1540 L 7815,1500 L 7815,1100 L 7815,1020 L 7815,720 L 7815,640 L 7785,640 L 7785,720 L 7785,1020 L 7785,1100 L 7785,1500 L 7785,1540 L 7785,1590 L 7785,1670 Z" /><path d="M 7135,1020 L 7135,1100 L 7135,1400 L 7135,1440 L 7135,1690 L 7135,1770 L 7135,1870 L 7135,1950 L 7165,1950 L 7165,1870 L 7165,1770 L 7165,1690 L 7165,1440 L 7165,1400 L 7165,1100 L 7165,1020 L 7165,720 L 7165,640 L 7135,640 L 7135,720 Z" /><path d="M 7425,1770 L 7425,1690 L 7425,1440 L 7425,1400 L 7425,1100 L 7425,1020 L 7425,720 L 7425,640 L 7395,640 L 7395,720 L 7395,1020 L 7395,1100 L 7395,1400 L 7395,1440 L 7395,1690 L 7395,1770 L 7395,1870 L 7395,1950 L 7425,1950 L 7425,1870 Z" /><path d="M 8175,1020 L 8175,1100 L 8175,1400 L 8175,1440 L 8175,1590 L 8175,1670 L 8175,1870 L 8175,1950 L 8205,1950 L 8205,1870 L 8205,1670 L 8205,1590 L 8205,1440 L 8205,1400 L 8205,1100 L 8205,1020 L 8205,720 L 8205,640 L 8175,640 L 8175,720 Z" /><path d="M 8695,920 L 8695,1000 L 8695,1400 L 8695,1440 L 8695,1690 L 8695,1770 L 8695,1870 L 8695,1950 L 8725,1950 L 8725,1870 L 8725,1770 L 8725,1690 L 8725,1440 L 8725,1400 L 8725,1000 L 8725,920 L 8725,720 L 8725,640 L 8695,640 L 8695,720 Z" /><path d="M 6875,1870 L 6875,1950 L 6905,1950 L 6905,1870 L 6905,1770 L 6905,1690 L 6905,1340 L 6905,1300 L 6905,1000 L 6905,920 L 6905,720 L 6905,640 L 6875,640 L 6875,720 L 6875,920 L 6875,1000 L 6875,1300 L 6875,1340 L 6875,1690 L 6875,1770 Z" /><path d="M 7915,1870 L 7915,1950 L 7945,1950 L 7945,1870 L 7945,1670 L 7945,1590 L 7945,1340 L 7945,1300 L 7945,1100 L 7945,1020 L 7945,720 L 7945,640 L 7915,640 L 7915,720 L 7915,1020 L 7915,1100 L 7915,1300 L 7915,1340 L 7915,1590 L 7915,1670 Z" /><path d="M 9215,1000 L 9215,1300 L 9215,1340 L 9215,1500 L 9215,1540 L 9215,1690 L 9215,1770 L 9215,1870 L 9215,1950 L 9245,1950 L 9245,1870 L 9245,1770 L 9245,1690 L 9245,1540 L 9245,1500 L 9245,1340 L 9245,1300 L 9245,1000 L 9245,920 L 9245,720 L 9245,640 L 9215,640 L 9215,720 L 9215,920 Z" /><path d="M 7005,920 L 7005,1000 L 7005,1200 L 7005,1240 L 7005,1690 L 7005,1770 L 7005,1870 L 7005,1950 L 7035,1950 L 7035,1870 L 7035,1770 L 7035,1690 L 7035,1240 L 7035,1200 L 7035,1000 L 7035,920 L 7035,720 L 7035,640 L 7005,640 L 7005,720 Z" /><path d="M 8045,1870 L 8045,1950 L 8075,1950 L 8075,1870 L 8075,1670 L 8075,1590 L 8075,1240 L 8075,1200 L 8075,1100 L 8075,1020 L 8075,720 L 8075,640 L 8045,640 L 8045,720 L 8045,1020 L 8045,1100 L 8045,1200 L 8045,1240 L 8045,1590 L 8045,1670 Z" /><path d="M 9085,1870 L 9085,1950 L 9115,1950 L 9115,1870 L 9115,1770 L 9115,1690 L 9115,1240 L 9115,1200 L 9115,1000 L 9115,920 L 9115,720 L 9115,640 L 9085,640 L 9085,720 L 9085,920 L 9085,1000 L 9085,1200 L 9085,1240 L 9085,1690 L 9085,1770 Z" /><path d="M 8565,1870 L 8565,1950 L 8595,1950 L 8595,1870 L 8595,1770 L 8595,1690 L 8595,1125 L 8595,1085 L 8595,1000 L 8595,920 L 8595,720 L 8595,640 L 8565,640 L 8565,720 L 8565,920 L 8565,1000 L 8565,1085 L 8565,1125 L 8565,1690 L 8565,1770 Z" /><path d="M 9345,920 L 9345,1000 L 9345,1085 L 9345,1125 L 9345,1690 L 9345,1770 L 9345,1870 L 9345,1950 L 9375,1950 L 9375,1870 L 9375,1770 L 9375,1690 L 9375,1125 L 9375,1085 L 9375,1000 L 9375,920 L 9375,720 L 9375,640 L 9345,640 L 9345,720 Z" /><path d="M 9475,1950 L 9505,1950 L 9505,1870 L 9505,1770 L 9505,1690 L 9505,1440 L 9505,1400 L 9505,1015 L 9505,1000 L 9505,975 L 9505,920 L 9505,720 L 9505,640 L 9475,640 L 9475,720 L 9475,920 L 9475,975 L 9475,1000 L 9475,1015 L 9475,1400 L 9475,1440 L 9475,1690 L 9475,1770 L 9475,1870 Z" /><path d="M 1285,1020 L 1285,1100 L 1285,1500 L 1285,1540 L 1285,1690 L 1285,1770 L 1285,1870 L 1285,1950 L 1315,1950 L 1315,1870 L 1315,1770 L 1315,1690 L 1315,1540 L 1315,1500 L 1315,1100 L 1315,1020 L 1315,720 L 1315,640 L 1285,640 L 1285,720 Z" /><path d="M 1805,1870 L 1805,1950 L 1835,1950 L 1835,1870 L 1835,1670 L 1835,1590 L 1835,1540 L 1835,1500 L 1835,1100 L 1835,1020 L 1835,720 L 1835,640 L 1805,640 L 1805,720 L 1805,1020 L 1805,1100 L 1805,1500 L 1805,1540 L 1805,1590 L 1805,1670 Z" /><path d="M 1155,1020 L 1155,1100 L 1155,1400 L 1155,1440 L 1155,1690 L 1155,1770 L 1155,1870 L 1155,1950 L 1185,1950 L 1185,1870 L 1185,1770 L 1185,1690 L 1185,1440 L 1185,1400 L 1185,1100 L 1185,1020 L 1185,720 L 1185,640 L 1155,640 L 1155,720 Z" /><path d="M 1445,1770 L 1445,1690 L 1445,1440 L 1445,1400 L 1445,1100 L 1445,1020 L 1445,720 L 1445,640 L 1415,640 L 1415,720 L 1415,1020 L 1415,1100 L 1415,1400 L 1415,1440 L 1415,1690 L 1415,1770 L 1415,1870 L 1415,1950 L 1445,1950 L 1445,1870 Z" /><path d="M 2195,1020 L 2195,1100 L 2195,1400 L 2195,1440 L 2195,1590 L 2195,1670 L 2195,1870 L 2195,1950 L 2225,1950 L 2225,1870 L 2225,1670 L 2225,1590 L 2225,1440 L 2225,1400 L 2225,1100 L 2225,1020 L 2225,720 L 2225,640 L 2195,640 L 2195,720 Z" /><path d="M 2715,920 L 2715,1000 L 2715,1400 L 2715,1440 L 2715,1690 L 2715,1770 L 2715,1870 L 2715,1950 L 2745,1950 L 2745,1870 L 2745,1770 L 2745,1690 L 2745,1440 L 2745,1400 L 2745,1000 L 2745,920 L 2745,720 L 2745,640 L 2715,640 L 2715,720 Z" /><path d="M 895,1870 L 895,1950 L 925,1950 L 925,1870 L 925,1770 L 925,1690 L 925,1340 L 925,1300 L 925,1000 L 925,920 L 925,720 L 925,640 L 895,640 L 895,720 L 895,920 L 895,1000 L 895,1300 L 895,1340 L 895,1690 L 895,1770 Z" /><path d="M 1935,1870 L 1935,1950 L 1965,1950 L 1965,1870 L 1965,1670 L 1965,1590 L 1965,1340 L 1965,1300 L 1965,1100 L 1965,1020 L 1965,720 L 1965,640 L 1935,640 L 1935,720 L 1935,1020 L 1935,1100 L 1935,1300 L 1935,1340 L 1935,1590 L 1935,1670 Z" /><path d="M 3235,1000 L 3235,1300 L 3235,1340 L 3235,1500 L 3235,1540 L 3235,1690 L 3235,1770 L 3235,1870 L 3235,1950 L 3265,1950 L 3265,1870 L 3265,1770 L 3265,1690 L 3265,1540 L 3265,1500 L 3265,1340 L 3265,1300 L 3265,1000 L 3265,920 L 3265,720 L 3265,640 L 3235,640 L 3235,720 L 3235,920 Z" /><path d="M 1025,920 L 1025,1000 L 1025,1200 L 1025,1240 L 1025,1690 L 1025,1770 L 1025,1870 L 1025,1950 L 1055,1950 L 1055,1870 L 1055,1770 L 1055,1690 L 1055,1240 L 1055,1200 L 1055,1000 L 1055,920 L 1055,720 L 1055,640 L 1025,640 L 1025,720 Z" /><path d="M 2065,1870 L 2065,1950 L 2095,1950 L 2095,1870 L 2095,1670 L 2095,1590 L 2095,1240 L 2095,1200 L 2095,1100 L 2095,1020 L 2095,720 L 2095,640 L 2065,640 L 2065,720 L 2065,1020 L 2065,1100 L 2065,1200 L 2065,1240 L 2065,1590 L 2065,1670 Z" /><path d="M 3105,1870 L 3105,1950 L 3135,1950 L 3135,1870 L 3135,1770 L 3135,1690 L 3135,1240 L 3135,1200 L 3135,1000 L 3135,920 L 3135,720 L 3135,640 L 3105,640 L 3105,720 L 3105,920 L 3105,1000 L 3105,1200 L 3105,1240 L 3105,1690 L 3105,1770 Z" /><path d="M 2585,1870 L 2585,1950 L 2615,1950 L 2615,1870 L 2615,1770 L 2615,1690 L 2615,1125 L 2615,1085 L 2615,1000 L 2615,920 L 2615,720 L 2615,640 L 2585,640 L 2585,720 L 2585,920 L 2585,1000 L 2585,1085 L 2585,1125 L 2585,1690 L 2585,1770 Z" /><path d="M 3365,920 L 3365,1000 L 3365,1085 L 3365,1125 L 3365,1690 L 3365,1770 L 3365,1870 L 3365,1950 L 3395,1950 L 3395,1870 L 3395,1770 L 3395,1690 L 3395,1125 L 3395,1085 L 3395,1000 L 3395,920 L 3395,720 L 3395,640 L 3365,640 L 3365,720 Z" /><path d="M 3495,1950 L 3525,1950 L 3525,1870 L 3525,1770 L 3525,1690 L 3525,1440 L 3525,1400 L 3525,1015 L 3525,1000 L 3525,975 L 3525,920 L 3525,720 L 3525,640 L 3495,640 L 3495,720 L 3495,920 L 3495,975 L 3495,1000 L 3495,1015 L 3495,1400 L 3495,1440 L 3495,1690 L 3495,1770 L 3495,1870 Z" /><path d="M 4275,1020 L 4275,1100 L 4275,1500 L 4275,1540 L 4275,1690 L 4275,1770 L 4275,1870 L 4275,1950 L 4305,1950 L 4305,1870 L 4305,1770 L 4305,1690 L 4305,1540 L 4305,1500 L 4305,1100 L 4305,1020 L 4305,720 L 4305,640 L 4275,640 L 4275,720 Z" /><path d="M 4795,1870 L 4795,1950 L 4825,1950 L 4825,1870 L 4825,1670 L 4825,1590 L 4825,1540 L 4825,1500 L 4825,1100 L 4825,1020 L 4825,720 L 4825,640 L 4795,640 L 4795,720 L 4795,1020 L 4795,1100 L 4795,1500 L 4795,1540 L 4795,1590 L 4795,1670 Z" /><path d="M 4145,1020 L 4145,1100 L 4145,1400 L 4145,1440 L 4145,1690 L 4145,1770 L 4145,1870 L 4145,1950 L 4175,1950 L 4175,1870 L 4175,1770 L 4175,1690 L 4175,1440 L 4175,1400 L 4175,1100 L 4175,1020 L 4175,720 L 4175,640 L 4145,640 L 4145,720 Z" /><path d="M 4435,1770 L 4435,1690 L 4435,1440 L 4435,1400 L 4435,1100 L 4435,1020 L 4435,720 L 4435,640 L 4405,640 L 4405,720 L 4405,1020 L 4405,1100 L 4405,1400 L 4405,1440 L 4405,1690 L 4405,1770 L 4405,1870 L 4405,1950 L 4435,1950 L 4435,1870 Z" /><path d="M 5185,1020 L 5185,1100 L 5185,1400 L 5185,1440 L 5185,1590 L 5185,1670 L 5185,1870 L 5185,1950 L 5215,1950 L 5215,1870 L 5215,1670 L 5215,1590 L 5215,1440 L 5215,1400 L 5215,1100 L 5215,1020 L 5215,720 L 5215,640 L 5185,640 L 5185,720 Z" /><path d="M 5705,920 L 5705,1000 L 5705,1400 L 5705,1440 L 5705,1690 L 5705,1770 L 5705,1870 L 5705,1950 L 5735,1950 L 5735,1870 L 5735,1770 L 5735,1690 L 5735,1440 L 5735,1400 L 5735,1000 L 5735,920 L 5735,720 L 5735,640 L 5705,640 L 5705,720 Z" /><path d="M 3885,1870 L 3885,1950 L 3915,1950 L 3915,1870 L 3915,1770 L 3915,1690 L 3915,1340 L 3915,1300 L 3915,1000 L 3915,920 L 3915,720 L 3915,640 L 3885,640 L 3885,720 L 3885,920 L 3885,1000 L 3885,1300 L 3885,1340 L 3885,1690 L 3885,1770 Z" /><path d="M 4925,1870 L 4925,1950 L 4955,1950 L 4955,1870 L 4955,1670 L 4955,1590 L 4955,1340 L 4955,1300 L 4955,1100 L 4955,1020 L 4955,720 L 4955,640 L 4925,640 L 4925,720 L 4925,1020 L 4925,1100 L 4925,1300 L 4925,1340 L 4925,1590 L 4925,1670 Z" /><path d="M 6225,1000 L 6225,1300 L 6225,1340 L 6225,1500 L 6225,1540 L 6225,1690 L 6225,1770 L 6225,1870 L 6225,1950 L 6255,1950 L 6255,1870 L 6255,1770 L 6255,1690 L 6255,1540 L 6255,1500 L 6255,1340 L 6255,1300 L 6255,1000 L 6255,920 L 6255,720 L 6255,640 L 6225,640 L 6225,720 L 6225,920 Z" /><path d="M 4015,920 L 4015,1000 L 4015,1200 L 4015,1240 L 4015,1690 L 4015,1770 L 4015,1870 L 4015,1950 L 4045,1950 L 4045,1870 L 4045,1770 L 4045,1690 L 4045,1240 L 4045,1200 L 4045,1000 L 4045,920 L 4045,720 L 4045,640 L 4015,640 L 4015,720 Z" /><path d="M 5055,1870 L 5055,1950 L 5085,1950 L 5085,1870 L 5085,1670 L 5085,1590 L 5085,1240 L 5085,1200 L 5085,1100 L 5085,1020 L 5085,720 L 5085,640 L 5055,640 L 5055,720 L 5055,1020 L 5055,1100 L 5055,1200 L 5055,1240 L 5055,1590 L 5055,1670 Z" /><path d="M 6095,1870 L 6095,1950 L 6125,1950 L 6125,1870 L 6125,1770 L 6125,1690 L 6125,1240 L 6125,1200 L 6125,1000 L 6125,920 L 6125,720 L 6125,640 L 6095,640 L 6095,720 L 6095,920 L 6095,1000 L 6095,1200 L 6095,1240 L 6095,1690 L 6095,1770 Z" /><path d="M 5575,1870 L 5575,1950 L 5605,1950 L 5605,1870 L 5605,1770 L 5605,1690 L 5605,1125 L 5605,1085 L 5605,1000 L 5605,920 L 5605,720 L 5605,640 L 5575,640 L 5575,720 L 5575,920 L 5575,1000 L 5575,1085 L 5575,1125 L 5575,1690 L 5575,1770 Z" /><path d="M 6355,920 L 6355,1000 L 6355,1085 L 6355,1125 L 6355,1690 L 6355,1770 L 6355,1870 L 6355,1950 L 6385,1950 L 6385,1870 L 6385,1770 L 6385,1690 L 6385,1125 L 6385,1085 L 6385,1000 L 6385,920 L 6385,720 L 6385,640 L 6355,640 L 6355,720 Z" /><path d="M 6485,1950 L 6515,1950 L 6515,1870 L 6515,1770 L 6515,1690 L 6515,1440 L 6515,1400 L 6515,1015 L 6515,1000 L 6515,975 L 6515,920 L 6515,720 L 6515,640 L 6485,640 L 6485,720 L 6485,920 L 6485,975 L 6485,1000 L 6485,1015 L 6485,1400 L 6485,1440 L 6485,1690 L 6485,1770 L 6485,1870 Z" /></g><g class="l17d7"><path d="M 7655,660 L 7655,1080 L 7685,1080 L 7685,660 Z" /><path d="M 7525,660 L 7525,1080 L 7555,1080 L 7555,660 Z" /><path d="M 8335,660 L 8335,625 L 8305,625 L 8305,660 L 8305,1015 L 8305,1080 L 8335,1080 L 8335,1015 Z" /><path d="M 8465,660 L 8465,625 L 8435,625 L 8435,660 L 8435,1015 L 8435,1080 L 8465,1080 L 8465,1015 Z" /><path d="M 9735,625 L 9765,625 L 9765,1015 L 9735,1015 Z" /><path d="M 9605,625 L 9635,625 L 9635,1015 L 9605,1015 Z" /><path d="M 7685,1575 L 7655,1575 L 7655,1625 L 7655,1965 L 7655,2015 L 7685,2015 L 7685,1965 L 7685,1625 Z" /><path d="M 7555,1575 L 7525,1575 L 7525,1625 L 7525,1965 L 7525,2015 L 7555,2015 L 7555,1965 L 7555,1625 Z" /><path d="M 8335,1575 L 8305,1575 L 8305,1625 L 8305,1965 L 8305,2015 L 8335,2015 L 8335,1965 L 8335,1625 Z" /><path d="M 8465,1575 L 8435,1575 L 8435,1625 L 8435,1965 L 8435,2015 L 8465,2015 L 8465,1965 L 8465,1625 Z" /><path d="M 9735,1625 L 9765,1625 L 9765,2015 L 9735,2015 Z" /><path d="M 9605,1625 L 9635,1625 L 9635,2015 L 9605,2015 Z" /><path d="M 8955,1625 L 8955,2015 L 8985,2015 L 8985,1625 Z" /><path d="M 8825,1625 L 8825,2015 L 8855,2015 L 8855,1625 Z" /><path d="M 8955,625 L 8955,1015 L 8985,1015 L 8985,625 Z" /><path d="M 8825,625 L 8825,1015 L 8855,1015 L 8855,625 Z" /><path d="M 1675,660 L 1675,1080 L 1705,1080 L 1705,660 Z" /><path d="M 1545,660 L 1545,1080 L 1575,1080 L 1575,660 Z" /><path d="M 635,625 L 665,625 L 665,1015 L 635,1015 Z" /><path d="M 765,625 L 795,625 L 795,1015 L 765,1015 Z" /><path d="M 2355,660 L 2355,625 L 2325,625 L 2325,660 L 2325,1015 L 2325,1080 L 2355,1080 L 2355,1015 Z" /><path d="M 2485,660 L 2485,625 L 2455,625 L 2455,660 L 2455,1015 L 2455,1080 L 2485,1080 L 2485,1015 Z" /><path d="M 1705,1575 L 1675,1575 L 1675,1625 L 1675,1965 L 1675,2015 L 1705,2015 L 1705,1965 L 1705,1625 Z" /><path d="M 1575,1575 L 1545,1575 L 1545,1625 L 1545,1965 L 1545,2015 L 1575,2015 L 1575,1965 L 1575,1625 Z" /><path d="M 635,1625 L 665,1625 L 665,2015 L 635,2015 Z" /><path d="M 765,1625 L 795,1625 L 795,2015 L 765,2015 Z" /><path d="M 2355,1575 L 2325,1575 L 2325,1625 L 2325,1965 L 2325,2015 L 2355,2015 L 2355,1965 L 2355,1625 Z" /><path d="M 2485,1575 L 2455,1575 L 2455,1625 L 2455,1965 L 2455,2015 L 2485,2015 L 2485,1965 L 2485,1625 Z" /><path d="M 2975,1625 L 2975,2015 L 3005,2015 L 3005,1625 Z" /><path d="M 2845,1625 L 2845,2015 L 2875,2015 L 2875,1625 Z" /><path d="M 2975,625 L 2975,1015 L 3005,1015 L 3005,625 Z" /><path d="M 2845,625 L 2845,1015 L 2875,1015 L 2875,625 Z" /><path d="M 4665,660 L 4665,1080 L 4695,1080 L 4695,660 Z" /><path d="M 4535,660 L 4535,1080 L 4565,1080 L 4565,660 Z" /><path d="M 3625,625 L 3625,1015 L 3655,1015 L 3655,625 Z" /><path d="M 3755,625 L 3755,1015 L 3785,1015 L 3785,625 Z" /><path d="M 5345,660 L 5345,625 L 5315,625 L 5315,660 L 5315,1015 L 5315,1080 L 5345,1080 L 5345,1015 Z" /><path d="M 5475,660 L 5475,625 L 5445,625 L 5445,660 L 5445,1015 L 5445,1080 L 5475,1080 L 5475,1015 Z" /><path d="M 6745,625 L 6745,1015 L 6775,1015 L 6775,625 Z" /><path d="M 6615,625 L 6615,1015 L 6645,1015 L 6645,625 Z" /><path d="M 4695,1575 L 4665,1575 L 4665,1625 L 4665,1965 L 4665,2015 L 4695,2015 L 4695,1965 L 4695,1625 Z" /><path d="M 4565,1575 L 4535,1575 L 4535,1625 L 4535,1965 L 4535,2015 L 4565,2015 L 4565,1965 L 4565,1625 Z" /><path d="M 3625,1625 L 3625,2015 L 3655,2015 L 3655,1625 Z" /><path d="M 3755,1625 L 3755,2015 L 3785,2015 L 3785,1625 Z" /><path d="M 5345,1575 L 5315,1575 L 5315,1625 L 5315,1965 L 5315,2015 L 5345,2015 L 5345,1965 L 5345,1625 Z" /><path d="M 5475,1575 L 5445,1575 L 5445,1625 L 5445,1965 L 5445,2015 L 5475,2015 L 5475,1965 L 5475,1625 Z" /><path d="M 6745,1625 L 6745,2015 L 6775,2015 L 6775,1625 Z" /><path d="M 6615,1625 L 6615,2015 L 6645,2015 L 6645,1625 Z" /><path d="M 5965,1625 L 5965,2015 L 5995,2015 L 5995,1625 Z" /><path d="M 5835,1625 L 5835,2015 L 5865,2015 L 5865,1625 Z" /><path d="M 5965,625 L 5965,1015 L 5995,1015 L 5995,625 Z" /><path d="M 5835,625 L 5835,1015 L 5865,1015 L 5865,625 Z" /></g></g><g id="CO"><g class="l30d0"><path d="M 9665,475 L 9705,475 L 9705,515 L 9665,515 Z" /><path d="M 9535,475 L 9575,475 L 9575,515 L 9535,515 Z" /><path d="M 9405,475 L 9445,475 L 9445,515 L 9405,515 Z" /><path d="M 9275,475 L 9315,475 L 9315,515 L 9275,515 Z" /><path d="M 9145,475 L 9185,475 L 9185,515 L 9145,515 Z" /><path d="M 9015,475 L 9055,475 L 9055,515 L 9015,515 Z" /><path d="M 8885,475 L 8925,475 L 8925,515 L 8885,515 Z" /><path d="M 8755,475 L 8795,475 L 8795,515 L 8755,515 Z" /><path d="M 8625,475 L 8665,475 L 8665,515 L 8625,515 Z" /><path d="M 8495,475 L 8535,475 L 8535,515 L 8495,515 Z" /><path d="M 8365,475 L 8405,475 L 8405,515 L 8365,515 Z" /><path d="M 8235,475 L 8275,475 L 8275,515 L 8235,515 Z" /><path d="M 8105,475 L 8145,475 L 8145,515 L 8105,515 Z" /><path d="M 7975,475 L 8015,475 L 8015,515 L 7975,515 Z" /><path d="M 7845,475 L 7885,475 L 7885,515 L 7845,515 Z" /><path d="M 7715,475 L 7755,475 L 7755,515 L 7715,515 Z" /><path d="M 7585,475 L 7625,475 L 7625,515 L 7585,515 Z" /><path d="M 7455,475 L 7495,475 L 7495,515 L 7455,515 Z" /><path d="M 7325,475 L 7365,475 L 7365,515 L 7325,515 Z" /><path d="M 7195,475 L 7235,475 L 7235,515 L 7195,515 Z" /><path d="M 7065,475 L 7105,475 L 7105,515 L 7065,515 Z" /><path d="M 6935,475 L 6975,475 L 6975,515 L 6935,515 Z" /><path d="M 6805,475 L 6845,475 L 6845,515 L 6805,515 Z" /><path d="M 9665,2075 L 9705,2075 L 9705,2115 L 9665,2115 Z" /><path d="M 9535,2075 L 9575,2075 L 9575,2115 L 9535,2115 Z" /><path d="M 9405,2075 L 9445,2075 L 9445,2115 L 9405,2115 Z" /><path d="M 9275,2075 L 9315,2075 L 9315,2115 L 9275,2115 Z" /><path d="M 9145,2075 L 9185,2075 L 9185,2115 L 9145,2115 Z" /><path d="M 9015,2075 L 9055,2075 L 9055,2115 L 9015,2115 Z" /><path d="M 8885,2075 L 8925,2075 L 8925,2115 L 8885,2115 Z" /><path d="M 8755,2075 L 8795,2075 L 8795,2115 L 8755,2115 Z" /><path d="M 8625,2075 L 8665,2075 L 8665,2115 L 8625,2115 Z" /><path d="M 8495,2075 L 8535,2075 L 8535,2115 L 8495,2115 Z" /><path d="M 8365,2075 L 8405,2075 L 8405,2115 L 8365,2115 Z" /><path d="M 8235,2075 L 8275,2075 L 8275,2115 L 8235,2115 Z" /><path d="M 8105,2075 L 8145,2075 L 8145,2115 L 8105,2115 Z" /><path d="M 7975,2075 L 8015,2075 L 8015,2115 L 7975,2115 Z" /><path d="M 7845,2075 L 7885,2075 L 7885,2115 L 7845,2115 Z" /><path d="M 7715,2075 L 7755,2075 L 7755,2115 L 7715,2115 Z" /><path d="M 7585,2075 L 7625,2075 L 7625,2115 L 7585,2115 Z" /><path d="M 7455,2075 L 7495,2075 L 7495,2115 L 7455,2115 Z" /><path d="M 7325,2075 L 7365,2075 L 7365,2115 L 7325,2115 Z" /><path d="M 7195,2075 L 7235,2075 L 7235,2115 L 7195,2115 Z" /><path d="M 7065,2075 L 7105,2075 L 7105,2115 L 7065,2115 Z" /><path d="M 6935,2075 L 6975,2075 L 6975,2115 L 6935,2115 Z" /><path d="M 6805,2075 L 6845,2075 L 6845,2115 L 6805,2115 Z" /><path d="M 8235,1750 L 8275,1750 L 8275,1790 L 8235,1790 Z" /><path d="M 8105,1750 L 8145,1750 L 8145,1790 L 8105,1790 Z" /><path d="M 7715,950 L 7755,950 L 7755,990 L 7715,990 Z" /><path d="M 7715,750 L 7755,750 L 7755,790 L 7715,790 Z" /><path d="M 7715,1750 L 7755,1750 L 7755,1790 L 7715,1790 Z" /><path d="M 7195,1800 L 7235,1800 L 7235,1840 L 7195,1840 Z" /><path d="M 7065,1800 L 7105,1800 L 7105,1840 L 7065,1840 Z" /><path d="M 9275,1800 L 9315,1800 L 9315,1840 L 9275,1840 Z" /><path d="M 7065,950 L 7105,950 L 7105,990 L 7065,990 Z" /><path d="M 7065,750 L 7105,750 L 7105,790 L 7065,790 Z" /><path d="M 7845,950 L 7885,950 L 7885,990 L 7845,990 Z" /><path d="M 7845,750 L 7885,750 L 7885,790 L 7845,790 Z" /><path d="M 7455,950 L 7495,950 L 7495,990 L 7455,990 Z" /><path d="M 7455,750 L 7495,750 L 7495,790 L 7455,790 Z" /><path d="M 8235,950 L 8275,950 L 8275,990 L 8235,990 Z" /><path d="M 8235,750 L 8275,750 L 8275,790 L 8235,790 Z" /><path d="M 6805,800 L 6845,800 L 6845,840 L 6805,840 Z" /><path d="M 8495,800 L 8535,800 L 8535,840 L 8495,840 Z" /><path d="M 9015,800 L 9055,800 L 9055,840 L 9015,840 Z" /><path d="M 9535,800 L 9575,800 L 9575,840 L 9535,840 Z" /><path d="M 7455,1800 L 7495,1800 L 7495,1840 L 7455,1840 Z" /><path d="M 7325,1800 L 7365,1800 L 7365,1840 L 7325,1840 Z" /><path d="M 6935,1800 L 6975,1800 L 6975,1840 L 6935,1840 Z" /><path d="M 6805,1800 L 6845,1800 L 6845,1840 L 6805,1840 Z" /><path d="M 8625,1800 L 8665,1800 L 8665,1840 L 8625,1840 Z" /><path d="M 8495,1800 L 8535,1800 L 8535,1840 L 8495,1840 Z" /><path d="M 9405,1800 L 9445,1800 L 9445,1840 L 9405,1840 Z" /><path d="M 9535,1800 L 9575,1800 L 9575,1840 L 9535,1840 Z" /><path d="M 9145,1800 L 9185,1800 L 9185,1840 L 9145,1840 Z" /><path d="M 9015,1800 L 9055,1800 L 9055,1840 L 9015,1840 Z" /><path d="M 7975,1750 L 8015,1750 L 8015,1790 L 7975,1790 Z" /><path d="M 7845,1750 L 7885,1750 L 7885,1790 L 7845,1790 Z" /><path d="M 8755,1800 L 8795,1800 L 8795,1840 L 8755,1840 Z" /><path d="M 8755,800 L 8795,800 L 8795,840 L 8755,840 Z" /><path d="M 9275,800 L 9315,800 L 9315,840 L 9275,840 Z" /><path d="M 7260,1500 L 7300,1500 L 7300,1540 L 7260,1540 Z" /><path d="M 7780,1500 L 7820,1500 L 7820,1540 L 7780,1540 Z" /><path d="M 9210,1500 L 9250,1500 L 9250,1540 L 9210,1540 Z" /><path d="M 7130,1400 L 7170,1400 L 7170,1440 L 7130,1440 Z" /><path d="M 7390,1400 L 7430,1400 L 7430,1440 L 7390,1440 Z" /><path d="M 8170,1400 L 8210,1400 L 8210,1440 L 8170,1440 Z" /><path d="M 8690,1400 L 8730,1400 L 8730,1440 L 8690,1440 Z" /><path d="M 9470,1400 L 9510,1400 L 9510,1440 L 9470,1440 Z" /><path d="M 6870,1300 L 6910,1300 L 6910,1340 L 6870,1340 Z" /><path d="M 7910,1300 L 7950,1300 L 7950,1340 L 7910,1340 Z" /><path d="M 9210,1300 L 9250,1300 L 9250,1340 L 9210,1340 Z" /><path d="M 7000,1200 L 7040,1200 L 7040,1240 L 7000,1240 Z" /><path d="M 8040,1200 L 8080,1200 L 8080,1240 L 8040,1240 Z" /><path d="M 9080,1200 L 9120,1200 L 9120,1240 L 9080,1240 Z" /><path d="M 8560,1085 L 8600,1085 L 8600,1125 L 8560,1125 Z" /><path d="M 9340,1085 L 9380,1085 L 9380,1125 L 9340,1125 Z" /><path d="M 9470,975 L 9510,975 L 9510,1015 L 9470,1015 Z" /><path d="M 3555,475 L 3595,475 L 3595,515 L 3555,515 Z" /><path d="M 3425,475 L 3465,475 L 3465,515 L 3425,515 Z" /><path d="M 3295,475 L 3335,475 L 3335,515 L 3295,515 Z" /><path d="M 3165,475 L 3205,475 L 3205,515 L 3165,515 Z" /><path d="M 3035,475 L 3075,475 L 3075,515 L 3035,515 Z" /><path d="M 2905,475 L 2945,475 L 2945,515 L 2905,515 Z" /><path d="M 2775,475 L 2815,475 L 2815,515 L 2775,515 Z" /><path d="M 2645,475 L 2685,475 L 2685,515 L 2645,515 Z" /><path d="M 2515,475 L 2555,475 L 2555,515 L 2515,515 Z" /><path d="M 2385,475 L 2425,475 L 2425,515 L 2385,515 Z" /><path d="M 2255,475 L 2295,475 L 2295,515 L 2255,515 Z" /><path d="M 2125,475 L 2165,475 L 2165,515 L 2125,515 Z" /><path d="M 1995,475 L 2035,475 L 2035,515 L 1995,515 Z" /><path d="M 1865,475 L 1905,475 L 1905,515 L 1865,515 Z" /><path d="M 1735,475 L 1775,475 L 1775,515 L 1735,515 Z" /><path d="M 1605,475 L 1645,475 L 1645,515 L 1605,515 Z" /><path d="M 1475,475 L 1515,475 L 1515,515 L 1475,515 Z" /><path d="M 1345,475 L 1385,475 L 1385,515 L 1345,515 Z" /><path d="M 1215,475 L 1255,475 L 1255,515 L 1215,515 Z" /><path d="M 1085,475 L 1125,475 L 1125,515 L 1085,515 Z" /><path d="M 955,475 L 995,475 L 995,515 L 955,515 Z" /><path d="M 825,475 L 865,475 L 865,515 L 825,515 Z" /><path d="M 695,475 L 735,475 L 735,515 L 695,515 Z" /><path d="M 3555,2075 L 3595,2075 L 3595,2115 L 3555,2115 Z" /><path d="M 3425,2075 L 3465,2075 L 3465,2115 L 3425,2115 Z" /><path d="M 3295,2075 L 3335,2075 L 3335,2115 L 3295,2115 Z" /><path d="M 3165,2075 L 3205,2075 L 3205,2115 L 3165,2115 Z" /><path d="M 3035,2075 L 3075,2075 L 3075,2115 L 3035,2115 Z" /><path d="M 2905,2075 L 2945,2075 L 2945,2115 L 2905,2115 Z" /><path d="M 2775,2075 L 2815,2075 L 2815,2115 L 2775,2115 Z" /><path d="M 2645,2075 L 2685,2075 L 2685,2115 L 2645,2115 Z" /><path d="M 2515,2075 L 2555,2075 L 2555,2115 L 2515,2115 Z" /><path d="M 2385,2075 L 2425,2075 L 2425,2115 L 2385,2115 Z" /><path d="M 2255,2075 L 2295,2075 L 2295,2115 L 2255,2115 Z" /><path d="M 2125,2075 L 2165,2075 L 2165,2115 L 2125,2115 Z" /><path d="M 1995,2075 L 2035,2075 L 2035,2115 L 1995,2115 Z" /><path d="M 1865,2075 L 1905,2075 L 1905,2115 L 1865,2115 Z" /><path d="M 1735,2075 L 1775,2075 L 1775,2115 L 1735,2115 Z" /><path d="M 1605,2075 L 1645,2075 L 1645,2115 L 1605,2115 Z" /><path d="M 1475,2075 L 1515,2075 L 1515,2115 L 1475,2115 Z" /><path d="M 1345,2075 L 1385,2075 L 1385,2115 L 1345,2115 Z" /><path d="M 1215,2075 L 1255,2075 L 1255,2115 L 1215,2115 Z" /><path d="M 1085,2075 L 1125,2075 L 1125,2115 L 1085,2115 Z" /><path d="M 955,2075 L 995,2075 L 995,2115 L 955,2115 Z" /><path d="M 825,2075 L 865,2075 L 865,2115 L 825,2115 Z" /><path d="M 695,2075 L 735,2075 L 735,2115 L 695,2115 Z" /><path d="M 2255,1750 L 2295,1750 L 2295,1790 L 2255,1790 Z" /><path d="M 2125,1750 L 2165,1750 L 2165,1790 L 2125,1790 Z" /><path d="M 1735,950 L 1775,950 L 1775,990 L 1735,990 Z" /><path d="M 1735,750 L 1775,750 L 1775,790 L 1735,790 Z" /><path d="M 1735,1750 L 1775,1750 L 1775,1790 L 1735,1790 Z" /><path d="M 1215,1800 L 1255,1800 L 1255,1840 L 1215,1840 Z" /><path d="M 1085,1800 L 1125,1800 L 1125,1840 L 1085,1840 Z" /><path d="M 3295,1800 L 3335,1800 L 3335,1840 L 3295,1840 Z" /><path d="M 1085,950 L 1125,950 L 1125,990 L 1085,990 Z" /><path d="M 1085,750 L 1125,750 L 1125,790 L 1085,790 Z" /><path d="M 1865,950 L 1905,950 L 1905,990 L 1865,990 Z" /><path d="M 1865,750 L 1905,750 L 1905,790 L 1865,790 Z" /><path d="M 1475,950 L 1515,950 L 1515,990 L 1475,990 Z" /><path d="M 1475,750 L 1515,750 L 1515,790 L 1475,790 Z" /><path d="M 2255,950 L 2295,950 L 2295,990 L 2255,990 Z" /><path d="M 2255,750 L 2295,750 L 2295,790 L 2255,790 Z" /><path d="M 825,800 L 865,800 L 865,840 L 825,840 Z" /><path d="M 2515,800 L 2555,800 L 2555,840 L 2515,840 Z" /><path d="M 3035,800 L 3075,800 L 3075,840 L 3035,840 Z" /><path d="M 3555,800 L 3595,800 L 3595,840 L 3555,840 Z" /><path d="M 1475,1800 L 1515,1800 L 1515,1840 L 1475,1840 Z" /><path d="M 1345,1800 L 1385,1800 L 1385,1840 L 1345,1840 Z" /><path d="M 955,1800 L 995,1800 L 995,1840 L 955,1840 Z" /><path d="M 825,1800 L 865,1800 L 865,1840 L 825,1840 Z" /><path d="M 2645,1800 L 2685,1800 L 2685,1840 L 2645,1840 Z" /><path d="M 2515,1800 L 2555,1800 L 2555,1840 L 2515,1840 Z" /><path d="M 3425,1800 L 3465,1800 L 3465,1840 L 3425,1840 Z" /><path d="M 3555,1800 L 3595,1800 L 3595,1840 L 3555,1840 Z" /><path d="M 3165,1800 L 3205,1800 L 3205,1840 L 3165,1840 Z" /><path d="M 3035,1800 L 3075,1800 L 3075,1840 L 3035,1840 Z" /><path d="M 1995,1750 L 2035,1750 L 2035,1790 L 1995,1790 Z" /><path d="M 1865,1750 L 1905,1750 L 1905,1790 L 1865,1790 Z" /><path d="M 2775,1800 L 2815,1800 L 2815,1840 L 2775,1840 Z" /><path d="M 2775,800 L 2815,800 L 2815,840 L 2775,840 Z" /><path d="M 3295,800 L 3335,800 L 3335,840 L 3295,840 Z" /><path d="M 1280,1500 L 1320,1500 L 1320,1540 L 1280,1540 Z" /><path d="M 1800,1500 L 1840,1500 L 1840,1540 L 1800,1540 Z" /><path d="M 3230,1500 L 3270,1500 L 3270,1540 L 3230,1540 Z" /><path d="M 1150,1400 L 1190,1400 L 1190,1440 L 1150,1440 Z" /><path d="M 1410,1400 L 1450,1400 L 1450,1440 L 1410,1440 Z" /><path d="M 2190,1400 L 2230,1400 L 2230,1440 L 2190,1440 Z" /><path d="M 2710,1400 L 2750,1400 L 2750,1440 L 2710,1440 Z" /><path d="M 3490,1400 L 3530,1400 L 3530,1440 L 3490,1440 Z" /><path d="M 890,1300 L 930,1300 L 930,1340 L 890,1340 Z" /><path d="M 1930,1300 L 1970,1300 L 1970,1340 L 1930,1340 Z" /><path d="M 3230,1300 L 3270,1300 L 3270,1340 L 3230,1340 Z" /><path d="M 1020,1200 L 1060,1200 L 1060,1240 L 1020,1240 Z" /><path d="M 2060,1200 L 2100,1200 L 2100,1240 L 2060,1240 Z" /><path d="M 3100,1200 L 3140,1200 L 3140,1240 L 3100,1240 Z" /><path d="M 2580,1085 L 2620,1085 L 2620,1125 L 2580,1125 Z" /><path d="M 3360,1085 L 3400,1085 L 3400,1125 L 3360,1125 Z" /><path d="M 3490,975 L 3530,975 L 3530,1015 L 3490,1015 Z" /><path d="M 6675,475 L 6675,515 L 6715,515 L 6715,475 Z" /><path d="M 6545,475 L 6585,475 L 6585,515 L 6545,515 Z" /><path d="M 6415,475 L 6455,475 L 6455,515 L 6415,515 Z" /><path d="M 6285,475 L 6325,475 L 6325,515 L 6285,515 Z" /><path d="M 6155,475 L 6195,475 L 6195,515 L 6155,515 Z" /><path d="M 6025,475 L 6065,475 L 6065,515 L 6025,515 Z" /><path d="M 5895,475 L 5935,475 L 5935,515 L 5895,515 Z" /><path d="M 5765,475 L 5805,475 L 5805,515 L 5765,515 Z" /><path d="M 5635,475 L 5675,475 L 5675,515 L 5635,515 Z" /><path d="M 5505,475 L 5545,475 L 5545,515 L 5505,515 Z" /><path d="M 5375,475 L 5415,475 L 5415,515 L 5375,515 Z" /><path d="M 5245,475 L 5285,475 L 5285,515 L 5245,515 Z" /><path d="M 5115,475 L 5155,475 L 5155,515 L 5115,515 Z" /><path d="M 4985,475 L 5025,475 L 5025,515 L 4985,515 Z" /><path d="M 4855,475 L 4895,475 L 4895,515 L 4855,515 Z" /><path d="M 4725,475 L 4765,475 L 4765,515 L 4725,515 Z" /><path d="M 4595,475 L 4635,475 L 4635,515 L 4595,515 Z" /><path d="M 4465,475 L 4505,475 L 4505,515 L 4465,515 Z" /><path d="M 4335,475 L 4375,475 L 4375,515 L 4335,515 Z" /><path d="M 4205,475 L 4245,475 L 4245,515 L 4205,515 Z" /><path d="M 4075,475 L 4115,475 L 4115,515 L 4075,515 Z" /><path d="M 3945,475 L 3985,475 L 3985,515 L 3945,515 Z" /><path d="M 3815,475 L 3855,475 L 3855,515 L 3815,515 Z" /><path d="M 3685,475 L 3685,515 L 3725,515 L 3725,475 Z" /><path d="M 6675,2075 L 6675,2115 L 6715,2115 L 6715,2075 Z" /><path d="M 6545,2075 L 6585,2075 L 6585,2115 L 6545,2115 Z" /><path d="M 6415,2075 L 6455,2075 L 6455,2115 L 6415,2115 Z" /><path d="M 6285,2075 L 6325,2075 L 6325,2115 L 6285,2115 Z" /><path d="M 6155,2075 L 6195,2075 L 6195,2115 L 6155,2115 Z" /><path d="M 6025,2075 L 6065,2075 L 6065,2115 L 6025,2115 Z" /><path d="M 5895,2075 L 5935,2075 L 5935,2115 L 5895,2115 Z" /><path d="M 5765,2075 L 5805,2075 L 5805,2115 L 5765,2115 Z" /><path d="M 5635,2075 L 5675,2075 L 5675,2115 L 5635,2115 Z" /><path d="M 5505,2075 L 5545,2075 L 5545,2115 L 5505,2115 Z" /><path d="M 5375,2075 L 5415,2075 L 5415,2115 L 5375,2115 Z" /><path d="M 5245,2075 L 5285,2075 L 5285,2115 L 5245,2115 Z" /><path d="M 5115,2075 L 5155,2075 L 5155,2115 L 5115,2115 Z" /><path d="M 4985,2075 L 5025,2075 L 5025,2115 L 4985,2115 Z" /><path d="M 4855,2075 L 4895,2075 L 4895,2115 L 4855,2115 Z" /><path d="M 4725,2075 L 4765,2075 L 4765,2115 L 4725,2115 Z" /><path d="M 4595,2075 L 4635,2075 L 4635,2115 L 4595,2115 Z" /><path d="M 4465,2075 L 4505,2075 L 4505,2115 L 4465,2115 Z" /><path d="M 4335,2075 L 4375,2075 L 4375,2115 L 4335,2115 Z" /><path d="M 4205,2075 L 4245,2075 L 4245,2115 L 4205,2115 Z" /><path d="M 4075,2075 L 4115,2075 L 4115,2115 L 4075,2115 Z" /><path d="M 3945,2075 L 3985,2075 L 3985,2115 L 3945,2115 Z" /><path d="M 3815,2075 L 3855,2075 L 3855,2115 L 3815,2115 Z" /><path d="M 3685,2075 L 3685,2115 L 3725,2115 L 3725,2075 Z" /><path d="M 5245,1750 L 5285,1750 L 5285,1790 L 5245,1790 Z" /><path d="M 5115,1750 L 5155,1750 L 5155,1790 L 5115,1790 Z" /><path d="M 4725,950 L 4765,950 L 4765,990 L 4725,990 Z" /><path d="M 4725,750 L 4765,750 L 4765,790 L 4725,790 Z" /><path d="M 4725,1750 L 4765,1750 L 4765,1790 L 4725,1790 Z" /><path d="M 4205,1800 L 4245,1800 L 4245,1840 L 4205,1840 Z" /><path d="M 4075,1800 L 4115,1800 L 4115,1840 L 4075,1840 Z" /><path d="M 6285,1800 L 6325,1800 L 6325,1840 L 6285,1840 Z" /><path d="M 4075,950 L 4115,950 L 4115,990 L 4075,990 Z" /><path d="M 4075,750 L 4115,750 L 4115,790 L 4075,790 Z" /><path d="M 4855,950 L 4895,950 L 4895,990 L 4855,990 Z" /><path d="M 4855,750 L 4895,750 L 4895,790 L 4855,790 Z" /><path d="M 4465,950 L 4505,950 L 4505,990 L 4465,990 Z" /><path d="M 4465,750 L 4505,750 L 4505,790 L 4465,790 Z" /><path d="M 5245,950 L 5285,950 L 5285,990 L 5245,990 Z" /><path d="M 5245,750 L 5285,750 L 5285,790 L 5245,790 Z" /><path d="M 3815,800 L 3855,800 L 3855,840 L 3815,840 Z" /><path d="M 5505,800 L 5545,800 L 5545,840 L 5505,840 Z" /><path d="M 6025,800 L 6065,800 L 6065,840 L 6025,840 Z" /><path d="M 6545,800 L 6585,800 L 6585,840 L 6545,840 Z" /><path d="M 4465,1800 L 4505,1800 L 4505,1840 L 4465,1840 Z" /><path d="M 4335,1800 L 4375,1800 L 4375,1840 L 4335,1840 Z" /><path d="M 3945,1800 L 3985,1800 L 3985,1840 L 3945,1840 Z" /><path d="M 3815,1800 L 3855,1800 L 3855,1840 L 3815,1840 Z" /><path d="M 5635,1800 L 5675,1800 L 5675,1840 L 5635,1840 Z" /><path d="M 5505,1800 L 5545,1800 L 5545,1840 L 5505,1840 Z" /><path d="M 6415,1800 L 6455,1800 L 6455,1840 L 6415,1840 Z" /><path d="M 6545,1800 L 6585,1800 L 6585,1840 L 6545,1840 Z" /><path d="M 6155,1800 L 6195,1800 L 6195,1840 L 6155,1840 Z" /><path d="M 6025,1800 L 6065,1800 L 6065,1840 L 6025,1840 Z" /><path d="M 4985,1750 L 5025,1750 L 5025,1790 L 4985,1790 Z" /><path d="M 4855,1750 L 4895,1750 L 4895,1790 L 4855,1790 Z" /><path d="M 5765,1800 L 5805,1800 L 5805,1840 L 5765,1840 Z" /><path d="M 5765,800 L 5805,800 L 5805,840 L 5765,840 Z" /><path d="M 6285,800 L 6325,800 L 6325,840 L 6285,840 Z" /><path d="M 4270,1500 L 4310,1500 L 4310,1540 L 4270,1540 Z" /><path d="M 4790,1500 L 4830,1500 L 4830,1540 L 4790,1540 Z" /><path d="M 6220,1500 L 6260,1500 L 6260,1540 L 6220,1540 Z" /><path d="M 4140,1400 L 4180,1400 L 4180,1440 L 4140,1440 Z" /><path d="M 4400,1400 L 4440,1400 L 4440,1440 L 4400,1440 Z" /><path d="M 5180,1400 L 5220,1400 L 5220,1440 L 5180,1440 Z" /><path d="M 5700,1400 L 5740,1400 L 5740,1440 L 5700,1440 Z" /><path d="M 6480,1400 L 6520,1400 L 6520,1440 L 6480,1440 Z" /><path d="M 3880,1300 L 3920,1300 L 3920,1340 L 3880,1340 Z" /><path d="M 4920,1300 L 4960,1300 L 4960,1340 L 4920,1340 Z" /><path d="M 6220,1300 L 6260,1300 L 6260,1340 L 6220,1340 Z" /><path d="M 4010,1200 L 4050,1200 L 4050,1240 L 4010,1240 Z" /><path d="M 5050,1200 L 5090,1200 L 5090,1240 L 5050,1240 Z" /><path d="M 6090,1200 L 6130,1200 L 6130,1240 L 6090,1240 Z" /><path d="M 5570,1085 L 5610,1085 L 5610,1125 L 5570,1125 Z" /><path d="M 6350,1085 L 6390,1085 L 6390,1125 L 6350,1125 Z" /><path d="M 6480,975 L 6520,975 L 6520,1015 L 6480,1015 Z" /></g></g><g id="M1"><g class="l31d0"><path d="M 8100,1815 L 8100,1820 L 8100,1880 L 7890,1880 L 7890,1820 L 7890,1815 L 7890,1720 L 7840,1720 L 7840,1815 L 7840,1820 L 7840,1880 L 7840,1930 L 7890,1930 L 8100,1930 L 8150,1930 L 8150,1880 L 8150,1820 L 8150,1815 L 8150,1720 L 8100,1720 Z" /><path d="M 9450,1770 L 9450,1545 L 9450,1495 L 9400,1495 L 9270,1495 L 9230,1495 L 9190,1495 L 9190,1545 L 9230,1545 L 9270,1545 L 9400,1545 L 9400,1770 L 9400,1870 L 9450,1870 Z" /><path d="M 9450,1395 L 9110,1395 L 9060,1395 L 9060,1444 L 9060,1605 L 9060,1654 L 9110,1654 L 9140,1654 L 9140,1770 L 9140,1870 L 9190,1870 L 9190,1770 L 9190,1654 L 9190,1605 L 9140,1605 L 9110,1605 L 9110,1444 L 9450,1444 L 9450,1445 L 9530,1445 L 9530,1395 L 9470,1395 Z" /><path d="M 9450,970 L 9060,970 L 9060,870 L 9060,770 L 9010,770 L 9010,870 L 9010,970 L 9010,1020 L 9060,1020 L 9450,1020 L 9490,1020 L 9530,1020 L 9530,970 L 9490,970 Z" /><path d="M 9530,680 L 9530,765 L 9530,770 L 9530,870 L 9530,875 L 9530,910 L 9580,910 L 9580,875 L 9580,870 L 9580,770 L 9580,765 L 9580,680 Z" /><path d="M 8490,705 L 8490,765 L 8490,770 L 8490,870 L 8490,875 L 8490,935 L 8540,935 L 8540,875 L 8540,870 L 8540,770 L 8540,765 L 8540,705 Z" /><path d="M 6800,705 L 6800,765 L 6800,770 L 6800,870 L 6800,875 L 6800,935 L 6850,935 L 6850,875 L 6850,870 L 6850,770 L 6850,765 L 6850,705 Z" /><path d="M 8840,1395 L 8750,1395 L 8670,1395 L 8660,1395 L 8660,1445 L 8670,1445 L 8750,1445 L 8890,1445 L 8890,1395 L 8890,1345 L 9190,1345 L 9230,1345 L 9270,1345 L 9500,1345 L 9555,1345 L 9610,1345 L 9610,1295 L 9555,1295 L 9500,1295 L 9270,1295 L 9230,1295 L 9190,1295 L 8890,1295 L 8840,1295 L 8840,1345 Z" /><path d="M 8515,1295 L 8460,1295 L 7970,1295 L 7930,1295 L 7890,1295 L 6930,1295 L 6890,1295 L 6850,1295 L 6850,1345 L 6890,1345 L 6930,1345 L 7890,1345 L 7930,1345 L 7970,1345 L 8460,1345 L 8515,1345 L 8520,1345 L 8520,1660 L 8520,1710 L 8570,1710 L 8620,1710 L 8620,1770 L 8620,1870 L 8670,1870 L 8670,1770 L 8670,1710 L 8670,1660 L 8620,1660 L 8570,1660 L 8570,1345 L 8570,1295 L 8520,1295 Z" /><path d="M 8279,1020 L 8280,1020 L 8280,720 L 8230,720 L 8230,1020 L 8230,1080 L 8180,1080 L 8070,1080 L 7759,1080 L 7759,1020 L 7760,1020 L 7760,720 L 7710,720 L 7710,1020 L 7710,1080 L 7710,1130 L 7759,1130 L 8070,1130 L 8180,1130 L 8230,1130 L 8279,1130 L 8540,1130 L 8580,1130 L 8620,1130 L 9320,1130 L 9360,1130 L 9400,1130 L 9400,1080 L 9360,1080 L 9320,1080 L 8620,1080 L 8580,1080 L 8540,1080 L 8279,1080 Z" /><path d="M 8279,1720 L 8279,1660 L 8279,1610 L 8230,1610 L 8180,1610 L 8070,1610 L 8019,1610 L 7970,1610 L 7970,1660 L 7970,1720 L 7970,1820 L 8020,1820 L 8020,1720 L 8019,1720 L 8019,1660 L 8070,1660 L 8180,1660 L 8230,1660 L 8230,1720 L 8230,1820 L 8280,1820 L 8280,1720 Z" /><path d="M 6980,1195 L 6980,1245 L 7020,1245 L 7060,1245 L 7290,1245 L 7400,1245 L 7450,1245 L 7499,1245 L 8020,1245 L 8060,1245 L 8100,1245 L 9060,1245 L 9100,1245 L 9140,1245 L 9140,1195 L 9100,1195 L 9060,1195 L 8100,1195 L 8060,1195 L 8020,1195 L 7499,1195 L 7499,1020 L 7500,1020 L 7500,720 L 7450,720 L 7450,1020 L 7450,1195 L 7400,1195 L 7290,1195 L 7060,1195 L 7020,1195 Z" /><path d="M 7499,1770 L 7499,1710 L 7499,1660 L 7450,1660 L 7400,1660 L 7290,1660 L 7240,1660 L 7190,1660 L 7190,1710 L 7190,1770 L 7190,1870 L 7240,1870 L 7240,1770 L 7240,1710 L 7290,1710 L 7400,1710 L 7450,1710 L 7450,1770 L 7450,1870 L 7500,1870 L 7500,1770 Z" /><path d="M 7240,1545 L 7280,1545 L 7320,1545 L 7320,1495 L 7280,1495 L 7240,1495 L 6980,1495 L 6930,1495 L 6880,1495 L 6825,1495 L 6770,1495 L 6770,1545 L 6825,1545 L 6880,1545 L 6930,1545 L 6930,1770 L 6930,1870 L 6980,1870 L 6980,1770 L 6980,1545 Z" /><path d="M 2120,1815 L 2120,1820 L 2120,1880 L 1910,1880 L 1910,1820 L 1910,1815 L 1910,1720 L 1860,1720 L 1860,1815 L 1860,1820 L 1860,1880 L 1860,1930 L 1910,1930 L 2120,1930 L 2170,1930 L 2170,1880 L 2170,1820 L 2170,1815 L 2170,1720 L 2120,1720 Z" /><path d="M 3470,1770 L 3470,1545 L 3470,1495 L 3420,1495 L 3290,1495 L 3250,1495 L 3210,1495 L 3210,1545 L 3250,1545 L 3290,1545 L 3420,1545 L 3420,1770 L 3420,1870 L 3470,1870 Z" /><path d="M 2170,1395 L 1470,1395 L 1430,1395 L 1390,1395 L 1390,1445 L 1470,1445 L 1470,1444 L 2170,1444 L 2170,1445 L 2250,1445 L 2250,1395 L 2210,1395 Z" /><path d="M 3470,1395 L 3130,1395 L 3080,1395 L 3080,1444 L 3080,1605 L 3080,1654 L 3130,1654 L 3160,1654 L 3160,1770 L 3160,1870 L 3210,1870 L 3210,1770 L 3210,1654 L 3210,1605 L 3160,1605 L 3130,1605 L 3130,1444 L 3470,1444 L 3470,1445 L 3550,1445 L 3550,1395 L 3490,1395 Z" /><path d="M 3470,970 L 3080,970 L 3080,870 L 3080,770 L 3030,770 L 3030,870 L 3030,970 L 3030,1020 L 3080,1020 L 3470,1020 L 3510,1020 L 3550,1020 L 3550,970 L 3510,970 Z" /><path d="M 3550,680 L 3550,765 L 3550,770 L 3550,870 L 3550,875 L 3550,910 L 3600,910 L 3600,875 L 3600,870 L 3600,770 L 3600,765 L 3600,680 Z" /><path d="M 2510,705 L 2510,765 L 2510,770 L 2510,870 L 2510,875 L 2510,935 L 2560,935 L 2560,875 L 2560,870 L 2560,770 L 2560,765 L 2560,705 Z" /><path d="M 820,705 L 820,765 L 820,770 L 820,870 L 820,875 L 820,935 L 870,935 L 870,875 L 870,870 L 870,770 L 870,765 L 870,705 Z" /><path d="M 2535,1295 L 2480,1295 L 1990,1295 L 1950,1295 L 1910,1295 L 950,1295 L 910,1295 L 870,1295 L 870,1345 L 910,1345 L 950,1345 L 1910,1345 L 1950,1345 L 1990,1345 L 2480,1345 L 2535,1345 L 2540,1345 L 2540,1660 L 2540,1710 L 2590,1710 L 2640,1710 L 2640,1770 L 2640,1870 L 2690,1870 L 2690,1770 L 2690,1710 L 2690,1660 L 2640,1660 L 2590,1660 L 2590,1345 L 2590,1295 L 2540,1295 Z" /><path d="M 2299,1020 L 2300,1020 L 2300,720 L 2250,720 L 2250,1020 L 2250,1080 L 2200,1080 L 2090,1080 L 1779,1080 L 1779,1020 L 1780,1020 L 1780,720 L 1730,720 L 1730,1020 L 1730,1080 L 1730,1130 L 1779,1130 L 2090,1130 L 2200,1130 L 2250,1130 L 2299,1130 L 2560,1130 L 2600,1130 L 2640,1130 L 3340,1130 L 3380,1130 L 3420,1130 L 3420,1080 L 3380,1080 L 3340,1080 L 2640,1080 L 2600,1080 L 2560,1080 L 2299,1080 Z" /><path d="M 2299,1720 L 2299,1660 L 2299,1610 L 2250,1610 L 2200,1610 L 2090,1610 L 2039,1610 L 1990,1610 L 1990,1660 L 1990,1720 L 1990,1820 L 2040,1820 L 2040,1720 L 2039,1720 L 2039,1660 L 2090,1660 L 2200,1660 L 2250,1660 L 2250,1720 L 2250,1820 L 2300,1820 L 2300,1720 Z" /><path d="M 1000,1195 L 1000,1245 L 1040,1245 L 1080,1245 L 1310,1245 L 1420,1245 L 1470,1245 L 1519,1245 L 2040,1245 L 2080,1245 L 2120,1245 L 3080,1245 L 3120,1245 L 3160,1245 L 3160,1195 L 3120,1195 L 3080,1195 L 2120,1195 L 2080,1195 L 2040,1195 L 1519,1195 L 1519,1020 L 1520,1020 L 1520,720 L 1470,720 L 1470,1020 L 1470,1195 L 1420,1195 L 1310,1195 L 1080,1195 L 1040,1195 Z" /><path d="M 1519,1770 L 1519,1710 L 1519,1660 L 1470,1660 L 1420,1660 L 1310,1660 L 1260,1660 L 1210,1660 L 1210,1710 L 1210,1770 L 1210,1870 L 1260,1870 L 1260,1770 L 1260,1710 L 1310,1710 L 1420,1710 L 1470,1710 L 1470,1770 L 1470,1870 L 1520,1870 L 1520,1770 Z" /><path d="M 1260,1545 L 1300,1545 L 1340,1545 L 1340,1495 L 1300,1495 L 1260,1495 L 1000,1495 L 950,1495 L 900,1495 L 845,1495 L 790,1495 L 790,1545 L 845,1545 L 900,1545 L 950,1545 L 950,1770 L 950,1870 L 1000,1870 L 1000,1770 L 1000,1545 Z" /><path d="M 5110,1815 L 5110,1820 L 5110,1880 L 4900,1880 L 4900,1820 L 4900,1815 L 4900,1720 L 4850,1720 L 4850,1815 L 4850,1820 L 4850,1880 L 4850,1930 L 4900,1930 L 5110,1930 L 5160,1930 L 5160,1880 L 5160,1820 L 5160,1815 L 5160,1720 L 5110,1720 Z" /><path d="M 2820,870 L 2820,770 L 2820,545 L 3290,545 L 3290,770 L 3290,870 L 3340,870 L 3340,770 L 3340,545 L 3635,545 L 3775,545 L 4070,545 L 4070,720 L 4070,1020 L 4120,1020 L 4120,720 L 4120,545 L 4850,545 L 4850,720 L 4850,1020 L 4900,1020 L 4900,720 L 4900,545 L 5760,545 L 5760,770 L 5760,870 L 5810,870 L 5810,770 L 5810,545 L 6280,545 L 6280,770 L 6280,870 L 6330,870 L 6330,770 L 6330,545 L 6625,545 L 6765,545 L 7060,545 L 7060,720 L 7060,1020 L 7110,1020 L 7110,720 L 7110,545 L 7840,545 L 7840,720 L 7840,1020 L 7890,1020 L 7890,720 L 7890,545 L 8750,545 L 8750,770 L 8750,870 L 8800,870 L 8800,770 L 8800,545 L 9270,545 L 9270,770 L 9270,870 L 9320,870 L 9320,770 L 9320,545 L 9755,545 L 9755,445 L 6765,445 L 6625,445 L 3775,445 L 3635,445 L 645,445 L 645,545 L 1080,545 L 1080,720 L 1080,1020 L 1130,1020 L 1130,720 L 1130,545 L 1860,545 L 1860,720 L 1860,1020 L 1910,1020 L 1910,720 L 1910,545 L 2770,545 L 2770,770 L 2770,870 Z" /><path d="M 3340,2045 L 3340,1870 L 3340,1770 L 3290,1770 L 3290,1870 L 3290,2045 L 3080,2045 L 3080,1870 L 3080,1770 L 3030,1770 L 3030,1870 L 3030,2045 L 2820,2045 L 2820,1870 L 2820,1770 L 2770,1770 L 2770,1870 L 2770,2045 L 2560,2045 L 2560,1870 L 2560,1770 L 2510,1770 L 2510,1870 L 2510,2045 L 1779,2045 L 1779,1820 L 1780,1820 L 1780,1720 L 1730,1720 L 1730,1820 L 1730,2045 L 1390,2045 L 1390,1870 L 1390,1770 L 1340,1770 L 1340,1870 L 1340,2045 L 1130,2045 L 1130,1870 L 1130,1770 L 1080,1770 L 1080,1870 L 1080,2045 L 870,2045 L 870,1870 L 870,1770 L 820,1770 L 820,1870 L 820,2045 L 645,2045 L 645,2145 L 3635,2145 L 3775,2145 L 6625,2145 L 6765,2145 L 9755,2145 L 9755,2045 L 9580,2045 L 9580,1870 L 9580,1770 L 9530,1770 L 9530,1870 L 9530,2045 L 9320,2045 L 9320,1870 L 9320,1770 L 9270,1770 L 9270,1870 L 9270,2045 L 9060,2045 L 9060,1870 L 9060,1770 L 9010,1770 L 9010,1870 L 9010,2045 L 8800,2045 L 8800,1870 L 8800,1770 L 8750,1770 L 8750,1870 L 8750,2045 L 8540,2045 L 8540,1870 L 8540,1770 L 8490,1770 L 8490,1870 L 8490,2045 L 7759,2045 L 7759,1820 L 7760,1820 L 7760,1720 L 7710,1720 L 7710,1820 L 7710,2045 L 7370,2045 L 7370,1870 L 7370,1770 L 7320,1770 L 7320,1870 L 7320,2045 L 7110,2045 L 7110,1870 L 7110,1770 L 7060,1770 L 7060,1870 L 7060,2045 L 6850,2045 L 6850,1870 L 6850,1770 L 6800,1770 L 6800,1870 L 6800,2045 L 6765,2045 L 6625,2045 L 6590,2045 L 6590,1870 L 6590,1770 L 6540,1770 L 6540,1870 L 6540,2045 L 6330,2045 L 6330,1870 L 6330,1770 L 6280,1770 L 6280,1870 L 6280,2045 L 6070,2045 L 6070,1870 L 6070,1770 L 6020,1770 L 6020,1870 L 6020,2045 L 5810,2045 L 5810,1870 L 5810,1770 L 5760,1770 L 5760,1870 L 5760,2045 L 5550,2045 L 5550,1870 L 5550,1770 L 5500,1770 L 5500,1870 L 5500,2045 L 4769,2045 L 4769,1820 L 4770,1820 L 4770,1720 L 4720,1720 L 4720,1820 L 4720,2045 L 4380,2045 L 4380,1870 L 4380,1770 L 4330,1770 L 4330,1870 L 4330,2045 L 4120,2045 L 4120,1870 L 4120,1770 L 4070,1770 L 4070,1870 L 4070,2045 L 3860,2045 L 3860,1870 L 3860,1770 L 3810,1770 L 3810,1870 L 3810,2045 L 3775,2045 L 3635,2045 L 3600,2045 L 3600,1870 L 3600,1770 L 3550,1770 L 3550,1870 L 3550,2045 Z" /><path d="M 6460,1770 L 6460,1545 L 6460,1495 L 6410,1495 L 6280,1495 L 6240,1495 L 6200,1495 L 6200,1545 L 6240,1545 L 6280,1545 L 6410,1545 L 6410,1770 L 6410,1870 L 6460,1870 Z" /><path d="M 6460,1395 L 6120,1395 L 6070,1395 L 6070,1444 L 6070,1605 L 6070,1654 L 6120,1654 L 6150,1654 L 6150,1770 L 6150,1870 L 6200,1870 L 6200,1770 L 6200,1654 L 6200,1605 L 6150,1605 L 6120,1605 L 6120,1444 L 6460,1444 L 6460,1445 L 6540,1445 L 6540,1395 L 6480,1395 Z" /><path d="M 6460,970 L 6070,970 L 6070,870 L 6070,770 L 6020,770 L 6020,870 L 6020,970 L 6020,1020 L 6070,1020 L 6460,1020 L 6500,1020 L 6540,1020 L 6540,970 L 6500,970 Z" /><path d="M 6540,680 L 6540,765 L 6540,770 L 6540,870 L 6540,875 L 6540,910 L 6590,910 L 6590,875 L 6590,870 L 6590,770 L 6590,765 L 6590,680 Z" /><path d="M 5500,705 L 5500,765 L 5500,770 L 5500,870 L 5500,875 L 5500,935 L 5550,935 L 5550,875 L 5550,870 L 5550,770 L 5550,765 L 5550,705 Z" /><path d="M 3810,705 L 3810,765 L 3810,770 L 3810,870 L 3810,875 L 3810,935 L 3860,935 L 3860,875 L 3860,870 L 3860,770 L 3860,765 L 3860,705 Z" /><path d="M 5525,1295 L 5470,1295 L 4980,1295 L 4940,1295 L 4900,1295 L 3940,1295 L 3900,1295 L 3860,1295 L 3860,1345 L 3900,1345 L 3940,1345 L 4900,1345 L 4940,1345 L 4980,1345 L 5470,1345 L 5525,1345 L 5530,1345 L 5530,1660 L 5530,1710 L 5580,1710 L 5630,1710 L 5630,1770 L 5630,1870 L 5680,1870 L 5680,1770 L 5680,1710 L 5680,1660 L 5630,1660 L 5580,1660 L 5580,1345 L 5580,1295 L 5530,1295 Z" /><path d="M 5289,1020 L 5290,1020 L 5290,720 L 5240,720 L 5240,1020 L 5240,1080 L 5190,1080 L 5080,1080 L 4769,1080 L 4769,1020 L 4770,1020 L 4770,720 L 4720,720 L 4720,1020 L 4720,1080 L 4720,1130 L 4769,1130 L 5080,1130 L 5190,1130 L 5240,1130 L 5289,1130 L 5550,1130 L 5590,1130 L 5630,1130 L 6330,1130 L 6370,1130 L 6410,1130 L 6410,1080 L 6370,1080 L 6330,1080 L 5630,1080 L 5590,1080 L 5550,1080 L 5289,1080 Z" /><path d="M 5289,1720 L 5289,1660 L 5289,1610 L 5240,1610 L 5190,1610 L 5080,1610 L 5029,1610 L 4980,1610 L 4980,1660 L 4980,1720 L 4980,1820 L 5030,1820 L 5030,1720 L 5029,1720 L 5029,1660 L 5080,1660 L 5190,1660 L 5240,1660 L 5240,1720 L 5240,1820 L 5290,1820 L 5290,1720 Z" /><path d="M 3990,1195 L 3990,1245 L 4030,1245 L 4070,1245 L 4300,1245 L 4410,1245 L 4460,1245 L 4509,1245 L 5030,1245 L 5070,1245 L 5110,1245 L 6070,1245 L 6110,1245 L 6150,1245 L 6150,1195 L 6110,1195 L 6070,1195 L 5110,1195 L 5070,1195 L 5030,1195 L 4509,1195 L 4509,1020 L 4510,1020 L 4510,720 L 4460,720 L 4460,1020 L 4460,1195 L 4410,1195 L 4300,1195 L 4070,1195 L 4030,1195 Z" /><path d="M 4509,1770 L 4509,1710 L 4509,1660 L 4460,1660 L 4410,1660 L 4300,1660 L 4250,1660 L 4200,1660 L 4200,1710 L 4200,1770 L 4200,1870 L 4250,1870 L 4250,1770 L 4250,1710 L 4300,1710 L 4410,1710 L 4460,1710 L 4460,1770 L 4460,1870 L 4510,1870 L 4510,1770 Z" /><path d="M 4250,1545 L 4290,1545 L 4330,1545 L 4330,1495 L 4290,1495 L 4250,1495 L 3990,1495 L 3940,1495 L 3890,1495 L 3835,1495 L 3780,1495 L 3780,1545 L 3835,1545 L 3890,1545 L 3940,1545 L 3940,1770 L 3940,1870 L 3990,1870 L 3990,1770 L 3990,1545 Z" /><path d="M 5760,1395 L 5680,1395 L 5670,1395 L 5670,1445 L 5680,1445 L 5760,1445 L 5900,1445 L 5900,1395 L 5900,1345 L 6200,1345 L 6240,1345 L 6280,1345 L 6510,1345 L 6565,1345 L 6620,1345 L 6620,1295 L 6565,1295 L 6510,1295 L 6280,1295 L 6240,1295 L 6200,1295 L 5900,1295 L 5850,1295 L 5850,1345 L 5850,1395 Z" /><path d="M 7755,1395 L 7700,1395 L 7645,1395 L 7450,1395 L 7410,1395 L 7370,1395 L 7370,1445 L 7450,1445 L 7450,1444 L 7645,1444 L 7645,1445 L 7755,1445 L 7755,1444 L 7775,1444 L 8150,1444 L 8150,1445 L 8230,1445 L 8230,1395 L 8190,1395 L 8150,1395 L 7775,1395 Z" /><path d="M 2770,1395 L 2690,1395 L 2680,1395 L 2680,1445 L 2690,1445 L 2770,1445 L 2910,1445 L 2910,1395 L 2910,1345 L 3210,1345 L 3250,1345 L 3290,1345 L 3520,1345 L 3575,1345 L 3630,1345 L 3630,1295 L 3575,1295 L 3520,1295 L 3290,1295 L 3250,1295 L 3210,1295 L 2910,1295 L 2860,1295 L 2860,1345 L 2860,1395 Z" /><path d="M 4765,1395 L 4710,1395 L 4655,1395 L 4460,1395 L 4420,1395 L 4380,1395 L 4380,1445 L 4460,1445 L 4460,1444 L 4655,1444 L 4655,1445 L 4765,1445 L 4765,1444 L 4785,1444 L 5160,1444 L 5160,1445 L 5240,1445 L 5240,1395 L 5200,1395 L 5160,1395 L 4785,1395 Z" /><path d="M 7035,1445 L 7110,1445 L 7160,1445 L 7190,1445 L 7265,1445 L 7270,1445 L 7270,1395 L 7265,1395 L 7190,1395 L 7160,1395 L 7110,1395 L 7035,1395 Z" /><path d="M 4045,1445 L 4105,1445 L 4120,1445 L 4200,1445 L 4215,1445 L 4275,1445 L 4275,1395 L 4215,1395 L 4200,1395 L 4120,1395 L 4105,1395 L 4045,1395 Z" /><path d="M 1055,1445 L 1115,1445 L 1130,1445 L 1210,1445 L 1225,1445 L 1285,1445 L 1285,1395 L 1225,1395 L 1210,1395 L 1130,1395 L 1115,1395 L 1055,1395 Z" /><path d="M 7685,1545 L 7745,1545 L 7760,1545 L 7840,1545 L 7855,1545 L 7915,1545 L 7915,1495 L 7855,1495 L 7840,1495 L 7760,1495 L 7745,1495 L 7685,1495 Z" /><path d="M 4695,1545 L 4755,1545 L 4770,1545 L 4850,1545 L 4865,1545 L 4925,1545 L 4925,1495 L 4865,1495 L 4850,1495 L 4770,1495 L 4755,1495 L 4695,1495 Z" /><path d="M 1705,1545 L 1765,1545 L 1780,1545 L 1860,1545 L 1875,1545 L 1935,1545 L 1935,1495 L 1875,1495 L 1860,1495 L 1780,1495 L 1765,1495 L 1705,1495 Z" /></g></g><g id="VIA1"><g class="l51d0"><path d="M 9530,795 L 9580,795 L 9580,845 L 9530,845 Z" /><path d="M 8490,795 L 8540,795 L 8540,845 L 8490,845 Z" /><path d="M 6800,795 L 6850,795 L 6850,845 L 6800,845 Z" /><path d="M 9530,1295 L 9580,1295 L 9580,1345 L 9530,1345 Z" /><path d="M 8490,1295 L 8540,1295 L 8540,1345 L 8490,1345 Z" /><path d="M 8100,1080 L 8150,1080 L 8150,1130 L 8100,1130 Z" /><path d="M 8100,1610 L 8150,1610 L 8150,1660 L 8100,1660 Z" /><path d="M 7320,1195 L 7370,1195 L 7370,1245 L 7320,1245 Z" /><path d="M 7320,1660 L 7370,1660 L 7370,1710 L 7320,1710 Z" /><path d="M 6800,1495 L 6850,1495 L 6850,1545 L 6800,1545 Z" /><path d="M 3550,795 L 3600,795 L 3600,845 L 3550,845 Z" /><path d="M 2510,795 L 2560,795 L 2560,845 L 2510,845 Z" /><path d="M 820,795 L 870,795 L 870,845 L 820,845 Z" /><path d="M 2510,1295 L 2560,1295 L 2560,1345 L 2510,1345 Z" /><path d="M 2120,1080 L 2170,1080 L 2170,1130 L 2120,1130 Z" /><path d="M 2120,1610 L 2170,1610 L 2170,1660 L 2120,1660 Z" /><path d="M 1340,1195 L 1390,1195 L 1390,1245 L 1340,1245 Z" /><path d="M 1340,1660 L 1390,1660 L 1390,1710 L 1340,1710 Z" /><path d="M 820,1495 L 870,1495 L 870,1545 L 820,1545 Z" /><path d="M 6540,795 L 6590,795 L 6590,845 L 6540,845 Z" /><path d="M 5500,795 L 5550,795 L 5550,845 L 5500,845 Z" /><path d="M 3810,795 L 3860,795 L 3860,845 L 3810,845 Z" /><path d="M 5500,1295 L 5550,1295 L 5550,1345 L 5500,1345 Z" /><path d="M 5110,1080 L 5160,1080 L 5160,1130 L 5110,1130 Z" /><path d="M 5110,1610 L 5160,1610 L 5160,1660 L 5110,1660 Z" /><path d="M 4330,1195 L 4380,1195 L 4380,1245 L 4330,1245 Z" /><path d="M 4330,1660 L 4380,1660 L 4380,1710 L 4330,1710 Z" /><path d="M 3810,1495 L 3860,1495 L 3860,1545 L 3810,1545 Z" /><path d="M 6540,1295 L 6540,1345 L 6590,1345 L 6590,1295 Z" /><path d="M 7675,1395 L 7725,1395 L 7725,1445 L 7675,1445 Z" /><path d="M 3550,1295 L 3550,1345 L 3600,1345 L 3600,1295 Z" /><path d="M 4685,1395 L 4735,1395 L 4735,1445 L 4685,1445 Z" /><path d="M 7190,1395 L 7240,1395 L 7240,1445 L 7190,1445 Z" /><path d="M 4135,1395 L 4185,1395 L 4185,1445 L 4135,1445 Z" /><path d="M 1145,1395 L 1195,1395 L 1195,1445 L 1145,1445 Z" /><path d="M 7775,1495 L 7825,1495 L 7825,1545 L 7775,1545 Z" /><path d="M 4785,1495 L 4835,1495 L 4835,1545 L 4785,1545 Z" /><path d="M 1795,1495 L 1845,1495 L 1845,1545 L 1795,1545 Z" /></g></g><g id="M2"><g class="l32d0"><path d="M 9580,1265 L 9580,875 L 9580,820 L 9580,765 L 9530,765 L 9530,820 L 9530,875 L 9530,1265 L 9530,1320 L 9530,1375 L 9580,1375 L 9580,1320 Z" /><path d="M 8540,1265 L 8540,875 L 8540,820 L 8540,765 L 8490,765 L 8490,820 L 8490,875 L 8490,1265 L 8490,1320 L 8490,1375 L 8540,1375 L 8540,1320 Z" /><path d="M 8100,1580 L 8100,1635 L 8100,1690 L 8150,1690 L 8150,1635 L 8150,1580 L 8150,1160 L 8150,1105 L 8150,1050 L 8100,1050 L 8100,1105 L 8100,1160 Z" /><path d="M 7370,1630 L 7370,1275 L 7370,1220 L 7370,1165 L 7320,1165 L 7320,1220 L 7320,1275 L 7320,1630 L 7320,1685 L 7320,1740 L 7370,1740 L 7370,1685 Z" /><path d="M 6850,1465 L 6850,875 L 6850,820 L 6850,765 L 6800,765 L 6800,820 L 6800,875 L 6800,1465 L 6800,1520 L 6800,1575 L 6850,1575 L 6850,1520 Z" /><path d="M 2560,1265 L 2560,875 L 2560,820 L 2560,765 L 2510,765 L 2510,820 L 2510,875 L 2510,1265 L 2510,1320 L 2510,1375 L 2560,1375 L 2560,1320 Z" /><path d="M 2120,1580 L 2120,1635 L 2120,1690 L 2170,1690 L 2170,1635 L 2170,1580 L 2170,1160 L 2170,1105 L 2170,1050 L 2120,1050 L 2120,1105 L 2120,1160 Z" /><path d="M 1390,1630 L 1390,1275 L 1390,1220 L 1390,1165 L 1340,1165 L 1340,1220 L 1340,1275 L 1340,1630 L 1340,1685 L 1340,1740 L 1390,1740 L 1390,1685 Z" /><path d="M 870,1465 L 870,875 L 870,820 L 870,765 L 820,765 L 820,820 L 820,875 L 820,1465 L 820,1520 L 820,1575 L 870,1575 L 870,1520 Z" /><path d="M 5550,1265 L 5550,875 L 5550,820 L 5550,765 L 5500,765 L 5500,820 L 5500,875 L 5500,1265 L 5500,1320 L 5500,1375 L 5550,1375 L 5550,1320 Z" /><path d="M 5110,1580 L 5110,1635 L 5110,1690 L 5160,1690 L 5160,1635 L 5160,1580 L 5160,1160 L 5160,1105 L 5160,1050 L 5110,1050 L 5110,1105 L 5110,1160 Z" /><path d="M 4380,1630 L 4380,1275 L 4380,1220 L 4380,1165 L 4330,1165 L 4330,1220 L 4330,1275 L 4330,1630 L 4330,1685 L 4330,1740 L 4380,1740 L 4380,1685 Z" /><path d="M 3860,1465 L 3860,875 L 3860,820 L 3860,765 L 3810,765 L 3810,820 L 3810,875 L 3810,1465 L 3810,1520 L 3810,1575 L 3860,1575 L 3860,1520 Z" /><path d="M 6590,820 L 6590,765 L 6540,765 L 6540,820 L 6540,875 L 6540,1265 L 6540,1320 L 6540,1375 L 6590,1375 L 6590,1320 L 6590,1265 L 6590,875 Z" /><path d="M 7725,1230 L 7675,1230 L 7675,1265 L 7675,1365 L 7675,1375 L 7675,1475 L 7675,1510 L 7725,1510 L 7725,1475 L 7725,1375 L 7725,1365 L 7725,1265 Z" /><path d="M 3600,820 L 3600,765 L 3550,765 L 3550,820 L 3550,875 L 3550,1265 L 3550,1320 L 3550,1375 L 3600,1375 L 3600,1320 L 3600,1265 L 3600,875 Z" /><path d="M 4735,1230 L 4685,1230 L 4685,1265 L 4685,1365 L 4685,1375 L 4685,1475 L 4685,1510 L 4735,1510 L 4735,1475 L 4735,1375 L 4735,1365 L 4735,1265 Z" /><path d="M 7240,1280 L 7190,1280 L 7190,1365 L 7190,1475 L 7190,1560 L 7240,1560 L 7240,1475 L 7240,1365 Z" /><path d="M 4185,1280 L 4135,1280 L 4135,1365 L 4135,1475 L 4135,1560 L 4185,1560 L 4185,1475 L 4185,1365 Z" /><path d="M 1195,1280 L 1145,1280 L 1145,1365 L 1145,1475 L 1145,1560 L 1195,1560 L 1195,1475 L 1195,1365 Z" /><path d="M 7825,1380 L 7775,1380 L 7775,1465 L 7775,1575 L 7775,1660 L 7825,1660 L 7825,1575 L 7825,1465 Z" /><path d="M 4835,1380 L 4785,1380 L 4785,1465 L 4785,1575 L 4785,1660 L 4835,1660 L 4835,1575 L 4835,1465 Z" /><path d="M 1845,1380 L 1795,1380 L 1795,1465 L 1795,1575 L 1795,1660 L 1845,1660 L 1845,1575 L 1845,1465 Z" /></g></g><g id="VIA2"><g class="l52d0"><path d="M 6540,1295 L 6590,1295 L 6590,1345 L 6540,1345 Z" /><path d="M 7675,1295 L 7725,1295 L 7725,1345 L 7675,1345 Z" /><path d="M 3550,1295 L 3600,1295 L 3600,1345 L 3550,1345 Z" /><path d="M 4685,1295 L 4735,1295 L 4735,1345 L 4685,1345 Z" /><path d="M 7190,1395 L 7240,1395 L 7240,1445 L 7190,1445 Z" /><path d="M 4135,1395 L 4185,1395 L 4185,1445 L 4135,1445 Z" /><path d="M 1145,1395 L 1195,1395 L 1195,1445 L 1145,1445 Z" /><path d="M 7775,1495 L 7825,1495 L 7825,1545 L 7775,1545 Z" /><path d="M 4785,1495 L 4835,1495 L 4835,1545 L 4785,1545 Z" /><path d="M 1795,1495 L 1845,1495 L 1845,1545 L 1795,1545 Z" /></g></g><g id="M3"><g class="l33d0"><path d="M 7645,1345 L 7700,1345 L 7755,1345 L 7755,1295 L 7700,1295 L 7645,1295 L 6620,1295 L 6565,1295 L 6510,1295 L 6510,1345 L 6565,1345 L 6620,1345 Z" /><path d="M 4655,1345 L 4710,1345 L 4765,1345 L 4765,1295 L 4710,1295 L 4655,1295 L 3630,1295 L 3575,1295 L 3520,1295 L 3520,1345 L 3575,1345 L 3630,1345 Z" /><path d="M 4105,1445 L 4215,1445 L 4215,1444 L 7160,1444 L 7160,1445 L 7270,1445 L 7270,1395 L 7215,1395 L 7160,1395 L 4215,1395 L 4160,1395 L 4105,1395 L 1225,1395 L 1170,1395 L 1115,1395 L 1115,1445 L 1225,1445 L 1225,1444 L 4105,1444 Z" /><path d="M 4810,1545 L 4865,1545 L 7745,1545 L 7800,1545 L 7855,1545 L 7855,1495 L 7800,1495 L 7745,1495 L 4865,1495 L 4810,1495 L 4755,1495 L 1875,1495 L 1820,1495 L 1765,1495 L 1765,1545 L 1820,1545 L 1875,1545 L 4755,1545 Z" /></g></g></g></svg>