<svg width="8350" height="1810" viewBox="190 -1905 8350 1810" xmlns="http://www.w3.org/2000/svg" xmlns:xlink="http://www.w3.org/1999/xlink"><defs><style type="text/css">.l3d0 {fill: #fef9e7; fill-opacity: 0.5; stroke-width: 10; stroke: #f1c40f; stroke-linecap: round; stroke-linejoin: round; stroke-opacity: 0.2;}.l25d0 {fill: #8e44ad; fill-opacity: 0.05; stroke-width: 10; stroke: #8e44ad; stroke-linecap: round; stroke-linejoin: round; stroke-opacity: 1;}.l26d0 {fill: #ccd1d1; fill-opacity: 0.05; stroke-width: 10; stroke: #ccd1d1; stroke-linecap: round; stroke-linejoin: round; stroke-opacity: 1;}.l6d0 {fill: #f5b7b1; fill-opacity: 1; stroke-width: 10; stroke: #e74c3c; stroke-linecap: round; stroke-linejoin: round; stroke-opacity: 1;}.l17d0 {fill: #2980b9; fill-opacity: 1; stroke-width: 0; stroke: #000000; stroke-linecap: round; stroke-linejoin: round; stroke-opacity: 0;}.l17d7 {fill: #2980b9; fill-opacity: 1; stroke-width: 0; stroke: #000000; stroke-linecap: round; stroke-linejoin: round; stroke-opacity: 0;}.l30d0 {fill: #27ae60; fill-opacity: 1; stroke-width: 0; stroke: #000000; stroke-linecap: round; stroke-linejoin: round; stroke-opacity: 0;}.l31d0 {fill: #85c1e9; fill-opacity: 0.6; stroke-width: 0; stroke: #000000; stroke-linecap: round; stroke-linejoin: round; stroke-opacity: 0;}.l51d0 {fill: #f39c12; fill-opacity: 1; stroke-width: 10; stroke: #f39c12; stroke-linecap: round; stroke-linejoin: round; stroke-opacity: 1;}.l32d0 {fill: #f7dc6f; fill-opacity: 0.6; stroke-width: 0; stroke: #000000; stroke-linecap: round; stroke-linejoin: round; stroke-opacity: 0;}.l52d0 {fill: #a04000; fill-opacity: 1; stroke-width: 10; stroke: #a04000; stroke-linecap: round; stroke-linejoin: round; stroke-opacity: 1;}.l33d0 {fill: #16a085; fill-opacity: 0.6; stroke-width: 0; stroke: #000000; stroke-linecap: round; stroke-linejoin: round; stroke-opacity: 0;}path {fill-rule: evenodd;}</style></defs><g transform="scale(1 -1)"><g id="NW"><g class="l3d0"><path d="M 6455,980 L 3465,980 L 3185,980 L 195,980 L 195,1660 L 195,1900 L 3185,1900 L 3465,1900 L 6175,1900 L 6455,1900 L 8535,1900 L 8535,1660 L 8535,980 Z" /></g></g><g id="PP"><g class="l25d0"><path d="M 7915,1700 L 7965,1700 L 8045,1700 L 8175,1700 L 8355,1700 L 8495,1700 L 8495,980 L 6415,980 L 3425,980 L 3225,980 L 235,980 L 235,1700 L 375,1700 L 555,1700 L 635,1700 L 685,1700 L 765,1700 L 895,1700 L 1025,1700 L 1205,1700 L 1285,1700 L 1415,1700 L 1545,1700 L 1675,1700 L 1805,1700 L 1985,1700 L 2065,1700 L 2375,1700 L 2585,1700 L 2765,1700 L 2845,1700 L 2895,1700 L 2975,1700 L 3105,1700 L 3225,1700 L 3285,1700 L 3365,1700 L 3425,1700 L 3545,1700 L 3625,1700 L 3675,1700 L 3755,1700 L 3885,1700 L 4015,1700 L 4195,1700 L 4275,1700 L 4405,1700 L 4535,1700 L 4665,1700 L 4795,1700 L 4975,1700 L 5055,1700 L 5365,1700 L 5575,1700 L 5755,1700 L 5835,1700 L 5885,1700 L 5965,1700 L 6095,1700 L 6275,1700 L 6355,1700 L 6415,1700 L 6535,1700 L 6665,1700 L 6795,1700 L 6875,1700 L 7030,1700 L 7135,1700 L 7160,1700 L 7265,1700 L 7290,1700 L 7420,1700 L 7575,1700 L 7655,1700 L 7835,1700 Z" /><path d="M 6215,100 L 3425,100 L 3225,100 L 235,100 L 235,260 L 3225,260 L 3425,260 L 6215,260 L 6415,260 L 8495,260 L 8495,99 L 6215,99 Z" /></g></g><g id="NP"><g class="l26d0"><path d="M 8070,260 L 8045,260 L 7940,260 L 7915,260 L 7810,260 L 7655,260 L 7575,260 L 7395,260 L 7265,260 L 7185,260 L 7135,260 L 7055,260 L 6875,260 L 6795,260 L 6640,260 L 6510,260 L 6415,260 L 6355,260 L 6275,260 L 6120,260 L 5990,260 L 5965,260 L 5860,260 L 5835,260 L 5730,260 L 5575,260 L 5365,260 L 5055,260 L 4975,260 L 4820,260 L 4690,260 L 4560,260 L 4535,260 L 4405,260 L 4275,260 L 4195,260 L 4040,260 L 3910,260 L 3780,260 L 3755,260 L 3650,260 L 3625,260 L 3520,260 L 3425,260 L 3365,260 L 3285,260 L 3225,260 L 3130,260 L 3000,260 L 2975,260 L 2870,260 L 2845,260 L 2740,260 L 2585,260 L 2375,260 L 2065,260 L 1985,260 L 1830,260 L 1700,260 L 1570,260 L 1545,260 L 1415,260 L 1285,260 L 1205,260 L 1050,260 L 920,260 L 790,260 L 765,260 L 660,260 L 635,260 L 530,260 L 375,260 L 235,260 L 235,980 L 3225,980 L 3425,980 L 6415,980 L 8495,980 L 8495,260 L 8355,260 L 8200,260 Z" /><path d="M 6415,1860 L 8495,1860 L 8495,1700 L 6415,1700 L 6215,1700 L 3425,1700 L 3225,1700 L 235,1700 L 235,1860 L 3225,1860 L 3425,1860 L 6215,1860 Z" /></g></g><g id="OD"><g class="l6d0"><path d="M 6730,405 L 6655,405 L 6625,405 L 6575,405 L 6525,405 L 6495,405 L 6420,405 L 6420,605 L 6495,605 L 6525,605 L 6575,605 L 6625,605 L 6655,605 L 6730,605 Z" /><path d="M 6495,1555 L 6525,1555 L 6600,1555 L 6625,1555 L 6655,1555 L 6730,1555 L 6730,1455 L 6655,1455 L 6625,1455 L 6600,1455 L 6525,1455 L 6495,1455 L 6420,1455 L 6420,1555 Z" /><path d="M 6940,1555 L 7015,1555 L 7045,1555 L 7095,1555 L 7145,1555 L 7175,1555 L 7200,1555 L 7275,1555 L 7305,1555 L 7355,1555 L 7405,1555 L 7435,1555 L 7510,1555 L 7510,1355 L 7435,1355 L 7405,1355 L 7355,1355 L 7305,1355 L 7275,1355 L 7200,1355 L 7175,1355 L 7145,1355 L 7095,1355 L 7045,1355 L 7015,1355 L 6940,1355 Z" /><path d="M 7330,405 L 7305,405 L 7275,405 L 7200,405 L 7175,405 L 7145,405 L 7120,405 L 7045,405 L 7015,405 L 6940,405 L 6940,505 L 7015,505 L 7045,505 L 7120,505 L 7145,505 L 7175,505 L 7200,505 L 7275,505 L 7305,505 L 7330,505 L 7405,505 L 7435,505 L 7510,505 L 7510,405 L 7435,405 L 7405,405 Z" /><path d="M 7720,1555 L 7795,1555 L 7825,1555 L 7900,1555 L 7925,1555 L 7955,1555 L 7980,1555 L 8055,1555 L 8085,1555 L 8109,1555 L 8185,1555 L 8215,1555 L 8290,1555 L 8290,1455 L 8215,1455 L 8185,1455 L 8109,1455 L 8085,1455 L 8055,1455 L 7980,1455 L 7955,1455 L 7925,1455 L 7900,1455 L 7825,1455 L 7795,1455 L 7720,1455 Z" /><path d="M 7720,605 L 7795,605 L 7825,605 L 7875,605 L 7925,605 L 7955,605 L 7980,605 L 8055,605 L 8085,605 L 8135,605 L 8185,605 L 8215,605 L 8290,605 L 8290,405 L 8215,405 L 8185,405 L 8135,405 L 8085,405 L 8055,405 L 7980,405 L 7955,405 L 7925,405 L 7875,405 L 7825,405 L 7795,405 L 7720,405 Z" /><path d="M 4675,705 L 4705,705 L 4755,705 L 4805,705 L 4835,705 L 4910,705 L 4910,405 L 4835,405 L 4805,405 L 4755,405 L 4705,405 L 4675,405 L 4625,405 L 4575,405 L 4545,405 L 4470,405 L 4445,405 L 4415,405 L 4340,405 L 4340,705 L 4415,705 L 4445,705 L 4470,705 L 4545,705 L 4575,705 L 4625,705 Z" /><path d="M 3975,405 L 3925,405 L 3895,405 L 3845,405 L 3795,405 L 3765,405 L 3690,405 L 3665,405 L 3635,405 L 3585,405 L 3535,405 L 3505,405 L 3430,405 L 3430,605 L 3505,605 L 3535,605 L 3585,605 L 3635,605 L 3665,605 L 3690,605 L 3690,705 L 3765,705 L 3795,705 L 3845,705 L 3895,705 L 3925,705 L 3975,705 L 4025,705 L 4055,705 L 4130,705 L 4130,405 L 4055,405 L 4025,405 Z" /><path d="M 3505,1555 L 3535,1555 L 3610,1555 L 3635,1555 L 3665,1555 L 3690,1555 L 3765,1555 L 3795,1555 L 3820,1555 L 3895,1555 L 3925,1555 L 3950,1555 L 4025,1555 L 4055,1555 L 4130,1555 L 4130,1455 L 4055,1455 L 4025,1455 L 3950,1455 L 3925,1455 L 3895,1455 L 3820,1455 L 3795,1455 L 3765,1455 L 3690,1455 L 3665,1455 L 3635,1455 L 3610,1455 L 3535,1455 L 3505,1455 L 3430,1455 L 3430,1555 Z" /><path d="M 5715,1555 L 5745,1555 L 5820,1555 L 5845,1555 L 5875,1555 L 5900,1555 L 5975,1555 L 6005,1555 L 6030,1555 L 6105,1555 L 6135,1555 L 6210,1555 L 6210,1455 L 6135,1455 L 6105,1455 L 6030,1455 L 6005,1455 L 5975,1455 L 5900,1455 L 5875,1455 L 5845,1455 L 5820,1455 L 5745,1455 L 5715,1455 L 5640,1455 L 5640,1555 Z" /><path d="M 4575,1555 L 4600,1555 L 4675,1555 L 4705,1555 L 4730,1555 L 4805,1555 L 4835,1555 L 4910,1555 L 4910,1355 L 4835,1355 L 4805,1355 L 4730,1355 L 4705,1355 L 4675,1355 L 4600,1355 L 4575,1355 L 4545,1355 L 4470,1355 L 4445,1355 L 4415,1355 L 4340,1355 L 4340,1555 L 4415,1555 L 4445,1555 L 4470,1555 L 4545,1555 Z" /><path d="M 5195,1555 L 5225,1555 L 5300,1555 L 5300,1455 L 5225,1455 L 5195,1455 L 5120,1455 L 5120,1555 Z" /><path d="M 5120,405 L 5120,605 L 5195,605 L 5225,605 L 5300,605 L 5300,405 L 5225,405 L 5195,405 Z" /><path d="M 5640,605 L 5715,605 L 5745,605 L 5795,605 L 5845,605 L 5875,605 L 5900,605 L 5975,605 L 6005,605 L 6055,605 L 6105,605 L 6135,605 L 6210,605 L 6210,405 L 6135,405 L 6105,405 L 6055,405 L 6005,405 L 5975,405 L 5900,405 L 5875,405 L 5845,405 L 5795,405 L 5745,405 L 5715,405 L 5640,405 Z" /><path d="M 1685,705 L 1715,705 L 1765,705 L 1815,705 L 1845,705 L 1920,705 L 1920,405 L 1845,405 L 1815,405 L 1765,405 L 1715,405 L 1685,405 L 1635,405 L 1585,405 L 1555,405 L 1480,405 L 1455,405 L 1425,405 L 1350,405 L 1350,705 L 1425,705 L 1455,705 L 1480,705 L 1555,705 L 1585,705 L 1635,705 Z" /><path d="M 985,405 L 935,405 L 905,405 L 855,405 L 805,405 L 775,405 L 700,405 L 675,405 L 645,405 L 595,405 L 545,405 L 515,405 L 440,405 L 440,605 L 515,605 L 545,605 L 595,605 L 645,605 L 675,605 L 700,605 L 700,705 L 775,705 L 805,705 L 855,705 L 905,705 L 935,705 L 985,705 L 1035,705 L 1065,705 L 1140,705 L 1140,405 L 1065,405 L 1035,405 Z" /><path d="M 515,1555 L 545,1555 L 620,1555 L 645,1555 L 675,1555 L 700,1555 L 775,1555 L 805,1555 L 830,1555 L 905,1555 L 935,1555 L 960,1555 L 1035,1555 L 1065,1555 L 1140,1555 L 1140,1455 L 1065,1455 L 1035,1455 L 960,1455 L 935,1455 L 905,1455 L 830,1455 L 805,1455 L 775,1455 L 700,1455 L 675,1455 L 645,1455 L 620,1455 L 545,1455 L 515,1455 L 440,1455 L 440,1555 Z" /><path d="M 2725,1555 L 2755,1555 L 2830,1555 L 2855,1555 L 2885,1555 L 2910,1555 L 2985,1555 L 3015,1555 L 3040,1555 L 3115,1555 L 3145,1555 L 3220,1555 L 3220,1455 L 3145,1455 L 3115,1455 L 3040,1455 L 3015,1455 L 2985,1455 L 2910,1455 L 2885,1455 L 2855,1455 L 2830,1455 L 2755,1455 L 2725,1455 L 2650,1455 L 2650,1555 Z" /><path d="M 1585,1555 L 1610,1555 L 1685,1555 L 1715,1555 L 1740,1555 L 1815,1555 L 1845,1555 L 1920,1555 L 1920,1355 L 1845,1355 L 1815,1355 L 1740,1355 L 1715,1355 L 1685,1355 L 1610,1355 L 1585,1355 L 1555,1355 L 1480,1355 L 1455,1355 L 1425,1355 L 1350,1355 L 1350,1555 L 1425,1555 L 1455,1555 L 1480,1555 L 1555,1555 Z" /><path d="M 2205,1555 L 2235,1555 L 2310,1555 L 2310,1455 L 2235,1455 L 2205,1455 L 2130,1455 L 2130,1555 Z" /><path d="M 2130,405 L 2130,605 L 2205,605 L 2235,605 L 2310,605 L 2310,405 L 2235,405 L 2205,405 Z" /><path d="M 2650,605 L 2725,605 L 2755,605 L 2805,605 L 2855,605 L 2885,605 L 2910,605 L 2985,605 L 3015,605 L 3065,605 L 3115,605 L 3145,605 L 3220,605 L 3220,405 L 3145,405 L 3115,405 L 3065,405 L 3015,405 L 2985,405 L 2910,405 L 2885,405 L 2855,405 L 2805,405 L 2755,405 L 2725,405 L 2650,405 Z" /><path d="M 8465,229 L 8465,130 L 6385,130 L 6245,130 L 3395,130 L 3255,130 L 265,130 L 265,230 L 3255,230 L 3395,230 L 6385,230 L 6385,229 Z" /><path d="M 6385,1830 L 8465,1830 L 8465,1730 L 6385,1730 L 6245,1730 L 3395,1730 L 3255,1730 L 265,1730 L 265,1830 L 3255,1830 L 3395,1830 L 6245,1830 Z" /></g></g><g id="PO"><g class="l17d0"><path d="M 3895,705 L 3895,785 L 3895,1185 L 3895,1225 L 3895,1375 L 3895,1455 L 3895,1555 L 3895,1635 L 3925,1635 L 3925,1555 L 3925,1455 L 3925,1375 L 3925,1225 L 3925,1185 L 3925,785 L 3925,705 L 3925,405 L 3925,325 L 3895,325 L 3895,405 Z" /><path d="M 4415,1555 L 4415,1635 L 4445,1635 L 4445,1555 L 4445,1355 L 4445,1275 L 4445,1225 L 4445,1185 L 4445,785 L 4445,705 L 4445,405 L 4445,325 L 4415,325 L 4415,405 L 4415,705 L 4415,785 L 4415,1185 L 4415,1225 L 4415,1275 L 4415,1355 Z" /><path d="M 3765,705 L 3765,785 L 3765,1085 L 3765,1125 L 3765,1375 L 3765,1455 L 3765,1555 L 3765,1635 L 3795,1635 L 3795,1555 L 3795,1455 L 3795,1375 L 3795,1125 L 3795,1085 L 3795,785 L 3795,705 L 3795,405 L 3795,325 L 3765,325 L 3765,405 Z" /><path d="M 4055,1455 L 4055,1375 L 4055,1125 L 4055,1085 L 4055,785 L 4055,705 L 4055,405 L 4055,325 L 4025,325 L 4025,405 L 4025,705 L 4025,785 L 4025,1085 L 4025,1125 L 4025,1375 L 4025,1455 L 4025,1555 L 4025,1635 L 4055,1635 L 4055,1555 Z" /><path d="M 4805,705 L 4805,785 L 4805,1085 L 4805,1125 L 4805,1275 L 4805,1355 L 4805,1555 L 4805,1635 L 4835,1635 L 4835,1555 L 4835,1355 L 4835,1275 L 4835,1125 L 4835,1085 L 4835,785 L 4835,705 L 4835,405 L 4835,325 L 4805,325 L 4805,405 Z" /><path d="M 3505,1555 L 3505,1635 L 3535,1635 L 3535,1555 L 3535,1455 L 3535,1375 L 3535,1025 L 3535,985 L 3535,685 L 3535,605 L 3535,405 L 3535,325 L 3505,325 L 3505,405 L 3505,605 L 3505,685 L 3505,985 L 3505,1025 L 3505,1375 L 3505,1455 Z" /><path d="M 4545,1555 L 4545,1635 L 4575,1635 L 4575,1555 L 4575,1355 L 4575,1275 L 4575,1025 L 4575,985 L 4575,785 L 4575,705 L 4575,405 L 4575,325 L 4545,325 L 4545,405 L 4545,705 L 4545,785 L 4545,985 L 4545,1025 L 4545,1275 L 4545,1355 Z" /><path d="M 5845,685 L 5845,985 L 5845,1025 L 5845,1185 L 5845,1225 L 5845,1375 L 5845,1455 L 5845,1555 L 5845,1635 L 5875,1635 L 5875,1555 L 5875,1455 L 5875,1375 L 5875,1225 L 5875,1185 L 5875,1025 L 5875,985 L 5875,685 L 5875,605 L 5875,405 L 5875,325 L 5845,325 L 5845,405 L 5845,605 Z" /><path d="M 3635,605 L 3635,685 L 3635,885 L 3635,925 L 3635,1375 L 3635,1455 L 3635,1555 L 3635,1635 L 3665,1635 L 3665,1555 L 3665,1455 L 3665,1375 L 3665,925 L 3665,885 L 3665,685 L 3665,605 L 3665,405 L 3665,325 L 3635,325 L 3635,405 Z" /><path d="M 4675,1555 L 4675,1635 L 4705,1635 L 4705,1555 L 4705,1355 L 4705,1275 L 4705,925 L 4705,885 L 4705,785 L 4705,705 L 4705,405 L 4705,325 L 4675,325 L 4675,405 L 4675,705 L 4675,785 L 4675,885 L 4675,925 L 4675,1275 L 4675,1355 Z" /><path d="M 5715,1555 L 5715,1635 L 5745,1635 L 5745,1555 L 5745,1455 L 5745,1375 L 5745,925 L 5745,885 L 5745,685 L 5745,605 L 5745,405 L 5745,325 L 5715,325 L 5715,405 L 5715,605 L 5715,685 L 5715,885 L 5715,925 L 5715,1375 L 5715,1455 Z" /><path d="M 5195,605 L 5195,685 L 5195,770 L 5195,810 L 5195,1375 L 5195,1455 L 5195,1555 L 5195,1635 L 5225,1635 L 5225,1555 L 5225,1455 L 5225,1375 L 5225,810 L 5225,770 L 5225,685 L 5225,605 L 5225,405 L 5225,325 L 5195,325 L 5195,405 Z" /><path d="M 5975,685 L 5975,770 L 5975,810 L 5975,1375 L 5975,1455 L 5975,1555 L 5975,1635 L 6005,1635 L 6005,1555 L 6005,1455 L 6005,1375 L 6005,810 L 6005,770 L 6005,685 L 6005,605 L 6005,405 L 6005,325 L 5975,325 L 5975,405 L 5975,605 Z" /><path d="M 6105,1635 L 6135,1635 L 6135,1555 L 6135,1455 L 6135,1375 L 6135,1125 L 6135,1085 L 6135,700 L 6135,685 L 6135,660 L 6135,605 L 6135,405 L 6135,325 L 6105,325 L 6105,405 L 6105,605 L 6105,660 L 6105,685 L 6105,700 L 6105,1085 L 6105,1125 L 6105,1375 L 6105,1455 L 6105,1555 Z" /><path d="M 905,705 L 905,785 L 905,1185 L 905,1225 L 905,1375 L 905,1455 L 905,1555 L 905,1635 L 935,1635 L 935,1555 L 935,1455 L 935,1375 L 935,1225 L 935,1185 L 935,785 L 935,705 L 935,405 L 935,325 L 905,325 L 905,405 Z" /><path d="M 1425,1555 L 1425,1635 L 1455,1635 L 1455,1555 L 1455,1355 L 1455,1275 L 1455,1225 L 1455,1185 L 1455,785 L 1455,705 L 1455,405 L 1455,325 L 1425,325 L 1425,405 L 1425,705 L 1425,785 L 1425,1185 L 1425,1225 L 1425,1275 L 1425,1355 Z" /><path d="M 775,705 L 775,785 L 775,1085 L 775,1125 L 775,1375 L 775,1455 L 775,1555 L 775,1635 L 805,1635 L 805,1555 L 805,1455 L 805,1375 L 805,1125 L 805,1085 L 805,785 L 805,705 L 805,405 L 805,325 L 775,325 L 775,405 Z" /><path d="M 1065,1455 L 1065,1375 L 1065,1125 L 1065,1085 L 1065,785 L 1065,705 L 1065,405 L 1065,325 L 1035,325 L 1035,405 L 1035,705 L 1035,785 L 1035,1085 L 1035,1125 L 1035,1375 L 1035,1455 L 1035,1555 L 1035,1635 L 1065,1635 L 1065,1555 Z" /><path d="M 1815,705 L 1815,785 L 1815,1085 L 1815,1125 L 1815,1275 L 1815,1355 L 1815,1555 L 1815,1635 L 1845,1635 L 1845,1555 L 1845,1355 L 1845,1275 L 1845,1125 L 1845,1085 L 1845,785 L 1845,705 L 1845,405 L 1845,325 L 1815,325 L 1815,405 Z" /><path d="M 515,1555 L 515,1635 L 545,1635 L 545,1555 L 545,1455 L 545,1375 L 545,1025 L 545,985 L 545,685 L 545,605 L 545,405 L 545,325 L 515,325 L 515,405 L 515,605 L 515,685 L 515,985 L 515,1025 L 515,1375 L 515,1455 Z" /><path d="M 1555,1555 L 1555,1635 L 1585,1635 L 1585,1555 L 1585,1355 L 1585,1275 L 1585,1025 L 1585,985 L 1585,785 L 1585,705 L 1585,405 L 1585,325 L 1555,325 L 1555,405 L 1555,705 L 1555,785 L 1555,985 L 1555,1025 L 1555,1275 L 1555,1355 Z" /><path d="M 2855,685 L 2855,985 L 2855,1025 L 2855,1185 L 2855,1225 L 2855,1375 L 2855,1455 L 2855,1555 L 2855,1635 L 2885,1635 L 2885,1555 L 2885,1455 L 2885,1375 L 2885,1225 L 2885,1185 L 2885,1025 L 2885,985 L 2885,685 L 2885,605 L 2885,405 L 2885,325 L 2855,325 L 2855,405 L 2855,605 Z" /><path d="M 645,605 L 645,685 L 645,885 L 645,925 L 645,1375 L 645,1455 L 645,1555 L 645,1635 L 675,1635 L 675,1555 L 675,1455 L 675,1375 L 675,925 L 675,885 L 675,685 L 675,605 L 675,405 L 675,325 L 645,325 L 645,405 Z" /><path d="M 1685,1555 L 1685,1635 L 1715,1635 L 1715,1555 L 1715,1355 L 1715,1275 L 1715,925 L 1715,885 L 1715,785 L 1715,705 L 1715,405 L 1715,325 L 1685,325 L 1685,405 L 1685,705 L 1685,785 L 1685,885 L 1685,925 L 1685,1275 L 1685,1355 Z" /><path d="M 2725,1555 L 2725,1635 L 2755,1635 L 2755,1555 L 2755,1455 L 2755,1375 L 2755,925 L 2755,885 L 2755,685 L 2755,605 L 2755,405 L 2755,325 L 2725,325 L 2725,405 L 2725,605 L 2725,685 L 2725,885 L 2725,925 L 2725,1375 L 2725,1455 Z" /><path d="M 2205,605 L 2205,685 L 2205,770 L 2205,810 L 2205,1375 L 2205,1455 L 2205,1555 L 2205,1635 L 2235,1635 L 2235,1555 L 2235,1455 L 2235,1375 L 2235,810 L 2235,770 L 2235,685 L 2235,605 L 2235,405 L 2235,325 L 2205,325 L 2205,405 Z" /><path d="M 2985,685 L 2985,770 L 2985,810 L 2985,1375 L 2985,1455 L 2985,1555 L 2985,1635 L 3015,1635 L 3015,1555 L 3015,1455 L 3015,1375 L 3015,810 L 3015,770 L 3015,685 L 3015,605 L 3015,405 L 3015,325 L 2985,325 L 2985,405 L 2985,605 Z" /><path d="M 3115,1635 L 3145,1635 L 3145,1555 L 3145,1455 L 3145,1375 L 3145,1125 L 3145,1085 L 3145,700 L 3145,685 L 3145,660 L 3145,605 L 3145,405 L 3145,325 L 3115,325 L 3115,405 L 3115,605 L 3115,660 L 3115,685 L 3115,700 L 3115,1085 L 3115,1125 L 3115,1375 L 3115,1455 L 3115,1555 Z" /><path d="M 7275,1555 L 7275,1635 L 7305,1635 L 7305,1555 L 7305,1355 L 7305,1275 L 7305,845 L 7305,765 L 7305,585 L 7305,505 L 7305,405 L 7305,325 L 7275,325 L 7275,405 L 7275,505 L 7275,585 L 7275,765 L 7275,845 L 7275,1275 L 7275,1355 Z" /><path d="M 8055,605 L 8055,685 L 8055,765 L 8055,845 L 8055,1375 L 8055,1455 L 8055,1555 L 8055,1635 L 8085,1635 L 8085,1555 L 8085,1455 L 8085,1375 L 8085,845 L 8085,765 L 8085,685 L 8085,605 L 8085,405 L 8085,325 L 8055,325 L 8055,405 Z" /><path d="M 7795,1555 L 7795,1635 L 7825,1635 L 7825,1555 L 7825,1455 L 7825,1375 L 7825,1045 L 7825,965 L 7825,685 L 7825,605 L 7825,405 L 7825,325 L 7795,325 L 7795,405 L 7795,605 L 7795,685 L 7795,965 L 7795,1045 L 7795,1375 L 7795,1455 Z" /><path d="M 7925,1555 L 7925,1635 L 7955,1635 L 7955,1555 L 7955,1455 L 7955,1375 L 7955,1145 L 7955,1065 L 7955,685 L 7955,605 L 7955,405 L 7955,325 L 7925,325 L 7925,405 L 7925,605 L 7925,685 L 7925,1065 L 7925,1145 L 7925,1375 L 7925,1455 Z" /><path d="M 8185,1555 L 8185,1635 L 8215,1635 L 8215,1555 L 8215,1455 L 8215,1375 L 8215,945 L 8215,865 L 8215,685 L 8215,605 L 8215,405 L 8215,325 L 8185,325 L 8185,405 L 8185,605 L 8185,685 L 8184,685 L 8184,1375 L 8185,1375 L 8185,1455 Z" /><path d="M 7405,505 L 7405,585 L 7405,1165 L 7405,1245 L 7405,1275 L 7405,1355 L 7405,1555 L 7405,1635 L 7435,1635 L 7435,1555 L 7435,1355 L 7435,1275 L 7435,1245 L 7435,1165 L 7435,585 L 7435,505 L 7435,405 L 7435,325 L 7405,325 L 7405,405 Z" /><path d="M 7015,505 L 7015,585 L 7015,865 L 7015,945 L 7015,1275 L 7015,1355 L 7015,1555 L 7015,1635 L 7045,1635 L 7045,1555 L 7045,1355 L 7045,1275 L 7045,945 L 7045,865 L 7045,585 L 7045,505 L 7045,405 L 7045,325 L 7015,325 L 7015,405 Z" /><path d="M 6625,1555 L 6625,1635 L 6655,1635 L 6655,1555 L 6655,1455 L 6655,1375 L 6655,945 L 6655,865 L 6655,685 L 6655,605 L 6655,405 L 6655,325 L 6625,325 L 6625,405 L 6625,605 L 6625,685 L 6625,865 L 6625,945 L 6625,1375 L 6625,1455 Z" /><path d="M 7145,1555 L 7145,1635 L 7175,1635 L 7175,1555 L 7175,1355 L 7175,1275 L 7175,1045 L 7175,965 L 7175,585 L 7175,505 L 7175,405 L 7175,325 L 7145,325 L 7145,405 L 7145,505 L 7145,585 L 7145,965 L 7145,1045 L 7145,1275 L 7145,1355 Z" /><path d="M 6495,1555 L 6495,1635 L 6525,1635 L 6525,1555 L 6525,1455 L 6525,1375 L 6524,1375 L 6524,1045 L 6525,1045 L 6525,965 L 6524,965 L 6524,685 L 6525,685 L 6525,605 L 6525,405 L 6525,325 L 6495,325 L 6495,405 L 6495,605 L 6495,685 L 6495,965 L 6495,1045 L 6495,1375 L 6495,1455 Z" /></g><g class="l17d7"><path d="M 8445,310 L 8475,310 L 8475,700 L 8445,700 Z" /><path d="M 8315,310 L 8345,310 L 8345,700 L 8315,700 Z" /><path d="M 6915,1260 L 6885,1260 L 6885,1310 L 6885,1650 L 6885,1700 L 6915,1700 L 6915,1650 L 6915,1310 Z" /><path d="M 6785,1260 L 6755,1260 L 6755,1310 L 6755,1650 L 6755,1700 L 6785,1700 L 6785,1650 L 6785,1310 Z" /><path d="M 7565,1260 L 7535,1260 L 7535,1310 L 7535,1650 L 7535,1700 L 7565,1700 L 7565,1650 L 7565,1310 Z" /><path d="M 7695,1260 L 7665,1260 L 7665,1310 L 7665,1650 L 7665,1700 L 7695,1700 L 7695,1650 L 7695,1310 Z" /><path d="M 8445,1310 L 8475,1310 L 8475,1700 L 8445,1700 Z" /><path d="M 8315,1310 L 8345,1310 L 8345,1700 L 8315,1700 Z" /><path d="M 6785,310 L 6785,260 L 6755,260 L 6755,310 L 6755,650 L 6755,700 L 6785,700 L 6785,650 Z" /><path d="M 6915,310 L 6915,260 L 6885,260 L 6885,310 L 6885,650 L 6885,700 L 6915,700 L 6915,650 Z" /><path d="M 7695,310 L 7695,260 L 7665,260 L 7665,310 L 7665,650 L 7665,700 L 7695,700 L 7695,650 Z" /><path d="M 7565,310 L 7565,260 L 7535,260 L 7535,310 L 7535,650 L 7535,700 L 7565,700 L 7565,650 Z" /><path d="M 4285,345 L 4285,765 L 4315,765 L 4315,345 Z" /><path d="M 4155,345 L 4155,765 L 4185,765 L 4185,345 Z" /><path d="M 5585,310 L 5615,310 L 5615,700 L 5585,700 Z" /><path d="M 6365,310 L 6365,700 L 6395,700 L 6395,310 Z" /><path d="M 6235,310 L 6235,700 L 6265,700 L 6265,310 Z" /><path d="M 4315,1260 L 4285,1260 L 4285,1310 L 4285,1650 L 4285,1700 L 4315,1700 L 4315,1650 L 4315,1310 Z" /><path d="M 4185,1260 L 4155,1260 L 4155,1310 L 4155,1650 L 4155,1700 L 4185,1700 L 4185,1650 L 4185,1310 Z" /><path d="M 6365,1310 L 6365,1700 L 6395,1700 L 6395,1310 Z" /><path d="M 6235,1310 L 6235,1700 L 6265,1700 L 6265,1310 Z" /><path d="M 5585,1310 L 5615,1310 L 5615,1700 L 5585,1700 Z" /><path d="M 5455,1310 L 5455,1700 L 5485,1700 L 5485,1310 Z" /><path d="M 5325,1310 L 5355,1310 L 5355,1700 L 5325,1700 Z" /><path d="M 4965,1260 L 4935,1260 L 4935,1310 L 4935,1650 L 4935,1700 L 4965,1700 L 4965,1650 L 4965,1310 Z" /><path d="M 5095,1260 L 5065,1260 L 5065,1310 L 5065,1650 L 5065,1700 L 5095,1700 L 5095,1650 L 5095,1310 Z" /><path d="M 4965,345 L 4965,310 L 4935,310 L 4935,345 L 4935,700 L 4935,765 L 4965,765 L 4965,700 Z" /><path d="M 5095,345 L 5095,310 L 5065,310 L 5065,345 L 5065,700 L 5065,765 L 5095,765 L 5095,700 Z" /><path d="M 5455,310 L 5455,700 L 5485,700 L 5485,310 Z" /><path d="M 5325,310 L 5355,310 L 5355,700 L 5325,700 Z" /><path d="M 1295,345 L 1295,765 L 1325,765 L 1325,345 Z" /><path d="M 1165,345 L 1165,765 L 1195,765 L 1195,345 Z" /><path d="M 255,310 L 285,310 L 285,700 L 255,700 Z" /><path d="M 385,310 L 415,310 L 415,700 L 385,700 Z" /><path d="M 2595,310 L 2625,310 L 2625,700 L 2595,700 Z" /><path d="M 3375,310 L 3375,700 L 3405,700 L 3405,310 Z" /><path d="M 3245,310 L 3245,700 L 3275,700 L 3275,310 Z" /><path d="M 1325,1260 L 1295,1260 L 1295,1310 L 1295,1650 L 1295,1700 L 1325,1700 L 1325,1650 L 1325,1310 Z" /><path d="M 1195,1260 L 1165,1260 L 1165,1310 L 1165,1650 L 1165,1700 L 1195,1700 L 1195,1650 L 1195,1310 Z" /><path d="M 255,1310 L 285,1310 L 285,1700 L 255,1700 Z" /><path d="M 385,1310 L 415,1310 L 415,1700 L 385,1700 Z" /><path d="M 3375,1310 L 3375,1700 L 3405,1700 L 3405,1310 Z" /><path d="M 3245,1310 L 3245,1700 L 3275,1700 L 3275,1310 Z" /><path d="M 2595,1310 L 2625,1310 L 2625,1700 L 2595,1700 Z" /><path d="M 2465,1310 L 2465,1700 L 2495,1700 L 2495,1310 Z" /><path d="M 2335,1310 L 2365,1310 L 2365,1700 L 2335,1700 Z" /><path d="M 1975,1260 L 1945,1260 L 1945,1310 L 1945,1650 L 1945,1700 L 1975,1700 L 1975,1650 L 1975,1310 Z" /><path d="M 2105,1260 L 2075,1260 L 2075,1310 L 2075,1650 L 2075,1700 L 2105,1700 L 2105,1650 L 2105,1310 Z" /><path d="M 1975,345 L 1975,310 L 1945,310 L 1945,345 L 1945,700 L 1945,765 L 1975,765 L 1975,700 Z" /><path d="M 2105,345 L 2105,310 L 2075,310 L 2075,345 L 2075,700 L 2075,765 L 2105,765 L 2105,700 Z" /><path d="M 2465,310 L 2465,700 L 2495,700 L 2495,310 Z" /><path d="M 2335,310 L 2365,310 L 2365,700 L 2335,700 Z" /></g></g><g id="CO"><g class="l30d0"><path d="M 6945,1435 L 6985,1435 L 6985,1475 L 6945,1475 Z" /><path d="M 7465,1435 L 7505,1435 L 7505,1475 L 7465,1475 Z" /><path d="M 6685,485 L 6725,485 L 6725,525 L 6685,525 Z" /><path d="M 6425,485 L 6465,485 L 6465,525 L 6425,525 Z" /><path d="M 7725,485 L 7765,485 L 7765,525 L 7725,525 Z" /><path d="M 8245,485 L 8285,485 L 8285,525 L 8245,525 Z" /><path d="M 6685,1485 L 6725,1485 L 6725,1525 L 6685,1525 Z" /><path d="M 6555,1485 L 6595,1485 L 6595,1525 L 6555,1525 Z" /><path d="M 6425,1485 L 6465,1485 L 6465,1525 L 6425,1525 Z" /><path d="M 7855,1485 L 7895,1485 L 7895,1525 L 7855,1525 Z" /><path d="M 7725,1485 L 7765,1485 L 7765,1525 L 7725,1525 Z" /><path d="M 8115,1485 L 8154,1485 L 8154,1525 L 8115,1525 Z" /><path d="M 8245,1485 L 8285,1485 L 8285,1525 L 8245,1525 Z" /><path d="M 7205,435 L 7245,435 L 7245,475 L 7205,475 Z" /><path d="M 7205,1435 L 7245,1435 L 7245,1475 L 7205,1475 Z" /><path d="M 7075,435 L 7115,435 L 7115,475 L 7075,475 Z" /><path d="M 6945,435 L 6985,435 L 6985,475 L 6945,475 Z" /><path d="M 7335,435 L 7375,435 L 7375,475 L 7335,475 Z" /><path d="M 7465,435 L 7505,435 L 7505,475 L 7465,475 Z" /><path d="M 7985,1485 L 8025,1485 L 8025,1525 L 7985,1525 Z" /><path d="M 8375,160 L 8415,160 L 8415,200 L 8375,200 Z" /><path d="M 8245,160 L 8285,160 L 8285,200 L 8245,200 Z" /><path d="M 8115,160 L 8154,160 L 8154,200 L 8115,200 Z" /><path d="M 7985,160 L 8025,160 L 8025,200 L 7985,200 Z" /><path d="M 7855,160 L 7895,160 L 7895,200 L 7855,200 Z" /><path d="M 7725,160 L 7765,160 L 7765,200 L 7725,200 Z" /><path d="M 7595,160 L 7635,160 L 7635,200 L 7595,200 Z" /><path d="M 7465,160 L 7505,160 L 7505,200 L 7465,200 Z" /><path d="M 7335,160 L 7375,160 L 7375,200 L 7335,200 Z" /><path d="M 7205,160 L 7245,160 L 7245,200 L 7205,200 Z" /><path d="M 7075,160 L 7115,160 L 7115,200 L 7075,200 Z" /><path d="M 6945,160 L 6985,160 L 6985,200 L 6945,200 Z" /><path d="M 6815,160 L 6855,160 L 6855,200 L 6815,200 Z" /><path d="M 6685,160 L 6725,160 L 6725,200 L 6685,200 Z" /><path d="M 6555,160 L 6595,160 L 6595,200 L 6555,200 Z" /><path d="M 6425,160 L 6465,160 L 6465,200 L 6425,200 Z" /><path d="M 8375,1760 L 8415,1760 L 8415,1800 L 8375,1800 Z" /><path d="M 8245,1760 L 8285,1760 L 8285,1800 L 8245,1800 Z" /><path d="M 8115,1760 L 8154,1760 L 8154,1800 L 8115,1800 Z" /><path d="M 7985,1760 L 8025,1760 L 8025,1800 L 7985,1800 Z" /><path d="M 7855,1760 L 7895,1760 L 7895,1800 L 7855,1800 Z" /><path d="M 7725,1760 L 7765,1760 L 7765,1800 L 7725,1800 Z" /><path d="M 7595,1760 L 7635,1760 L 7635,1800 L 7595,1800 Z" /><path d="M 7465,1760 L 7505,1760 L 7505,1800 L 7465,1800 Z" /><path d="M 7335,1760 L 7375,1760 L 7375,1800 L 7335,1800 Z" /><path d="M 7205,1760 L 7245,1760 L 7245,1800 L 7205,1800 Z" /><path d="M 7075,1760 L 7115,1760 L 7115,1800 L 7075,1800 Z" /><path d="M 6945,1760 L 6985,1760 L 6985,1800 L 6945,1800 Z" /><path d="M 6815,1760 L 6855,1760 L 6855,1800 L 6815,1800 Z" /><path d="M 6685,1760 L 6725,1760 L 6725,1800 L 6685,1800 Z" /><path d="M 6555,1760 L 6595,1760 L 6595,1800 L 6555,1800 Z" /><path d="M 6425,1760 L 6465,1760 L 6465,1800 L 6425,1800 Z" /><path d="M 7985,485 L 8025,485 L 8025,525 L 7985,525 Z" /><path d="M 6295,160 L 6295,200 L 6335,200 L 6335,160 Z" /><path d="M 6165,160 L 6205,160 L 6205,200 L 6165,200 Z" /><path d="M 6035,160 L 6075,160 L 6075,200 L 6035,200 Z" /><path d="M 5905,160 L 5945,160 L 5945,200 L 5905,200 Z" /><path d="M 5775,160 L 5815,160 L 5815,200 L 5775,200 Z" /><path d="M 5645,160 L 5685,160 L 5685,200 L 5645,200 Z" /><path d="M 5515,160 L 5555,160 L 5555,200 L 5515,200 Z" /><path d="M 5385,160 L 5425,160 L 5425,200 L 5385,200 Z" /><path d="M 5255,160 L 5295,160 L 5295,200 L 5255,200 Z" /><path d="M 5125,160 L 5165,160 L 5165,200 L 5125,200 Z" /><path d="M 4995,160 L 5035,160 L 5035,200 L 4995,200 Z" /><path d="M 4865,160 L 4905,160 L 4905,200 L 4865,200 Z" /><path d="M 4735,160 L 4775,160 L 4775,200 L 4735,200 Z" /><path d="M 4605,160 L 4645,160 L 4645,200 L 4605,200 Z" /><path d="M 4475,160 L 4515,160 L 4515,200 L 4475,200 Z" /><path d="M 4345,160 L 4385,160 L 4385,200 L 4345,200 Z" /><path d="M 4215,160 L 4255,160 L 4255,200 L 4215,200 Z" /><path d="M 4085,160 L 4125,160 L 4125,200 L 4085,200 Z" /><path d="M 3955,160 L 3995,160 L 3995,200 L 3955,200 Z" /><path d="M 3825,160 L 3865,160 L 3865,200 L 3825,200 Z" /><path d="M 3695,160 L 3735,160 L 3735,200 L 3695,200 Z" /><path d="M 3565,160 L 3605,160 L 3605,200 L 3565,200 Z" /><path d="M 3435,160 L 3475,160 L 3475,200 L 3435,200 Z" /><path d="M 6295,1760 L 6295,1800 L 6335,1800 L 6335,1760 Z" /><path d="M 6165,1760 L 6205,1760 L 6205,1800 L 6165,1800 Z" /><path d="M 6035,1760 L 6075,1760 L 6075,1800 L 6035,1800 Z" /><path d="M 5905,1760 L 5945,1760 L 5945,1800 L 5905,1800 Z" /><path d="M 5775,1760 L 5815,1760 L 5815,1800 L 5775,1800 Z" /><path d="M 5645,1760 L 5685,1760 L 5685,1800 L 5645,1800 Z" /><path d="M 5515,1760 L 5555,1760 L 5555,1800 L 5515,1800 Z" /><path d="M 5385,1760 L 5425,1760 L 5425,1800 L 5385,1800 Z" /><path d="M 5255,1760 L 5295,1760 L 5295,1800 L 5255,1800 Z" /><path d="M 5125,1760 L 5165,1760 L 5165,1800 L 5125,1800 Z" /><path d="M 4995,1760 L 5035,1760 L 5035,1800 L 4995,1800 Z" /><path d="M 4865,1760 L 4905,1760 L 4905,1800 L 4865,1800 Z" /><path d="M 4735,1760 L 4775,1760 L 4775,1800 L 4735,1800 Z" /><path d="M 4605,1760 L 4645,1760 L 4645,1800 L 4605,1800 Z" /><path d="M 4475,1760 L 4515,1760 L 4515,1800 L 4475,1800 Z" /><path d="M 4345,1760 L 4385,1760 L 4385,1800 L 4345,1800 Z" /><path d="M 4215,1760 L 4255,1760 L 4255,1800 L 4215,1800 Z" /><path d="M 4085,1760 L 4125,1760 L 4125,1800 L 4085,1800 Z" /><path d="M 3955,1760 L 3995,1760 L 3995,1800 L 3955,1800 Z" /><path d="M 3825,1760 L 3865,1760 L 3865,1800 L 3825,1800 Z" /><path d="M 3695,1760 L 3735,1760 L 3735,1800 L 3695,1800 Z" /><path d="M 3565,1760 L 3605,1760 L 3605,1800 L 3565,1800 Z" /><path d="M 3435,1760 L 3475,1760 L 3475,1800 L 3435,1800 Z" /><path d="M 4865,1435 L 4905,1435 L 4905,1475 L 4865,1475 Z" /><path d="M 4735,1435 L 4775,1435 L 4775,1475 L 4735,1475 Z" /><path d="M 4345,635 L 4385,635 L 4385,675 L 4345,675 Z" /><path d="M 4345,435 L 4385,435 L 4385,475 L 4345,475 Z" /><path d="M 4345,1435 L 4385,1435 L 4385,1475 L 4345,1475 Z" /><path d="M 3825,1485 L 3865,1485 L 3865,1525 L 3825,1525 Z" /><path d="M 3695,1485 L 3735,1485 L 3735,1525 L 3695,1525 Z" /><path d="M 5905,1485 L 5945,1485 L 5945,1525 L 5905,1525 Z" /><path d="M 3695,635 L 3735,635 L 3735,675 L 3695,675 Z" /><path d="M 3695,435 L 3735,435 L 3735,475 L 3695,475 Z" /><path d="M 4475,635 L 4515,635 L 4515,675 L 4475,675 Z" /><path d="M 4475,435 L 4515,435 L 4515,475 L 4475,475 Z" /><path d="M 4085,635 L 4125,635 L 4125,675 L 4085,675 Z" /><path d="M 4085,435 L 4125,435 L 4125,475 L 4085,475 Z" /><path d="M 4865,635 L 4905,635 L 4905,675 L 4865,675 Z" /><path d="M 4865,435 L 4905,435 L 4905,475 L 4865,475 Z" /><path d="M 3435,485 L 3475,485 L 3475,525 L 3435,525 Z" /><path d="M 5645,485 L 5685,485 L 5685,525 L 5645,525 Z" /><path d="M 6165,485 L 6205,485 L 6205,525 L 6165,525 Z" /><path d="M 4085,1485 L 4125,1485 L 4125,1525 L 4085,1525 Z" /><path d="M 3955,1485 L 3995,1485 L 3995,1525 L 3955,1525 Z" /><path d="M 3565,1485 L 3605,1485 L 3605,1525 L 3565,1525 Z" /><path d="M 3435,1485 L 3475,1485 L 3475,1525 L 3435,1525 Z" /><path d="M 6035,1485 L 6075,1485 L 6075,1525 L 6035,1525 Z" /><path d="M 6165,1485 L 6205,1485 L 6205,1525 L 6165,1525 Z" /><path d="M 5775,1485 L 5815,1485 L 5815,1525 L 5775,1525 Z" /><path d="M 5645,1485 L 5685,1485 L 5685,1525 L 5645,1525 Z" /><path d="M 4605,1435 L 4645,1435 L 4645,1475 L 4605,1475 Z" /><path d="M 4475,1435 L 4515,1435 L 4515,1475 L 4475,1475 Z" /><path d="M 5255,1485 L 5295,1485 L 5295,1525 L 5255,1525 Z" /><path d="M 5125,1485 L 5165,1485 L 5165,1525 L 5125,1525 Z" /><path d="M 5125,485 L 5165,485 L 5165,525 L 5125,525 Z" /><path d="M 5255,485 L 5295,485 L 5295,525 L 5255,525 Z" /><path d="M 5905,485 L 5945,485 L 5945,525 L 5905,525 Z" /><path d="M 3890,1185 L 3930,1185 L 3930,1225 L 3890,1225 Z" /><path d="M 4410,1185 L 4450,1185 L 4450,1225 L 4410,1225 Z" /><path d="M 5840,1185 L 5880,1185 L 5880,1225 L 5840,1225 Z" /><path d="M 3760,1085 L 3800,1085 L 3800,1125 L 3760,1125 Z" /><path d="M 4020,1085 L 4060,1085 L 4060,1125 L 4020,1125 Z" /><path d="M 4800,1085 L 4840,1085 L 4840,1125 L 4800,1125 Z" /><path d="M 6100,1085 L 6140,1085 L 6140,1125 L 6100,1125 Z" /><path d="M 3500,985 L 3540,985 L 3540,1025 L 3500,1025 Z" /><path d="M 4540,985 L 4580,985 L 4580,1025 L 4540,1025 Z" /><path d="M 5840,985 L 5880,985 L 5880,1025 L 5840,1025 Z" /><path d="M 3630,885 L 3670,885 L 3670,925 L 3630,925 Z" /><path d="M 4670,885 L 4710,885 L 4710,925 L 4670,925 Z" /><path d="M 5710,885 L 5750,885 L 5750,925 L 5710,925 Z" /><path d="M 5190,770 L 5230,770 L 5230,810 L 5190,810 Z" /><path d="M 5970,770 L 6010,770 L 6010,810 L 5970,810 Z" /><path d="M 6100,660 L 6140,660 L 6140,700 L 6100,700 Z" /><path d="M 3305,160 L 3305,200 L 3345,200 L 3345,160 Z" /><path d="M 3175,160 L 3215,160 L 3215,200 L 3175,200 Z" /><path d="M 3045,160 L 3085,160 L 3085,200 L 3045,200 Z" /><path d="M 2915,160 L 2955,160 L 2955,200 L 2915,200 Z" /><path d="M 2785,160 L 2825,160 L 2825,200 L 2785,200 Z" /><path d="M 2655,160 L 2695,160 L 2695,200 L 2655,200 Z" /><path d="M 2525,160 L 2565,160 L 2565,200 L 2525,200 Z" /><path d="M 2395,160 L 2435,160 L 2435,200 L 2395,200 Z" /><path d="M 2265,160 L 2305,160 L 2305,200 L 2265,200 Z" /><path d="M 2135,160 L 2175,160 L 2175,200 L 2135,200 Z" /><path d="M 2005,160 L 2045,160 L 2045,200 L 2005,200 Z" /><path d="M 1875,160 L 1915,160 L 1915,200 L 1875,200 Z" /><path d="M 1745,160 L 1785,160 L 1785,200 L 1745,200 Z" /><path d="M 1615,160 L 1655,160 L 1655,200 L 1615,200 Z" /><path d="M 1485,160 L 1525,160 L 1525,200 L 1485,200 Z" /><path d="M 1355,160 L 1395,160 L 1395,200 L 1355,200 Z" /><path d="M 1225,160 L 1265,160 L 1265,200 L 1225,200 Z" /><path d="M 1095,160 L 1135,160 L 1135,200 L 1095,200 Z" /><path d="M 965,160 L 1005,160 L 1005,200 L 965,200 Z" /><path d="M 835,160 L 875,160 L 875,200 L 835,200 Z" /><path d="M 705,160 L 745,160 L 745,200 L 705,200 Z" /><path d="M 575,160 L 615,160 L 615,200 L 575,200 Z" /><path d="M 445,160 L 485,160 L 485,200 L 445,200 Z" /><path d="M 315,160 L 355,160 L 355,200 L 315,200 Z" /><path d="M 3305,1760 L 3305,1800 L 3345,1800 L 3345,1760 Z" /><path d="M 3175,1760 L 3215,1760 L 3215,1800 L 3175,1800 Z" /><path d="M 3045,1760 L 3085,1760 L 3085,1800 L 3045,1800 Z" /><path d="M 2915,1760 L 2955,1760 L 2955,1800 L 2915,1800 Z" /><path d="M 2785,1760 L 2825,1760 L 2825,1800 L 2785,1800 Z" /><path d="M 2655,1760 L 2695,1760 L 2695,1800 L 2655,1800 Z" /><path d="M 2525,1760 L 2565,1760 L 2565,1800 L 2525,1800 Z" /><path d="M 2395,1760 L 2435,1760 L 2435,1800 L 2395,1800 Z" /><path d="M 2265,1760 L 2305,1760 L 2305,1800 L 2265,1800 Z" /><path d="M 2135,1760 L 2175,1760 L 2175,1800 L 2135,1800 Z" /><path d="M 2005,1760 L 2045,1760 L 2045,1800 L 2005,1800 Z" /><path d="M 1875,1760 L 1915,1760 L 1915,1800 L 1875,1800 Z" /><path d="M 1745,1760 L 1785,1760 L 1785,1800 L 1745,1800 Z" /><path d="M 1615,1760 L 1655,1760 L 1655,1800 L 1615,1800 Z" /><path d="M 1485,1760 L 1525,1760 L 1525,1800 L 1485,1800 Z" /><path d="M 1355,1760 L 1395,1760 L 1395,1800 L 1355,1800 Z" /><path d="M 1225,1760 L 1265,1760 L 1265,1800 L 1225,1800 Z" /><path d="M 1095,1760 L 1135,1760 L 1135,1800 L 1095,1800 Z" /><path d="M 965,1760 L 1005,1760 L 1005,1800 L 965,1800 Z" /><path d="M 835,1760 L 875,1760 L 875,1800 L 835,1800 Z" /><path d="M 705,1760 L 745,1760 L 745,1800 L 705,1800 Z" /><path d="M 575,1760 L 615,1760 L 615,1800 L 575,1800 Z" /><path d="M 445,1760 L 485,1760 L 485,1800 L 445,1800 Z" /><path d="M 315,1760 L 355,1760 L 355,1800 L 315,1800 Z" /><path d="M 1875,1435 L 1915,1435 L 1915,1475 L 1875,1475 Z" /><path d="M 1745,1435 L 1785,1435 L 1785,1475 L 1745,1475 Z" /><path d="M 1355,635 L 1395,635 L 1395,675 L 1355,675 Z" /><path d="M 1355,435 L 1395,435 L 1395,475 L 1355,475 Z" /><path d="M 1355,1435 L 1395,1435 L 1395,1475 L 1355,1475 Z" /><path d="M 835,1485 L 875,1485 L 875,1525 L 835,1525 Z" /><path d="M 705,1485 L 745,1485 L 745,1525 L 705,1525 Z" /><path d="M 2915,1485 L 2955,1485 L 2955,1525 L 2915,1525 Z" /><path d="M 705,635 L 745,635 L 745,675 L 705,675 Z" /><path d="M 705,435 L 745,435 L 745,475 L 705,475 Z" /><path d="M 1485,635 L 1525,635 L 1525,675 L 1485,675 Z" /><path d="M 1485,435 L 1525,435 L 1525,475 L 1485,475 Z" /><path d="M 1095,635 L 1135,635 L 1135,675 L 1095,675 Z" /><path d="M 1095,435 L 1135,435 L 1135,475 L 1095,475 Z" /><path d="M 1875,635 L 1915,635 L 1915,675 L 1875,675 Z" /><path d="M 1875,435 L 1915,435 L 1915,475 L 1875,475 Z" /><path d="M 445,485 L 485,485 L 485,525 L 445,525 Z" /><path d="M 2655,485 L 2695,485 L 2695,525 L 2655,525 Z" /><path d="M 3175,485 L 3215,485 L 3215,525 L 3175,525 Z" /><path d="M 1095,1485 L 1135,1485 L 1135,1525 L 1095,1525 Z" /><path d="M 965,1485 L 1005,1485 L 1005,1525 L 965,1525 Z" /><path d="M 575,1485 L 615,1485 L 615,1525 L 575,1525 Z" /><path d="M 445,1485 L 485,1485 L 485,1525 L 445,1525 Z" /><path d="M 3045,1485 L 3085,1485 L 3085,1525 L 3045,1525 Z" /><path d="M 3175,1485 L 3215,1485 L 3215,1525 L 3175,1525 Z" /><path d="M 2785,1485 L 2825,1485 L 2825,1525 L 2785,1525 Z" /><path d="M 2655,1485 L 2695,1485 L 2695,1525 L 2655,1525 Z" /><path d="M 1615,1435 L 1655,1435 L 1655,1475 L 1615,1475 Z" /><path d="M 1485,1435 L 1525,1435 L 1525,1475 L 1485,1475 Z" /><path d="M 2265,1485 L 2305,1485 L 2305,1525 L 2265,1525 Z" /><path d="M 2135,1485 L 2175,1485 L 2175,1525 L 2135,1525 Z" /><path d="M 2135,485 L 2175,485 L 2175,525 L 2135,525 Z" /><path d="M 2265,485 L 2305,485 L 2305,525 L 2265,525 Z" /><path d="M 2915,485 L 2955,485 L 2955,525 L 2915,525 Z" /><path d="M 900,1185 L 940,1185 L 940,1225 L 900,1225 Z" /><path d="M 1420,1185 L 1460,1185 L 1460,1225 L 1420,1225 Z" /><path d="M 2850,1185 L 2890,1185 L 2890,1225 L 2850,1225 Z" /><path d="M 770,1085 L 810,1085 L 810,1125 L 770,1125 Z" /><path d="M 1030,1085 L 1070,1085 L 1070,1125 L 1030,1125 Z" /><path d="M 1810,1085 L 1850,1085 L 1850,1125 L 1810,1125 Z" /><path d="M 3110,1085 L 3150,1085 L 3150,1125 L 3110,1125 Z" /><path d="M 510,985 L 550,985 L 550,1025 L 510,1025 Z" /><path d="M 1550,985 L 1590,985 L 1590,1025 L 1550,1025 Z" /><path d="M 2850,985 L 2890,985 L 2890,1025 L 2850,1025 Z" /><path d="M 640,885 L 680,885 L 680,925 L 640,925 Z" /><path d="M 1680,885 L 1720,885 L 1720,925 L 1680,925 Z" /><path d="M 2720,885 L 2760,885 L 2760,925 L 2720,925 Z" /><path d="M 2200,770 L 2240,770 L 2240,810 L 2200,810 Z" /><path d="M 2980,770 L 3020,770 L 3020,810 L 2980,810 Z" /><path d="M 3110,660 L 3150,660 L 3150,700 L 3110,700 Z" /><path d="M 7270,785 L 7310,785 L 7310,825 L 7270,825 Z" /><path d="M 8050,785 L 8090,785 L 8090,825 L 8050,825 Z" /><path d="M 7790,985 L 7830,985 L 7830,1025 L 7790,1025 Z" /><path d="M 7920,1085 L 7960,1085 L 7960,1125 L 7920,1125 Z" /><path d="M 8180,885 L 8220,885 L 8220,925 L 8180,925 Z" /><path d="M 7400,1185 L 7440,1185 L 7440,1225 L 7400,1225 Z" /><path d="M 7010,885 L 7050,885 L 7050,925 L 7010,925 Z" /><path d="M 6620,885 L 6660,885 L 6660,925 L 6620,925 Z" /><path d="M 7140,985 L 7180,985 L 7180,1025 L 7140,1025 Z" /><path d="M 6490,985 L 6530,985 L 6530,1025 L 6490,1025 Z" /></g></g><g id="M1"><g class="l31d0"><path d="M 4730,1500 L 4730,1505 L 4730,1565 L 4520,1565 L 4520,1505 L 4520,1500 L 4520,1405 L 4470,1405 L 4470,1500 L 4470,1505 L 4470,1565 L 4470,1615 L 4520,1615 L 4730,1615 L 4780,1615 L 4780,1565 L 4780,1505 L 4780,1500 L 4780,1405 L 4730,1405 Z" /><path d="M 6080,1455 L 6080,1230 L 6080,1180 L 6030,1180 L 5900,1180 L 5860,1180 L 5820,1180 L 5820,1230 L 5860,1230 L 5900,1230 L 6030,1230 L 6030,1455 L 6030,1555 L 6080,1555 Z" /><path d="M 4780,1080 L 4080,1080 L 4040,1080 L 4000,1080 L 4000,1130 L 4080,1130 L 4080,1129 L 4780,1129 L 4780,1130 L 4860,1130 L 4860,1080 L 4820,1080 Z" /><path d="M 6080,655 L 5690,655 L 5690,555 L 5690,455 L 5640,455 L 5640,555 L 5640,655 L 5640,705 L 5690,705 L 6080,705 L 6120,705 L 6160,705 L 6160,655 L 6120,655 Z" /><path d="M 6160,365 L 6160,450 L 6160,455 L 6160,555 L 6160,560 L 6160,595 L 6210,595 L 6210,560 L 6210,555 L 6210,455 L 6210,450 L 6210,365 Z" /><path d="M 5120,390 L 5120,450 L 5120,455 L 5120,555 L 5120,560 L 5120,620 L 5170,620 L 5170,560 L 5170,555 L 5170,455 L 5170,450 L 5170,390 Z" /><path d="M 3430,390 L 3430,450 L 3430,455 L 3430,555 L 3430,560 L 3430,620 L 3480,620 L 3480,560 L 3480,555 L 3480,455 L 3480,450 L 3480,390 Z" /><path d="M 5145,980 L 5090,980 L 4600,980 L 4560,980 L 4520,980 L 3560,980 L 3520,980 L 3480,980 L 3480,1030 L 3520,1030 L 3560,1030 L 4520,1030 L 4560,1030 L 4600,1030 L 5090,1030 L 5145,1030 L 5150,1030 L 5150,1345 L 5150,1395 L 5200,1395 L 5250,1395 L 5250,1455 L 5250,1555 L 5300,1555 L 5300,1455 L 5300,1395 L 5300,1345 L 5250,1345 L 5200,1345 L 5200,1030 L 5200,980 L 5150,980 Z" /><path d="M 4909,705 L 4910,705 L 4910,405 L 4860,405 L 4860,705 L 4860,765 L 4810,765 L 4700,765 L 4389,765 L 4389,705 L 4390,705 L 4390,405 L 4340,405 L 4340,705 L 4340,765 L 4340,815 L 4389,815 L 4700,815 L 4810,815 L 4860,815 L 4909,815 L 5170,815 L 5210,815 L 5250,815 L 5950,815 L 5990,815 L 6030,815 L 6030,765 L 5990,765 L 5950,765 L 5250,765 L 5210,765 L 5170,765 L 4909,765 Z" /><path d="M 4909,1405 L 4909,1345 L 4909,1295 L 4860,1295 L 4810,1295 L 4700,1295 L 4649,1295 L 4600,1295 L 4600,1345 L 4600,1405 L 4600,1505 L 4650,1505 L 4650,1405 L 4649,1405 L 4649,1345 L 4700,1345 L 4810,1345 L 4860,1345 L 4860,1405 L 4860,1505 L 4910,1505 L 4910,1405 Z" /><path d="M 3610,880 L 3610,930 L 3650,930 L 3690,930 L 3920,930 L 4030,930 L 4080,930 L 4129,930 L 4650,930 L 4690,930 L 4730,930 L 5690,930 L 5730,930 L 5770,930 L 5770,880 L 5730,880 L 5690,880 L 4730,880 L 4690,880 L 4650,880 L 4129,880 L 4129,705 L 4130,705 L 4130,405 L 4080,405 L 4080,705 L 4080,880 L 4030,880 L 3920,880 L 3690,880 L 3650,880 Z" /><path d="M 4129,1455 L 4129,1395 L 4129,1345 L 4080,1345 L 4030,1345 L 3920,1345 L 3870,1345 L 3820,1345 L 3820,1395 L 3820,1455 L 3820,1555 L 3870,1555 L 3870,1455 L 3870,1395 L 3920,1395 L 4030,1395 L 4080,1395 L 4080,1455 L 4080,1555 L 4130,1555 L 4130,1455 Z" /><path d="M 3870,1230 L 3910,1230 L 3950,1230 L 3950,1180 L 3910,1180 L 3870,1180 L 3610,1180 L 3560,1180 L 3510,1180 L 3455,1180 L 3400,1180 L 3400,1230 L 3455,1230 L 3510,1230 L 3560,1230 L 3560,1455 L 3560,1555 L 3610,1555 L 3610,1455 L 3610,1230 Z" /><path d="M 1740,1500 L 1740,1505 L 1740,1565 L 1530,1565 L 1530,1505 L 1530,1500 L 1530,1405 L 1480,1405 L 1480,1500 L 1480,1505 L 1480,1565 L 1480,1615 L 1530,1615 L 1740,1615 L 1790,1615 L 1790,1565 L 1790,1505 L 1790,1500 L 1790,1405 L 1740,1405 Z" /><path d="M 7510,405 L 7510,229 L 7980,229 L 7980,455 L 7980,555 L 8029,555 L 8029,455 L 8030,455 L 8030,229 L 8465,229 L 8465,130 L 6385,130 L 6245,130 L 3395,130 L 3255,130 L 265,130 L 265,230 L 700,230 L 700,405 L 700,705 L 750,705 L 750,405 L 750,230 L 1480,230 L 1480,405 L 1480,705 L 1530,705 L 1530,405 L 1530,230 L 2260,230 L 2260,455 L 2260,555 L 2310,555 L 2310,455 L 2310,230 L 2910,230 L 2910,455 L 2910,555 L 2960,555 L 2960,455 L 2960,230 L 3255,230 L 3395,230 L 3690,230 L 3690,405 L 3690,705 L 3740,705 L 3740,405 L 3740,230 L 4470,230 L 4470,405 L 4470,705 L 4520,705 L 4520,405 L 4520,230 L 5250,230 L 5250,455 L 5250,555 L 5300,555 L 5300,455 L 5300,230 L 5900,230 L 5900,455 L 5900,555 L 5950,555 L 5950,455 L 5950,230 L 6385,230 L 6385,229 L 6680,229 L 6680,455 L 6680,555 L 6730,555 L 6730,455 L 6730,229 L 6939,229 L 6939,405 L 6940,405 L 6940,505 L 6990,505 L 6990,405 L 6990,229 L 7200,229 L 7200,405 L 7200,505 L 7250,505 L 7250,405 L 7250,229 L 7460,229 L 7460,405 L 7460,505 L 7510,505 Z" /><path d="M 7720,1455 L 7720,1555 L 7720,1730 L 7250,1730 L 7250,1505 L 7250,1405 L 7200,1405 L 7200,1505 L 7200,1730 L 6730,1730 L 6730,1555 L 6730,1455 L 6680,1455 L 6680,1555 L 6680,1730 L 6470,1730 L 6470,1555 L 6470,1455 L 6420,1455 L 6420,1555 L 6420,1730 L 6385,1730 L 6245,1730 L 6210,1730 L 6210,1555 L 6210,1455 L 6160,1455 L 6160,1555 L 6160,1730 L 5950,1730 L 5950,1555 L 5950,1455 L 5900,1455 L 5900,1555 L 5900,1730 L 5690,1730 L 5690,1555 L 5690,1455 L 5640,1455 L 5640,1555 L 5640,1730 L 5170,1730 L 5170,1555 L 5170,1455 L 5120,1455 L 5120,1555 L 5120,1730 L 4389,1730 L 4389,1505 L 4390,1505 L 4390,1405 L 4340,1405 L 4340,1505 L 4340,1730 L 4000,1730 L 4000,1555 L 4000,1455 L 3950,1455 L 3950,1555 L 3950,1730 L 3740,1730 L 3740,1555 L 3740,1455 L 3690,1455 L 3690,1555 L 3690,1730 L 3480,1730 L 3480,1555 L 3480,1455 L 3430,1455 L 3430,1555 L 3430,1730 L 3395,1730 L 3255,1730 L 3220,1730 L 3220,1555 L 3220,1455 L 3170,1455 L 3170,1555 L 3170,1730 L 2960,1730 L 2960,1555 L 2960,1455 L 2910,1455 L 2910,1555 L 2910,1730 L 2700,1730 L 2700,1555 L 2700,1455 L 2650,1455 L 2650,1555 L 2650,1730 L 2180,1730 L 2180,1555 L 2180,1455 L 2130,1455 L 2130,1555 L 2130,1730 L 1399,1730 L 1399,1505 L 1400,1505 L 1400,1405 L 1350,1405 L 1350,1505 L 1350,1730 L 1010,1730 L 1010,1555 L 1010,1455 L 960,1455 L 960,1555 L 960,1730 L 750,1730 L 750,1555 L 750,1455 L 700,1455 L 700,1555 L 700,1730 L 490,1730 L 490,1555 L 490,1455 L 440,1455 L 440,1555 L 440,1730 L 265,1730 L 265,1830 L 3255,1830 L 3395,1830 L 6245,1830 L 6385,1830 L 8465,1830 L 8465,1730 L 8290,1730 L 8290,1555 L 8290,1455 L 8240,1455 L 8240,1555 L 8240,1730 L 8030,1730 L 8030,1555 L 8029,1555 L 8029,1455 L 7980,1455 L 7980,1555 L 7980,1730 L 7770,1730 L 7770,1555 L 7770,1455 Z" /><path d="M 1325,1180 L 1325,1230 L 1400,1230 L 1480,1230 L 1555,1230 L 1555,1180 L 1480,1180 L 1400,1180 Z" /><path d="M 3090,1455 L 3090,1230 L 3090,1180 L 3040,1180 L 2910,1180 L 2870,1180 L 2830,1180 L 2830,1230 L 2870,1230 L 2910,1230 L 3040,1230 L 3040,1455 L 3040,1555 L 3090,1555 Z" /><path d="M 675,1080 L 675,1130 L 750,1130 L 830,1130 L 905,1130 L 905,1080 L 830,1080 L 750,1080 Z" /><path d="M 1790,1080 L 1090,1080 L 1050,1080 L 1010,1080 L 1010,1130 L 1090,1130 L 1090,1129 L 1790,1129 L 1790,1130 L 1870,1130 L 1870,1080 L 1830,1080 Z" /><path d="M 3090,655 L 2700,655 L 2700,555 L 2700,455 L 2650,455 L 2650,555 L 2650,655 L 2650,705 L 2700,705 L 3090,705 L 3130,705 L 3170,705 L 3170,655 L 3130,655 Z" /><path d="M 3170,365 L 3170,450 L 3170,455 L 3170,555 L 3170,560 L 3170,595 L 3220,595 L 3220,560 L 3220,555 L 3220,455 L 3220,450 L 3220,365 Z" /><path d="M 2130,390 L 2130,450 L 2130,455 L 2130,555 L 2130,560 L 2130,620 L 2180,620 L 2180,560 L 2180,555 L 2180,455 L 2180,450 L 2180,390 Z" /><path d="M 440,390 L 440,450 L 440,455 L 440,555 L 440,560 L 440,620 L 490,620 L 490,560 L 490,555 L 490,455 L 490,450 L 490,390 Z" /><path d="M 3140,1030 L 3195,1030 L 3250,1030 L 3250,980 L 3195,980 L 3140,980 L 2910,980 L 2870,980 L 2830,980 L 2830,1030 L 2870,1030 L 2910,1030 Z" /><path d="M 2155,980 L 2100,980 L 1610,980 L 1570,980 L 1530,980 L 570,980 L 530,980 L 490,980 L 490,1030 L 530,1030 L 570,1030 L 1530,1030 L 1570,1030 L 1610,1030 L 2100,1030 L 2155,1030 L 2160,1030 L 2160,1345 L 2160,1395 L 2210,1395 L 2260,1395 L 2260,1455 L 2260,1555 L 2310,1555 L 2310,1455 L 2310,1395 L 2310,1345 L 2260,1345 L 2210,1345 L 2210,1030 L 2210,980 L 2160,980 Z" /><path d="M 1919,705 L 1920,705 L 1920,405 L 1870,405 L 1870,705 L 1870,765 L 1820,765 L 1710,765 L 1399,765 L 1399,705 L 1400,705 L 1400,405 L 1350,405 L 1350,705 L 1350,765 L 1350,815 L 1399,815 L 1710,815 L 1820,815 L 1870,815 L 1919,815 L 2180,815 L 2220,815 L 2260,815 L 2960,815 L 3000,815 L 3040,815 L 3040,765 L 3000,765 L 2960,765 L 2260,765 L 2220,765 L 2180,765 L 1919,765 Z" /><path d="M 1919,1405 L 1919,1345 L 1919,1295 L 1870,1295 L 1820,1295 L 1710,1295 L 1659,1295 L 1610,1295 L 1610,1345 L 1610,1405 L 1610,1505 L 1660,1505 L 1660,1405 L 1659,1405 L 1659,1345 L 1710,1345 L 1820,1345 L 1870,1345 L 1870,1405 L 1870,1505 L 1920,1505 L 1920,1405 Z" /><path d="M 620,880 L 620,930 L 660,930 L 700,930 L 930,930 L 1040,930 L 1090,930 L 1139,930 L 1660,930 L 1700,930 L 1740,930 L 2700,930 L 2740,930 L 2780,930 L 2780,880 L 2740,880 L 2700,880 L 1740,880 L 1700,880 L 1660,880 L 1139,880 L 1139,705 L 1140,705 L 1140,405 L 1090,405 L 1090,705 L 1090,880 L 1040,880 L 930,880 L 700,880 L 660,880 Z" /><path d="M 1139,1455 L 1139,1395 L 1139,1345 L 1090,1345 L 1040,1345 L 930,1345 L 880,1345 L 830,1345 L 830,1395 L 830,1455 L 830,1555 L 880,1555 L 880,1455 L 880,1395 L 930,1395 L 1040,1395 L 1090,1395 L 1090,1455 L 1090,1555 L 1140,1555 L 1140,1455 Z" /><path d="M 880,1230 L 920,1230 L 960,1230 L 960,1180 L 920,1180 L 880,1180 L 620,1180 L 570,1180 L 520,1180 L 465,1180 L 410,1180 L 410,1230 L 465,1230 L 520,1230 L 570,1230 L 570,1455 L 570,1555 L 620,1555 L 620,1455 L 620,1230 Z" /><path d="M 3040,1080 L 2750,1080 L 2700,1080 L 2700,1129 L 2700,1290 L 2700,1339 L 2750,1339 L 2780,1339 L 2780,1455 L 2780,1555 L 2830,1555 L 2830,1455 L 2830,1339 L 2830,1290 L 2780,1290 L 2750,1290 L 2750,1129 L 3040,1129 L 3040,1130 L 3090,1130 L 3150,1130 L 3170,1130 L 3170,1080 L 3150,1080 L 3110,1080 L 3090,1080 Z" /><path d="M 3665,1130 L 3725,1130 L 3740,1130 L 3820,1130 L 3835,1130 L 3895,1130 L 3895,1080 L 3835,1080 L 3820,1080 L 3740,1080 L 3725,1080 L 3665,1080 Z" /><path d="M 4315,1230 L 4375,1230 L 4390,1230 L 4470,1230 L 4485,1230 L 4545,1230 L 4545,1180 L 4485,1180 L 4470,1180 L 4390,1180 L 4375,1180 L 4315,1180 Z" /><path d="M 7900,1450 L 7900,1390 L 7850,1390 L 7850,1450 L 7850,1455 L 7850,1555 L 7850,1560 L 7850,1620 L 7900,1620 L 7900,1560 L 7900,1555 L 7900,1455 Z" /><path d="M 8109,1390 L 8109,1455 L 8109,1555 L 8109,1620 L 8160,1620 L 8160,1560 L 8160,1555 L 8160,1455 L 8160,1450 L 8160,1390 Z" /><path d="M 8240,390 L 8240,450 L 8240,455 L 8240,555 L 8240,560 L 8240,620 L 8290,620 L 8290,560 L 8290,555 L 8290,455 L 8290,450 L 8290,390 Z" /><path d="M 7770,450 L 7770,390 L 7720,390 L 7720,450 L 7720,455 L 7720,555 L 7720,560 L 7720,620 L 7770,620 L 7770,560 L 7770,555 L 7770,455 Z" /><path d="M 7460,1340 L 7460,1400 L 7460,1405 L 7460,1505 L 7460,1510 L 7460,1570 L 7510,1570 L 7510,1510 L 7510,1505 L 7510,1405 L 7510,1400 L 7510,1340 Z" /><path d="M 7330,340 L 7330,400 L 7330,405 L 7330,505 L 7330,510 L 7330,570 L 7380,570 L 7380,510 L 7380,505 L 7380,405 L 7380,400 L 7380,340 Z" /><path d="M 7120,400 L 7120,340 L 7070,340 L 7070,400 L 7070,405 L 7070,505 L 7070,510 L 7070,570 L 7120,570 L 7120,510 L 7120,505 L 7120,405 Z" /><path d="M 6990,1400 L 6990,1340 L 6940,1340 L 6940,1400 L 6940,1405 L 6940,1505 L 6940,1510 L 6940,1570 L 6990,1570 L 6990,1510 L 6990,1505 L 6990,1405 Z" /><path d="M 6550,1390 L 6550,1450 L 6550,1455 L 6550,1555 L 6550,1560 L 6550,1620 L 6600,1620 L 6600,1560 L 6600,1555 L 6600,1455 L 6600,1450 L 6600,1390 Z" /><path d="M 6420,390 L 6420,450 L 6420,455 L 6420,555 L 6420,560 L 6420,620 L 6470,620 L 6470,560 L 6470,555 L 6470,455 L 6470,450 L 6470,390 Z" /><path d="M 7175,780 L 7175,830 L 7250,830 L 7330,830 L 7405,830 L 7405,780 L 7330,780 L 7250,780 Z" /><path d="M 7955,780 L 7955,830 L 8030,830 L 8110,830 L 8185,830 L 8185,780 L 8110,780 L 8030,780 Z" /><path d="M 7650,1030 L 7655,1030 L 7765,1030 L 7770,1030 L 7850,1030 L 7880,1030 L 7880,980 L 7850,980 L 7770,980 L 7765,980 L 7655,980 L 7650,980 Z" /><path d="M 7900,1080 L 6160,1080 L 6145,1080 L 6100,1080 L 6080,1080 L 5740,1080 L 5690,1080 L 5690,1129 L 5690,1290 L 5690,1339 L 5740,1339 L 5770,1339 L 5770,1455 L 5770,1555 L 5820,1555 L 5820,1455 L 5820,1339 L 5820,1290 L 5770,1290 L 5740,1290 L 5740,1129 L 6080,1129 L 6080,1130 L 6145,1130 L 6160,1130 L 7900,1130 L 7940,1130 L 7980,1130 L 7980,1080 L 7940,1080 Z" /><path d="M 8160,880 L 7930,880 L 7875,880 L 7820,880 L 7820,930 L 7875,930 L 7930,930 L 8160,930 L 8200,930 L 8240,930 L 8240,880 L 8200,880 Z" /><path d="M 7380,1180 L 7150,1180 L 7095,1180 L 7040,1180 L 7040,1230 L 7095,1230 L 7150,1230 L 7380,1230 L 7420,1230 L 7460,1230 L 7460,1180 L 7420,1180 Z" /><path d="M 6680,930 L 6730,930 L 6990,930 L 7030,930 L 7070,930 L 7070,880 L 7030,880 L 6990,880 L 6730,880 L 6680,880 L 6640,880 L 6620,880 L 6600,880 L 6600,930 L 6620,930 L 6640,930 Z" /><path d="M 7160,1030 L 7200,1030 L 7200,980 L 7160,980 L 7120,980 L 6550,980 L 6510,980 L 6470,980 L 6240,980 L 6185,980 L 6130,980 L 5900,980 L 5860,980 L 5820,980 L 5820,1030 L 5860,1030 L 5900,1030 L 6130,1030 L 6185,1030 L 6240,1030 L 6470,1030 L 6510,1030 L 6550,1030 L 7120,1030 Z" /></g></g><g id="VIA1"><g class="l51d0"><path d="M 6160,480 L 6210,480 L 6210,530 L 6160,530 Z" /><path d="M 5120,480 L 5170,480 L 5170,530 L 5120,530 Z" /><path d="M 3430,480 L 3480,480 L 3480,530 L 3430,530 Z" /><path d="M 6160,980 L 6210,980 L 6210,1030 L 6160,1030 Z" /><path d="M 5120,980 L 5170,980 L 5170,1030 L 5120,1030 Z" /><path d="M 4730,765 L 4780,765 L 4780,815 L 4730,815 Z" /><path d="M 4730,1295 L 4780,1295 L 4780,1345 L 4730,1345 Z" /><path d="M 3950,880 L 4000,880 L 4000,930 L 3950,930 Z" /><path d="M 3950,1345 L 4000,1345 L 4000,1395 L 3950,1395 Z" /><path d="M 3430,1180 L 3480,1180 L 3480,1230 L 3430,1230 Z" /><path d="M 3170,480 L 3220,480 L 3220,530 L 3170,530 Z" /><path d="M 2130,480 L 2180,480 L 2180,530 L 2130,530 Z" /><path d="M 440,480 L 490,480 L 490,530 L 440,530 Z" /><path d="M 3170,980 L 3220,980 L 3220,1030 L 3170,1030 Z" /><path d="M 2130,980 L 2180,980 L 2180,1030 L 2130,1030 Z" /><path d="M 1740,765 L 1790,765 L 1790,815 L 1740,815 Z" /><path d="M 1740,1295 L 1790,1295 L 1790,1345 L 1740,1345 Z" /><path d="M 960,880 L 1010,880 L 1010,930 L 960,930 Z" /><path d="M 960,1345 L 1010,1345 L 1010,1395 L 960,1395 Z" /><path d="M 440,1180 L 490,1180 L 490,1230 L 440,1230 Z" /><path d="M 3070,1080 L 3120,1080 L 3120,1130 L 3070,1130 Z" /><path d="M 6650,880 L 6700,880 L 6700,930 L 6650,930 Z" /><path d="M 7850,880 L 7900,880 L 7900,930 L 7850,930 Z" /><path d="M 7070,1180 L 7120,1180 L 7120,1230 L 7070,1230 Z" /><path d="M 3755,1080 L 3805,1080 L 3805,1130 L 3755,1130 Z" /><path d="M 7685,980 L 7735,980 L 7735,1030 L 7685,1030 Z" /><path d="M 4405,1180 L 4455,1180 L 4455,1230 L 4405,1230 Z" /><path d="M 7850,1480 L 7900,1480 L 7900,1530 L 7850,1530 Z" /><path d="M 8110,1480 L 8160,1480 L 8160,1530 L 8110,1530 Z" /><path d="M 8240,480 L 8290,480 L 8290,530 L 8240,530 Z" /><path d="M 7720,480 L 7770,480 L 7770,530 L 7720,530 Z" /><path d="M 7460,1430 L 7510,1430 L 7510,1480 L 7460,1480 Z" /><path d="M 7330,430 L 7380,430 L 7380,480 L 7330,480 Z" /><path d="M 7070,430 L 7120,430 L 7120,480 L 7070,480 Z" /><path d="M 6940,1430 L 6990,1430 L 6990,1480 L 6940,1480 Z" /><path d="M 6550,1480 L 6600,1480 L 6600,1530 L 6550,1530 Z" /><path d="M 6420,480 L 6470,480 L 6470,530 L 6420,530 Z" /></g></g><g id="M2"><g class="l32d0"><path d="M 6210,950 L 6210,560 L 6210,505 L 6210,450 L 6160,450 L 6160,505 L 6160,560 L 6160,950 L 6160,1005 L 6160,1060 L 6210,1060 L 6210,1005 Z" /><path d="M 5170,950 L 5170,560 L 5170,505 L 5170,450 L 5120,450 L 5120,505 L 5120,560 L 5120,950 L 5120,1005 L 5120,1060 L 5170,1060 L 5170,1005 Z" /><path d="M 4730,1265 L 4730,1320 L 4730,1375 L 4780,1375 L 4780,1320 L 4780,1265 L 4780,845 L 4780,790 L 4780,735 L 4730,735 L 4730,790 L 4730,845 Z" /><path d="M 4000,1315 L 4000,960 L 4000,905 L 4000,850 L 3950,850 L 3950,905 L 3950,960 L 3950,1315 L 3950,1370 L 3950,1425 L 4000,1425 L 4000,1370 Z" /><path d="M 3480,1150 L 3480,560 L 3480,505 L 3480,450 L 3430,450 L 3430,505 L 3430,560 L 3430,1150 L 3430,1205 L 3430,1260 L 3480,1260 L 3480,1205 Z" /><path d="M 2180,950 L 2180,560 L 2180,505 L 2180,450 L 2130,450 L 2130,505 L 2130,560 L 2130,950 L 2130,1005 L 2130,1060 L 2180,1060 L 2180,1005 Z" /><path d="M 1740,1265 L 1740,1320 L 1740,1375 L 1790,1375 L 1790,1320 L 1790,1265 L 1790,845 L 1790,790 L 1790,735 L 1740,735 L 1740,790 L 1740,845 Z" /><path d="M 1010,1315 L 1010,960 L 1010,905 L 1010,850 L 960,850 L 960,905 L 960,960 L 960,1315 L 960,1370 L 960,1425 L 1010,1425 L 1010,1370 Z" /><path d="M 490,1150 L 490,560 L 490,505 L 490,450 L 440,450 L 440,505 L 440,560 L 440,1150 L 440,1205 L 440,1260 L 490,1260 L 490,1205 Z" /><path d="M 3220,560 L 3220,505 L 3220,450 L 3170,450 L 3170,505 L 3170,560 L 3170,950 L 3170,1005 L 3170,1060 L 3220,1060 L 3220,1005 L 3220,950 Z" /><path d="M 3120,1050 L 3120,860 L 3120,805 L 3120,750 L 3070,750 L 3070,805 L 3070,860 L 3070,1050 L 3070,1105 L 3070,1160 L 3120,1160 L 3120,1105 Z" /><path d="M 6700,715 L 6650,715 L 6650,750 L 6650,850 L 6650,860 L 6650,960 L 6650,995 L 6700,995 L 6700,960 L 6700,860 L 6700,850 L 6700,750 Z" /><path d="M 3805,965 L 3755,965 L 3755,1050 L 3755,1160 L 3755,1245 L 3805,1245 L 3805,1160 L 3805,1050 Z" /><path d="M 7735,865 L 7685,865 L 7685,950 L 7685,1060 L 7685,1145 L 7735,1145 L 7735,1060 L 7735,950 Z" /><path d="M 4455,1065 L 4405,1065 L 4405,1150 L 4405,1260 L 4405,1345 L 4455,1345 L 4455,1260 L 4455,1150 Z" /><path d="M 8110,1560 L 8160,1560 L 8160,1505 L 8160,1450 L 8160,1260 L 8160,1150 L 8160,670 L 8240,670 L 8290,670 L 8290,620 L 8290,560 L 8290,505 L 8290,450 L 8240,450 L 8240,505 L 8240,560 L 8240,620 L 8160,620 L 8109,620 L 8109,670 L 8109,1505 L 8110,1505 Z" /><path d="M 7720,560 L 7720,620 L 7720,670 L 7770,670 L 7850,670 L 7850,850 L 7850,960 L 7850,1450 L 7850,1505 L 7850,1560 L 7900,1560 L 7900,1505 L 7900,1450 L 7900,960 L 7900,850 L 7900,670 L 7900,620 L 7850,620 L 7770,620 L 7770,560 L 7770,505 L 7770,450 L 7720,450 L 7720,505 Z" /><path d="M 7330,1290 L 7330,1339 L 7380,1339 L 7460,1339 L 7460,1400 L 7460,1455 L 7460,1510 L 7510,1510 L 7510,1455 L 7510,1400 L 7510,1339 L 7510,1290 L 7460,1290 L 7380,1290 L 7380,1160 L 7380,1050 L 7380,510 L 7380,455 L 7380,400 L 7330,400 L 7330,455 L 7330,510 L 7330,1050 L 7330,1160 Z" /><path d="M 6939,1339 L 6939,1455 L 6940,1455 L 6940,1510 L 6990,1510 L 6990,1455 L 6990,1400 L 6990,1339 L 7069,1339 L 7120,1339 L 7120,1290 L 7120,1260 L 7120,1150 L 7120,510 L 7120,455 L 7120,400 L 7070,400 L 7070,455 L 7069,455 L 7069,1290 L 6990,1290 L 6939,1290 Z" /><path d="M 6550,620 L 6470,620 L 6470,560 L 6470,505 L 6470,450 L 6420,450 L 6420,505 L 6420,560 L 6420,620 L 6420,670 L 6470,670 L 6550,670 L 6550,1450 L 6550,1505 L 6550,1560 L 6600,1560 L 6600,1505 L 6600,1450 L 6600,670 L 6600,620 Z" /></g></g><g id="VIA2"><g class="l52d0"><path d="M 7330,1080 L 7380,1080 L 7380,1130 L 7330,1130 Z" /><path d="M 3755,1080 L 3805,1080 L 3805,1130 L 3755,1130 Z" /><path d="M 3070,780 L 3120,780 L 3120,830 L 3070,830 Z" /><path d="M 6650,780 L 6700,780 L 6700,830 L 6650,830 Z" /><path d="M 7685,980 L 7735,980 L 7735,1030 L 7685,1030 Z" /><path d="M 3170,980 L 3220,980 L 3220,1030 L 3170,1030 Z" /><path d="M 8110,1180 L 8160,1180 L 8160,1230 L 8110,1230 Z" /><path d="M 4405,1180 L 4455,1180 L 4455,1230 L 4405,1230 Z" /></g></g><g id="M3"><g class="l33d0"><path d="M 3835,1080 L 3780,1080 L 3725,1080 L 3725,1130 L 3780,1130 L 3835,1130 L 7300,1130 L 7355,1130 L 7410,1130 L 7410,1080 L 7355,1080 L 7300,1080 Z" /><path d="M 6620,830 L 6675,830 L 6730,830 L 6730,780 L 6675,780 L 6620,780 L 3150,780 L 3095,780 L 3040,780 L 3040,830 L 3095,830 L 3150,830 Z" /><path d="M 3250,980 L 3195,980 L 3140,980 L 3140,1030 L 3195,1030 L 3250,1030 L 7655,1030 L 7710,1030 L 7765,1030 L 7765,980 L 7710,980 L 7655,980 Z" /><path d="M 4485,1180 L 4430,1180 L 4375,1180 L 4375,1230 L 4430,1230 L 4485,1230 L 8080,1230 L 8135,1230 L 8190,1230 L 8190,1180 L 8135,1180 L 8080,1180 Z" /></g></g></g></svg>