<svg width="1460" height="1810" viewBox="225 -1935 1460 1810" xmlns="http://www.w3.org/2000/svg" xmlns:xlink="http://www.w3.org/1999/xlink"><defs><style type="text/css">.l3d0 {fill: #fef9e7; fill-opacity: 0.5; stroke-width: 10; stroke: #f1c40f; stroke-linecap: round; stroke-linejoin: round; stroke-opacity: 0.2;}.l25d0 {fill: #8e44ad; fill-opacity: 0.05; stroke-width: 10; stroke: #8e44ad; stroke-linecap: round; stroke-linejoin: round; stroke-opacity: 1;}.l26d0 {fill: #ccd1d1; fill-opacity: 0.05; stroke-width: 10; stroke: #ccd1d1; stroke-linecap: round; stroke-linejoin: round; stroke-opacity: 1;}.l6d0 {fill: #f5b7b1; fill-opacity: 1; stroke-width: 10; stroke: #e74c3c; stroke-linecap: round; stroke-linejoin: round; stroke-opacity: 1;}.l17d0 {fill: #2980b9; fill-opacity: 1; stroke-width: 0; stroke: #000000; stroke-linecap: round; stroke-linejoin: round; stroke-opacity: 0;}.l17d7 {fill: #2980b9; fill-opacity: 1; stroke-width: 0; stroke: #000000; stroke-linecap: round; stroke-linejoin: round; stroke-opacity: 0;}.l30d0 {fill: #27ae60; fill-opacity: 1; stroke-width: 0; stroke: #000000; stroke-linecap: round; stroke-linejoin: round; stroke-opacity: 0;}.l31d0 {fill: #85c1e9; fill-opacity: 0.6; stroke-width: 0; stroke: #000000; stroke-linecap: round; stroke-linejoin: round; stroke-opacity: 0;}.l51d0 {fill: #f39c12; fill-opacity: 1; stroke-width: 10; stroke: #f39c12; stroke-linecap: round; stroke-linejoin: round; stroke-opacity: 1;}.l32d0 {fill: #f7dc6f; fill-opacity: 0.6; stroke-width: 0; stroke: #000000; stroke-linecap: round; stroke-linejoin: round; stroke-opacity: 0;}path {fill-rule: evenodd;}</style></defs><g transform="scale(1 -1)"><g id="NW"><g class="l3d0"><path d="M 230,1010 L 230,1690 L 230,1930 L 1680,1930 L 1680,1690 L 1680,1010 Z" /></g></g><g id="PP"><g class="l25d0"><path d="M 720,1730 L 800,1730 L 1500,1730 L 1640,1730 L 1640,1010 L 270,1010 L 270,1730 L 410,1730 Z" /><path d="M 270,130 L 270,290 L 1640,290 L 1640,130 Z" /></g></g><g id="NP"><g class="l26d0"><path d="M 410,290 L 270,290 L 270,1010 L 1640,1010 L 1640,290 L 1500,290 L 800,290 L 720,290 Z" /><path d="M 270,1730 L 270,1890 L 1640,1890 L 1640,1730 Z" /></g></g><g id="OD"><g class="l6d0"><path d="M 1230,1585 L 1330,1585 L 1360,1585 L 1435,1585 L 1435,1385 L 1360,1385 L 1330,1385 L 1230,1385 L 1200,1385 L 1100,1385 L 1070,1385 L 970,1385 L 940,1385 L 865,1385 L 865,1585 L 940,1585 L 970,1585 L 1070,1585 L 1100,1585 L 1200,1585 Z" /><path d="M 1230,635 L 1330,635 L 1360,635 L 1435,635 L 1435,435 L 1360,435 L 1330,435 L 1230,435 L 1200,435 L 1100,435 L 1070,435 L 970,435 L 940,435 L 865,435 L 865,635 L 940,635 L 970,635 L 1070,635 L 1100,635 L 1200,635 Z" /><path d="M 550,535 L 580,535 L 655,535 L 655,435 L 580,435 L 550,435 L 475,435 L 475,535 Z" /><path d="M 550,1585 L 580,1585 L 655,1585 L 655,1485 L 580,1485 L 550,1485 L 475,1485 L 475,1585 Z" /><path d="M 300,159 L 300,260 L 1610,260 L 1610,159 Z" /><path d="M 300,1760 L 300,1860 L 1610,1860 L 1610,1760 Z" /></g></g><g id="PO"><g class="l17d0"><path d="M 1330,635 L 1330,715 L 1330,1095 L 1330,1175 L 1330,1305 L 1330,1385 L 1330,1585 L 1330,1665 L 1360,1665 L 1360,1585 L 1360,1385 L 1360,1305 L 1359,1305 L 1359,1175 L 1360,1175 L 1360,1095 L 1359,1095 L 1359,715 L 1360,715 L 1360,635 L 1360,435 L 1360,355 L 1330,355 L 1330,435 Z" /><path d="M 1200,635 L 1200,715 L 1200,1095 L 1200,1175 L 1200,1305 L 1200,1385 L 1200,1585 L 1200,1665 L 1230,1665 L 1230,1585 L 1230,1385 L 1230,1305 L 1230,1175 L 1230,1095 L 1230,715 L 1230,635 L 1230,435 L 1230,355 L 1200,355 L 1200,435 Z" /><path d="M 1070,635 L 1070,715 L 1070,1095 L 1070,1175 L 1070,1305 L 1070,1385 L 1070,1585 L 1070,1665 L 1100,1665 L 1100,1585 L 1100,1385 L 1100,1305 L 1099,1305 L 1099,1175 L 1100,1175 L 1100,1095 L 1099,1095 L 1099,715 L 1100,715 L 1100,635 L 1100,435 L 1100,355 L 1070,355 L 1070,435 Z" /><path d="M 940,635 L 940,715 L 940,1095 L 940,1175 L 940,1305 L 940,1385 L 940,1585 L 940,1665 L 970,1665 L 970,1585 L 970,1385 L 970,1305 L 970,1175 L 970,1095 L 970,715 L 970,635 L 970,435 L 970,355 L 940,355 L 940,435 Z" /><path d="M 550,1585 L 550,1665 L 580,1665 L 580,1585 L 580,1485 L 580,1405 L 580,1075 L 580,995 L 580,615 L 580,535 L 580,435 L 580,355 L 550,355 L 550,435 L 550,535 L 550,615 L 550,995 L 550,1075 L 550,1405 L 550,1485 Z" /></g><g class="l17d7"><path d="M 1590,1290 L 1620,1290 L 1620,1680 L 1590,1680 Z" /><path d="M 1460,1290 L 1490,1290 L 1490,1680 L 1460,1680 Z" /><path d="M 1590,340 L 1620,340 L 1620,730 L 1590,730 Z" /><path d="M 1460,340 L 1490,340 L 1490,730 L 1460,730 Z" /><path d="M 840,340 L 840,290 L 810,290 L 810,340 L 810,680 L 810,730 L 840,730 L 840,680 Z" /><path d="M 710,340 L 710,290 L 680,290 L 680,340 L 680,680 L 680,730 L 710,730 L 710,680 Z" /><path d="M 290,290 L 320,290 L 320,680 L 290,680 Z" /><path d="M 420,290 L 450,290 L 450,680 L 420,680 Z" /><path d="M 840,1290 L 810,1290 L 810,1340 L 810,1680 L 810,1730 L 840,1730 L 840,1680 L 840,1340 Z" /><path d="M 710,1290 L 680,1290 L 680,1340 L 680,1680 L 680,1730 L 710,1730 L 710,1680 L 710,1340 Z" /><path d="M 290,1340 L 320,1340 L 320,1730 L 290,1730 Z" /><path d="M 420,1340 L 450,1340 L 450,1730 L 420,1730 Z" /></g></g><g id="CO"><g class="l30d0"><path d="M 1520,190 L 1560,190 L 1560,230 L 1520,230 Z" /><path d="M 1390,190 L 1430,190 L 1430,230 L 1390,230 Z" /><path d="M 1260,190 L 1300,190 L 1300,230 L 1260,230 Z" /><path d="M 1130,190 L 1170,190 L 1170,230 L 1130,230 Z" /><path d="M 1000,190 L 1040,190 L 1040,230 L 1000,230 Z" /><path d="M 870,190 L 910,190 L 910,230 L 870,230 Z" /><path d="M 740,190 L 780,190 L 780,230 L 740,230 Z" /><path d="M 610,190 L 650,190 L 650,230 L 610,230 Z" /><path d="M 480,190 L 520,190 L 520,230 L 480,230 Z" /><path d="M 350,190 L 390,190 L 390,230 L 350,230 Z" /><path d="M 1520,1790 L 1560,1790 L 1560,1830 L 1520,1830 Z" /><path d="M 1390,1790 L 1430,1790 L 1430,1830 L 1390,1830 Z" /><path d="M 1260,1790 L 1300,1790 L 1300,1830 L 1260,1830 Z" /><path d="M 1130,1790 L 1170,1790 L 1170,1830 L 1130,1830 Z" /><path d="M 1000,1790 L 1040,1790 L 1040,1830 L 1000,1830 Z" /><path d="M 870,1790 L 910,1790 L 910,1830 L 870,1830 Z" /><path d="M 740,1790 L 780,1790 L 780,1830 L 740,1830 Z" /><path d="M 610,1790 L 650,1790 L 650,1830 L 610,1830 Z" /><path d="M 480,1790 L 520,1790 L 520,1830 L 480,1830 Z" /><path d="M 350,1790 L 390,1790 L 390,1830 L 350,1830 Z" /><path d="M 1390,1465 L 1430,1465 L 1430,1505 L 1390,1505 Z" /><path d="M 1260,1465 L 1300,1465 L 1300,1505 L 1260,1505 Z" /><path d="M 1130,1465 L 1170,1465 L 1170,1505 L 1130,1505 Z" /><path d="M 1000,1465 L 1040,1465 L 1040,1505 L 1000,1505 Z" /><path d="M 870,1465 L 910,1465 L 910,1505 L 870,1505 Z" /><path d="M 1390,515 L 1430,515 L 1430,555 L 1390,555 Z" /><path d="M 1260,515 L 1300,515 L 1300,555 L 1260,555 Z" /><path d="M 1130,515 L 1170,515 L 1170,555 L 1130,555 Z" /><path d="M 1000,515 L 1040,515 L 1040,555 L 1000,555 Z" /><path d="M 870,515 L 910,515 L 910,555 L 870,555 Z" /><path d="M 610,465 L 650,465 L 650,505 L 610,505 Z" /><path d="M 480,465 L 520,465 L 520,505 L 480,505 Z" /><path d="M 610,1515 L 650,1515 L 650,1555 L 610,1555 Z" /><path d="M 480,1515 L 520,1515 L 520,1555 L 480,1555 Z" /><path d="M 1325,1115 L 1365,1115 L 1365,1155 L 1325,1155 Z" /><path d="M 1195,1115 L 1235,1115 L 1235,1155 L 1195,1155 Z" /><path d="M 1065,1115 L 1105,1115 L 1105,1155 L 1065,1155 Z" /><path d="M 935,1115 L 975,1115 L 975,1155 L 935,1155 Z" /><path d="M 545,1015 L 585,1015 L 585,1055 L 545,1055 Z" /></g></g><g id="M1"><g class="l31d0"><path d="M 525,535 L 525,435 L 525,260 L 865,260 L 865,485 L 865,585 L 915,585 L 915,485 L 915,260 L 1125,260 L 1125,485 L 1125,585 L 1175,585 L 1175,485 L 1175,260 L 1385,260 L 1385,485 L 1385,585 L 1435,585 L 1435,485 L 1434,485 L 1434,260 L 1610,260 L 1610,159 L 300,159 L 300,260 L 475,260 L 475,435 L 475,535 Z" /><path d="M 475,1485 L 475,1585 L 475,1760 L 300,1760 L 300,1860 L 1610,1860 L 1610,1760 L 1434,1760 L 1434,1535 L 1435,1535 L 1435,1435 L 1385,1435 L 1385,1535 L 1385,1760 L 1175,1760 L 1175,1535 L 1175,1525 L 1175,1435 L 1125,1435 L 1125,1525 L 1125,1535 L 1125,1760 L 915,1760 L 915,1535 L 915,1435 L 865,1435 L 865,1535 L 865,1760 L 525,1760 L 525,1585 L 525,1485 Z" /><path d="M 1255,420 L 1255,480 L 1255,485 L 1255,585 L 1255,590 L 1255,650 L 1305,650 L 1305,590 L 1305,585 L 1305,485 L 1305,480 L 1305,420 Z" /><path d="M 995,420 L 995,480 L 995,485 L 995,585 L 995,590 L 995,650 L 1045,650 L 1045,590 L 1045,585 L 1045,485 L 1045,480 L 1045,420 Z" /><path d="M 605,370 L 605,430 L 605,435 L 605,535 L 605,540 L 605,600 L 655,600 L 655,540 L 655,535 L 655,435 L 655,430 L 655,370 Z" /><path d="M 605,1420 L 605,1480 L 605,1485 L 605,1585 L 605,1590 L 605,1650 L 655,1650 L 655,1590 L 655,1585 L 655,1485 L 655,1480 L 655,1420 Z" /><path d="M 995,1370 L 995,1430 L 995,1435 L 995,1535 L 995,1540 L 995,1600 L 1045,1600 L 1045,1540 L 1045,1535 L 1045,1435 L 1045,1430 L 1045,1370 Z" /><path d="M 1255,1370 L 1255,1430 L 1255,1435 L 1255,1535 L 1255,1540 L 1255,1600 L 1305,1600 L 1305,1540 L 1305,1535 L 1305,1435 L 1305,1430 L 1305,1370 Z" /><path d="M 1075,1010 L 1020,1010 L 965,1010 L 965,1060 L 1075,1060 L 1075,1059 L 1225,1059 L 1225,1060 L 1335,1060 L 1335,1010 L 1280,1010 L 1225,1010 Z" /><path d="M 1345,1160 L 1385,1160 L 1385,1110 L 1345,1110 L 1305,1110 L 1255,1110 L 1215,1110 L 1175,1110 L 1125,1110 L 1085,1110 L 1045,1110 L 995,1110 L 955,1110 L 915,1110 L 685,1110 L 630,1110 L 575,1110 L 575,1160 L 630,1160 L 685,1160 L 915,1160 L 955,1160 L 995,1160 L 1045,1160 L 1085,1160 L 1125,1160 L 1175,1160 L 1215,1160 L 1255,1160 L 1305,1160 Z" /><path d="M 450,1010 L 450,1060 L 525,1060 L 605,1060 L 680,1060 L 680,1010 L 605,1010 L 525,1010 Z" /></g></g><g id="VIA1"><g class="l51d0"><path d="M 1255,510 L 1305,510 L 1305,560 L 1255,560 Z" /><path d="M 995,510 L 1045,510 L 1045,560 L 995,560 Z" /><path d="M 605,460 L 655,460 L 655,510 L 605,510 Z" /><path d="M 605,1510 L 655,1510 L 655,1560 L 605,1560 Z" /><path d="M 995,1460 L 1045,1460 L 1045,1510 L 995,1510 Z" /><path d="M 1255,1460 L 1305,1460 L 1305,1510 L 1255,1510 Z" /><path d="M 605,1110 L 655,1110 L 655,1160 L 605,1160 Z" /><path d="M 1255,1010 L 1305,1010 L 1305,1060 L 1255,1060 Z" /><path d="M 995,1010 L 1045,1010 L 1045,1060 L 995,1060 Z" /></g></g><g id="M2"><g class="l32d0"><path d="M 655,1190 L 655,1080 L 655,540 L 655,485 L 655,430 L 605,430 L 605,485 L 605,540 L 605,1080 L 605,1190 L 605,1480 L 605,1535 L 605,1590 L 655,1590 L 655,1535 L 655,1480 Z" /><path d="M 1305,1090 L 1305,980 L 1305,590 L 1305,535 L 1305,480 L 1255,480 L 1255,535 L 1255,590 L 1255,980 L 1255,1090 L 1255,1430 L 1255,1485 L 1255,1540 L 1305,1540 L 1305,1485 L 1305,1430 Z" /><path d="M 995,1485 L 995,1540 L 1045,1540 L 1045,1485 L 1045,1430 L 1045,1090 L 1045,980 L 1045,590 L 1045,535 L 1045,480 L 995,480 L 995,535 L 995,590 L 995,980 L 995,1090 L 995,1430 Z" /></g></g></g></svg>