<svg width="4320" height="1810" viewBox="225 -1920 4320 1810" xmlns="http://www.w3.org/2000/svg" xmlns:xlink="http://www.w3.org/1999/xlink"><defs><style type="text/css">.l3d0 {fill: #fef9e7; fill-opacity: 0.5; stroke-width: 10; stroke: #f1c40f; stroke-linecap: round; stroke-linejoin: round; stroke-opacity: 0.2;}.l25d0 {fill: #8e44ad; fill-opacity: 0.05; stroke-width: 10; stroke: #8e44ad; stroke-linecap: round; stroke-linejoin: round; stroke-opacity: 1;}.l26d0 {fill: #ccd1d1; fill-opacity: 0.05; stroke-width: 10; stroke: #ccd1d1; stroke-linecap: round; stroke-linejoin: round; stroke-opacity: 1;}.l6d0 {fill: #f5b7b1; fill-opacity: 1; stroke-width: 10; stroke: #e74c3c; stroke-linecap: round; stroke-linejoin: round; stroke-opacity: 1;}.l17d0 {fill: #2980b9; fill-opacity: 1; stroke-width: 0; stroke: #000000; stroke-linecap: round; stroke-linejoin: round; stroke-opacity: 0;}.l17d7 {fill: #2980b9; fill-opacity: 1; stroke-width: 0; stroke: #000000; stroke-linecap: round; stroke-linejoin: round; stroke-opacity: 0;}.l30d0 {fill: #27ae60; fill-opacity: 1; stroke-width: 0; stroke: #000000; stroke-linecap: round; stroke-linejoin: round; stroke-opacity: 0;}.l31d0 {fill: #85c1e9; fill-opacity: 0.6; stroke-width: 0; stroke: #000000; stroke-linecap: round; stroke-linejoin: round; stroke-opacity: 0;}.l51d0 {fill: #f39c12; fill-opacity: 1; stroke-width: 10; stroke: #f39c12; stroke-linecap: round; stroke-linejoin: round; stroke-opacity: 1;}.l32d0 {fill: #f7dc6f; fill-opacity: 0.6; stroke-width: 0; stroke: #000000; stroke-linecap: round; stroke-linejoin: round; stroke-opacity: 0;}path {fill-rule: evenodd;}</style></defs><g transform="scale(1 -1)"><g id="NW"><g class="l3d0"><path d="M 3500,1915 L 4540,1915 L 4540,1674 L 4540,995 L 3500,995 L 230,995 L 230,1675 L 230,1915 L 3219,1915 Z" /></g></g><g id="PP"><g class="l25d0"><path d="M 4205,1715 L 4360,1715 L 4500,1715 L 4500,995 L 3460,995 L 270,995 L 270,1715 L 410,1715 L 590,1715 L 670,1715 L 720,1715 L 800,1715 L 930,1715 L 1060,1715 L 1240,1715 L 1320,1715 L 1450,1715 L 1580,1715 L 1710,1715 L 1840,1715 L 2020,1715 L 2100,1715 L 2410,1715 L 2620,1715 L 2800,1715 L 2880,1715 L 2930,1715 L 3010,1715 L 3140,1715 L 3320,1715 L 3400,1715 L 3460,1715 L 3580,1715 L 3710,1715 L 3840,1715 L 3920,1715 L 4075,1715 Z" /><path d="M 3460,275 L 4500,275 L 4500,115 L 3460,115 L 3260,115 L 270,115 L 270,275 L 3260,275 Z" /></g></g><g id="NP"><g class="l26d0"><path d="M 4500,995 L 4500,275 L 4360,275 L 4180,275 L 4050,275 L 3920,275 L 3840,275 L 3685,275 L 3555,275 L 3460,275 L 3400,275 L 3320,275 L 3165,275 L 3035,275 L 3010,275 L 2905,275 L 2880,275 L 2775,275 L 2620,275 L 2410,275 L 2100,275 L 2020,275 L 1865,275 L 1735,275 L 1605,275 L 1580,275 L 1450,275 L 1320,275 L 1240,275 L 1085,275 L 955,275 L 825,275 L 800,275 L 695,275 L 670,275 L 565,275 L 410,275 L 270,275 L 270,995 L 3460,995 Z" /><path d="M 3260,1715 L 270,1715 L 270,1875 L 3260,1875 L 3460,1875 L 4500,1875 L 4500,1714 L 3260,1714 Z" /></g></g><g id="OD"><g class="l6d0"><path d="M 4115,420 L 4090,420 L 4060,420 L 3985,420 L 3985,520 L 4060,520 L 4090,520 L 4115,520 L 4190,520 L 4220,520 L 4295,520 L 4295,420 L 4220,420 L 4190,420 Z" /><path d="M 3645,1470 L 3570,1470 L 3540,1470 L 3465,1470 L 3465,1570 L 3540,1570 L 3570,1570 L 3645,1570 L 3670,1570 L 3700,1570 L 3775,1570 L 3775,1470 L 3700,1470 L 3670,1470 Z" /><path d="M 3620,420 L 3570,420 L 3540,420 L 3465,420 L 3465,620 L 3540,620 L 3570,620 L 3620,620 L 3670,620 L 3700,620 L 3775,620 L 3775,420 L 3700,420 L 3670,420 Z" /><path d="M 4220,1570 L 4295,1570 L 4295,1370 L 4220,1370 L 4190,1370 L 4140,1370 L 4090,1370 L 4060,1370 L 3985,1370 L 3985,1570 L 4060,1570 L 4090,1570 L 4140,1570 L 4190,1570 Z" /><path d="M 1720,720 L 1750,720 L 1800,720 L 1850,720 L 1880,720 L 1955,720 L 1955,420 L 1880,420 L 1850,420 L 1800,420 L 1750,420 L 1720,420 L 1670,420 L 1620,420 L 1590,420 L 1515,420 L 1490,420 L 1460,420 L 1385,420 L 1385,720 L 1460,720 L 1490,720 L 1515,720 L 1590,720 L 1620,720 L 1670,720 Z" /><path d="M 1020,420 L 970,420 L 940,420 L 890,420 L 840,420 L 810,420 L 735,420 L 710,420 L 680,420 L 630,420 L 580,420 L 550,420 L 475,420 L 475,620 L 550,620 L 580,620 L 630,620 L 680,620 L 710,620 L 735,620 L 735,720 L 810,720 L 840,720 L 890,720 L 940,720 L 970,720 L 1020,720 L 1070,720 L 1100,720 L 1175,720 L 1175,420 L 1100,420 L 1070,420 Z" /><path d="M 550,1570 L 580,1570 L 655,1570 L 680,1570 L 710,1570 L 735,1570 L 810,1570 L 840,1570 L 865,1570 L 940,1570 L 970,1570 L 995,1570 L 1070,1570 L 1100,1570 L 1175,1570 L 1175,1470 L 1100,1470 L 1070,1470 L 995,1470 L 970,1470 L 940,1470 L 865,1470 L 840,1470 L 810,1470 L 735,1470 L 710,1470 L 680,1470 L 655,1470 L 580,1470 L 550,1470 L 475,1470 L 475,1570 Z" /><path d="M 2760,1570 L 2790,1570 L 2865,1570 L 2890,1570 L 2920,1570 L 2945,1570 L 3020,1570 L 3050,1570 L 3075,1570 L 3150,1570 L 3180,1570 L 3255,1570 L 3255,1470 L 3180,1470 L 3150,1470 L 3075,1470 L 3050,1470 L 3020,1470 L 2945,1470 L 2920,1470 L 2890,1470 L 2865,1470 L 2790,1470 L 2760,1470 L 2685,1470 L 2685,1570 Z" /><path d="M 1620,1570 L 1645,1570 L 1720,1570 L 1750,1570 L 1775,1570 L 1850,1570 L 1880,1570 L 1955,1570 L 1955,1370 L 1880,1370 L 1850,1370 L 1775,1370 L 1750,1370 L 1720,1370 L 1645,1370 L 1620,1370 L 1590,1370 L 1515,1370 L 1490,1370 L 1460,1370 L 1385,1370 L 1385,1570 L 1460,1570 L 1490,1570 L 1515,1570 L 1590,1570 Z" /><path d="M 2240,1570 L 2270,1570 L 2345,1570 L 2345,1470 L 2270,1470 L 2240,1470 L 2165,1470 L 2165,1570 Z" /><path d="M 2165,420 L 2165,620 L 2240,620 L 2270,620 L 2345,620 L 2345,420 L 2270,420 L 2240,420 Z" /><path d="M 2685,620 L 2760,620 L 2790,620 L 2840,620 L 2890,620 L 2920,620 L 2945,620 L 3020,620 L 3050,620 L 3100,620 L 3150,620 L 3180,620 L 3255,620 L 3255,420 L 3180,420 L 3150,420 L 3100,420 L 3050,420 L 3020,420 L 2945,420 L 2920,420 L 2890,420 L 2840,420 L 2790,420 L 2760,420 L 2685,420 Z" /><path d="M 3430,245 L 4470,245 L 4470,145 L 3430,145 L 3290,145 L 300,145 L 300,245 L 3290,245 Z" /><path d="M 3290,1745 L 300,1745 L 300,1845 L 3290,1845 L 3430,1845 L 4470,1845 L 4470,1744 L 3290,1744 Z" /></g></g><g id="PO"><g class="l17d0"><path d="M 940,720 L 940,800 L 940,1200 L 940,1240 L 940,1390 L 940,1470 L 940,1570 L 940,1650 L 970,1650 L 970,1570 L 970,1470 L 970,1390 L 970,1240 L 970,1200 L 970,800 L 970,720 L 970,420 L 970,340 L 940,340 L 940,420 Z" /><path d="M 1460,1570 L 1460,1650 L 1490,1650 L 1490,1570 L 1490,1370 L 1490,1290 L 1490,1240 L 1490,1200 L 1490,800 L 1490,720 L 1490,420 L 1490,340 L 1460,340 L 1460,420 L 1460,720 L 1460,800 L 1460,1200 L 1460,1240 L 1460,1290 L 1460,1370 Z" /><path d="M 810,720 L 810,800 L 810,1100 L 810,1140 L 810,1390 L 810,1470 L 810,1570 L 810,1650 L 840,1650 L 840,1570 L 840,1470 L 840,1390 L 840,1140 L 840,1100 L 840,800 L 840,720 L 840,420 L 840,340 L 810,340 L 810,420 Z" /><path d="M 1100,1470 L 1100,1390 L 1100,1140 L 1100,1100 L 1100,800 L 1100,720 L 1100,420 L 1100,340 L 1070,340 L 1070,420 L 1070,720 L 1070,800 L 1070,1100 L 1070,1140 L 1070,1390 L 1070,1470 L 1070,1570 L 1070,1650 L 1100,1650 L 1100,1570 Z" /><path d="M 1850,720 L 1850,800 L 1850,1100 L 1850,1140 L 1850,1290 L 1850,1370 L 1850,1570 L 1850,1650 L 1880,1650 L 1880,1570 L 1880,1370 L 1880,1290 L 1880,1140 L 1880,1100 L 1880,800 L 1880,720 L 1880,420 L 1880,340 L 1850,340 L 1850,420 Z" /><path d="M 550,1570 L 550,1650 L 580,1650 L 580,1570 L 580,1470 L 580,1390 L 580,1040 L 580,1000 L 580,700 L 580,620 L 580,420 L 580,340 L 550,340 L 550,420 L 550,620 L 550,700 L 550,1000 L 550,1040 L 550,1390 L 550,1470 Z" /><path d="M 1590,1570 L 1590,1650 L 1620,1650 L 1620,1570 L 1620,1370 L 1620,1290 L 1620,1040 L 1620,1000 L 1620,800 L 1620,720 L 1620,420 L 1620,340 L 1590,340 L 1590,420 L 1590,720 L 1590,800 L 1590,1000 L 1590,1040 L 1590,1290 L 1590,1370 Z" /><path d="M 2890,700 L 2890,1000 L 2890,1040 L 2890,1200 L 2890,1240 L 2890,1390 L 2890,1470 L 2890,1570 L 2890,1650 L 2920,1650 L 2920,1570 L 2920,1470 L 2920,1390 L 2920,1240 L 2920,1200 L 2920,1040 L 2920,1000 L 2920,700 L 2920,620 L 2920,420 L 2920,340 L 2890,340 L 2890,420 L 2890,620 Z" /><path d="M 680,620 L 680,700 L 680,900 L 680,940 L 680,1390 L 680,1470 L 680,1570 L 680,1650 L 710,1650 L 710,1570 L 710,1470 L 710,1390 L 710,940 L 710,900 L 710,700 L 710,620 L 710,420 L 710,340 L 680,340 L 680,420 Z" /><path d="M 1720,1570 L 1720,1650 L 1750,1650 L 1750,1570 L 1750,1370 L 1750,1290 L 1750,940 L 1750,900 L 1750,800 L 1750,720 L 1750,420 L 1750,340 L 1720,340 L 1720,420 L 1720,720 L 1720,800 L 1720,900 L 1720,940 L 1720,1290 L 1720,1370 Z" /><path d="M 2760,1570 L 2760,1650 L 2790,1650 L 2790,1570 L 2790,1470 L 2790,1390 L 2790,940 L 2790,900 L 2790,700 L 2790,620 L 2790,420 L 2790,340 L 2760,340 L 2760,420 L 2760,620 L 2760,700 L 2760,900 L 2760,940 L 2760,1390 L 2760,1470 Z" /><path d="M 2240,620 L 2240,700 L 2240,785 L 2240,825 L 2240,1390 L 2240,1470 L 2240,1570 L 2240,1650 L 2270,1650 L 2270,1570 L 2270,1470 L 2270,1390 L 2270,825 L 2270,785 L 2270,700 L 2270,620 L 2270,420 L 2270,340 L 2240,340 L 2240,420 Z" /><path d="M 3020,700 L 3020,785 L 3020,825 L 3020,1390 L 3020,1470 L 3020,1570 L 3020,1650 L 3050,1650 L 3050,1570 L 3050,1470 L 3050,1390 L 3050,825 L 3050,785 L 3050,700 L 3050,620 L 3050,420 L 3050,340 L 3020,340 L 3020,420 L 3020,620 Z" /><path d="M 3150,1650 L 3180,1650 L 3180,1570 L 3180,1470 L 3180,1390 L 3180,1140 L 3180,1100 L 3180,715 L 3180,700 L 3180,675 L 3180,620 L 3180,420 L 3180,340 L 3150,340 L 3150,420 L 3150,620 L 3150,675 L 3150,700 L 3150,715 L 3150,1100 L 3150,1140 L 3150,1390 L 3150,1470 L 3150,1570 Z" /><path d="M 4060,1570 L 4060,1650 L 4090,1650 L 4090,1570 L 4090,1370 L 4090,1290 L 4090,1160 L 4090,1080 L 4090,600 L 4090,520 L 4090,420 L 4090,340 L 4060,340 L 4060,420 L 4060,520 L 4060,600 L 4060,1080 L 4060,1160 L 4060,1290 L 4060,1370 Z" /><path d="M 3670,620 L 3670,700 L 3670,880 L 3670,960 L 3670,1390 L 3670,1470 L 3670,1570 L 3670,1650 L 3700,1650 L 3700,1570 L 3700,1470 L 3700,1390 L 3700,960 L 3700,880 L 3700,700 L 3700,620 L 3700,420 L 3700,340 L 3670,340 L 3670,420 Z" /><path d="M 3540,1570 L 3540,1650 L 3570,1650 L 3570,1570 L 3570,1470 L 3570,1390 L 3570,1160 L 3570,1080 L 3570,700 L 3570,620 L 3570,420 L 3570,340 L 3540,340 L 3540,420 L 3540,620 L 3540,700 L 3540,1080 L 3540,1160 L 3540,1390 L 3540,1470 Z" /><path d="M 4190,1570 L 4190,1650 L 4220,1650 L 4220,1570 L 4220,1370 L 4220,1290 L 4220,1060 L 4220,980 L 4220,600 L 4220,520 L 4220,420 L 4220,340 L 4190,340 L 4190,420 L 4190,520 L 4190,600 L 4190,980 L 4190,1060 L 4190,1290 L 4190,1370 Z" /></g><g class="l17d7"><path d="M 4450,275 L 4480,275 L 4480,665 L 4450,665 Z" /><path d="M 4320,275 L 4350,275 L 4350,665 L 4320,665 Z" /><path d="M 3960,1275 L 3930,1275 L 3930,1325 L 3930,1665 L 3930,1715 L 3960,1715 L 3960,1665 L 3960,1325 Z" /><path d="M 3830,1275 L 3800,1275 L 3800,1325 L 3800,1665 L 3800,1715 L 3830,1715 L 3830,1665 L 3830,1325 Z" /><path d="M 3960,275 L 3930,275 L 3930,325 L 3930,665 L 3930,715 L 3960,715 L 3960,665 L 3960,325 Z" /><path d="M 3830,275 L 3800,275 L 3800,325 L 3800,665 L 3800,715 L 3830,715 L 3830,665 L 3830,325 Z" /><path d="M 4450,1275 L 4480,1275 L 4480,1665 L 4450,1665 Z" /><path d="M 4320,1275 L 4350,1275 L 4350,1665 L 4320,1665 Z" /><path d="M 1330,360 L 1330,780 L 1360,780 L 1360,360 Z" /><path d="M 1200,360 L 1200,780 L 1230,780 L 1230,360 Z" /><path d="M 290,325 L 320,325 L 320,715 L 290,715 Z" /><path d="M 420,325 L 450,325 L 450,715 L 420,715 Z" /><path d="M 2630,325 L 2660,325 L 2660,715 L 2630,715 Z" /><path d="M 3410,325 L 3410,715 L 3440,715 L 3440,325 Z" /><path d="M 3280,325 L 3280,715 L 3310,715 L 3310,325 Z" /><path d="M 1360,1275 L 1330,1275 L 1330,1325 L 1330,1665 L 1330,1715 L 1360,1715 L 1360,1665 L 1360,1325 Z" /><path d="M 1230,1275 L 1200,1275 L 1200,1325 L 1200,1665 L 1200,1715 L 1230,1715 L 1230,1665 L 1230,1325 Z" /><path d="M 290,1325 L 320,1325 L 320,1715 L 290,1715 Z" /><path d="M 420,1325 L 450,1325 L 450,1715 L 420,1715 Z" /><path d="M 3410,1325 L 3410,1715 L 3440,1715 L 3440,1325 Z" /><path d="M 3280,1325 L 3280,1715 L 3310,1715 L 3310,1325 Z" /><path d="M 2630,1325 L 2660,1325 L 2660,1715 L 2630,1715 Z" /><path d="M 2500,1325 L 2500,1715 L 2530,1715 L 2530,1325 Z" /><path d="M 2370,1325 L 2400,1325 L 2400,1715 L 2370,1715 Z" /><path d="M 2010,1275 L 1980,1275 L 1980,1325 L 1980,1665 L 1980,1715 L 2010,1715 L 2010,1665 L 2010,1325 Z" /><path d="M 2140,1275 L 2110,1275 L 2110,1325 L 2110,1665 L 2110,1715 L 2140,1715 L 2140,1665 L 2140,1325 Z" /><path d="M 2010,360 L 2010,325 L 1980,325 L 1980,360 L 1980,715 L 1980,780 L 2010,780 L 2010,715 Z" /><path d="M 2140,360 L 2140,325 L 2110,325 L 2110,360 L 2110,715 L 2110,780 L 2140,780 L 2140,715 Z" /><path d="M 2500,325 L 2500,715 L 2530,715 L 2530,325 Z" /><path d="M 2370,325 L 2400,325 L 2400,715 L 2370,715 Z" /></g></g><g id="CO"><g class="l30d0"><path d="M 4250,175 L 4290,175 L 4290,215 L 4250,215 Z" /><path d="M 3990,175 L 4030,175 L 4030,215 L 3990,215 Z" /><path d="M 3470,175 L 3510,175 L 3510,215 L 3470,215 Z" /><path d="M 3600,175 L 3640,175 L 3640,215 L 3600,215 Z" /><path d="M 3730,175 L 3770,175 L 3770,215 L 3730,215 Z" /><path d="M 3860,175 L 3900,175 L 3900,215 L 3860,215 Z" /><path d="M 4120,175 L 4160,175 L 4160,215 L 4120,215 Z" /><path d="M 3990,1775 L 4030,1775 L 4030,1815 L 3990,1815 Z" /><path d="M 4380,175 L 4420,175 L 4420,215 L 4380,215 Z" /><path d="M 3470,1775 L 3510,1775 L 3510,1815 L 3470,1815 Z" /><path d="M 3600,1775 L 3640,1775 L 3640,1815 L 3600,1815 Z" /><path d="M 3730,1775 L 3770,1775 L 3770,1815 L 3730,1815 Z" /><path d="M 3860,1775 L 3900,1775 L 3900,1815 L 3860,1815 Z" /><path d="M 4120,1775 L 4160,1775 L 4160,1815 L 4120,1815 Z" /><path d="M 4250,1775 L 4290,1775 L 4290,1815 L 4250,1815 Z" /><path d="M 4380,1775 L 4420,1775 L 4420,1815 L 4380,1815 Z" /><path d="M 3990,450 L 4030,450 L 4030,490 L 3990,490 Z" /><path d="M 3470,500 L 3510,500 L 3510,540 L 3470,540 Z" /><path d="M 3600,1500 L 3640,1500 L 3640,1540 L 3600,1540 Z" /><path d="M 3470,1500 L 3510,1500 L 3510,1540 L 3470,1540 Z" /><path d="M 3990,1450 L 4030,1450 L 4030,1490 L 3990,1490 Z" /><path d="M 4120,450 L 4160,450 L 4160,490 L 4120,490 Z" /><path d="M 4250,450 L 4290,450 L 4290,490 L 4250,490 Z" /><path d="M 3730,1500 L 3770,1500 L 3770,1540 L 3730,1540 Z" /><path d="M 3730,500 L 3770,500 L 3770,540 L 3730,540 Z" /><path d="M 4250,1450 L 4290,1450 L 4290,1490 L 4250,1490 Z" /><path d="M 3340,175 L 3340,215 L 3380,215 L 3380,175 Z" /><path d="M 3210,175 L 3250,175 L 3250,215 L 3210,215 Z" /><path d="M 3080,175 L 3120,175 L 3120,215 L 3080,215 Z" /><path d="M 2950,175 L 2990,175 L 2990,215 L 2950,215 Z" /><path d="M 2820,175 L 2860,175 L 2860,215 L 2820,215 Z" /><path d="M 2690,175 L 2730,175 L 2730,215 L 2690,215 Z" /><path d="M 2560,175 L 2600,175 L 2600,215 L 2560,215 Z" /><path d="M 2430,175 L 2470,175 L 2470,215 L 2430,215 Z" /><path d="M 2300,175 L 2340,175 L 2340,215 L 2300,215 Z" /><path d="M 2170,175 L 2210,175 L 2210,215 L 2170,215 Z" /><path d="M 2040,175 L 2080,175 L 2080,215 L 2040,215 Z" /><path d="M 1910,175 L 1950,175 L 1950,215 L 1910,215 Z" /><path d="M 1780,175 L 1820,175 L 1820,215 L 1780,215 Z" /><path d="M 1650,175 L 1690,175 L 1690,215 L 1650,215 Z" /><path d="M 1520,175 L 1560,175 L 1560,215 L 1520,215 Z" /><path d="M 1390,175 L 1430,175 L 1430,215 L 1390,215 Z" /><path d="M 1260,175 L 1300,175 L 1300,215 L 1260,215 Z" /><path d="M 1130,175 L 1170,175 L 1170,215 L 1130,215 Z" /><path d="M 1000,175 L 1040,175 L 1040,215 L 1000,215 Z" /><path d="M 870,175 L 910,175 L 910,215 L 870,215 Z" /><path d="M 740,175 L 780,175 L 780,215 L 740,215 Z" /><path d="M 610,175 L 650,175 L 650,215 L 610,215 Z" /><path d="M 480,175 L 520,175 L 520,215 L 480,215 Z" /><path d="M 350,175 L 390,175 L 390,215 L 350,215 Z" /><path d="M 3340,1775 L 3340,1815 L 3380,1815 L 3380,1775 Z" /><path d="M 3210,1775 L 3250,1775 L 3250,1815 L 3210,1815 Z" /><path d="M 3080,1775 L 3120,1775 L 3120,1815 L 3080,1815 Z" /><path d="M 2950,1775 L 2990,1775 L 2990,1815 L 2950,1815 Z" /><path d="M 2820,1775 L 2860,1775 L 2860,1815 L 2820,1815 Z" /><path d="M 2690,1775 L 2730,1775 L 2730,1815 L 2690,1815 Z" /><path d="M 2560,1775 L 2600,1775 L 2600,1815 L 2560,1815 Z" /><path d="M 2430,1775 L 2470,1775 L 2470,1815 L 2430,1815 Z" /><path d="M 2300,1775 L 2340,1775 L 2340,1815 L 2300,1815 Z" /><path d="M 2170,1775 L 2210,1775 L 2210,1815 L 2170,1815 Z" /><path d="M 2040,1775 L 2080,1775 L 2080,1815 L 2040,1815 Z" /><path d="M 1910,1775 L 1950,1775 L 1950,1815 L 1910,1815 Z" /><path d="M 1780,1775 L 1820,1775 L 1820,1815 L 1780,1815 Z" /><path d="M 1650,1775 L 1690,1775 L 1690,1815 L 1650,1815 Z" /><path d="M 1520,1775 L 1560,1775 L 1560,1815 L 1520,1815 Z" /><path d="M 1390,1775 L 1430,1775 L 1430,1815 L 1390,1815 Z" /><path d="M 1260,1775 L 1300,1775 L 1300,1815 L 1260,1815 Z" /><path d="M 1130,1775 L 1170,1775 L 1170,1815 L 1130,1815 Z" /><path d="M 1000,1775 L 1040,1775 L 1040,1815 L 1000,1815 Z" /><path d="M 870,1775 L 910,1775 L 910,1815 L 870,1815 Z" /><path d="M 740,1775 L 780,1775 L 780,1815 L 740,1815 Z" /><path d="M 610,1775 L 650,1775 L 650,1815 L 610,1815 Z" /><path d="M 480,1775 L 520,1775 L 520,1815 L 480,1815 Z" /><path d="M 350,1775 L 390,1775 L 390,1815 L 350,1815 Z" /><path d="M 1910,1450 L 1950,1450 L 1950,1490 L 1910,1490 Z" /><path d="M 1780,1450 L 1820,1450 L 1820,1490 L 1780,1490 Z" /><path d="M 1390,650 L 1430,650 L 1430,690 L 1390,690 Z" /><path d="M 1390,450 L 1430,450 L 1430,490 L 1390,490 Z" /><path d="M 1390,1450 L 1430,1450 L 1430,1490 L 1390,1490 Z" /><path d="M 870,1500 L 910,1500 L 910,1540 L 870,1540 Z" /><path d="M 740,1500 L 780,1500 L 780,1540 L 740,1540 Z" /><path d="M 2950,1500 L 2990,1500 L 2990,1540 L 2950,1540 Z" /><path d="M 740,650 L 780,650 L 780,690 L 740,690 Z" /><path d="M 740,450 L 780,450 L 780,490 L 740,490 Z" /><path d="M 1520,650 L 1560,650 L 1560,690 L 1520,690 Z" /><path d="M 1520,450 L 1560,450 L 1560,490 L 1520,490 Z" /><path d="M 1130,650 L 1170,650 L 1170,690 L 1130,690 Z" /><path d="M 1130,450 L 1170,450 L 1170,490 L 1130,490 Z" /><path d="M 1910,650 L 1950,650 L 1950,690 L 1910,690 Z" /><path d="M 1910,450 L 1950,450 L 1950,490 L 1910,490 Z" /><path d="M 480,500 L 520,500 L 520,540 L 480,540 Z" /><path d="M 2690,500 L 2730,500 L 2730,540 L 2690,540 Z" /><path d="M 3210,500 L 3250,500 L 3250,540 L 3210,540 Z" /><path d="M 1130,1500 L 1170,1500 L 1170,1540 L 1130,1540 Z" /><path d="M 1000,1500 L 1040,1500 L 1040,1540 L 1000,1540 Z" /><path d="M 610,1500 L 650,1500 L 650,1540 L 610,1540 Z" /><path d="M 480,1500 L 520,1500 L 520,1540 L 480,1540 Z" /><path d="M 3080,1500 L 3120,1500 L 3120,1540 L 3080,1540 Z" /><path d="M 3210,1500 L 3250,1500 L 3250,1540 L 3210,1540 Z" /><path d="M 2820,1500 L 2860,1500 L 2860,1540 L 2820,1540 Z" /><path d="M 2690,1500 L 2730,1500 L 2730,1540 L 2690,1540 Z" /><path d="M 1650,1450 L 1690,1450 L 1690,1490 L 1650,1490 Z" /><path d="M 1520,1450 L 1560,1450 L 1560,1490 L 1520,1490 Z" /><path d="M 2300,1500 L 2340,1500 L 2340,1540 L 2300,1540 Z" /><path d="M 2170,1500 L 2210,1500 L 2210,1540 L 2170,1540 Z" /><path d="M 2170,500 L 2210,500 L 2210,540 L 2170,540 Z" /><path d="M 2300,500 L 2340,500 L 2340,540 L 2300,540 Z" /><path d="M 2950,500 L 2990,500 L 2990,540 L 2950,540 Z" /><path d="M 935,1200 L 975,1200 L 975,1240 L 935,1240 Z" /><path d="M 1455,1200 L 1495,1200 L 1495,1240 L 1455,1240 Z" /><path d="M 2885,1200 L 2925,1200 L 2925,1240 L 2885,1240 Z" /><path d="M 805,1100 L 845,1100 L 845,1140 L 805,1140 Z" /><path d="M 1065,1100 L 1105,1100 L 1105,1140 L 1065,1140 Z" /><path d="M 1845,1100 L 1885,1100 L 1885,1140 L 1845,1140 Z" /><path d="M 3145,1100 L 3185,1100 L 3185,1140 L 3145,1140 Z" /><path d="M 545,1000 L 585,1000 L 585,1040 L 545,1040 Z" /><path d="M 1585,1000 L 1625,1000 L 1625,1040 L 1585,1040 Z" /><path d="M 2885,1000 L 2925,1000 L 2925,1040 L 2885,1040 Z" /><path d="M 675,900 L 715,900 L 715,940 L 675,940 Z" /><path d="M 1715,900 L 1755,900 L 1755,940 L 1715,940 Z" /><path d="M 2755,900 L 2795,900 L 2795,940 L 2755,940 Z" /><path d="M 2235,785 L 2275,785 L 2275,825 L 2235,825 Z" /><path d="M 3015,785 L 3055,785 L 3055,825 L 3015,825 Z" /><path d="M 3145,675 L 3185,675 L 3185,715 L 3145,715 Z" /><path d="M 4055,1100 L 4095,1100 L 4095,1140 L 4055,1140 Z" /><path d="M 3665,900 L 3705,900 L 3705,940 L 3665,940 Z" /><path d="M 3535,1100 L 3575,1100 L 3575,1140 L 3535,1140 Z" /><path d="M 4185,1000 L 4225,1000 L 4225,1040 L 4185,1040 Z" /></g></g><g id="M1"><g class="l31d0"><path d="M 1775,1515 L 1775,1520 L 1775,1580 L 1565,1580 L 1565,1520 L 1565,1515 L 1565,1420 L 1515,1420 L 1515,1515 L 1515,1520 L 1515,1580 L 1515,1630 L 1565,1630 L 1775,1630 L 1825,1630 L 1825,1580 L 1825,1520 L 1825,1515 L 1825,1420 L 1775,1420 Z" /><path d="M 3775,470 L 3775,245 L 3985,245 L 3985,420 L 3985,520 L 4035,520 L 4035,420 L 4035,245 L 4245,245 L 4245,420 L 4245,520 L 4295,520 L 4295,420 L 4295,245 L 4470,245 L 4470,145 L 3430,145 L 3290,145 L 300,145 L 300,245 L 735,245 L 735,420 L 735,720 L 785,720 L 785,420 L 785,245 L 1515,245 L 1515,420 L 1515,720 L 1565,720 L 1565,420 L 1565,245 L 2295,245 L 2295,470 L 2295,570 L 2345,570 L 2345,470 L 2345,245 L 2945,245 L 2945,470 L 2945,570 L 2995,570 L 2995,470 L 2995,245 L 3290,245 L 3430,245 L 3725,245 L 3725,470 L 3725,570 L 3775,570 Z" /><path d="M 3465,1570 L 3465,1744 L 3290,1744 L 3290,1745 L 3255,1745 L 3255,1570 L 3255,1470 L 3205,1470 L 3205,1570 L 3205,1745 L 2995,1745 L 2995,1570 L 2995,1470 L 2945,1470 L 2945,1570 L 2945,1745 L 2735,1745 L 2735,1570 L 2735,1470 L 2685,1470 L 2685,1570 L 2685,1745 L 2215,1745 L 2215,1570 L 2215,1470 L 2165,1470 L 2165,1570 L 2165,1745 L 1434,1745 L 1434,1520 L 1435,1520 L 1435,1420 L 1385,1420 L 1385,1520 L 1385,1745 L 1045,1745 L 1045,1570 L 1045,1470 L 995,1470 L 995,1570 L 995,1745 L 785,1745 L 785,1570 L 785,1470 L 735,1470 L 735,1570 L 735,1745 L 525,1745 L 525,1570 L 525,1470 L 475,1470 L 475,1570 L 475,1745 L 300,1745 L 300,1845 L 3290,1845 L 3430,1845 L 4470,1845 L 4470,1744 L 4035,1744 L 4035,1520 L 4035,1420 L 3985,1420 L 3985,1520 L 3985,1744 L 3775,1744 L 3775,1570 L 3775,1470 L 3725,1470 L 3725,1570 L 3725,1744 L 3515,1744 L 3515,1570 L 3515,1470 L 3465,1470 Z" /><path d="M 1360,1195 L 1360,1245 L 1435,1245 L 1515,1245 L 1590,1245 L 1590,1195 L 1515,1195 L 1435,1195 Z" /><path d="M 3125,1470 L 3125,1245 L 3125,1195 L 3075,1195 L 2945,1195 L 2905,1195 L 2865,1195 L 2865,1245 L 2905,1245 L 2945,1245 L 3075,1245 L 3075,1470 L 3075,1570 L 3125,1570 Z" /><path d="M 710,1095 L 710,1145 L 785,1145 L 865,1145 L 940,1145 L 940,1095 L 865,1095 L 785,1095 Z" /><path d="M 1825,1095 L 1125,1095 L 1085,1095 L 1045,1095 L 1045,1145 L 1125,1145 L 1125,1144 L 1825,1144 L 1825,1145 L 1905,1145 L 1905,1095 L 1865,1095 Z" /><path d="M 3125,670 L 2735,670 L 2735,570 L 2735,470 L 2685,470 L 2685,570 L 2685,670 L 2685,720 L 2735,720 L 3125,720 L 3165,720 L 3205,720 L 3205,670 L 3165,670 Z" /><path d="M 3205,380 L 3205,465 L 3205,470 L 3205,570 L 3205,575 L 3205,610 L 3255,610 L 3255,575 L 3255,570 L 3255,470 L 3255,465 L 3255,380 Z" /><path d="M 2165,405 L 2165,465 L 2165,470 L 2165,570 L 2165,575 L 2165,635 L 2215,635 L 2215,575 L 2215,570 L 2215,470 L 2215,465 L 2215,405 Z" /><path d="M 475,405 L 475,465 L 475,470 L 475,570 L 475,575 L 475,635 L 525,635 L 525,575 L 525,570 L 525,470 L 525,465 L 525,405 Z" /><path d="M 2190,995 L 2135,995 L 1645,995 L 1605,995 L 1565,995 L 605,995 L 565,995 L 525,995 L 525,1045 L 565,1045 L 605,1045 L 1565,1045 L 1605,1045 L 1645,1045 L 2135,1045 L 2190,1045 L 2195,1045 L 2195,1360 L 2195,1410 L 2245,1410 L 2295,1410 L 2295,1470 L 2295,1570 L 2345,1570 L 2345,1470 L 2345,1410 L 2345,1360 L 2295,1360 L 2245,1360 L 2245,1045 L 2245,995 L 2195,995 Z" /><path d="M 1954,720 L 1955,720 L 1955,420 L 1905,420 L 1905,720 L 1905,780 L 1855,780 L 1745,780 L 1434,780 L 1434,720 L 1435,720 L 1435,420 L 1385,420 L 1385,720 L 1385,780 L 1385,830 L 1434,830 L 1745,830 L 1855,830 L 1905,830 L 1954,830 L 2215,830 L 2255,830 L 2295,830 L 2995,830 L 3035,830 L 3075,830 L 3075,780 L 3035,780 L 2995,780 L 2295,780 L 2255,780 L 2215,780 L 1954,780 Z" /><path d="M 1954,1420 L 1954,1360 L 1954,1310 L 1905,1310 L 1855,1310 L 1745,1310 L 1694,1310 L 1645,1310 L 1645,1360 L 1645,1420 L 1645,1520 L 1695,1520 L 1695,1420 L 1694,1420 L 1694,1360 L 1745,1360 L 1855,1360 L 1905,1360 L 1905,1420 L 1905,1520 L 1955,1520 L 1955,1420 Z" /><path d="M 655,895 L 655,945 L 695,945 L 735,945 L 965,945 L 1075,945 L 1125,945 L 1174,945 L 1695,945 L 1735,945 L 1775,945 L 2735,945 L 2775,945 L 2815,945 L 2815,895 L 2775,895 L 2735,895 L 1775,895 L 1735,895 L 1695,895 L 1174,895 L 1174,720 L 1175,720 L 1175,420 L 1125,420 L 1125,720 L 1125,895 L 1075,895 L 965,895 L 735,895 L 695,895 Z" /><path d="M 1174,1470 L 1174,1410 L 1174,1360 L 1125,1360 L 1075,1360 L 965,1360 L 915,1360 L 865,1360 L 865,1410 L 865,1470 L 865,1570 L 915,1570 L 915,1470 L 915,1410 L 965,1410 L 1075,1410 L 1125,1410 L 1125,1470 L 1125,1570 L 1175,1570 L 1175,1470 Z" /><path d="M 915,1245 L 955,1245 L 995,1245 L 995,1195 L 955,1195 L 915,1195 L 655,1195 L 605,1195 L 555,1195 L 500,1195 L 445,1195 L 445,1245 L 500,1245 L 555,1245 L 605,1245 L 605,1470 L 605,1570 L 655,1570 L 655,1470 L 655,1245 Z" /><path d="M 4245,1355 L 4245,1415 L 4245,1420 L 4245,1520 L 4245,1525 L 4245,1585 L 4295,1585 L 4295,1525 L 4295,1520 L 4295,1420 L 4295,1415 L 4295,1355 Z" /><path d="M 3465,405 L 3465,465 L 3465,470 L 3465,570 L 3465,575 L 3465,635 L 3515,635 L 3515,575 L 3515,570 L 3515,470 L 3515,465 L 3515,405 Z" /><path d="M 4115,355 L 4115,415 L 4115,420 L 4115,520 L 4115,525 L 4115,585 L 4165,585 L 4165,525 L 4165,520 L 4165,420 L 4165,415 L 4165,355 Z" /><path d="M 3595,1405 L 3595,1465 L 3595,1470 L 3595,1570 L 3595,1575 L 3595,1635 L 3645,1635 L 3645,1575 L 3645,1570 L 3645,1470 L 3645,1465 L 3645,1405 Z" /><path d="M 3960,1095 L 3960,1145 L 4035,1145 L 4115,1145 L 4190,1145 L 4190,1095 L 4115,1095 L 4035,1095 Z" /><path d="M 3570,895 L 3570,945 L 3645,945 L 3725,945 L 3800,945 L 3800,895 L 3725,895 L 3645,895 Z" /><path d="M 3515,1095 L 3205,1095 L 3190,1095 L 3145,1095 L 3125,1095 L 2785,1095 L 2735,1095 L 2735,1144 L 2735,1305 L 2735,1354 L 2785,1354 L 2815,1354 L 2815,1470 L 2815,1570 L 2865,1570 L 2865,1470 L 2865,1354 L 2865,1305 L 2815,1305 L 2785,1305 L 2785,1144 L 3125,1144 L 3125,1145 L 3190,1145 L 3205,1145 L 3515,1145 L 3555,1145 L 3595,1145 L 3595,1095 L 3555,1095 Z" /><path d="M 4165,995 L 3285,995 L 3230,995 L 3175,995 L 2945,995 L 2905,995 L 2865,995 L 2865,1045 L 2905,1045 L 2945,1045 L 3175,1045 L 3230,1045 L 3285,1045 L 4165,1045 L 4205,1045 L 4245,1045 L 4245,995 L 4205,995 Z" /></g></g><g id="VIA1"><g class="l51d0"><path d="M 3205,495 L 3255,495 L 3255,545 L 3205,545 Z" /><path d="M 2165,495 L 2215,495 L 2215,545 L 2165,545 Z" /><path d="M 475,495 L 525,495 L 525,545 L 475,545 Z" /><path d="M 2165,995 L 2215,995 L 2215,1045 L 2165,1045 Z" /><path d="M 1775,780 L 1825,780 L 1825,830 L 1775,830 Z" /><path d="M 1775,1310 L 1825,1310 L 1825,1360 L 1775,1360 Z" /><path d="M 995,895 L 1045,895 L 1045,945 L 995,945 Z" /><path d="M 995,1360 L 1045,1360 L 1045,1410 L 995,1410 Z" /><path d="M 475,1195 L 525,1195 L 525,1245 L 475,1245 Z" /><path d="M 4295,1495 L 4245,1495 L 4245,1445 L 4295,1445 Z" /><path d="M 3465,495 L 3515,495 L 3515,545 L 3465,545 Z" /><path d="M 4165,495 L 4115,495 L 4115,445 L 4165,445 Z" /><path d="M 3595,1495 L 3645,1495 L 3645,1545 L 3595,1545 Z" /><path d="M 3205,995 L 3205,1045 L 3255,1045 L 3255,995 Z" /></g></g><g id="M2"><g class="l32d0"><path d="M 2215,965 L 2215,575 L 2215,520 L 2215,465 L 2165,465 L 2165,520 L 2165,575 L 2165,965 L 2165,1020 L 2165,1075 L 2215,1075 L 2215,1020 Z" /><path d="M 1775,1280 L 1775,1335 L 1775,1390 L 1825,1390 L 1825,1335 L 1825,1280 L 1825,860 L 1825,805 L 1825,750 L 1775,750 L 1775,805 L 1775,860 Z" /><path d="M 1045,1330 L 1045,975 L 1045,920 L 1045,865 L 995,865 L 995,920 L 995,975 L 995,1330 L 995,1385 L 995,1440 L 1045,1440 L 1045,1385 Z" /><path d="M 525,1165 L 525,575 L 525,520 L 525,465 L 475,465 L 475,520 L 475,575 L 475,1165 L 475,1220 L 475,1275 L 525,1275 L 525,1220 Z" /><path d="M 4215,1494 L 4215,1495 L 4325,1495 L 4325,1445 L 4270,1445 L 4215,1445 L 4165,1445 L 4165,525 L 4165,470 L 4165,415 L 4115,415 L 4115,470 L 4114,470 L 4114,1445 L 4114,1494 L 4165,1494 Z" /><path d="M 3545,495 L 3490,495 L 3435,495 L 3435,545 L 3490,545 L 3545,545 L 3595,545 L 3595,1465 L 3595,1520 L 3595,1575 L 3645,1575 L 3645,1520 L 3645,1465 L 3645,545 L 3645,495 L 3595,495 Z" /><path d="M 3255,575 L 3255,520 L 3255,465 L 3205,465 L 3205,520 L 3205,575 L 3205,965 L 3205,1020 L 3205,1075 L 3255,1075 L 3255,1020 L 3255,965 Z" /></g></g></g></svg>